<?xml version="1.0" encoding="utf-8"?>
<!-- Generator: Adobe Illustrator 28.2.0, SVG Export Plug-In . SVG Version: 6.00 Build 0)  -->
<svg version="1.1" id="Layer_1" xmlns="http://www.w3.org/2000/svg" xmlns:xlink="http://www.w3.org/1999/xlink" x="0px" y="0px"
	 viewBox="0 0 1200 800" style="enable-background:new 0 0 1200 800;" xml:space="preserve">
<style type="text/css">
	.st0{fill:#E2E8F0;}
	.st1{fill-rule:evenodd;clip-rule:evenodd;fill:#E2E8F0;}
</style>
<g id="g1865" transform="translate(-1.668 -1.1)">
	<path id="path1857" class="st0" d="M542.4,379c0,3.4,0.4,6.1,1,8c0.7,1.9,1.6,4.1,2.9,6.6c0.5,0.7,0.6,1.5,0.6,2.1
		c0,0.8-0.5,1.8-1.7,2.7l-5.7,3.8c-0.8,0.5-1.6,0.8-2.3,0.8c-0.8,0-1.8-0.5-2.7-1.2c-1.2-1.3-2.3-2.8-3.3-4.2
		c-0.8-1.6-1.8-3.3-2.8-5.3c-7,8.4-15.9,12.5-26.6,12.5c-7.6,0-13.7-2.2-18.1-6.6c-4.4-4.4-6.7-10.1-6.7-17.4c0-7.6,2.7-14,8.3-18.7
		c5.5-4.7,12.9-7,22.2-7c3,0,6.2,0.2,9.6,0.7c3.4,0.5,6.8,1.2,10.4,1.9v-6.6c0-6.9-1.5-11.7-4.2-14.4c-2.9-2.8-7.8-4.1-14.7-4.1
		c-3.2,0-6.4,0.4-9.7,1.2c-3.4,0.8-6.6,1.8-9.7,3c-1.5,0.6-2.5,1-3.2,1.2c-0.6,0.1-1.1,0.2-1.5,0.2c-1.2,0-1.9-0.8-1.9-2.8v-4.5
		c0-1.5,0.1-2.5,0.6-3.2s1.2-1.2,2.5-1.9c3.2-1.6,6.9-3,11.4-4.1c4.5-1.2,9.1-1.7,14.1-1.7c10.8,0,18.7,2.4,23.7,7.3
		c5,4.9,7.5,12.3,7.5,22.2v29.3h-0.1V379z M505.6,392.7c3,0,6.1-0.5,9.3-1.6c3.3-1.1,6.2-3,8.6-5.8c1.5-1.7,2.5-3.6,3-5.8
		s0.8-4.7,0.8-7.9v-3.8c-2.7-0.6-5.5-1.2-8.4-1.6c-2.9-0.4-5.7-0.5-8.5-0.5c-6.1,0-10.4,1.2-13.5,3.6c-3,2.4-4.5,5.8-4.5,10.4
		c0,4.2,1.1,7.4,3.4,9.6C498.3,391.6,501.5,392.7,505.6,392.7L505.6,392.7z M578.3,402.4c-1.6,0-2.7-0.2-3.4-0.8
		c-0.7-0.5-1.3-1.8-1.9-3.5l-21.2-69.9c-0.5-1.8-0.8-3-0.8-3.6c0-1.5,0.7-2.3,2.2-2.3h8.9c1.7,0,2.9,0.2,3.5,0.8
		c0.7,0.5,1.2,1.8,1.8,3.5l15.2,59.9l14.1-59.9c0.5-1.8,1-3,1.7-3.5c0.7-0.5,1.9-0.8,3.6-0.8h7.3c1.7,0,2.9,0.2,3.6,0.8
		c0.7,0.5,1.3,1.8,1.7,3.5l14.3,60.6l15.7-60.6c0.5-1.8,1.2-3,1.8-3.5c0.7-0.5,1.9-0.8,3.5-0.8h8.4c1.5,0,2.3,0.7,2.3,2.3
		c0,0.5-0.1,0.8-0.1,1.5s-0.2,1.2-0.6,2.3l-21.9,69.9c-0.5,1.8-1.2,3-1.9,3.5c-0.7,0.5-1.9,0.8-3.4,0.8h-7.8c-1.7,0-2.9-0.2-3.6-0.8
		s-1.3-1.8-1.7-3.6l-14.1-58.4l-14,58.3c-0.5,1.8-1,3-1.7,3.6c-0.7,0.6-1.9,0.8-3.6,0.8H578.3z M694.5,405c-4.7,0-9.5-0.5-14-1.6
		c-4.5-1.1-8-2.3-10.4-3.6c-1.5-0.8-2.4-1.7-2.8-2.5s-0.5-1.7-0.5-2.5v-4.6c0-1.9,0.7-2.8,2.1-2.8c0.5,0,1.1,0.1,1.6,0.2
		c0.5,0.1,1.3,0.5,2.3,0.8c3,1.3,6.4,2.4,10,3.2c3.6,0.7,7.2,1.1,10.8,1.1c5.7,0,10.1-1,13.2-3c3-1.9,4.7-4.9,4.7-8.6
		c0-2.5-0.8-4.6-2.4-6.3c-1.6-1.7-4.7-3.3-9.1-4.7l-13.1-4.1c-6.6-2.1-11.5-5.1-14.4-9.2c-3-4-4.5-8.4-4.5-13.1
		c0-3.8,0.8-7.2,2.4-10.1s3.8-5.5,6.6-7.4c2.7-2.1,5.8-3.6,9.5-4.7c3.6-1.1,7.4-1.6,11.4-1.6c1.9,0,4.1,0.1,6.1,0.4
		c2.1,0.2,4,0.6,5.8,1c1.8,0.5,3.5,0.8,5.1,1.5c1.6,0.5,2.9,1.1,3.8,1.6c1.2,0.7,2.2,1.5,2.7,2.3c0.5,0.7,0.8,1.7,0.8,3v4.2
		c0,1.9-0.7,2.9-2.1,2.9c-0.7,0-1.9-0.4-3.4-1.1c-5.1-2.3-10.9-3.5-17.4-3.5c-5.1,0-9.2,0.8-12,2.5c-2.8,1.7-4.2,4.4-4.2,8
		c0,2.5,0.8,4.7,2.7,6.4c1.8,1.7,5.1,3.4,10,5l12.9,4.1c6.6,2.1,11.2,5,14.1,8.7c2.8,3.8,4.1,8,4.1,12.6c0,3.9-0.8,7.4-2.3,10.4
		c-1.6,3-3.8,5.8-6.6,8c-2.8,2.3-6.2,3.9-10.1,5.1C703.4,404.3,699.1,405,694.5,405L694.5,405z"/>
	<g id="g1863">
		<path id="path1859" class="st1" d="M711.6,448.9c-29.7,22-73,33.6-110.2,33.6c-52.1,0-99.1-19.3-134.5-51.4c-2.8-2.5-0.2-5.9,3-4
			c38.4,22.2,85.7,35.7,134.6,35.7c33,0,69.3-6.9,102.7-21C712.2,439.7,716.5,445.3,711.6,448.9z"/>
		<path id="path1861" class="st1" d="M724,434.7c-3.8-4.9-25.1-2.3-34.8-1.2c-2.9,0.4-3.4-2.2-0.7-4.1c17-11.9,44.9-8.5,48.2-4.5
			c3.3,4.1-0.8,32.1-16.9,45.4c-2.4,2.1-4.7,1-3.8-1.7C719.7,459.7,727.9,439.6,724,434.7z"/>
	</g>
</g>
</svg>
