<?xml version="1.0" encoding="utf-8"?>
<!-- Generator: Adobe Illustrator 28.2.0, SVG Export Plug-In . SVG Version: 6.00 Build 0)  -->
<svg version="1.1" id="Layer_1" xmlns="http://www.w3.org/2000/svg" xmlns:xlink="http://www.w3.org/1999/xlink" x="0px" y="0px"
	 viewBox="0 0 1200 800" style="enable-background:new 0 0 1200 800;" xml:space="preserve">
<style type="text/css">
	.st0{fill:#E2E8F0;}
</style>
<path class="st0" d="M447.7,313.2V390H488c15.8,0,30.5-5.6,30.5-21.9c0-11-8-16.1-16.7-18.7c5.3-2.1,11.4-6.6,11.4-16
	c0-12-12-20.2-28-20.2H447.7z M472.4,331.1h9.1c3.7,0,6.5,2.9,6.5,5.8c0,2.7-2.9,5.6-6.5,5.6h-9.1L472.4,331.1z M472.4,358.5h12
	c4.2,0,7.7,3.2,7.7,6.8c0,3.8-3.3,7-8.4,7h-11.2V358.5z M467.7,398.4v76.8h40.2c15.8,0,30.5-5.6,30.5-21.9c0-11-8-16.1-16.7-18.7
	c5.3-2.1,11.4-6.6,11.4-16c0-12-12-20.2-28-20.2L467.7,398.4z M492.3,416.3h9.1c3.7,0,6.5,2.9,6.5,5.8c0,2.7-2.9,5.6-6.5,5.6h-9.1
	V416.3z M492.3,443.7h12c4.2,0,7.7,3.2,7.7,6.8c0,3.8-3.3,7-8.4,7h-11.2V443.7z M520.4,390v-76.8h62v18.6h-37.4v10.1h30.4v17.4
	h-30.4v12.3h37.4V390L520.4,390z M615.9,392.2c17.4,0,31.4-10,31.4-26.1c0-26-33.9-22-33.9-30.1c0-3.1,3.3-4.8,6.7-4.8
	c5.8,0,10,3.8,10,3.8l14.6-13.9c-5.8-5.5-15-10.2-27.4-10.2c-18.6,0-30.8,11-30.8,24.4c0,26.4,33.4,22.5,33.4,30.8
	c0,2.9-2.8,5.8-7.8,5.8c-5.7,0-10.3-3.5-13.8-6.4l-14.7,14C589.4,385.3,598.9,392.2,615.9,392.2L615.9,392.2z M666.3,390v-58.4H646
	v-18.5h65.2v18.5h-20.3V390L666.3,390z M539.2,398.4h24.6v46c0,4.7,4.7,9,9.5,9c4.6,0,9.2-3.9,9.2-9.2v-45.8H607v45.5
	c0,18-15,32.4-34.4,32.4c-19.5,0-33.4-15.7-33.4-33.4V398.4z M637.3,475.2v-27.5l-28.9-49.4h24.9l16.3,26.5l16.4-26.5h24.9l-29,49.7
	v27.2H637.3z"/>
<path class="st0" d="M690.9,440.4l-14.5,14.5v19.6l14.5,14.5h61.3v-48.6H690.9z M688.6,464.7c0,1.8-1.5,3.3-3.3,3.3
	c-1.8,0-3.3-1.5-3.3-3.3s1.5-3.3,3.3-3.3C687.1,461.4,688.6,462.9,688.6,464.7L688.6,464.7z"/>
</svg>
