<?xml version="1.0" encoding="utf-8"?>
<!-- Generator: Adobe Illustrator 28.2.0, SVG Export Plug-In . SVG Version: 6.00 Build 0)  -->
<svg version="1.1" id="Layer_1" xmlns="http://www.w3.org/2000/svg" xmlns:xlink="http://www.w3.org/1999/xlink" x="0px" y="0px"
	 viewBox="0 0 1200 800" style="enable-background:new 0 0 1200 800;" xml:space="preserve">
<style type="text/css">
	.st0{fill:#E2E8F0;}
</style>
<path class="st0" d="M768,402.7c0-15.9,8.9-24.5,20.9-24.5c11.1,0,16.3,6.1,18.5,14.8l-7.7,2.2c-1.8-6.3-4.6-9.5-10.9-9.5
	c-8,0-12.7,6.2-12.7,17.1c0,11.3,4.8,17.5,12.9,17.5c6.2,0,9.6-3.1,11.4-10.2l7.6,1.7c-2.3,9.4-8.2,15.8-19.1,15.8
	C776.6,427.5,768,419.1,768,402.7 M812.4,409.5c0-12.6,8.3-17.8,16.6-17.8c8.3,0,16.6,5.2,16.6,17.8c0,12.5-8.4,17.8-16.6,17.8
	S812.4,422,812.4,409.5 M837.7,409.5c0-6.4-2.7-11-8.7-11c-5.7,0-8.6,4.1-8.6,11c0,6.5,2.6,11.1,8.6,11.1
	C834.7,420.6,837.7,416.6,837.7,409.5 M851.2,426.6v-34.1h7.9v4.7c2.6-2.9,6.5-5.3,11.7-5.3c5.7,0,7.9,2.2,9.3,5.6
	c2.7-3,6.7-5.6,11.9-5.6c6.9,0,9.9,4.2,9.9,10.3v24.5h-7.9v-22.5c0-3.8-1.1-5.5-4.8-5.5c-3.2,0-5.8,1.8-8.7,4.4v23.6h-7.9V404
	c0-3.8-1.1-5.5-4.8-5.5c-3.2,0-5.8,1.8-8.7,4.4v23.6L851.2,426.6L851.2,426.6z M909.4,439.4v-46.9h7.9v4.5c2.2-2.7,5.8-5.2,10.9-5.2
	c7.8,0,13.5,5.9,13.5,17.7s-5.9,17.6-14.6,17.6c-3.7,0-7.3-1.5-9.8-4.3v16.6H909.4z M933.7,409.5c0-7.2-3.1-11-8.2-11
	c-3.3,0-6.4,2-8.3,4.3v13.7c2.1,2.7,5.2,4.2,8,4.2C931.3,420.8,933.7,417.1,933.7,409.5 M945.1,418.4c0-7.4,6.3-12.4,22.2-14.1v-1
	c0-3.4-1.8-4.9-5.6-4.9c-4.7,0-8.6,2.3-11.5,4.6l-3.9-4.9c3.7-3.3,9.4-6.2,16.5-6.2c9.1,0,12.3,4.4,12.3,12.3v14.1
	c0,4.1,0.3,6.6,1,8.4h-7.9c-0.5-1.4-0.8-2.5-0.8-4.4c-3.5,3.5-7.5,4.9-12.6,4.9C949.3,427.1,945.1,424,945.1,418.4 M967.3,417.1
	v-7.5c-9.4,1.3-14.5,3.6-14.5,7.3c0,2.7,1.9,4.1,4.7,4.1C961.7,421,964.9,419.4,967.3,417.1 M982.3,426.6v-34.1h7.9v5.4
	c2.6-3,6.6-6.1,12.2-6.1c6.2,0,10.1,3.2,10.1,9.9v24.8h-7.9V404c0-3.7-1.5-5.7-5.2-5.7c-3.5,0-6.4,1.7-9.2,4.4v23.8H982.3z
	 M1014.4,438.8l1.8-6.4c1,0.2,3,0.7,5.8,0.7c2.8,0,4.3-1.1,5.4-3.9l1-2.5l-13.1-34.3h8.2l8.8,24.9h0.1l8.7-24.9h7.9l-14.5,37.8
	c-2.2,6-5.2,9.5-11.9,9.5C1018.4,439.8,1016,439.2,1014.4,438.8 M165.6,426.5v-40.1H151v-7.5h37.3v7.4h-14.6v40.2H165.6z
	 M193.1,426.5V379h7.9V397c2.2-2.3,6.3-5.3,12.5-5.3c6,0,9.9,3.5,9.9,10.3v24.4h-8V404c0-3.8-1.6-5.5-5.1-5.5
	c-3.5,0-6.4,1.8-9.2,4.4v23.6H193.1z M228.7,409.5c0-13,9.2-17.8,16.3-17.8c7.7,0,15,4.6,15,18.5v1.9h-23.3c0.3,6.2,4.1,8.9,9.1,8.9
	c4.4,0,7-1.5,9.6-4l4.2,4.1c-3.5,4-8.2,6.2-14.3,6.2C236.6,427.2,228.7,422,228.7,409.5 M252.7,406.1c-0.5-5.2-3-8-7.8-8
	c-3.9,0-7.4,2.2-8.2,7.9L252.7,406.1z M570.1,368.4c0,0,1.2-1.8,2.1-3.1c1.8-2.4,5.1-5.8,7.5-7.9c0.7-0.7,1.6-1.3,1.6-1.3
	s-1.4,0.1-2.1,0.3c-1.9,0.4-4.6,2.2-5.9,3.3c-2.2,1.9-4.7,5-3.6,7.8C569.9,367.8,570.1,368.4,570.1,368.4 M582.6,371.7
	c3.5-0.2,6.9-1.3,9.9-3c3-1.7,7.5-5,7-8.9c-0.1-1.3-1-2.2-2-2.6c-1.3-0.6-2-0.5-3.8,0c-1.3,0.4-1.8,0.6-3,1.3
	c-3.5,2-8.4,6.4-11.1,9.8c-0.6,0.8-1.3,1.7-1.7,2.3c-0.3,0.4-0.6,0.7-0.5,0.8C577.6,371.8,581.2,371.8,582.6,371.7 M573.6,378.3
	c-0.4,0.4-0.7,1.3-1.2,2c-0.2,0.4-0.6,0.8-0.9,1c-0.9,0.7-1.7,0.7-2.6-0.1c-1.3-1.1-2-2.8-2-4.5c0-0.7,0.1-1.5,0-2.1
	c-0.2-1-1.3-2.1-1.8-3.1c-0.7-1.2-1.2-3.2-1.3-4.5c-0.2-4.1,1.9-7.9,4.7-10.8c2.8-3,6.5-5.5,10.5-7.2c3.8-1.6,9.3-2.7,13.5-1.3
	c1.3,0.5,3.3,1.6,4.2,2.8c0.2,0.2,0.4,0.5,0.6,0.7c0.2,0.1,0.7,0.2,1.1,0.2c1.3,0.2,3.3,1.3,4,1.9c1.6,1.3,2.4,2.6,2.8,4.5
	c0.8,3.8-1.4,7.9-3.9,10.4c-4.2,4.3-8.4,7.4-13.9,9.5c-2.4,0.9-6.1,1.8-8.8,1.5c-0.8,0-1.7-0.3-2.5-0.4c-0.4,0-2-0.4-2.1-0.6
	C573.9,378.4,573.6,378.3,573.6,378.3 M444.2,389.5c2.2-0.1,3.7-0.2,5.4-1c1-0.4,2.1-1.3,1.5-2.5c-0.3-0.7-1.5-0.9-2.2-0.9
	c-2.4,0.1-4,1.9-4.9,4.2C444.1,389.4,444.1,389.5,444.2,389.5 M454.1,383.6c1.3,1.6,1.9,3.6,2,5.7c0.1,2.1-0.6,4.2-1.7,5.8
	c-2,2.8-5.4,4.1-8.9,4.4c-0.5,0-3.3,0.1-4-0.1c-0.1,0-0.2-0.1-0.3-0.1c-0.1,0-0.6,2-0.7,2.6c-0.3,2.4-0.7,4-0.9,5.9
	c-0.2,1.5-0.4,3.1-0.5,4.6c-0.8,9.2-0.5,13.7,0.2,22.7c0,0.6,0.1,1.2,0,1.5c-0.2,1.1-0.8,1.8-1.9,2.1c-3.2,0.8-6.2-2.3-7.8-4.8
	c-3.6-5.9-2.5-17.8-1.4-23.8c0.4-2.5,1.5-7.9,2.3-9.9c0.4-1.1,1.1-3.1,1-3.2s-1.7-0.7-3.2-1.3c-0.6-0.2-2.5-1.2-3.3-1.7
	c-1.7-1.1-2.8-1.9-4-3.3c-0.4-0.4-1.5-2.2-1.7-2.6c-0.9-2.1-1-4-0.1-6.3c0.2-0.6,1.4-3.1,2.2-3c1.1,0.1,0.9,2,1.2,2.9
	c0.1,0.3,0.4,0.9,0.7,1.2c1.5,1.9,6.8,3.9,8.9,4.5c0.3,0.1,3.7,1.1,4.1,0.9c0.1,0,0.7-1.2,1.2-1.9c0.2-0.4,0.5-0.7,0.7-1
	c2-2.2,5.1-4.3,8-4.9c1.3-0.3,3.9,0,5.2,0.7C451.9,381.8,452.9,382.2,454.1,383.6 M422.4,409.7c0.1,0,0.2,0,0.4,0.1
	c1.5,0.7,1.5,3.4,1.2,4.7c-1,3.4-4.2,6.9-6.8,8.6c-1.5,1-4.7,2.5-6.9,2.9c-3.5,0.7-6.6-0.2-8.5-3.1c-1.7-2.6-2.5-5.8-2.6-8.7
	c-0.4-8.6,2.3-21.1,5.7-28.3c0.5-1,2.6-5.4,4.7-6.2c2-0.7,2.9,1.7,3.2,3.4c0.3,2.3-0.5,5.3-1.1,7.8c-1,4.3-2.5,11.1-2.8,13
	c-0.4,2-1.2,6.4-0.9,8.6c0.1,1.2,0.4,1.8,1.3,1.7c0.4,0,6.2-2.7,9.3-3.9C419.6,410,421.1,409.5,422.4,409.7 M379.8,405.7
	c0,0,0.7,0,1.3,0c2.1,0,5.8-0.4,5.8-0.4s-0.4-3.2-0.7-5.2c-0.2-1.3-0.4-2.2-0.7-3.3c-0.1-0.5-0.5-1.9-0.8-2.4c0-0.1-0.1-0.2-0.1-0.2
	s-1.8,3.3-2.7,5.7c-0.8,1.9-1.2,3.3-1.7,4.4c-0.1,0.3-0.3,0.6-0.3,0.9C379.7,405.4,379.8,405.7,379.8,405.7 M368.2,406
	c0,0,1-2.3,1.9-4.1c0.8-1.9,5.1-10.4,6.9-12.8c2-2.7,5.7-7.8,5.7-8c0.1-0.6,0.2-1.6,0.7-2.4c0.4-0.7,1.4-0.9,2.4-1
	c1.1,0,2.2,0.7,2.7,1.6c0.9,1.7,2.6,6.5,2.9,7.7c1.9,6.4,3.9,18.4,4.6,24.6c0.2,1.6,0.7,10,0.7,11.9c0,1.3,0,3.5-0.7,4.6
	c-0.3,0.4-0.8,0.7-1.3,0.7c-0.7,0-2.1-1-2.7-1.6c-1.7-1.6-2.9-3.3-3.3-5.3c-0.3-1.8-0.7-6.8-0.7-6.8l-7.5,0.3l-4.2,0
	c0,0-0.4,1-0.7,1.8c-0.7,1.8-1.3,3.5-1.6,4.5c-0.6,2-1.6,5.9-1.9,6.5c-0.5,1.3-1,2-2.2,2.2c-1.4,0.2-2.3,0.3-3.3-0.3
	c-1.9-1-2.7-3.2-3.1-5.4c-0.6-3.8,1-6.9,2.6-11.4c0.7-1.9-0.2-2.6-1.9-5c-0.2-0.3-0.4-0.7-0.5-0.9c0-0.2,0.2-0.9,0.6-1.2
	c0.1-0.1,0.1-0.1,0.3-0.1L368.2,406z M325.2,381.3c0,0-0.1-2.4-0.3-3.8c-0.2-1.2-0.4-2-0.9-2.9c-0.6-1-1.1-1.6-2-1.7
	c-1.2-0.2-1.8,0.6-2.5,1.8c-1,1.5-1.9,4.4-2.5,6.2c-0.8,2.6-1.2,4.1-1.6,7.1c-0.7,4.8-1.4,13-0.7,18.5c0.1,1,0.4,2.4,0.4,2.4
	s1.2-1.3,2-2.2c0.4-0.4,2.1-3,2.2-3.3c0.3-0.5,1.1-1.9,1.2-2.1c0.2-0.3,1.4-3,1.6-3.6c0.5-1.5,1-3,1.5-4.5c1.1-3.3,0.9-4.6,1.6-8.4
	c0.1-0.4,0.1-3.5,0.1-3.5C325.3,381.3,325.2,381.3,325.2,381.3 M317,416.9c0,0,0.5,0.8,0.8,1.4c2,3.3,5.2,5.3,9.1,5.4
	c4,0.2,9.1-2.1,11.9-4.1c8.3-5.8,12.6-16.2,15-26.1c2.8-11.7,2.9-24-0.4-35.3c-2-6.6-5.7-14.8-10.4-19.7c-1.4-1.4-3.5-3.4-4.1-4.3
	c-0.7-0.8-0.8-1.5,0.2-2.1c1-0.6,3.3,0.7,4.4,1.3c5.4,3.3,9,6.6,12.2,11.3c0.8,1.2,4.1,6.6,4.7,7.7c3.7,6.9,5.5,12.9,6.6,20.6
	c1.3,9.7,0.5,20.7-2.9,30.5c-1.5,4.3-3.7,8.7-6.1,12.4c-0.6,0.9-4,5.5-4.4,5.9c-1.2,1.3-4.1,3.8-5.5,4.9c-6.8,5.5-14.2,9.1-22.3,8.1
	c-4.5-0.6-8.1-2-11.7-4.9c-1.3-1.1-3.7-3.5-4.6-5.1c-0.6-1.1-1.3-2.4-1.4-2.4c-0.1,0-0.5,0.2-0.9,0.6c-0.4,0.3-2,1-2.8,1.3
	c-5.6,2.1-11.8,1.6-16.9-1.7c-3.7-2.4-6.8-7-8.2-11.1c-2-6.1-2.2-12.5-1.4-19c1.4-11.1,5.4-21.5,11.3-30.8
	c3.8-5.9,8.6-11.6,14.4-15.8c0.7-0.5,4.2-2.5,4.9-2.9c1.3-0.6,3.1-1.2,4-0.1c0.5,0.6,0.5,1,0.1,1.7c-0.6,1.2-2.2,2.7-3.1,3.6
	c-0.7,0.8-5,6-5.9,7.3c-1,1.3-5.3,7.8-5.9,8.8c-5.5,9.5-9.9,24.5-9.4,36.2c0.1,2.4,0.5,5.9,1,8.1c0.7,3.1,2.6,7.2,5.3,9.1
	c2.9,2,5.5,1.9,9,0.6c0.9-0.4,2.2-1,2.2-1s-1-2.6-1.7-4.5c-1.8-5.3-2.5-13.9-1.9-19.8c0.6-4.8,1.6-8.5,3.8-12.3
	c1.7-3.1,4.1-6.1,7-8.6c2.8-2.4,7.3-4.5,11.2-4.6c3.3-0.1,6.7,1.3,8.4,4.3c3,5.2,3.2,13.4,2.3,18.8c-1.3,8.2-5.5,15.8-11.6,21.1
	C321.2,413.7,317,416.9,317,416.9 M578.4,386.7c0.2,0,0.4,0.1,0.7,0.2c1.9,0.7,2.7,2.5,3.2,4.4c1.1,4.5,1.5,14.4,1.7,18.3
	c0.1,2.9,0.2,5.8,0.3,8.6c0.1,2.5,0.3,5.7-0.2,8c-0.2,0.8-0.7,1.8-1.5,2.3c-0.9,0.6-3,0.6-4.1,0.4c-2.8-0.6-3.7-2.4-4.1-5.1
	c-0.9-6.6-0.5-19.5,0-24.9c0.2-1.8,0.9-7.5,1.8-9.9C576.6,388.1,577.2,386.5,578.4,386.7 M492.7,396.6c0,0-4.1,0.3-7,0.6
	c-3.6,0.4-10.4,1.5-14.3,3c-1.2,0.4-3.6,1.4-3.8,2.6c-0.2,1.3,0.6,2.2,1.4,3.3c0.5,0.6,3.3,3.3,4.1,4c3.3,2.8,10,7.1,15,9.1
	c1.7,0.7,4.5,1.7,4.5,1.7s-0.2-8-0.2-15.9C492.6,400.7,492.7,396.6,492.7,396.6 M568.2,399.8c0.2,2.1-0.3,6.2-0.4,6.8
	c-0.2,1.3-1.1,4.1-1.3,4.5c-0.7,1.6-1.4,3.1-2.3,4.6c-1.3,2.4-4.6,6.3-6.5,7.9c-7.1,6.1-18.1,9.6-27.5,10.8
	c-6.4,0.8-13.7,0.7-20.5-0.6c-2.3-0.4-5.8-1.2-5.8-1.2s0,1.4-0.1,2.4c0,0.4-0.4,1.6-0.6,2c-0.5,1-1.3,1.5-2.5,1.8
	c-1.4,0.3-2.9,0.4-4.2-0.2c-2.1-0.9-2.9-2.9-3.3-5.3c-0.3-1.9-0.6-5.1-0.6-5.1s-1.6-0.7-2.9-1.4c-4.1-2-8-4.5-11.5-7
	c-0.9-0.7-5-4.1-5.9-5c-2.5-2.4-4.8-4.8-6.5-7.9c-1.3-2.4-1.7-4.5-0.7-7.1c1.4-3.5,6.5-6.2,9.9-7.7c2.6-1.1,10.5-3.7,13.7-4.2
	c1.5-0.2,4-0.7,4.1-0.7c0,0,0.1-0.1,0.1-0.1c0.1-0.1,0.2-3.6,0.2-4.9c0-1.3,0.9-9.5,1.3-11.2c0.2-0.9,0.9-4.6,1.6-5.5
	c0.5-0.7,1.3-0.6,2-0.2c3.8,2.3,4.9,10.5,5.2,14.6c0.2,2.5,0.2,6.3,0.2,6.3s4.3-0.1,7,0c2.6,0,5.4,0.5,8.1,0.9
	c3.4,0.6,10.1,2,13.9,4c3.2,1.6,6.1,4.3,7.1,7.2c0.9,2.6,0.7,4.4-0.6,6.8c-1.5,2.6-4.4,4.6-7.3,4.8c-0.9,0-4.1-0.4-5.2-1.2
	c-0.4-0.3-0.4-0.9-0.1-1.3c0.1-0.1,1.6-0.9,2.6-1.4c0.4-0.2,0.8-0.5,1.2-0.8c0.7-0.7,1.4-1.4,1.3-2.2c-0.1-1.1-1.3-1.8-2.4-2.2
	c-5.3-2.1-15.7-3.8-20.8-4.1c-2-0.1-4.8-0.2-4.8-0.2l0.6,27.9c0,0,2.3,0.5,4.1,0.7c1.1,0.1,5.5,0.6,6.7,0.6c9,0.2,19.1-0.6,27.4-4.5
	c3.6-1.7,7-3.9,9.5-6.7c3.3-3.8,5.1-9,4.6-14.5c-0.5-5.9-4.7-13-8-17.3c-8.8-11.4-24-20.7-37.3-26.2c-13.6-5.6-27.1-8.8-41.5-9.3
	c-3.7-0.1-11.9,0-15.9,1.2c-0.6,0.2-1.2,0.4-1.7,0.5c-0.4,0.1-1.1,0.4-1.3,0.6c-0.1,0.1-0.2,0.2-0.2,0.2s0.2,0.1,0.5,0.2
	c0.4,0.2,2.3,0.3,3.2,0.5c0.8,0.1,1.7,0.6,2.1,1.3c0.3,0.6,0.4,1.1,0,1.5c-0.9,1.2-4.4,0.9-5.9,0.7c-1.6-0.3-3.6-0.7-4-2.1
	c-0.4-1.6,0.4-3.3,1.2-4.7c1.7-3,4.1-4.5,7.7-5.5c5-1.4,11.4-2.4,16.2-2.6c10.8-0.4,21,1.5,31.4,4.6c6,1.8,13.8,4.8,19.5,7.6
	c4.1,2,10.6,5.6,14.2,8c1.2,0.7,7.9,5.7,8.9,6.6c2.2,1.8,5,4.3,7.1,6.4c4,4,9,10,11.4,14.8c0.6,1.2,1,2.3,1.8,3.6
	c0.3,0.5,1.3,3.2,1.5,4c0.2,0.8,0.5,2,0.5,2C567.7,396.5,568.2,398.8,568.2,399.8L568.2,399.8z M614.7,401.8c0.2,0,0.2,0,0.4,0
	c3.3,0.5,6.6,1,9,2.1c2.3,1,3.7,2.3,4.9,4.6c1.9,3.5,2,8.3,0.3,12c-1.3,2.7-4,5-6.6,6.2c-2.6,1.3-5.2,1.9-8.2,2.2
	c-5.2,0.6-10.8-0.5-15.5-2.7c-2.7-1.3-6.1-3.7-7.9-6.6c-1.3-2.2-1.2-5.1,0.3-7.2c2.4-3.3,7.6-4,11.5-3.9c3,0.1,8.4,1,11.2,2
	c0.8,0.3,3.7,1.4,4.2,1.9c0.4,0.4,0.6,0.9,0.4,1.4c-0.7,2-5.5,3-6.8,3.3c-3.7,0.6-5.7-0.8-9.9-2.5c-1.1-0.4-2.5-0.9-3.5-1
	c-1.9-0.2-4.2,0.3-4.6,2.5c-0.2,1.1,1.1,2.1,2,2.5c2.3,1,4.1,1.3,6.4,1.3c6.6,0.1,14-1,19.4-4.8c0.7-0.5,1.5-1.3,1.5-2.3
	c0-0.1-0.2-1.2-0.5-1.3c0,0-0.1,0-0.1,0c-0.1,0-0.3-0.4-0.5-0.6c-0.4-0.5-2-1.2-2.3-1.3c-3.6-1.5-10.4-2.2-13.8-2.6
	c-3.6-0.3-9.3-0.8-10.7-1c-1.4-0.2-2.9-0.5-4.2-1c-1.2-0.6-2.4-1.8-2.8-3.2c-0.7-2.5,0.2-5.5,1.5-7.5c3.6-5.2,12-7.2,18.4-7.9
	c6.1-0.7,16-0.7,22,2.4c0.9,0.5,1.4,1,1.2,2c-0.4,1.9-1.8,3.1-3.5,3.6c-1.8,0.6-5.4,0.8-7.1,0.9c-7.3,0.4-16,0.2-22.9,2.1
	c-0.6,0.1-1.5,0.4-1.8,0.7c-1.1,1.2,2,1.5,2.6,1.6c0.2,0,0.2,0,0.4,0L614.7,401.8z M637.3,428.9c-2.9-1.1-3.6-5.8-3.7-8.2
	c-0.5-7.8,1.6-18.6,4.2-25.8c0.7-2.1,1.8-5.4,4.1-5.3c1.6,0.1,2.7,1.4,3.6,2.6c2.3,3.2,5.3,7.6,7.3,10.6c2.2,3.4,4.4,6.8,6.5,9.9
	c0.3,0.4,0.5,0.7,0.8,1c0.4,0.3,0.7,0.3,0.9,0c0.1-0.1,0-4-0.2-4.8c-0.2-1.3-0.2-2.3-0.4-3.3c-0.4-3.2-1.4-7.6-2.2-10.6
	c-0.9-3.3-1.9-6.8-2.7-10c-0.2-1.1-0.5-2.1-0.5-3.1c0-1.4,0.9-2.2,2.5-1.7c3,1.1,6.9,7.5,8,9.7c0.4,0.7,2,4.6,2.3,5.7
	c1.3,3.7,2,7.2,2.3,11.2c0.3,3.9,0,9.6-1.6,13.5c-0.6,1.4-1.9,3.3-2.9,4.3c-1.6,1.5-4.9,2.7-7.1,1.4c-2.5-1.4-6.5-8.3-7.2-9.5
	c-2.3-4.1-6.3-12-7-12.9c-0.1-0.2-0.3-0.4-0.6-0.5c-0.2,0-0.3,0.4-0.4,0.7c-0.4,2.3-0.7,13.2-0.7,13.4c0,1.8-0.1,6.3-0.7,8.5
	c-0.3,1.4-0.7,2.6-2,3.2C639.1,429.5,638.4,429.3,637.3,428.9 M677.5,428.2c-0.3-0.2-0.8-0.7-1.2-1.2c0,0-1.1-1.6-1.3-2.1
	c-0.2-0.4-0.3-0.7-0.5-1.1c-1-2.5-0.9-4.9-0.4-7.5c0.5-2.5,1-2.6,2.2-6c0.1-0.2,0.1-0.3,0.1-0.6c0-0.5-0.7-3.6-0.7-4.6
	c0-1.5,1.2-2.6,3.1-2.8c0.2,0,0.3,0,0.5,0c0.8-0.2,1.3-1.7,1.7-2.9c0.6-1.7,1.5-4.3,1.5-4.3s-2.5-0.6-3.9-1.1
	c-1.5-0.6-2.6-1.3-3.3-2.7c-0.8-1.6-0.3-2.5,1.4-3c0.6-0.2,5.5-1.2,7.1-1.3c2-0.3,3.8-0.5,5.6-0.7c1.6-0.2,8.9-1,11.2-1
	c3.5,0.1,5.9,1.6,7.9,4.6c1.1,1.6,1.9,3.5,0.2,4.6c-2.6,1.6-11,1.7-12.5,1.7c-2.5,0-5.8,0-5.8,0l-1.7,5.7c0,0,6,0,9.4-0.1
	c0.8,0,1.6,0,2.1,0.1c1.7,0.4,2.3,1.7,2.4,3.6c0.1,2.2-0.3,3.3-2.1,3.6c-0.9,0.1-11.2,0.2-12.6,0.4c-0.9,0.1-1.8,0.2-1.8,0.2
	s-0.7,2-1.4,3.9c-0.7,2-1.2,4.1-1.2,4.1s0.5,0,1,0c0.7,0,1.4-0.1,2-0.2c3.2-0.6,7.8-1.3,11.7-1.9c2-0.3,3.1-0.5,4.2,0.9
	c0.9,1.2,1.4,2.2,1.5,3.7c0,1.4-1,2.3-2.3,3.3c-4,3.1-11,6.5-16.2,7.1c-2.4,0.3-3,0-5.1-0.6c-0.4-0.1-1.9-0.8-1.8-0.8
	C678.5,428.9,677.7,428.4,677.5,428.2L677.5,428.2z M742.7,399.5c-2.6,2.2-6.1,6.8-7.7,9.1c-2.2,3.1-4.3,6.7-6.2,9.5
	c-0.4,0.6-1.7,2.8-1.7,2.9c0.1,0.1,1.3,0.1,2.7-0.1c2.8-0.5,6.6-2.4,8.6-4c3.1-2.5,5.3-5.9,6.3-9.9c0.5-1.8,0.7-5.6-0.6-7.3
	C743.9,399.3,743.2,399.1,742.7,399.5 M721.6,432.1c0,0-0.8,2.5-1.4,4.4c-1.1,3.3-3.4,12.4-4,15.2c-0.8,4.1-3.2,15.1-3.3,15.3
	c-0.2,0.3-0.3,0.4-0.7,0.7c-1,0.6-1.3,0.4-2.5-0.2c-1.5-0.8-2.8-1.6-4-3.1c-2.3-2.9-1.7-8.5-1.3-11.8c1.6-11.4,3.1-16.4,7.5-27.7
	c0.1-0.2,0.1-0.2,0-0.4c-1.3-2.9-2.1-6.4-2.1-9.2c0-8.9,5.1-17.7,10.8-24.8c0.4-0.6,3.3-3.9,4.5-3.9c1.3,0,1.5,1.5,1.3,2.8
	c-0.7,4.1-3.5,8.3-5.5,11.8c-2.2,3.9-2.7,5.5-3.8,9c-0.2,0.6-0.6,3.2-0.6,3.5c0,0.9,0.2,2.1,0.2,2.1s3.6-5.1,6-8.2
	c1.3-1.7,2.2-2.8,3.3-4.1c1.1-1.3,5.3-5.6,6.6-6.8c2.6-2.5,3.7-3.5,6.5-4.9c2.2-1.1,4.2-1.4,6.3,0c3.4,2.2,4.9,7,5.3,10.8
	c0.5,4.6-0.5,9.7-2.5,13.6c-2.4,4.7-5.7,8-10.1,11c-4.6,3-9.9,5.1-15.1,4.9C722.4,432.2,721.6,432.1,721.6,432.1"/>
</svg>
