<?xml version="1.0" encoding="utf-8"?>
<!-- Generator: Adobe Illustrator 28.2.0, SVG Export Plug-In . SVG Version: 6.00 Build 0)  -->
<svg version="1.1" id="Layer_1" xmlns="http://www.w3.org/2000/svg" xmlns:xlink="http://www.w3.org/1999/xlink" x="0px" y="0px"
	 viewBox="0 0 1200 800" style="enable-background:new 0 0 1200 800;" xml:space="preserve">
<style type="text/css">
	.st0{fill:#E2E8F0;}
</style>
<path class="st0" d="M381.5,346.5c-29.6,0-53.6,24-53.6,53.5c0,0.7,0,1.4,0.1,2.1c5.2-10.1,15.4-21.7,29.9-28.7c0-0.3-0.1-0.7-0.1-1
	c0-6.8,5.5-12.3,12.3-12.3c6.8,0,12.3,5.5,12.3,12.3c0,6.8-5.5,12.3-12.3,12.3c-4,0-7.6-1.9-9.8-4.9c-15.1,8.9-22.9,27.1-24,49
	c2.8,4.4,6.3,8.4,10.3,11.8c8.8-20.8,23.4-35.7,51.7-44.9c0-0.2,0-0.3,0-0.5c0-6.8,5.5-12.3,12.3-12.3c6.8,0,12.3,5.5,12.3,12.3
	c0,6.8-5.5,12.3-12.3,12.3c-4.1,0-7.7-2-9.9-5c-21.9,10-35.8,32.6-36.4,48.2c5.5,1.9,11.3,2.8,17.2,2.8c29.6,0,53.6-23.9,53.6-53.5
	C435.1,370.5,411.1,346.5,381.5,346.5L381.5,346.5z"/>
<path class="st0" d="M503.4,378.7h-17.1v54h-12.8v-54h-17.1v-11.4h47L503.4,378.7 M558.2,410.3c0,6.8-2.3,12.3-6.9,16.6
	c-4.6,4.2-10.3,6.3-17.2,6.3s-12.6-2.1-17.2-6.3c-4.6-4.3-6.9-9.8-6.9-16.6v-43h12.8v42.5c0,3.7,1,6.7,3,8.8c2,2.1,4.8,3.2,8.3,3.2
	c3.5,0,6.3-1.1,8.3-3.2c2.1-2.2,3.1-5.1,3.1-8.8v-42.5h12.7L558.2,410.3 M617,432.7h-14.8l-12.8-26.1h-9.2v26.1h-12.8v-65.4h25.7
	c6.5,0,11.7,2,15.6,5.9c3.8,3.7,5.6,8.4,5.6,14.1c0,4.4-1.2,8.1-3.6,11.2c-2.1,2.8-4.9,4.7-8.4,6L617,432.7z M601.6,387.3
	c0-2.6-0.9-4.6-2.6-6.2c-1.7-1.6-4-2.4-6.7-2.4h-12.1V396h12.1c2.8,0,5-0.8,6.7-2.4C600.7,392,601.6,389.9,601.6,387.3 M676.9,432.7
	H662l-16.8-29.8l-8.5,10.1v19.6h-12.8v-65.4h12.8v28.5l23.1-28.5h15.6l-21.7,26L676.9,432.7 M777.5,432.7h-43.2v-65.4h43.2v11.4
	h-30.4V394H773v11.4h-25.9v15.9h30.4L777.5,432.7 M825.4,432.7h-39.7v-65.4h12.8v54h26.9V432.7 M872.1,432.7h-41v-65.4h12.8v54h28.2
	L872.1,432.7 M726.9,412.7c-1.1,6.7-3.9,11.9-8.5,15.6c-4.3,3.5-9.6,5.3-15.9,5.3c-7.1,0-13-2.4-17.9-7.2c-0.5-0.5-1-1-1.4-1.6
	c-3.5-3.7-6-8.5-7.4-14c-0.7-3-1.2-6.9-1.2-11.1c0-4.2,0.4-8.5,1.5-12.1c2.9-9.5,8.3-17.5,19.2-20.2c2.3-0.6,4.6-0.9,7.2-0.9
	c6.4,0,11.7,1.8,16.1,5.4c4.4,3.6,7.2,8.8,8.3,15.5h-13.1c-1.5-6.2-5.3-9.4-11.1-9.4c-3.9,0-7.1,1-9.6,3.5
	c-3.3,3.4-5.6,8.6-5.6,18.1c0,6.2,0.9,11.1,2,13.6c1,2.3,2.2,4,3.5,5.5c3.3,3.1,6.2,3.5,9.7,3.5c5.9,0,9.6-3.1,11.1-9.4L726.9,412.7
	"/>
</svg>
