<?xml version="1.0" encoding="utf-8"?>
<!-- Generator: Adobe Illustrator 28.2.0, SVG Export Plug-In . SVG Version: 6.00 Build 0)  -->
<svg version="1.1" id="Layer_1" xmlns="http://www.w3.org/2000/svg" xmlns:xlink="http://www.w3.org/1999/xlink" x="0px" y="0px"
	 viewBox="0 0 1200 800" style="enable-background:new 0 0 1200 800;" xml:space="preserve">
<style type="text/css">
	.st0{fill:#E2E8F0;}
</style>
<path class="st0" d="M603.7,515c-0.9-4.4-0.4-8.5,1.5-12.3c0.6-1.3,1.4-2.5,2.3-3.7c0.6-0.8,1.4-1.6,2.3-2.3c3.4-2.6,6.7-1.8,8.7,2
	c2.2,4.3,1.7,7.7-1.5,10.9c-1.2,1.2-2.6,2.2-3.9,3.2c-0.5,0.4-1,0.7-1.6,1.1c0.9,1.1,2,1.4,3.2,1.6c2.2,0.2,4.2-0.4,5.9-1.8
	c1.7-1.3,3.1-2.9,4-4.8c1.4-2.9,2.7-5.9,4-8.9c0.4-0.9,0.7-1.9,1.2-2.8c0.3-0.6,0.8-1.1,1.3-1.5c0.7-0.5,1.4-0.3,1.8,0.4
	c0.4,0.8,0.8,1.6,1.1,2.5c0.9,3,1.6,5.9,2.5,8.9c0.6,1.8,1.2,3.5,2,5.3c0.6,1.2,1.3,2.4,2.9,2.4c1.6-0.1,2.2-1.4,2.7-2.6
	c1.2-2.6,1.5-5.2,0.8-7.9c-0.6-2.3-0.7-4.7,0.1-7c0.4-1.1,1.2-2.3,2.1-3.1c2-1.7,4.1-0.9,4.4,1.6c0.2,1.6,0,3.4-0.2,5.1
	c-0.8,4.5-2.2,8.8-4.8,12.6c-1,1.6-2.3,2.9-3.6,4.2c-0.6,0.7-1.6,1.2-2.4,1.6c-3.4,1.6-6.2,0.6-7.8-2.9c-0.8-1.7-1.3-3.5-1.9-5.3
	c-0.9-2.6-1.7-2.8-3.5-0.8c-1.2,1.4-2.4,2.9-3.7,4.2c-2.8,2.9-6.1,4.6-10.1,5.3c-3.2,0.5-5.9,0-8.1-2.4c-0.1-0.1-0.3-0.2-0.5-0.3
	c-0.4,0.2-0.9,0.5-1.4,0.8c-1.2,0.5-2.4,1.2-3.6,1.5c-3.2,1-6.2,0.5-8.7-2c-0.4-0.4-0.8-0.8-1.2-1.1c-1.6-1.4-2.2-1.4-4-0.2
	c-0.8,0.5-1.5,1-2.2,1.6c-2,1.4-4.2,2.1-6.6,2.4c-2.8,0.4-5-0.6-6.6-2.8c-0.7-1-1.3-2-2-3c-0.3-0.5-0.6-1-1-1.5
	c-0.6-0.7-1.2-0.8-1.9-0.1c-0.7,0.7-1.2,1.5-1.8,2.3c-1,1.3-1.8,2.7-2.9,3.9c-1.7,1.8-3.3,1.8-4.9-0.1c-0.8-1-1.5-2.2-2.1-3.4
	c-0.8-1.6-1.5-3.3-2.3-4.9c-0.5-1-1.1-2-1.8-2.9c-1.1-1.4-2.3-1.6-3.8-0.7c-1,0.6-2,1.3-2.9,2.1c-2.4,2.1-4.6,4.2-7,6.3
	c-1.2,1.1-2.6,2.2-3.8,3.3c-0.3,0.2-0.6,0.4-0.9,0.6c-0.9,0.6-1.8,1.2-2.8,0.5c-1-0.7-0.9-1.8-0.6-2.8c0.8-3.1,1.7-6.2,2.5-9.3
	c0.6-2.3,1.2-4.7,1.8-7c0.3-1.2,0.9-2.1,2-2.6c1-0.4,1.4-0.3,1.7,0.8c0.4,1.3,0.6,2.7,1,4c0.2,0.8,0.5,1.6,0.9,2.4
	c0.5,0.9,1,1,1.7,0.3c0.6-0.5,1.1-1.1,1.6-1.8c1.6-2,3-4,4.7-6c0.8-0.9,1.7-1.8,2.6-2.4c1-0.8,1.9-0.6,2.6,0.5
	c0.6,0.8,1,1.8,1.4,2.7c0.9,2.5,1.6,5.1,2.5,7.6c0.4,1.2,1,2.5,1.6,3.6c0.4,0.7,1,1.4,1.6,2c1.1,1,2.5,1,3.6-0.1
	c1.6-1.5,2.7-3.2,2.8-5.5c0.2-2.3,0.4-4.6,1.4-6.7c0.4-0.9,1-1.8,1.7-2.5c1.4-1.3,3-1,3.8,0.8c1,2,1,4.2,0.8,6.4
	c-0.1,0.6-0.2,1.3-0.4,2c-0.7,2.7-0.1,5.2,2,7.1c2.1,2,4.6,2.1,7.3,1.2c1.7-0.6,3-1.7,4.1-3.1c0.5-0.7,0.6-1.3,0.4-2.1
	c-1.8-5.5-2.6-11.1-2.2-17c0.3-4.1,1.1-8.2,2.9-11.9c0.8-1.6,1.7-3,2.9-4.4c2.2-2.6,5.7-1.9,7.5,0.1c1.6,1.7,2.3,3.8,2.6,6.1
	c0.8,8.4-0.4,16.4-4.4,23.9c-0.6,1.1-1.1,2.2-1.7,3.2c-0.5,0.8-0.4,1.6,0.1,2.4c1.2,1.9,2.8,3.3,5,4c1.8,0.6,3.4,0.4,5.1-0.8
	L603.7,515z M589.3,493.8c0.2,2.7,0.3,4.9,0.6,7.1c0.1,0.9,0.3,1.8,0.7,2.6c0.4,1,1.1,1,1.8,0.2c0.4-0.5,0.7-1.1,0.9-1.8
	c2-5.2,3-10.6,2.5-16.2c-0.1-0.9-0.4-1.8-0.7-2.6c-0.3-0.8-1-1.4-1.9-1.4c-0.9,0-1.5,0.5-1.8,1.2c-0.4,1-0.9,2-1,3
	C589.8,488.8,589.6,491.5,589.3,493.8L589.3,493.8z M609.5,511.6c0.4-0.1,0.7-0.1,1-0.2c2.7-1.1,4.2-4.1,3.8-7.1
	c-0.2-1.8-1.1-3-2.2-3.2c-1.1-0.2-2.8,0.8-3.4,2.3C607.4,506.3,607.9,509,609.5,511.6L609.5,511.6z"/>
<path class="st0" d="M523.9,294.5c-1.1-1-2.2-1.1-3.3-1.1c-2.6-0.1-5.3-0.2-8-0.4c-0.6,0-1.2-0.3-1.9-0.5c0.1-1.3,0.9-1.9,1.7-2.4
	c1.8-1.3,3.7-2.4,5.6-3.7c0.7-0.5,1.6-0.9,1.8-1.9c-0.5-1-1.5-1-2.3-1.3c-1.5-0.4-3-0.8-4.6-1.2c-0.7-0.2-1.3-0.7-2-1
	c0.2-1.1,1-1.4,1.7-1.4c2-0.2,4-0.4,6-0.3c2.6,0.2,5.1,0.7,7.7,1.2c0.8,0.2,2,0.4,2.1,1.4c0.2,1-0.8,1.6-1.5,2
	c-1.3,0.9-2.6,1.7-3.9,2.6c-0.7,0.5-1.6,1-1.4,2.1s1.4,1.1,2.2,1.3c1.4,0.2,2.9,0.4,4.3,0.5c0.7,0.1,1.4,0.2,2.1,0.4
	c1.2,0.4,1.4,0.9,0.8,2c-0.4,0.7-1,1.4-1.6,2c-1.3,1.4-2.7,2.6-4,4c-0.5,0.6-1.2,1-1,2c0.8,0.5,1.5,0.1,2.2-0.2
	c1.4-0.6,2.8-1.4,4.2-2c0.9-0.4,1.9-1.2,2.8-0.5c0.9,0.7,0.4,1.9,0.2,2.9c-0.2,1.1-0.5,2.2-0.7,3.4c-0.1,0.6-0.2,1.2-0.2,1.8
	c0,0.3,0.2,0.8,0.5,0.9s0.8,0,0.9-0.3c0.7-0.8,1.2-1.6,1.8-2.4c0.7-1,1.4-2,2.2-2.8c0.8-0.8,1.6-0.6,1.7,0.6
	c0.2,1.8,0.2,3.6,0.4,5.4c0.1,1,0,2.1,0.9,2.8c1-0.1,1.2-0.8,1.3-1.5c0.4-1.5,0.8-3,1.2-4.6c0.3-0.9,0.4-1.9,1.5-2.6
	c0.4,0.5,1,1,1.3,1.6c0.5,0.8,0.8,1.6,1.4,2.3c0.3,0.4,1,0.9,1.4,0.9c0.8,0,0.8-0.8,0.8-1.4c0-1.2,0-2.3,0-3.4c0-0.4,0-0.8,0.1-1.3
	c0.1-0.7,0.6-1,1.2-0.7c0.6,0.3,1.3,0.7,1.8,1.2c1.5,1.3,3,2.6,4.5,4c0.6,0.5,1.2,0.9,1.9,1.4c0.6-0.9,0.3-1.5,0-2.2
	c-0.7-1.7-1.5-3.3-2.1-5c-0.5-1.3-1-2.6-1.2-4c-0.3-1.8,0.6-2.5,2.3-2s3.4,1.1,5.2,1.7c1,0.3,2,0.7,3,0.8c1.3,0.2,2-0.6,1.4-1.9
	c-0.4-0.8-0.8-1.5-1.4-2.1c-1.2-1.4-2.6-2.7-3.9-4c-0.7-0.7-1.3-1.4-1.9-2.2c-1-1.3-0.8-1.9,0.6-2.8c0.4-0.2,0.8-0.5,1.3-0.6
	c4.3-1.6,8.7-2.4,13.3-2.3c0.3,0,0.6,0,0.9,0.1c0.6,0.2,0.8,0.8,0.3,1.2c-0.4,0.4-1,0.7-1.6,0.9c-1.6,0.6-3.2,1.2-4.7,1.9
	c-3.8,1.6-4,2.6-1.2,5.7c1.4,1.6,3,3.1,4.5,4.7c1.2,1.3,2.4,2.6,3.4,4c0.7,0.9,1.4,2,0.7,3.2c-0.7,1.2-2,0.9-3.2,0.6
	c-2.7-0.8-5.3-1.6-8-2.4c-1-0.3-2-0.6-3-0.8c-0.6-0.1-1.3-0.1-1.9-0.2c-0.5,1.1-0.2,2,0.1,2.8c0.8,2,1.7,4,2.5,6
	c0.6,1.4,1.1,2.8,1.6,4.2c0.2,0.4,0.2,0.8,0.3,1.2c0,0.7,0.2,1.5-0.5,2c-0.7,0.5-1.4,0.2-2-0.2c-1.1-0.7-2.2-1.4-3.3-2.3
	c-1.5-1.2-3-2.5-4.4-3.7c-0.4-0.4-0.9-0.7-1.3-1c-1.6-1-2.4-0.7-2.9,1.2c-0.2,1-0.4,2-0.6,3c-0.2,0.6-0.5,1.5-1,1.8
	c-0.8,0.4-1.4-0.5-1.9-1.1c-0.4-0.5-0.8-1-1.3-1.5c-1.4-1.5-2.2-1.4-2.8,0.5c-0.6,1.7-1,3.5-1.4,5.3c-0.4,1.4-0.8,2.9-1.3,4.3
	c-0.2,0.6-0.5,1.1-0.9,1.6c-0.6,0.7-1.4,0.7-1.8,0c-0.4-0.8-0.8-1.6-1-2.5c-0.3-1.8-0.5-3.6-0.8-5.4c-0.1-0.8-0.2-1.6-0.4-2.3
	c-0.4-1.6-1.1-1.8-2.4-0.8c-0.6,0.4-1,1-1.6,1.5c-0.6,0.5-1.2,1.1-1.8,1.5c-1.8,1.1-3.1,0.4-3.2-1.7c0-0.9,0.1-1.8,0.2-2.7
	c0.1-1.3,0.3-2.5,0.4-3.8c0.1-2.1-0.6-2.6-2.5-1.8c-1.4,0.6-2.7,1.3-4,2c-2,1-3.9,2.1-5.9,3.1c-0.8,0.4-1.8,0.8-2.7,1
	c-0.5,0.1-1.3,0-1.5-0.3c-0.3-0.4-0.3-1.2-0.1-1.6c0.3-0.8,0.8-1.6,1.4-2.3c1.4-1.7,2.9-3.4,4.4-5.1c1.3-1.5,2.6-3,3.9-4.5
	c0.6-0.7,1-1.5,1.5-2.3H523.9z"/>
<path class="st0" d="M573.8,449.5c1.3,1.6,2.9,2,4.4,2.1c6.3,0.8,12.1-0.4,17.1-4.8c0.4-0.4,0.8-0.7,1.2-1c1.2-0.8,1.8-0.6,2.5,0.6
	c0.1,0.2,0.2,0.3,0.2,0.5c2.4,4.7,6.4,6.9,11.5,7.3c1.3,0.1,2.6-0.1,4-0.2c0.6,0,1.3-0.2,1.6,0.5c0.3,0.7-0.2,1.2-0.7,1.7
	c-1.9,1.6-9,2.8-11.7,1c-1-0.7-1.8-1.7-2.8-2.6c-0.4,0.2-0.9,0.4-1.4,0.7c-8.6,4.8-21.2,3.7-28.4-1.8c-0.3-0.2-0.7-0.5-1-0.7
	c-2.4-2.1-5.2-2.9-8.3-3c-4-0.1-7.1-2.2-10-5.3c1.2,0,2.1,0.1,3,0c1.3-0.1,2.7-0.2,3.9-0.6c3.3-1,5.1-3.4,5.3-6.8c0-0.6,0-1.2,0-2.1
	c0.8,0.5,1.3,0.8,1.8,1.2c2.4,1.8,4,4.2,4.7,7.1c0.3,1.3,1,1.9,2.2,2c1.3,0.2,2.6,0.3,4,0.2c2.2-0.2,3.8-1.4,4.6-3.6
	c0.1-0.4,0.2-0.7,0.4-1.1c1-0.2,2.1-0.4,3.1-0.7c5.5-1.4,9.5-4.5,11.1-10.1c0-0.2,0.2-0.3,0.2-0.5c2.1,0.4,3.9,1.6,6.9,4.5
	c3.6-1.1,7.4-0.3,11,0.6c0.2-0.2,0.4-0.2,0.4-0.3c0.2-0.9,0.7-1.6,1.8-1.4c1,0.1,1.2,0.9,1.4,1.7c0.2,1,0.5,2,1.5,2.6
	c0.7,0.4,1.2,1.1,0.8,2c-0.3,0.9-1,1.1-1.9,1.1c-0.2,0-0.4,0-0.7,0.1c-0.3,0.8-0.6,1.6-0.9,2.4c-0.5,1.4-0.8,2.8-1.4,4.1
	c-1.5,3.2-3.7,4-7,2.8c-3-1-4.9-3.2-6.3-5.9c-0.3-0.6-0.5-1.2-0.8-1.8c-1-1.6-2.6-2-4.2-0.8c-0.5,0.4-0.9,0.8-1.3,1.2
	c-4.5,4.5-9.9,6.8-16.3,6.9C577.4,449.4,575.8,449.4,573.8,449.5L573.8,449.5z M611.6,440.8c0-1.4-1.1-2.7-2.6-2.8
	c-1.5-0.1-2.8,1.1-2.9,2.6c0,1.4,1.2,2.7,2.6,2.8C610.2,443.5,611.6,442.3,611.6,440.8L611.6,440.8z"/>
<path class="st0" d="M670.5,376.4c1.4-2.8,2.9-5.6,4.4-8.5c-0.6-0.3-1.2-0.6-1.7-0.9c-1.5-1-3.1-1.9-4.4-3c-1.8-1.6-2.1-3.7-1.1-5.9
	c1.1-2.3,2.9-4,5.2-5.2c0.4-0.2,0.9-0.2,1.4-0.3c0.5,1.4,0.2,2.6,0,3.9c-0.2,1.6-0.5,3.1-0.8,4.6c-0.2,1.4,0.1,2.6,0.9,3.8
	c0.8,1,1.5,1.2,2.4,0.3c2.6-2.6,3.8-5.9,3-9.6c-0.7-3.5-3-5.7-6.4-6.8c-1.2-0.4-2.4-0.2-3.5,0.3c-2.6,1.1-5.2,1.9-8,2.2
	c-8.5,1-15-2.7-18.3-10.5c-1.1-2.7-1.8-5.5-1.9-8.5c0-0.4,0-0.7,0-1.1c1.3,0.4,2.4,0.8,3.6,1.1c2.5,0.6,5,0.1,7.4-0.2
	c5.7-0.8,10.4,0.9,14.1,5.3c1.5,1.8,3,3.8,4.4,5.8c0.6,0.9,1.4,1.6,2.4,2.2c1.5,1,3.1,1.9,4.4,3.1c4.6,4.1,5.5,9.9,2.4,15.3
	c-0.9,1.6-2,3-3.1,4.5c-1.1,1.6-2.2,3.2-3.2,4.8c-0.7,1.2-1.2,2.6-1.8,4c1,0.4,1.6-0.2,2.1-0.6c0.8-0.8,1.6-1.6,2.4-2.5
	c0.6-0.6,1.2-1.3,2-1.8c1.8-1.2,3.5-0.4,3.8,1.8c0.2,1.6-0.2,3.2-0.7,4.8c-0.8,2-1.8,3.9-3.7,5.6c-0.1-0.7-0.2-1.2-0.2-1.6
	c-0.3-1.4-0.6-2.8-2.2-3.3c-1.7-0.5-3.1,0.3-4.1,1.6c-0.6,0.8-1,1.6-1.6,2.4c-0.4,0.6-0.7,1.1-1,1.8c-0.7-0.4-0.6-1.1-0.8-1.6
	c-1.1-2.7-2.1-5.4-3.4-8c-0.7-1.4-1.6-2.7-2.6-3.9c-1.9-2.4-4.3-4-7.3-4.8c-1.4-0.4-2.8-0.7-4.2-1.2c-3.3-1.2-4.4-3.2-3.8-6.6
	c0.1-0.5,0.3-1,0.4-1.6c0.3-1.6,0.5-3.3,0.8-5.1c1.4,0.4,2.6,1.4,3.4,2.8c0.5,0.8,0.9,1.7,1.2,2.6c0.9,3.1,2.6,5.5,5.3,7.4
	c4.6,3.4,8.1,7.8,10.1,13.2c0.1,0.3,0.3,0.6,0.6,1.1c0.4-2,0-3.5-0.4-5.1c-0.8-2.7-2.1-5.1-3.8-7.3c-2.2-2.8-4.6-5.6-6.9-8.4
	c-1-1.2-2-2.2-2.7-3.9c3.6,0.2,6.7,1,8.5,4.2c1,1.6,1.8,3.4,2.5,5.2c1.6,4,3,8,4.5,12.1L670.5,376.4z M668.7,345.3
	c-0.1-0.5-0.1-0.7-0.2-0.8c-0.1-0.2-0.3-0.4-0.5-0.6c-2-1.2-3.1-2.8-3.4-5.1c0-0.4-0.5-0.8-0.8-1.2c-0.2,0-0.3,0-0.5,0.1
	c-0.3,1.1-0.6,2.2-0.8,3.4c-1.2,0.4-2-0.2-2.5-1c-0.7-1-1.2-2.1-1.8-3.1c-0.4-0.6-0.8-1.1-1.2-1.6c-0.2,0-0.3,0.1-0.5,0.1
	c-0.1,0.6-0.2,1.1-0.2,1.6c0,0.5,0.2,1,0.1,1.4c-0.1,0.4-0.3,1-0.6,1.2c-0.3,0.2-0.9-0.1-1.3-0.3c-0.4-0.3-0.8-0.8-1.2-1.2
	c-0.5-0.6-1-1.2-1.5-1.8c-0.4-0.5-1-0.9-1.8-0.4c0,0.4,0,0.8,0.2,1.2c0.2,0.8,1.4,1.6,0.8,2.4c-0.5,0.6-1.6,0.6-2.4,0.9
	c-0.6,0.2-1.4,0.2-1.5,1c0.5,0.9,1.3,0.8,2,0.7c1.2-0.1,2.4-0.4,3.6-0.5c0.8-0.1,1.6-0.2,2,0.8c-0.2,1.4-2.2,1.7-2.3,3.2
	c0.7,0.7,1.4,0.4,2,0.1c0.6-0.3,1.3-0.7,1.9-1c1-0.5,1.9-1,2.9-1.5c0.8-0.4,1.8-0.5,2.5,0.6c-0.4,0.5-0.7,1-1.1,1.5
	c-0.4,0.5-0.8,1-1,1.5c-0.1,0.3-0.1,0.9,0.1,1.1c0.2,0.2,0.8,0.1,1.1-0.1c0.5-0.3,1-0.7,1.4-1.2c1.2-1.2,2.6-1.7,4.2-1.4
	c0.7,0.1,1.4,0,2.2,0L668.7,345.3z"/>
<path class="st0" d="M619,304.9c-2.3,1.2-3.6,3.4-6.2,4.4c0.1-0.6,0.1-1,0.2-1.3c0.5-1.1,1.1-2.2,1.6-3.2c0.3-0.6,0.7-1.3,1-2
	c0.6-1.4,0.3-1.9-1.2-2.2c-0.4-0.1-0.7,0-1.1-0.1c-0.6-0.1-1.1-0.3-2.1-0.5c0.7-0.7,1.2-1.2,1.7-1.7c0.8-0.6,1.7-1.2,2.4-1.9
	c1-1,0.9-1.9-0.3-2.7c-0.6-0.4-1.3-0.6-1.9-1c-0.5-0.3-0.9-0.7-1.6-1.2c1.2-0.7,2-1.2,2.9-1.7c1.6-1,1.7-1.4,0.7-3
	c-0.8-1.3-1.8-2.6-2.6-3.9c-0.4-0.6-0.8-1.2-0.7-2.1c2.9,0.5,4.9,2.8,8,3.3c0.3-1.7,0.5-3.2,0.8-5.1c0.9,0.8,1.5,1.4,2.1,1.9
	c0.8,0.8,1.6,1.1,2.8,0.7c1.2-0.5,2.5-0.9,3.8-1.2c4.4-1.3,8.6-0.8,12.7,1.1c4.4,2.1,6.8,5.8,7.6,10.6c0.4,2.2,0.3,4.4-0.2,6.7
	c-2.2,10.3-13.7,14-21,10.4c-1.1-0.6-2.2-1.2-3.4-1.8c-1.1-0.6-1.4-0.5-2.2,0.5c-0.6,0.7-0.9,1.7-1.9,2.2
	C619.9,308.4,620.8,306.2,619,304.9L619,304.9z M633.2,304.2c-1.2,0.3-2-0.5-3-0.9c-0.9-0.4-1.8-0.8-2.7-1c-0.4-0.1-1,0.2-1.2,0.5
	c-0.2,0.2-0.1,0.8,0.1,1.1c0.3,0.5,0.8,0.9,1.3,1.2c5.9,3.6,13.7,1.3,15.9-5.5c0.9-2.8,0.9-5.6,0.4-8.4c-1.6-8.5-9-9.7-14.1-8
	c-0.8,0.2-1.5,0.8-2.2,1.3c-0.6,0.4-0.8,1.1-0.5,1.8c0.3,0.7,1,0.7,1.6,0.6c1.2-0.2,2.4-0.6,3.5-0.8c0.6-0.1,1.2-0.2,2.2-0.4
	c-0.6,1.5-1.1,2.6-1.6,3.8c2.4,1.2,5.1,0.2,7.4,1.4c-1.4,2-3.9,1.7-5.4,3.3c1.1,2.1,3.7,2.9,4.3,5.5c-2.4,0.4-4.6-0.9-6.9-0.4
	C631.9,301.2,633.3,302.4,633.2,304.2L633.2,304.2z M618.6,291c0,0-0.2,0.3-0.2,0.4c0.8,0.9,1.7,1.7,2.6,2.6c-1,1-1.8,1.9-2.8,3
	c1.6,0.2,2.6,0.2,3.8,0.4c0.1,1.2,0.2,2.3,0.4,3.4c0.3,0,0.5,0,0.5,0c0.4-0.4,0.8-0.9,1.2-1.4c0.9-1.2,1-1.2,2.4-0.8
	c0.6,0.2,1.2,0.4,2.2,0.6c-0.6-1.3-1-2.3-1.4-3.3c1.3-0.3,2.4-0.6,3.6-1c0-0.1,0-0.3,0-0.4c-1.2-0.5-2.3-1-3.4-1.5
	c0.2-1.3,1.4-1.8,1.3-3c-0.2-0.1-0.2-0.1-0.3-0.1c-0.6,0.2-1.2,0.4-1.9,0.6c-1.1,0.3-1.3,0.2-1.8-0.8c-0.4-0.8-0.8-1.6-1.1-2.3
	c-0.1,0-0.2,0-0.4,0c-0.4,1.2-0.8,2.3-1.2,3.5C620.7,291.1,619.7,291,618.6,291L618.6,291z"/>
<path class="st0" d="M527.7,398.9c-3.6,0.2-4.8-0.4-7.1-3.3c-1.9,2.2-2.3,6.3-0.6,8.9c0.8,1.2,1.8,2.3,2.8,3.3
	c1.2,1.3,2.7,2.5,3.8,3.8c2.1,2.5,2,5.5,0,8.5c-2-1.6-4.2-3-6.1-4.8c-4.1-3.8-5.3-8.8-4.8-14.2c0.2-3.5,1.4-6.7,3.3-9.7
	c1.4-2.2,2.9-4.3,4.3-6.5c0.8-1.2,1.4-2.4,2-3.6c0.6-1.4,0.3-2.7-0.8-3.8c-0.8-0.8-1.6-1.7-2.3-2.5c-1.4-1.4-2.7-1.2-3.5,0.7
	c-0.6,1.4-0.4,2.8,0.4,4c1.2,1.7,1,3.3,0,4.8c-0.7,1.2-1.5,2.3-2.5,3.3c-1.2,1.2-2.4,1-3-0.5c-0.7-1.6-1.3-3.4-1.6-5.2
	c-0.8-5.7-0.7-11.3,0.6-16.9c0.3-1.2,0.8-2.3,1.2-3.4c0.3-0.6,0.8-1.3,1.9-0.9c0,0.5,0.1,1.1,0,1.7c0,1.7-0.1,3.4-0.1,5.1
	c0,0.6,0,1.2,0.2,1.8c0.2,0.4,0.6,0.9,1,0.9c0.3,0,0.8-0.4,1-0.8c0.3-0.5,0.4-1.1,0.6-1.7c0.5-2.2,0.9-4.5,1.4-6.7
	c0.2-0.9,0.5-1.8,0.8-2.6c0.2-0.4,0.4-0.9,0.8-1.2c0.4-0.3,1-0.6,1.4-0.5c0.3,0,0.6,0.7,0.6,1.1c0,1.2,0,2.4-0.2,3.6
	c-0.3,2-0.8,4-1.1,6.1c-0.1,0.6-0.1,1.3,0,2c0,0.3,0.4,0.7,0.6,0.7c0.2,0,0.7-0.2,0.8-0.5c0.4-0.7,0.7-1.4,1-2.2
	c0.9-2.5,1.6-5.1,2.6-7.5c0.5-1.3,1.1-2.6,1.7-3.8c0.3-0.6,0.8-1.2,1.6-1c0.8,0.2,1,1,0.9,1.8c-0.2,1.2-0.4,2.5-0.8,3.7
	c-0.9,3-1.9,6.1-2.9,9.1c-0.2,0.8-0.5,1.6-0.1,2.4c1.1,0.2,1.6-0.6,2-1.3c1.2-2.2,2.3-4.4,3.4-6.6c0.6-1.1,0.8-2.4,1.4-3.6
	c0.4-0.9,0.7-1.9,1.9-1.9c0.7,0,1.2,1.1,1,2.6c-0.3,1.8-0.7,3.6-1.2,5.3c-1.4,4.4-3.3,8.7-5.5,12.8c-1.2,2.4-2.4,4.8-3.6,7.3
	c-0.3,0.6-0.5,1.2-0.8,1.8c-1.3,3.4-1.6,6.7,1.6,9.7V398.9z"/>
<path class="st0" d="M616.9,396.3c0.7,0.2,1.5,0.4,2.2,0.8c1,0.4,1.4,1.1,1.2,2c-0.2,0.8-0.8,1.3-1.9,1.4c-1.2,0-2.4,0-3.6-0.1
	c-1.5,0-2.9,0.2-4,1.6c0.4,0.3,0.9,0.6,1.3,0.9c0.9,0.8,0.8,2-0.2,2.6c-0.6,0.4-1.4,0.6-2.2,0.9c-1.1,0.4-2.2,0.6-3.3,1.1
	c-4.2,1.7-5.1,5.8-4.1,9.7c0.6,2.4,2.2,4.3,4.2,5.7c3.9,2.8,8.3,3.5,12.9,2.4c0.9-0.2,1.8-0.7,2.6-1.3c1.2-1,0.9-1.8-0.6-2.2
	c-0.2-0.1-0.4-0.1-0.9-0.2c0.2-0.6,0.4-1.1,0.6-1.7c0.1-0.4,0.1-1-0.2-1.3c-0.2-0.2-0.9-0.3-1.3-0.2c-0.9,0.2-1.8,0.7-2.7,1
	c-2.5,0.8-5.1,1.1-7.7,0.2c-1-0.4-1.9-1-2.8-1.7c-1-0.8-1.2-1.6-1-3.2c0.3,0,0.7-0.1,1-0.1c0.3,0,0.6,0,1.1,0
	c0.1-0.6,0.1-1.2,0.3-1.7c0.2-0.6,0.3-1.4,0.7-1.7c0.6-0.5,1.2,0.2,1.7,0.6c2.1,1.8,4.6,3,7.3,3.4c5.1,0.8,10,0.5,14.7-1.6
	c0.1,0,0.2,0,0.6-0.1c-0.2,1.2-0.3,2.3-0.6,3.3c-1.9,7.6-8.5,12.7-16.4,13c-11.4,0.4-18-7.5-19.5-15.6c-1.8-10.3,5.1-20.5,15.4-22.4
	c2.3-0.4,4.6-0.6,6.8,0c0.6,0.2,1.2,0.4,1.6,0.7c0.4,0.2,0.8,0.8,0.7,1.1c0,0.3-0.6,0.7-1,0.9c-0.6,0.2-1.3,0.2-1.9,0.5
	c-0.6,0.2-1,0.6-1.6,0.9C616.8,396,616.8,396.1,616.9,396.3L616.9,396.3z"/>
<path class="st0" d="M525.9,492.5c-0.3,5.1-0.2,9.3-1.4,13.4c-0.7,2.5-1.6,4.9-3,7.1c-4.2,6.7-10.1,8.7-17.1,7.6
	c-7.1-1-11.3-5.4-12.8-12.7c-1.3-6.3-0.9-12.5,0.6-18.7c0.5-2.2,1.2-4.4,2-6.6c0.7-2.1,2.4-3,4.5-3.4c1.5-0.3,2.3,0.3,2.2,1.8
	c0,1.6-0.2,3.1-0.5,4.7c-1.3,6.4-1.8,12.8-1.3,19.3c0.2,2.6,0.7,5,1.8,7.3c3.2,6.7,11.5,6,14.9,1.4c0.6-0.8,1.1-1.6,1.5-2.5
	c2.3-5.7,3.3-11.5,2.2-17.6c-0.2-1.4-0.8-2.8-1.2-4.2c-0.6-1.8-1.1-3.7-0.9-5.7c0.2-1.8,0.8-3.3,2.2-4.4c2-1.6,3.8-1.2,4.7,1.2
	c0.6,1.7,1,3.5,1.2,5.3C525.7,488.3,525.7,490.8,525.9,492.5L525.9,492.5z"/>
<path class="st0" d="M679.4,508.1c-0.5,0.9-0.8,1.4-1.1,2c-1.6,2.8-3.4,5.3-5.9,7.3c-3.3,2.5-7,3.7-11.2,2.9c-3.8-0.7-6.3-3.2-6.9-7
	c-0.7-4.2-0.1-8.2,2.2-11.9c1.3-2.1,3-3.8,5.3-4.8c3.5-1.6,6.9-0.6,9.1,2.6c2.1,3.2,1.8,7-0.9,9.6c-1.5,1.5-3.4,2.3-5.3,3
	c-0.9,0.4-1.8,0.7-2.7,1.1c-0.9,0.5-1,1.2-0.2,1.8c0.8,0.5,1.7,0.9,2.6,1.1c2.4,0.4,4.6-0.1,6.5-1.6c1.4-1.2,2.8-2.7,3.9-4.2
	c2-2.8,3.2-5.9,4.2-9.2c0.2-0.8,0.5-1.6,0.9-2.4c0.3-0.6,0.8-1.1,1.3-1.4c1-0.7,1.7-0.4,2,0.8c0.4,1.3,0.5,2.6,0.7,3.9
	c0.3,1.8,0.4,3.6,0.8,5.4c0.2,0.9,0.4,1.9,0.9,2.8c0.6,1.2,1.4,1.2,2.1,0c0.4-0.8,0.7-1.6,1.1-2.5c1.1-2.4,2.1-4.7,3.4-7
	c1.1-2,2.6-3.8,4.5-5.2c2.8-2,5.8-2.6,9.1-1.6c2.3,0.7,3.7,2.5,3.7,4.6c0,1.6-0.9,3.1-2.3,3.5c-1.6,0.6-3.6,0-4.6-1.3
	c0,0-0.1-0.1-0.1-0.2c-1.4-2-2.4-2.3-4.4-0.8c-1.1,0.9-2.2,2-2.9,3.2c-1.5,2.5-2.8,5.1-4.1,7.7c-1,2-1.8,4-2.7,6
	c-0.4,0.8-0.8,1.6-1.2,2.4c-0.6,1-1.2,1.9-2.4,1.9c-1.4,0-1.9-1.2-2.4-2.2c-0.4-0.8-0.6-1.6-0.8-2.4c-0.5-1.9-0.9-3.9-1.4-5.8
	C679.8,509.6,679.6,509.1,679.4,508.1L679.4,508.1z M659.7,510.4c2.4-0.4,4.4-1.4,5.8-3.3c1-1.3,1.2-2.7,0.7-4.2
	c-0.8-2.2-3.3-3-5.1-1.3c-0.6,0.6-1,1.4-1.3,2.1C659,505.9,659,508,659.7,510.4z"/>
<path class="st0" d="M681.8,280.6c-2.2,2-2.3,4.2-1.5,6.6c0.8,2.5,1.3,5,1.3,7.7c-0.1,4.9-2.2,8.5-6.5,10.9
	c-2.9,1.6-6.1,2.4-9.3,2.8c-5.3,0.7-10.5,0.3-15.8-0.4c-0.3,0-0.6-0.2-1.3-0.4c0.6-0.4,1-0.7,1.5-1c3-1.7,3.7-3,3.2-6.5
	c-0.1-0.8-0.2-1.5-0.4-2.6c0.7,0.4,1.2,0.6,1.5,0.9c0.8,0.6,1.4,1.3,2.2,1.9c1.1,0.9,2.4,1.3,3.9,1.2c1.3-0.1,2.4-0.6,2.8-1.9
	s0.4-2.6-0.6-3.6c-0.8-0.8-1.6-1.5-2.6-1.9c-1.7-0.8-3.5-1.3-5.3-2c-0.8-0.3-1.6-0.6-2.8-1.1c3.2-1.8,6.4-1.9,9.7-2.5
	c-0.6-0.7-1-1.2-1.4-1.6c-2.2-2.2-4.9-3.4-7.9-4.2c-0.8-0.2-1.6-0.5-2.8-0.8c1.4-1,2.6-1.1,3.8-1.4c3.4-0.7,6.8-1,10.3-0.3
	c0.4,0.1,0.8,0.2,1.2,0.3c2.5,0.9,3.3,2.4,2.5,4.9c-0.5,1.6-1.1,3.1-1,4.8c0,1,0.4,1.8,1.3,2.2c1.4,0.8,3,0.2,3.6-1.3
	c0.2-0.6,0.4-1.3,0.4-1.9c0-1.4,0-2.9-0.2-4.3c-0.4-3.8,2-6.1,5.8-5.4c1.4,0.2,2.7,0.6,4.3,1L681.8,280.6z M674.9,291.5
	c-0.2,3.2-1.2,5.7-3.4,7.8c-2.1,2-4.8,2.9-7.5,3.8c2.9,0.4,5.7,0.2,8.3-0.9c1.4-0.6,2.6-1.4,3.8-2.4c1.4-1.3,2-3,1.6-5
	C677.5,293.3,676.8,292.1,674.9,291.5L674.9,291.5z M678,283.4c0-0.9-0.8-1.7-1.8-1.6c-0.9,0-1.6,0.7-1.6,1.6c0,0.9,0.8,1.7,1.7,1.8
	C677.2,285.1,678,284.3,678,283.4z"/>
<path class="st0" d="M551.4,361.6c1.1-0.6,1.3-1.5,1.4-2.6c0.1-2.3,0.9-4.3,2.4-6.4c-6.1-0.4-10.7,1.8-14.1,6.6
	c-1.3-4.9,2.3-9.8,7.2-9.8c1.9,0,3.8,0.3,5.8,0.5c0.5,0,0.9,0.1,1.4,0.2c-1.3-3.7-7.2-6.1-10.8-4.4c-0.4-1.7-0.2-3.4,0.5-4.9
	c0.7-1.3,2.2-1.8,3.9-1.5c1.4,0.3,2.8,1,3.8,2.1c1.4,1.6,2.6,3.4,4,5.2c0.3,0.4,0.6,1,0.9,1.5c0.1,0,0.2,0,0.4-0.1c0-1,0-2,0.1-3
	c0.1-1.4,0.2-2.9,0.4-4.3c0.5-2.4,2.3-3,4.2-1.5c1.5,1.1,2.7,2.6,3.3,4.6c-3.5,0.2-4.2,3-5.6,5.3c0.1,0.1,0.2,0.2,0.2,0.3
	c0.6-0.4,1.2-0.7,1.8-1c2.2-1.3,4.4-2.6,6.9-3c1.1-0.2,2.3-0.3,3.4-0.2c4.9,0.7,6.3,5.4,3.6,8.9c-0.9-2-2.4-3.2-4.5-3.5
	c-3.3-0.6-6.6-0.2-10.1,0.9c0.5,0.3,0.8,0.5,1,0.6c1.3,0.4,2.7,0.7,4,1.3c3.2,1.5,4.1,5,2.1,7.9c-1.3,2-3.3,3-5.7,4.2
	c1-4.9-0.1-8.9-4.3-11.6c-0.8,1.6-1.6,3-2.4,4.5c-0.5,1-0.8,2,0.1,3c0.3,0.3,0.2,1,0.2,1.6c-0.1,1.3-0.3,2.6-0.4,4
	c0,0.8,0.1,1.5,0.8,2.1c0.4,0.3,0.6,0.9,0.7,1.4c0.2,0.9,0.2,1.8,0.4,2.7c0.2,1,0.2,2,1.4,2.6c0.2,0.1,0.4,0.4,0.5,0.7
	c0.6,1.4,1.2,2.6,2.3,3.6c0.6,0.5,0.6,1.2,0,1.8c-0.5,0.5-1.1,1-1.7,1.3c-0.6,0.4-1.2,0.1-1.7-0.5c-1-1.2-2-2.2-3-3.3
	c-0.7-0.7-1.1-1.3-1-2.4c0.1-0.7-0.3-1.5-0.6-2.2c-0.5-1-1.1-1.8-1.6-2.8c-0.4-0.9-0.7-1.7-0.2-2.7c0.3-0.6,0.1-1.5-0.1-2.2
	C552.5,365.1,551.9,363.4,551.4,361.6L551.4,361.6z"/>
<path class="st0" d="M535,415.4c0,2.4-0.2,4.6,0,6.7c1.2,9.3,8.9,13.5,16.4,12.2c3-0.5,5-2.5,5.4-5.6c0.4-3.1-0.2-6-2.1-8.6
	c-2-2.6-4.6-3.9-7.9-3.7c-3.6,0.2-5.4,2.9-4.2,6.3c1.1,3.3,5,5.2,8.3,4.2c1.4-0.5,2-1.3,1.7-2.8c-1.2-0.2-2.4-0.2-3.5-0.5
	c-0.8-0.2-1.5-0.8-2.1-1.3c-0.7-0.6-0.8-1.5-0.4-2.3s1.1-1.1,1.9-1c0.5,0,1.1,0.1,1.6,0.2c2.7,0.9,4.9,4,4.9,6.8
	c0,3.1-2.3,5.4-5.5,5.6c-6.2,0.4-11.5-4.8-11.5-11c0-4.2,3.4-7.6,7.8-7.7c4-0.1,7.5,1.3,10.1,4.4c3.9,4.4,5.1,9.7,4.1,15.4
	c-0.8,4.9-4.6,7.9-10.1,8.4c-8.4,0.8-16.7-4.6-19.4-12.6c-1.3-3.8-0.8-7.4,1.5-10.7C532.7,416.8,533.6,415.9,535,415.4L535,415.4z"
	/>
<path class="st0" d="M668.2,416.6c0,1.9-0.4,3.7-1.2,5.4c-2.6,5.5-6.6,9.9-11.5,13.5c-0.8,0.6-1.6,1.1-2.6,0.4
	c-1.1-0.8-1.9-1.7-1.9-3.1c0-0.4,0.4-1,0.8-1.3c0.4-0.4,1.1-0.6,1.6-0.8c3.4-1.6,6.1-4,7.9-7.3c0.6-1,0.9-2.2,1.2-3.4
	c0.1-0.4-0.3-1.2-0.7-1.5c-0.6-0.5-1.1,0.1-1.4,0.6c-0.8,1.1-1.4,2.2-2.2,3.3c-1.3,1.7-2.6,3.4-4,4.8c-2.4,2.4-4.7,2.7-7.8,1
	c-1.1-0.6-2.1-1.4-3-2.3c-1.2-1.2-1.1-2,0-3.1c0.8-0.8,1.8-1.6,2.7-2.4c1.4-1.1,2.8-2.1,4.1-3.2c0.8-0.7,1.6-1.5,2.2-2.3
	c0.4-0.6,0.7-1.3,0.7-2c0.1-1.2-0.9-1.7-1.9-1c-0.7,0.5-1.3,1.1-1.9,1.7c-2,1.9-4,3.8-6.2,5.6c-1.2,1-2.5,1.7-3.9,2.3
	c-1.6,0.7-2.5,0.2-3.1-1.4c-0.2-0.4-0.3-0.9-0.4-1.4c-0.2-1.4,0.1-1.9,1.4-2.4c0.6-0.2,1.2-0.4,1.9-0.6c3.4-0.8,6.2-2.6,8.4-5.3
	c0.5-0.6,1-1.2,1.5-1.8c3.2-4.2,7.8-4.5,11.7-3.3C665.4,406.9,668.3,411.1,668.2,416.6L668.2,416.6z M661.8,414.3c0,0,0.5,0,0.8,0
	c2.3-0.3,3-2,1.7-3.9c-1-1.4-2.4-2.4-4.1-2.7c-2.3-0.5-3.6,1-3.1,3.2C657.5,412.9,659.4,414.3,661.8,414.3L661.8,414.3z"/>
<path class="st0" d="M565,326.5c0.9-1.1,1.6-2,2.4-2.8c1.4-1.5,3-2.6,5-3.1c2.5-0.6,4.9,0.4,6.2,2.6c1.6,2.8,1.7,5.7,0.7,8.7
	c-0.1,0.4-0.4,0.6-0.9,1.3c-0.2-1-0.4-1.6-0.5-2.2c-0.1-0.7-0.1-1.4-0.3-2.1c-0.1-0.4-0.5-0.9-0.8-1c-0.4,0-0.9,0.4-1.1,0.7
	c-0.4,0.6-0.6,1.3-0.7,2c-0.1,1.1-0.2,2.2-0.1,3.2c0.1,2.1,0.7,2.5,2.7,2.2c-0.3,3.8-4.1,6-7.8,4.6c-1.4-0.6-2.6-1.4-3.3-2.7
	c-0.9-1.7-1.6-3.5-2.4-5.3c-0.3-0.6-0.4-1.4-0.6-2.3c-0.7,0.6-1.2,1.1-1.7,1.6c-2.1,2-4.4,3.8-7.4,4.3c-1.8,0.3-3.6,0.5-5.4,0.2
	c-5.5-0.9-6.9-6.7-5.4-10.3c0.2-0.4,0.6-0.8,1.2-1.5c0.4,0.8,0.6,1.2,0.8,1.7c0.2,0.9,0.3,1.8,0.6,2.6c0.6,1.6,2,2,3.4,1
	c0.4-0.3,0.8-0.6,1-1c1.2-2,1.7-4.1,1.4-6.4c-0.2-1.7-1.1-2.2-2.8-1.7c-0.4,0.1-0.8,0.3-1.4,0.5c0.2-0.6,0.3-1,0.5-1.3
	c2.1-3.6,5.3-5.4,9.5-5.2c3.6,0.2,6.5,3.2,7.1,7.3C564.9,323.5,564.9,324.9,565,326.5L565,326.5z M558.8,319.1
	c-0.2-0.3-0.4-0.7-0.6-1.2c-0.4,0.3-1,0.4-1.3,0.8c-0.4,0.6-0.7,1.2-1,1.9c-1.4,3.3-2.2,6.7-2.8,10.3c-0.1,0.5-0.1,1,0,1.4
	c0.1,0.7,0.8,1,1.3,0.6c0.4-0.4,0.8-0.9,1-1.4C557.3,327.7,558.2,323.5,558.8,319.1z M573.2,324.4c-0.5,0.4-0.9,0.7-1.1,1.1
	c-1.7,3-2.7,6.3-2.6,9.8c0,0.5,0.4,1,0.6,1.6C572.7,335.4,574.6,327.8,573.2,324.4L573.2,324.4z M563.1,326.1
	c-0.2-0.8-0.2-1.6-0.4-2.3c-0.4-1.3-1.5-1.5-2.3-0.4c-1.4,1.9-1.9,4.1-1.8,6.5c0.1,1,0.8,1.3,1.7,0.7
	C561.8,329.5,563.4,328.4,563.1,326.1L563.1,326.1z M568.3,326.7c-2.6,0.9-3.6,3.7-2.3,5.7c0.4,0.6,1,0.6,1.4-0.2
	C568.5,330.6,568.7,328.8,568.3,326.7z"/>
<path class="st0" d="M580.7,401.1c-2,0.6-3.6,0.4-5.2,0.1c-3.7-0.8-6.7-2.7-8.9-5.8c-2.9-4.1-2.5-9.7,1-13.3
	c0.2-0.2,0.4-0.3,0.6-0.4c0.9,0.6,1.7,1.2,2.6,1.7c0.7,0.4,1.6,0.6,2.4,0.7c0.4,0,1.1-0.4,1.3-0.8c0.2-0.4,0-1.1-0.2-1.4
	c-0.5-0.6-1.2-1.1-2-1.6c-1.4-1-3-1.8-4.4-2.9c-0.8-0.6-1.6-1.4-2.2-2.3c-1.2-1.7-1-3.3,0.5-4.8c0.8-0.8,1.6-1.4,2.5-2.1
	c1.2-1,2.6-1.8,3.8-2.8c2.2-1.7,3.2-3.9,2.2-6.7c-0.1-0.2,0-0.4-0.1-0.9c2.2,1.4,3.9,3,4.9,5.2c0.7,1.4,0.8,2.9,0.2,4.4
	c-0.4,1-1,1.9-1.6,2.8c-0.5,0.8-1.2,1.5-1.8,2.3c-1.4,2-1.3,3.4,0.5,5.1c0.6,0.6,1.2,1,1.8,1.6c2.1,1.9,2.4,3.6,1.2,6.2
	c-0.6,1.3-1.5,2.5-2.2,3.8c-0.6,1.1-1.2,2.2-1.6,3.4c-1,3.2,0.3,6.4,3.2,8c0.4,0.2,0.8,0.4,1.5,0.7V401.1z"/>
<path class="st0" d="M614.7,358.9c0.8,2.2,2.4,3.1,4.2,3.8c0.3,0.1,0.7,0.3,1,0.4c2.4,1.2,3.2,2.7,3.1,5.4c-0.1,1.2-0.2,2.4-0.2,3.6
	c0,0.5,0,1,0.2,1.4c0.2,0.6,0.6,0.9,1.2,0.9c0.7,0,1.2-0.4,1.3-1c0.1-0.6,0-1.3,0-2c0-0.8-0.1-1.6-0.1-2.4c0.1-1.6,1.1-2.4,2.6-2.3
	c0.8,0.1,1.6,0.4,2.4,0.7c1.8,0.7,3.5,1.4,5.4,2.2c-0.2,1-1,1.6-1.9,2c-1.2,0.6-2.5,1-3.7,1.5c-0.9,0.4-1.8,0.8-2.6,1.3
	c-1.1,0.8-1.5,1.9-1.2,3.2c0.3,1.3,1.3,1.8,2.5,2.1c0.2,0,0.5,0.1,0.7,0.1c2.2,0.2,2.6-0.2,2.5-2.3c0-0.4,0-0.8,0.1-1.4
	c0.6,0.2,1.2,0.4,1.6,0.6c2.3,1.3,4.4,3,6.3,4.9c1.3,1.4,1.2,2-0.5,2.8c-2.5,1-5.2,1.5-7.9,1.8c-0.2,0-0.4-0.1-0.7-0.1
	c-0.5-0.9,0.3-1.5,0.5-2.2c0.4-1.1,0.2-1.6-0.9-1.8c-1.2-0.2-2.4-0.2-3.6-0.1c-1,0.1-1.4,0.7-1,1.7c0.2,0.7,0.7,1.4,1.1,2
	c0.4,0.7,1,1.4,1.4,2.1c0.6,1.4,0,2.6-1.5,2.8c-1.3,0.2-2.5,0-3.6-0.7c-1.8-1.1-2.2-2.6-1.4-4.5c0.4-0.8,0.8-1.5,1.2-2.2
	c0.3-0.6,0.4-1.2-0.2-1.6c-0.6-0.4-1.2-0.3-1.6,0.2c-0.8,0.8-1.5,1.6-2.2,2.4c-2.1,2.5-4.6,3.9-7.9,4.3c0-0.2-0.1-0.3,0-0.4
	c1.9-2,2.2-4.5,1.8-7.1c-0.1-0.7-0.2-1.4-0.2-2.2c0-1,0.3-2,1.3-2.4c1-0.5,2-0.2,2.8,0.6c0.6,0.5,1.1,1.1,1.7,1.6
	c1,1,1.7,1.2,2.6,0.7c0.9-0.6,1.2-1.7,0.7-2.9c-0.4-0.7-0.9-1.4-1.5-2c-0.7-0.6-1.6-1-2.4-1.5c-1-0.6-2-1.2-2.9-1.8
	c-1.9-1.4-2.8-3.3-2.5-5.7C612.7,363.1,613.5,361,614.7,358.9L614.7,358.9z"/>
<path class="st0" d="M581.6,389c0.3,0.8,0.4,1.1,0.5,1.4c0.6,2.2,2.1,3.6,4.1,4.5c1.2,0.5,2.3,1,3.4,1.6c2.4,1.4,3.5,3.6,3.7,6.3
	c0.4,7.3-3.9,12.8-11.1,14.3c-9.5,1.9-15.6-3.9-17.6-9.4c-0.6-1.6-0.7-3.3-0.9-4.9c-0.1-0.7,0.2-1.6,0.5-2.3c0.4-1,1.2-1.1,2-0.4
	c0.3,0.2,0.5,0.5,0.8,0.8c2.3,2.5,5.1,3.7,8.5,4c2.3,0.2,4.6,0.3,6.8-0.4c1-0.3,1.9-0.8,2.7-1.4c1.1-1,1.1-2.1,0.1-3.1
	c-0.4-0.4-0.8-0.7-1.3-1c-0.6-0.4-1.2-0.8-1.8-1.2c-2.4-1.7-2.8-3.4-1.7-6.1C580.6,390.8,581,390.1,581.6,389L581.6,389z
	 M582.6,411.5c-0.1,1.6,0.6,2.1,2.1,1.6c0.6-0.2,1.1-0.5,1.6-0.8c1.4-1,2.5-2.4,3.2-4c0.3-0.8,0.5-1.6,0.5-2.4c0-1.3-0.8-1.7-1.9-1
	c-0.9,0.6-1.8,1.3-2.8,1.6c-1.7,0.6-2.6,1.5-2.5,3.4C582.8,410.4,582.7,411,582.6,411.5L582.6,411.5z"/>
<path class="st0" d="M656.9,375.8c1.1,0.4,2.3,0.7,3.6,1.1c-0.4,0.8-1.1,0.8-1.7,1c-1.1,0.2-2.3,0.3-3.4,0.8
	c-1.2,0.5-2.3,1.1-3.2,1.9c-1.2,1.3-0.7,2.7,1,3c2.3,0.4,4.4-0.1,6.6-0.8c1.2-0.4,2.3-0.9,3.8-1.5c-0.2,0.6-0.3,1-0.4,1.2
	c-0.2,0.3-0.4,0.6-0.6,0.9c-1.6,2.2-1.5,2.4,0.9,3.8c0.6,0.4,1.2,0.7,2.1,1.2c-1.1,0.5-1.9,0.2-2.7,0.2c-1.9-0.1-2.2,0.1-2.3,2
	c0,0.7-0.2,1.4-0.2,2c-0.2,0-0.3,0.1-0.4,0.1c-0.4-0.6-0.7-1.2-1.1-1.7c-1-1.4-2-2.9-3.1-4.2c-0.8-1-2-1.6-3.3-1.7
	c-1.3-0.1-2,0.5-1.9,1.8c0.1,1,0.5,2,1,2.9c1.1,2.1,2.9,3.6,4.9,4.7c0.7,0.4,1.3,0.8,1.9,1.5c-0.9,0.1-1.7,0.2-2.6,0.4
	c-1.2,0.2-1.4,0.4-1.3,1.7c0,0.6,0.2,1.2,0.3,1.8c0.1,0.6,0.1,1.2,0.1,1.9c-0.1,0.1-0.3,0.1-0.4,0.2c-1.2-1.2-2.3-2.5-3.5-3.8
	c-1.2,0.8-2.2,1.6-3.5,2.6c0.1-0.8,0.1-1.2,0.2-1.6c0.5-1.4,1.1-2.8,1.6-4.2c0.7-1.9,0.7-3.9,0.3-5.9c-0.1-0.3-0.2-0.6-0.3-0.8
	c-0.7-1.6-1.8-1.9-3.2-0.8c-1.6,1.3-2.5,3.1-2.8,5.1c-0.2,1.3-0.2,2.6-0.4,4c-0.1,0.7-0.3,1.5-0.4,2.4c-1.1-0.6-0.9-1.5-1.2-2.2
	c-0.6-1.7-0.9-1.8-2.5-1c-0.8,0.4-1.6,0.8-2.6,1.4c0.1-1.8,1.6-2.8,1.7-4.5c-1.4-0.4-2.8-0.9-4.1-1.4c0-0.1,0-0.3,0-0.4
	c0.8-0.2,1.7-0.5,2.5-0.6c2.3-0.4,4.4-1.2,6.3-2.5c3.4-2.4,3.6-6,0.4-8.7c-1.5-1.2-3.2-2.2-4.8-3.2c-0.6-0.4-1.1-0.8-1.7-1.2
	c0-0.2,0.1-0.3,0.1-0.4c0.7-0.1,1.4-0.2,2.2-0.3c1.7-0.1,2-0.3,1.8-2.1c0-0.6,0-1.3,0-2c0-0.2,0.1-0.3,0.2-0.6
	c1.5,0.6,1.7,2.4,3.2,3.2c1.1-0.9,2.1-1.8,3.6-3c0,1,0.2,1.4,0.1,1.9c-0.3,1.8-0.8,3.5-1,5.3c-0.1,1.2,0,2.4,0.2,3.6
	c0.2,0.8,0.8,1.4,1.6,1.5c0.9,0.1,1.5-0.4,1.9-1.1c0.8-1.2,1-2.6,1-4c-0.1-1.3-0.2-2.6-0.3-4c0-0.5,0-1-0.1-1.9
	c0.6,0.4,1,0.5,1.2,0.8c0.3,0.3,0.6,0.8,0.9,1.1c0.9,1.1,1.4,1.2,2.6,0.4c0.4-0.2,0.7-0.5,1-0.8c0.3-0.2,0.7-0.4,1.2-0.8
	C658.2,373.1,656.6,374.2,656.9,375.8L656.9,375.8z"/>
<path class="st0" d="M550.6,392.3c0.2,0.6,0.3,1.1,0.6,1.5c0.5,0.9,1.5,1.3,2.5,1.1c1.1-0.2,1.8-0.9,1.8-1.9c0-0.8-0.1-1.7-0.4-2.5
	c-0.5-1.2-1.1-2.4-1.8-3.6c-1.2-2-2.4-4-3.6-6.1c-3.4-5.9-4.2-8.3-5.5-16c-0.3,0.4-0.5,0.6-0.6,0.9c-1.1,3-1,6.1-0.1,9.1
	c0.7,2.6,1.6,5.1,2.5,7.6c0.8,2.2,1.4,4.4,1.4,6.7c0,2.2-1,3.9-2.8,4.6c-1.5,0.6-2.9,0.4-4-0.8c-1-1.1-1.4-2.4-0.6-3.9
	c0.3,0.3,0.5,0.5,0.8,0.7c1.1,0.8,2.5,0.5,3-0.8c0.2-0.6,0.3-1.3,0.4-1.9c0.1-2.3-0.6-4.4-1.2-6.6c-0.7-2.2-1.3-4.5-1.8-6.8
	c-0.3-1.3-0.2-2.6-0.3-4.3c-1,1.3-1.4,2.5-1.5,3.7c-0.2,2.3-0.2,4.7-0.3,7.1c0,1.4,0.1,2.8-0.1,4.2c-0.1,1.2-0.4,2.4-1,3.4
	c-0.8,1.6-2.2,2.3-4,2.3c-2.6,0-4.1-2.5-3-5.1c0.4,0.3,0.8,0.6,1.2,0.8c1.4,0.9,3.2,0.4,3.8-1.1c0.4-1,0.5-2.1,0.6-3.2
	c0.2-2.2,0.1-4.4,0.3-6.5c0.8-7.1,4.5-12.3,10.2-16.4c0.1,0,0.2,0,0.4,0c-0.3,1.2-0.6,2.3-0.9,3.4c-0.7,3.6-0.2,7,1.3,10.3
	c1.3,2.6,2.8,5.2,4.3,7.7c1.7,2.7,3.7,5.3,5.3,8c1,1.6,1.8,3.3,2.2,5.1c1,4.4-3.3,8.1-7.4,6.7C549.1,398.6,548.1,394.9,550.6,392.3
	L550.6,392.3z"/>
<path class="st0" d="M626.5,453c-0.7-0.1-1.6-0.2-2.6-0.4c-2.2-0.6-3.6-2.5-3.6-4.7c-0.1-4,1.7-7.2,4.3-10c0.6-0.6,1.2-0.8,2.1-0.5
	c5.7,1.8,11.1,0.7,16.1-2.4c0.7-0.4,1.2-1.3,2.2-0.8c1.1,0.4,1.8,1.2,2.2,2.2c0.7,1.8,0.6,3.5,0,5.3c-0.7,1.7-1.7,3.2-3,4.4
	c-3.9,3.8-8.7,5.8-14,6.6C629,452.9,627.9,452.9,626.5,453L626.5,453z M630.8,448.2c3.6,0,6.7-1.1,9-3.8c0.6-0.7,0.9-1.7,1.1-2.6
	c0.2-0.7,0.2-1.4-0.7-2c-2.6,1.5-5.6,2.1-8.6,2.2C631.4,444.1,631.1,446,630.8,448.2L630.8,448.2z"/>
<path class="st0" d="M559.2,289.5c-0.7-0.1-1.5-0.2-2.2-0.3c-1-0.2-1.9-0.5-2.8-0.5c-1.6-0.1-2.3,0.9-1.9,2.4c0.2,1,0.7,1.9,1,2.9
	c0.2,0.7,0.6,1.4,0.7,2c0.1,0.3-0.1,0.8-0.3,0.9s-0.7,0-1-0.2c-0.4-0.3-0.8-0.8-1.1-1.2c-0.6-0.8-1.1-1.6-1.8-2.3
	c-1.7-1.8-3.2-1.6-4,0.8c-0.4,1-0.5,2.1-0.8,3.2c-0.2,0.8-0.2,1.7-1.2,2.1c-0.9-0.2-0.8-1-0.8-1.6c-0.1-1.2-0.1-2.4-0.3-3.6
	c-0.4-2.2-1.8-2.8-3.7-1.7c-0.9,0.6-1.7,1.3-2.6,2c-0.6,0.4-1.1,1-2.2,0.4c0.3-0.6,0.6-1.2,1-1.8c0.6-1,1.4-1.8,2-2.8
	c0.4-0.6,1-1.4,0.4-2c-0.4-0.4-1.3-0.6-1.9-0.6c-1,0-2,0.3-3,0.4c-1,0.1-2,0.1-3,0.2l-0.2-0.4c0.3-0.3,0.5-0.7,0.9-0.9
	c0.9-0.4,1.8-0.7,2.7-1.1c0.7-0.3,1.4-0.6,2-0.9c1.6-1,1.5-2.4-0.2-3.3c-0.5-0.3-1.1-0.5-1.9-0.8c0.7-0.3,1.1-0.6,1.5-0.7
	c1-0.2,2-0.3,3-0.4c1.8-0.1,3.3,0.4,4.4,1.9c0.2,0.3,0.4,0.6,0.7,0.8c1.4,1.3,3.3,1.3,4.8,0.1c0.4-0.4,0.8-0.9,1.3-1.3
	c0.7-0.5,1.4-1.1,2.2-1.2c1.9-0.3,3.8-0.3,5.8,0.4c-0.2,0.8-1,0.9-1.5,1.2c-2,1.1-2.1,2.4-0.3,3.7c1,0.8,2.2,1.4,3.3,2.2
	c0.6,0.4,1.3,0.7,1,1.9L559.2,289.5z"/>
<path class="st0" d="M649.4,328.3c-7.2,0.1-13.2-4.4-14.6-10.9c-0.1-0.4-0.2-0.7-0.2-1.1c0-1,0.2-1.3,1.2-1.4c0.8-0.1,1.6,0,2.4-0.1
	c2.1-0.2,4.1-0.8,6.1-1.6c2-0.9,2.7-0.7,4,1c0.7,1,1.6,1.3,2.7,1c1-0.3,2-0.6,2.9-1c1.1-0.5,2-0.2,2.7,0.7c1.8,2.3,3,5,3.3,7.9
	c0.2,1.7-0.9,2.8-2.2,3.6c-1.9,1.2-4,1.6-6.2,1.8C650.6,328.3,649.9,328.3,649.4,328.3L649.4,328.3z M641.4,318.6
	c-0.2,1.8,0.7,2.5,1.6,3.2c2.9,1.9,6,2.4,9.3,1.4c0.6-0.2,1.1-0.5,1.6-0.8c0.3-0.2,0.4-0.6,0.8-1.2
	C650,320.8,645.7,320.2,641.4,318.6L641.4,318.6z"/>
<path class="st0" d="M594.7,422.6c0.3,0.4,0.5,0.6,0.7,0.8c0.5,0.9,0.5,1.7-0.1,2.3c-0.6,0.6-1.4,0.7-2.3,0.1c-1-0.6-2-1.2-3-0.1
	c0,0.2,0,0.4,0,0.6c1,3.2,0,5.9-2.6,7.9c-4.2,3.4-8.9,4.3-14.1,3.1c-1.9-0.4-3.4-1.4-4.6-3c-0.5-0.7-1-1.5-0.8-2.6
	c0.4,0,0.8-0.2,1.2-0.1c1.2,0.1,2.4,0.2,3.6,0.3c2.4,0.1,4.2-1,5.3-3.1c0.6-1.2,1.1-2.6,1.9-3.7c0.6-0.9,1.4-1.9,2.3-2.5
	c1.6-1,3.2-0.7,4.8,0.2c0.4,0.3,0.9,0.6,1.3,1c0.9-1,0.8-1.9,0.5-3c-0.1-0.5-0.3-0.9-0.4-1.4c-0.2-1,0.2-1.8,1-2.1
	c0.8-0.3,1.6,0,2.2,1c0.2,0.2,0.2,0.5,0.4,0.9c1.1-0.4,2.2-0.7,3,0.4C595.7,420.5,595.4,421.5,594.7,422.6L594.7,422.6z"/>
<path class="st0" d="M672.4,410.3c-0.2-3.2-2-5.1-4.6-6.3c-1.4-0.7-2.8-1.3-4.2-2.1c-1.8-1-2.4-2.6-2.1-4.6c0.3-2.1,2-3.7,4.1-3.6
	c1.4,0,2.7,0.4,4.2,0.6c0-0.2-0.2-0.6-0.2-0.9c-0.2-1.1-0.5-2.3-0.3-3.4c0.5-3.4,4.4-4.8,7.1-2.6c1.7,1.4,2.6,3.4,2.9,5.5
	c1,6.8-1.4,12.5-6.1,17.2C672.9,410.2,672.8,410.1,672.4,410.3L672.4,410.3z"/>
<path class="st0" d="M533.1,408.7c-3.6,0.8-5.8,0-6.6-2.4c-0.8-2.5,0.4-4.4,3.9-5.9c-0.1-3.6,0.7-5.1,3-5.9c2.3-0.7,3.7,0,5.7,2.9
	c1.4-0.5,2.9-1.1,4.4-0.2c1,0.6,1.7,1.4,2,2.4c0.8,2.5-0.3,4.2-4,5.9c0.2,1.4,0.5,3-0.6,4.2c-0.6,0.6-1.4,1.2-2.2,1.5
	C536.5,412.3,535,411.5,533.1,408.7L533.1,408.7z M538.7,403.2c0-1.5-1.1-2.6-2.6-2.6c-1.4,0-2.5,1.1-2.6,2.5c0,1.4,1.2,2.7,2.6,2.7
	C537.5,405.8,538.7,404.6,538.7,403.2z"/>
<path class="st0" d="M525.7,326.5c0.5,0,1,0,1.4,0c1.5,0,2.8,0.4,3.1,2.2c0.1,0.7,0.8,1.3,1.4,1.8c0.7,0.6,1,1.2,0.7,2
	c-1.7,6.3-6.9,10.2-12.6,10.1c-1,0-2-0.4-3-0.5c-1-0.2-2.1-0.4-3.2-0.4c-1.2-0.1-1.6-0.6-1.4-1.7c0.3-1.3,0.6-2.6,0.8-3.9
	c1.3-5.7,5.7-9.3,11.6-9.6C525,326.5,525.3,326.5,525.7,326.5L525.7,326.5L525.7,326.5z M519.1,331.3c-1.3,0.9-1.6,1.2-1.8,1.9
	c-0.9,2.6,1.4,6.3,4.2,6.5c1,0.1,2-0.1,2.8-1.4C521.1,337.2,519.6,334.7,519.1,331.3z M525.4,328.6c-1.1,0-1.8,0.5-1.7,1.6
	c0.2,2,1,3.7,2.7,4.9c0.3,0.2,0.6,0.3,1,0.4c0.8,0.2,1.4,0,1.8-0.8c0.4-0.8,0.6-1.5-0.2-2.1c-1-0.8-1.6-1.8-2-3
	C526.8,328.9,526.2,328.6,525.4,328.6L525.4,328.6z"/>
<path class="st0" d="M666.9,328.8c5.9-0.4,10.7-2.2,13.8-7.1c0.9,0.2,1.1,0.8,1.3,1.4c0.2,0.8,0.3,1.6,0.3,2.3
	c0.1,4.5,0,9.1-0.7,13.5c-0.2,1.1-0.4,2.1-0.8,3.2c-0.4,1-0.9,1.2-1.8,0.8c-0.6-0.2-1.1-0.5-1.6-0.8c-3.8-2.6-6.8-5.8-9-9.7
	C667.7,331.3,667.4,330.2,666.9,328.8L666.9,328.8z"/>
<path class="st0" d="M571.4,427.9c-4.6,0-8.7-3-9.8-7.3c-0.3-1.1-0.5-2.2-0.7-3.4c-0.4-2.7-1.9-4.7-4.3-5.9c-1.4-0.8-3-1.2-4.5-1.8
	c-1.1-0.4-2.2-0.6-3.2-1.1c-1.6-0.8-1.8-2.3-0.4-3.5c1.3-1.1,2.8-1.4,4.4-1.3c3.7,0.1,6.3,2,7.8,5.3c0.7,1.4,1.1,3,1.6,4.6
	c0.1,0.4,0.2,0.8,0.3,1.2c0.7,2.4,1.2,2.7,3.6,2.7c4,0,7,1.9,8.6,5.7c0,0,0,0.1,0.1,0.2c1,2.6,0.2,4.2-2.6,4.6
	C571.9,427.8,571.6,427.8,571.4,427.9z M570.5,424.5c1.4,0,1.9-0.5,1.8-1.4c-0.3-1.7-3.3-3.7-5-3.4c-1.2,0.2-1.8,1.4-1.1,2.3
	C567.3,423.4,568.9,424.3,570.5,424.5L570.5,424.5z"/>
<path class="st0" d="M615.2,336.2c-3.4-2.3-3.9-9.6-1.3-12.8c1.3,0.6,2.6,1.5,3.9,1.8c1.3,0.3,2.7,0.1,4,0.2c0.3,1.4-0.6,2.1-1,3
	c4.3,2.3,9.3-0.9,10.7-7.1c0.8,1.4,1,2.6,1,3.9c0,5.2-3.6,9.1-8.7,9.6c-1.8,0.2-3.6,0-5.4-0.6c-1.7-0.6-1.8-0.6-2.6,1.1
	C615.7,335.6,615.5,335.8,615.2,336.2z"/>
<path class="st0" d="M624.5,393.2c4.6,0.3,9.1,4.5,10,9.1c0.3,1.4,0.3,2.8-0.1,4.1c-0.8,3-3.3,4.6-6.5,4.2c-2.8-0.4-4.6-2.5-4.7-5.5
	c0-0.9,0.2-1.8,0.4-2.7c0.2-0.8,0.5-1.6,0.8-2.4C625.3,397.8,625.7,395.6,624.5,393.2L624.5,393.2z M628,398
	c-0.2,1.1-0.4,2.2-0.6,3.3c-0.1,1.1,0.4,1.8,1.4,2c0.9,0.1,1.7-0.5,2-1.5C631.1,400.3,629.9,398.4,628,398z"/>
<path class="st0" d="M534.3,337.3c2.7,0.9,4.7,2.3,6.2,4.6c1.1,1.8,1.4,3.7,0.9,5.7c-0.5,1.9-1.6,3.2-3.6,3.6c-2,0.4-3.7-0.4-4.9-2
	c-1.2-1.6-1.5-3.4-1.4-5.3C531.7,341.5,532.7,339.3,534.3,337.3L534.3,337.3z"/>
<path class="st0" d="M630.2,313.7c1,3.7-0.6,8.2-3.4,10.3c-1.2-1-2.4-2-3.6-2.9c-0.6-0.5-0.8-1.1-0.4-1.7c0.3-0.4,0.6-0.9,0.9-1.3
	c-2.4-2.4-5.9-1.6-8.5,1.7c-1.1-2.6,0.3-5.9,3.1-7.1c2.5-1.1,4.9-0.9,7.4,0.2c0.8,0.4,1.4,1,2.2,1.2
	C628.6,314.2,629.4,313.8,630.2,313.7z"/>
<path class="st0" d="M633.5,435.5c-1.6-0.4-3.2-0.7-4.8-1.2c-1.1-0.3-1.5-1.2-1.6-2.4c0-2.9,0.4-3.7,3.2-4.6c2.8-0.9,5.7-0.9,8.5,0
	c1.3,0.4,2.4,1,2.5,2.7c0.1,1.8-0.2,3.2-2,4C637.5,434.8,635.6,435.3,633.5,435.5L633.5,435.5z"/>
<path class="st0" d="M677.5,311.2c2,0.6,2.9,1.8,3,3.6c0.2,1.6-0.2,3.2-1.1,4.5c-3.2,4.7-7.7,6.8-13.3,6.5c-0.5,0-1-0.2-1.4-0.4
	c-1.1-0.4-1.6-1.2-1.5-2.2c0.1-1,0.8-1.8,2-2c1-0.2,1.9-0.2,2.9-0.3c2.4-0.3,4.5-1.2,6.5-2.6C677,316.2,677.8,314.4,677.5,311.2
	L677.5,311.2z"/>
<path class="st0" d="M527.3,322.8c-2.5,0.1-4.6-0.4-6.6-1.7c-1.9-1.2-3-2.9-3.1-5.2c0-1.9,0.6-3.5,2.4-4.3c1.8-0.8,3.7-0.6,5.3,0.8
	c1.2,1,1.8,2.4,2.2,3.9C527.9,318.4,527.9,320.5,527.3,322.8L527.3,322.8z"/>
<path class="st0" d="M637.6,400.2c3.7,0,6.8,2.3,7.5,5.5c0.7,3.3-1.8,6.1-5.1,5.7c-1.9-0.2-3.4-1.7-3.3-3.6c0-1,0.2-1.9,0.5-2.8
	C637.9,402.5,638,402.4,637.6,400.2L637.6,400.2z"/>
<path class="st0" d="M567.9,303.1c0.9,0.4,1.7,0.7,2.3,1.2c2.8,2.1,5.6,4.2,8.3,6.4c1.7,1.4,1.6,4.4,0.1,6c-0.6,0.7-1.1,0.7-1.9,0.1
	c-0.4-0.3-0.8-0.7-1.2-1.1c-2.7-3-5-6.2-6.9-9.7C568.1,305.2,567.6,304.4,567.9,303.1L567.9,303.1z"/>
<path class="st0" d="M632.6,356.1c2.5,0,4.5,1.9,4.6,4.4c0,2.5-1.9,4.5-4.4,4.6c-2.4,0-4.6-2-4.6-4.4
	C628.1,358.2,630.1,356.2,632.6,356.1z"/>
<path class="st0" d="M575.2,480.1c-0.2,1.8-0.7,3.3-2.2,4.4c-2.2,1.8-5.1,0.8-5.8-1.9c-0.6-2.2,0-4,1.7-5.5c1.2-1.1,2.7-1.2,4.2-0.5
	C574.7,477.2,575.2,478.5,575.2,480.1L575.2,480.1z"/>
<path class="st0" d="M662,313c2.8,0.6,5.3-0.1,7.7-1c1-0.4,2.1-0.7,3.1-0.7c1.4-0.1,2.2,1.1,1.6,2.4c-0.3,0.6-0.7,1.3-1.2,1.7
	c-2.1,1.7-4.5,2.7-7.3,2.8c-2,0-2.6-0.5-3.2-2.5C662.5,314.9,662.3,314.1,662,313L662,313z"/>
<path class="st0" d="M637,341c0,2.3-1.9,4.1-4.2,4.1c-2.2,0-4.1-1.9-4.2-4.2c0-2.3,2-4.3,4.2-4.2C635.2,336.8,637,338.7,637,341
	L637,341z"/>
<path class="st0" d="M621.4,347.7c0-2.2,1.7-3.9,3.9-3.9s4,1.8,4,4c0,2.1-1.8,3.9-4,3.9C623.1,351.8,621.4,350,621.4,347.7z"/>
<path class="st0" d="M620.3,352.1c0,2-1.7,3.7-3.7,3.7c-2,0-3.7-1.7-3.6-3.7c0-2,1.7-3.7,3.7-3.7C618.7,348.3,620.3,350,620.3,352.1
	z"/>
<path class="st0" d="M519.6,324.4c-3.2,2.1-6.7,1.6-8.3-1c-1.6-2.6-0.6-6,2.4-7.6c0.2,1.8,0.4,3.7,1.4,5.3
	C516.2,322.7,517.7,323.7,519.6,324.4L519.6,324.4z"/>
<path class="st0" d="M615.5,404.2c1.8,0.2,3.1,0.6,4.3,1.6c1,0.9,1.7,2,1.7,3.4c0,1.8-1.2,3-2.9,3c-1.7,0-2.9-1.2-2.9-3
	c0-0.4,0-0.8,0.1-1.2C616.1,406.7,616.2,405.6,615.5,404.2L615.5,404.2z"/>
<path class="st0" d="M528.5,343c-0.8,3.3-0.2,6.1,2,8.5c-1.9,1-3.9,0.9-5.3-0.3c-1.3-1.2-1.6-3.2-0.6-5
	C525.5,344.7,526.6,343.6,528.5,343z"/>
<path class="st0" d="M510.5,350.5c3,4.2,7.1,3.3,11.2,2.3c-1.4,2-5.1,4-7.3,4c-1.6,0-2.6-0.7-3.3-2
	C510.5,353.7,510.3,352.5,510.5,350.5L510.5,350.5z"/>
<path class="st0" d="M518.7,296.7c-1.6,2.6-3.7,4.4-6.3,5.6c-0.7,0.3-1.1-0.1-1.3-0.8c-0.5-2.4,1-4.6,3.3-5.2
	C515.7,296.1,517.1,295.7,518.7,296.7L518.7,296.7z"/>
<path class="st0" d="M643.8,355c0,1.6-1.4,3-3,3c-1.7,0-3.1-1.4-3-3.2c0.1-1.6,1.5-3,3.1-2.9C642.4,351.9,643.8,353.4,643.8,355z"/>
<path class="st0" d="M572.5,287.4c0.6-0.3,1-0.7,1.4-0.8c1.5-0.2,3.1-0.4,4.6-0.4c1,0,1.4,0.5,1.4,1.5c0,0.2,0,0.4,0,0.6
	c0,2.8-0.9,3.5-3.5,2.3c-1-0.5-2-1.1-2.9-1.8C573.2,288.4,572.9,287.9,572.5,287.4L572.5,287.4z"/>
<path class="st0" d="M642.9,346.6c0,1.4-1.2,2.6-2.6,2.6c-1.4,0-2.8-1.3-2.8-2.8s1.3-2.7,2.8-2.6
	C641.8,343.8,642.9,345.1,642.9,346.6L642.9,346.6z"/>
<path class="st0" d="M512.6,344.2c2.5,2.3,5.3,2.6,8.2,2.3c-0.8,2-3.4,3.3-5.5,2.8C513.4,348.9,512.4,347.1,512.6,344.2L512.6,344.2
	z"/>
<path class="st0" d="M533.8,327.1c-1.3,0-2.5-1.2-2.6-2.6c0-1.4,1.2-2.6,2.7-2.6c1.4,0.1,2.5,1.3,2.4,2.6
	C536.3,325.9,535,327.1,533.8,327.1L533.8,327.1z"/>
<path class="st0" d="M539.8,330.5c0,1.4-1.1,2.5-2.5,2.5c-1.4,0-2.5-1.1-2.6-2.5c0-1.4,1.2-2.6,2.6-2.6
	C538.7,327.9,539.8,329.1,539.8,330.5z"/>
<path class="st0" d="M635.7,351.1c0,1.4-1.1,2.5-2.5,2.6c-1.4,0-2.6-1-2.6-2.4c-0.1-1.4,1.2-2.7,2.6-2.7
	C634.6,348.6,635.7,349.8,635.7,351.1L635.7,351.1z"/>
<path class="st0" d="M620.3,342.7c0,1.4-1.2,2.5-2.5,2.6c-1.4,0-2.6-1.2-2.6-2.7c0-1.4,1.2-2.4,2.6-2.4
	C619.2,340.2,620.3,341.3,620.3,342.7L620.3,342.7z"/>
<path class="st0" d="M624.5,359c-1.4,0-2.6-1-2.6-2.4s1-2.6,2.4-2.7c1.5-0.1,2.7,1,2.7,2.5C626.9,357.8,625.9,359,624.5,359z"/>
<path class="st0" d="M643.5,363.3c0,1.4-1,2.4-2.4,2.4c-1.4,0-2.6-1.1-2.5-2.5c0.1-1.3,1.2-2.3,2.6-2.2
	C642.5,360.9,643.5,362,643.5,363.3z"/>
<path class="st0" d="M636.2,330.3c1.4,0,2.5,1,2.5,2.3c0,1.4-1.1,2.5-2.6,2.5c-1.4,0-2.4-1-2.4-2.4
	C633.8,331.4,634.8,330.4,636.2,330.3L636.2,330.3z"/>
<path class="st0" d="M626.5,339c0,1.4-1,2.5-2.3,2.5c-1.3,0-2.4-1-2.4-2.4c0-1.4,1-2.5,2.3-2.5C625.3,336.6,626.4,337.7,626.5,339z"
	/>
<path class="st0" d="M611.6,440.8c0,1.5-1.4,2.7-2.9,2.6c-1.4-0.1-2.6-1.4-2.6-2.8c0-1.5,1.4-2.7,2.9-2.6
	C610.5,438.2,611.7,439.4,611.6,440.8L611.6,440.8z"/>
<path class="st0" d="M668.7,345.3c-0.8,0-1.6,0.1-2.2,0c-1.7-0.3-3.1,0.2-4.2,1.4c-0.4,0.4-0.9,0.9-1.4,1.2
	c-0.3,0.2-0.9,0.2-1.1,0.1c-0.2-0.2-0.3-0.8-0.1-1.1c0.2-0.5,0.7-1,1-1.5c0.4-0.5,0.7-1,1.1-1.5c-0.8-1-1.6-0.9-2.5-0.6
	c-1,0.4-1.9,1-2.9,1.5c-0.6,0.3-1.2,0.7-1.9,1c-0.6,0.3-1.4,0.6-2-0.1c0.1-1.5,2.1-1.8,2.3-3.2c-0.4-1-1.3-0.8-2-0.8
	c-1.2,0.1-2.4,0.3-3.6,0.5c-0.8,0.1-1.6,0.2-2-0.7c0.2-0.9,0.9-0.9,1.5-1c0.8-0.2,2-0.3,2.4-0.9c0.7-0.8-0.5-1.6-0.8-2.4
	c-0.1-0.4-0.1-0.8-0.2-1.2c0.9-0.5,1.4-0.1,1.8,0.4c0.6,0.6,1,1.2,1.5,1.8c0.4,0.4,0.7,0.9,1.2,1.2c0.4,0.2,1,0.4,1.3,0.3
	c0.3-0.1,0.6-0.7,0.6-1.2c0.1-0.4-0.1-1-0.1-1.4c0-0.6,0.2-1.1,0.2-1.6c0.2,0,0.3-0.1,0.5-0.1c0.4,0.6,0.8,1.1,1.2,1.6
	c0.6,1,1.1,2.1,1.8,3.1c0.6,0.8,1.3,1.4,2.5,1c0.3-1.1,0.6-2.2,0.8-3.4c0.2,0,0.3,0,0.5-0.1c0.3,0.4,0.8,0.8,0.8,1.2
	c0.2,2.3,1.4,3.9,3.4,5.1c0.2,0.1,0.4,0.3,0.5,0.6c0.1,0.2,0.1,0.4,0.2,0.8H668.7z"/>
<path class="st0" d="M633.2,304.2c0.2-1.8-1.2-3-0.8-4.8c2.2-0.5,4.4,0.8,6.9,0.4c-0.6-2.5-3.2-3.4-4.3-5.5c1.4-1.6,4-1.4,5.4-3.3
	c-2.3-1.3-5-0.2-7.4-1.4c0.5-1.2,1-2.4,1.6-3.8c-1,0.2-1.6,0.3-2.2,0.4c-1.2,0.2-2.3,0.6-3.5,0.8c-0.6,0.1-1.3,0.1-1.6-0.6
	c-0.3-0.7,0-1.4,0.5-1.8c0.7-0.5,1.4-1,2.2-1.3c5.1-1.7,12.5-0.5,14.1,8c0.5,2.8,0.5,5.7-0.4,8.4c-2.2,6.8-10,9.1-15.9,5.5
	c-0.5-0.3-1-0.8-1.3-1.2c-0.2-0.3-0.3-0.9-0.1-1.1c0.2-0.3,0.8-0.6,1.2-0.5c0.9,0.2,1.8,0.7,2.7,1
	C631.2,303.7,632,304.5,633.2,304.2L633.2,304.2z"/>
<path class="st0" d="M618.6,291c1,0.1,2.1,0.1,3.3,0.2c0.4-1.2,0.8-2.4,1.2-3.5c0.1,0,0.2,0,0.4,0c0.4,0.8,0.7,1.6,1.1,2.3
	c0.5,1,0.7,1.1,1.8,0.8c0.6-0.2,1.2-0.4,1.9-0.6c0,0,0.1,0,0.3,0.1c0,1.1-1.2,1.7-1.3,3c1.1,0.5,2.3,1,3.4,1.5c0,0.1,0,0.3,0,0.4
	c-1.2,0.3-2.3,0.6-3.6,1c0.4,1.1,0.8,2,1.4,3.3c-1-0.3-1.6-0.4-2.2-0.6c-1.5-0.4-1.5-0.4-2.4,0.8c-0.4,0.5-0.8,0.9-1.2,1.4
	c0,0-0.2,0-0.5,0c-0.1-1.1-0.2-2.2-0.4-3.4c-1.2-0.1-2.2-0.2-3.8-0.4c1.1-1.2,1.9-2,2.8-3c-0.9-0.9-1.7-1.8-2.6-2.6
	C618.4,291.3,618.5,291.1,618.6,291L618.6,291z"/>
<path class="st0" d="M674.9,291.5c1.9,0.6,2.6,1.8,2.8,3.2c0.3,1.9-0.2,3.7-1.6,5c-1.1,1-2.4,1.9-3.8,2.4c-2.6,1.1-5.5,1.3-8.3,0.9
	c2.7-0.9,5.3-1.8,7.5-3.8C673.7,297.2,674.7,294.6,674.9,291.5L674.9,291.5z"/>
<path class="st0" d="M678,283.4c0,0.9-0.8,1.7-1.8,1.7s-1.7-0.8-1.7-1.8c0-0.9,0.8-1.6,1.6-1.6C677.1,281.8,677.9,282.5,678,283.4z"
	/>
<path class="st0" d="M661.8,414.3c-2.3,0-4.2-1.4-4.7-3.4c-0.5-2.3,0.8-3.7,3.1-3.2c1.7,0.4,3.1,1.3,4.1,2.7
	c1.3,1.9,0.6,3.6-1.7,3.9C662.3,414.3,662,414.3,661.8,414.3L661.8,414.3z"/>
<path class="st0" d="M558.8,319.1c-0.7,4.4-1.5,8.5-3.3,12.4c-0.2,0.5-0.6,1-1,1.4c-0.6,0.5-1.2,0.2-1.3-0.6c-0.1-0.5,0-1,0-1.4
	c0.6-3.5,1.4-6.9,2.8-10.3c0.3-0.7,0.6-1.4,1-1.9c0.3-0.4,0.8-0.6,1.3-0.8C558.5,318.4,558.7,318.8,558.8,319.1z"/>
<path class="st0" d="M573.2,324.4c1.4,3.4-0.6,11-3.2,12.5c-0.2-0.6-0.6-1-0.6-1.6c0-3.5,0.9-6.8,2.6-9.8
	C572.3,325.1,572.7,324.9,573.2,324.4L573.2,324.4z"/>
<path class="st0" d="M563.1,326.1c0.3,2.3-1.3,3.4-2.8,4.5c-0.8,0.6-1.6,0.3-1.7-0.7c-0.2-2.3,0.4-4.6,1.8-6.5
	c0.8-1.1,1.8-0.9,2.3,0.4C562.9,324.5,563,325.3,563.1,326.1L563.1,326.1z"/>
<path class="st0" d="M568.3,326.7c0.5,2,0.2,3.8-0.8,5.5c-0.4,0.7-1,0.7-1.4,0.2C564.7,330.5,565.7,327.7,568.3,326.7z"/>
<path class="st0" d="M582.6,411.5c0.1-0.5,0.2-1.1,0.2-1.6c-0.2-1.9,0.8-2.8,2.5-3.4c1-0.4,1.8-1.1,2.8-1.6c1.1-0.7,1.9-0.3,1.9,1
	c0,0.8-0.2,1.7-0.5,2.4c-0.6,1.6-1.8,3-3.2,4c-0.5,0.4-1,0.7-1.6,0.8C583.3,413.6,582.6,413.1,582.6,411.5L582.6,411.5z"/>
<path class="st0" d="M630.8,448.2c0.3-2.2,0.6-4.2,0.8-6.4c3,0,6-0.6,8.6-2.2c0.9,0.6,0.9,1.4,0.7,2c-0.2,0.9-0.5,1.9-1.1,2.6
	C637.5,447.1,634.4,448.1,630.8,448.2L630.8,448.2z"/>
<path class="st0" d="M641.4,318.6c4.3,1.6,8.6,2.2,13.3,2.4c-0.4,0.6-0.5,1-0.8,1.2c-0.5,0.4-1,0.7-1.6,0.8c-3.3,1-6.5,0.5-9.3-1.4
	C642.2,321.1,641.2,320.4,641.4,318.6L641.4,318.6z"/>
<path class="st0" d="M538.7,403.2c0,1.4-1.2,2.5-2.5,2.6c-1.4,0-2.6-1.2-2.6-2.7c0-1.4,1.2-2.5,2.6-2.5
	C537.6,400.6,538.7,401.8,538.7,403.2z"/>
<path class="st0" d="M519.1,331.3c0.6,3.3,2,5.9,5.2,7.1c-0.8,1.3-1.8,1.5-2.8,1.4c-2.8-0.2-5.1-3.9-4.2-6.5
	C517.5,332.5,517.8,332.2,519.1,331.3z"/>
<path class="st0" d="M525.4,328.6c0.8,0,1.4,0.4,1.6,1.1c0.4,1.2,1,2.2,2,3c0.8,0.6,0.6,1.4,0.2,2.1c-0.4,0.8-1.1,0.9-1.8,0.8
	c-0.4-0.1-0.7-0.2-1-0.4c-1.6-1.2-2.5-2.9-2.7-4.9C523.6,329.2,524.2,328.7,525.4,328.6L525.4,328.6z"/>
<path class="st0" d="M570.5,424.5c-1.6-0.2-3.2-1.1-4.3-2.6c-0.7-0.9-0.1-2,1.1-2.3c1.7-0.3,4.7,1.7,5,3.4
	C572.5,423.9,571.9,424.5,570.5,424.5L570.5,424.5z"/>
<path class="st0" d="M628,398c1.9,0.4,3.1,2.3,2.7,3.8c-0.3,1-1.1,1.6-2,1.5c-0.9-0.2-1.5-0.9-1.4-2
	C627.5,400.2,627.8,399.1,628,398z"/>
</svg>
