<?xml version="1.0" encoding="utf-8"?>
<!-- Generator: Adobe Illustrator 28.2.0, SVG Export Plug-In . SVG Version: 6.00 Build 0)  -->
<svg version="1.1" id="Layer_1" xmlns="http://www.w3.org/2000/svg" xmlns:xlink="http://www.w3.org/1999/xlink" x="0px" y="0px"
	 viewBox="0 0 1200 800" style="enable-background:new 0 0 1200 800;" xml:space="preserve">
<style type="text/css">
	.st0{fill:#E2E8F0;}
	.st1{fill:none;stroke:#0F172A;stroke-width:2.0848;stroke-miterlimit:18.47;}
	.st2{fill:#0F172A;stroke:#0F172A;stroke-width:0.5531;stroke-miterlimit:10;}
	.st3{fill:#E2E8F0;stroke:#0F172A;stroke-width:1.6735;stroke-miterlimit:18.47;}
	.st4{fill:#E2E8F0;stroke:#E2E8F0;stroke-width:0.6949;stroke-miterlimit:18.47;}
	.st5{fill:none;stroke:#231F20;stroke-width:2.0848;stroke-miterlimit:18.47;}
	.st6{fill:#0F172A;}
	.st7{fill:#E2E8F0;stroke:#0F172A;stroke-width:1.0495;stroke-miterlimit:18.47;}
	.st8{fill:none;stroke:#E2E8F0;stroke-width:0.8367;stroke-miterlimit:18.47;}
	.st9{fill:#E2E8F0;stroke:#0F172A;stroke-width:2.4251;stroke-miterlimit:18.47;}
	.st10{fill:none;stroke:#0F172A;stroke-width:0.8935;stroke-miterlimit:18.47;}
	.st11{fill:none;stroke:#231F20;stroke-width:0.8935;stroke-linecap:round;stroke-miterlimit:18.47;}
	.st12{fill:#231F20;stroke:#231F20;stroke-width:1.1204;stroke-miterlimit:18.47;}
	.st13{fill:#231F20;}
	.st14{fill:none;stroke:#231F20;stroke-width:1.1204;stroke-miterlimit:18.47;}
	.st15{fill:#E2E8F0;stroke:#0F172A;stroke-width:1.1204;stroke-miterlimit:18.47;}
	.st16{fill:#E2E8F0;stroke:#0F172A;stroke-width:1.3473;stroke-miterlimit:18.47;}
	.st17{fill:#E2E8F0;stroke:#0F172A;stroke-width:2.2408;stroke-miterlimit:18.47;}
	.st18{fill:none;stroke:#231F20;stroke-width:1.3473;stroke-miterlimit:18.47;}
	.st19{fill:#E2E8F0;stroke:#231F20;stroke-width:1.1204;stroke-miterlimit:18.47;}
	.st20{fill:none;stroke:#231F20;stroke-width:1.1204;stroke-miterlimit:23.09;}
	.st21{fill:#0F172A;stroke:#0F172A;stroke-width:2.2408;stroke-miterlimit:18.47;}
	.st22{fill:none;stroke:#231F20;stroke-width:0.8935;stroke-miterlimit:18.47;}
	.st23{fill:#E2E8F0;stroke:#0F172A;stroke-width:0.8935;stroke-miterlimit:18.47;}
	.st24{fill:#E2E8F0;stroke:#0F172A;stroke-width:1.3473;stroke-miterlimit:36.94;}
	.st25{fill:none;stroke:#231F20;stroke-width:1.6168;stroke-miterlimit:36.94;}
	.st26{fill:none;stroke:#231F20;stroke-width:0.8935;stroke-miterlimit:36.94;}
</style>
<path class="st0" d="M600,615c118.7,0,215-96.3,215-215s-96.3-215-215-215s-215,96.3-215,215S481.3,615,600,615"/>
<path class="st1" d="M600,615c118.7,0,215-96.3,215-215s-96.3-215-215-215s-215,96.3-215,215S481.3,615,600,615L600,615z"/>
<path class="st2" d="M599.9,604.5c113,0,204.5-91.6,204.5-204.5s-91.6-204.6-204.5-204.6S395.3,287,395.3,400
	S486.9,604.5,599.9,604.5"/>
<path class="st3" d="M608.1,191.4c-0.5,0-1.4,0.3-2.6,1.4c-1.6,1.5-1.8,4.5-3.3,5.6c-1.3,1-1,1.2-2.3,1.2l-8,0.2
	c1.3,0,1-0.3,2.3-1.3c1.5-1.2,1.6-4.2,3.1-5.8c1.1-1.2,2-1.5,2.5-1.5L608.1,191.4L608.1,191.4z"/>
<path class="st3" d="M599.9,191.2c-0.5,0-1.4,0.3-2.5,1.5c-1.5,1.6-1.6,4.6-3.1,5.8c-1.3,1-1,1.3-2.3,1.3l-7.9,0.5
	c1.3-0.1,1-0.3,2.2-1.4c1.4-1.2,1.4-4.3,2.9-5.9c1.1-1.2,1.9-1.6,2.4-1.6L599.9,191.2L599.9,191.2z"/>
<path class="st3" d="M591.7,191.4c-0.5,0-1.3,0.4-2.4,1.6c-1.5,1.7-1.5,4.7-2.9,5.9c-1.2,1.1-0.9,1.3-2.2,1.4l-7.9,0.8
	c1.3-0.1,1-0.3,2.2-1.5c1.4-1.3,1.3-4.3,2.7-6c1-1.3,1.8-1.6,2.4-1.7L591.7,191.4L591.7,191.4z"/>
<path class="st3" d="M583.5,191.9c-0.5,0.1-1.3,0.4-2.4,1.7c-1.4,1.7-1.3,4.7-2.7,6c-1.2,1.1-0.9,1.3-2.1,1.4l-7.9,1.1
	c1.3-0.2,1-0.4,2.1-1.6c1.3-1.4,1.1-4.4,2.4-6.1c1-1.3,1.8-1.7,2.3-1.8L583.5,191.9L583.5,191.9z"/>
<path class="st3" d="M575.3,192.7c-0.5,0.1-1.3,0.5-2.3,1.8c-1.3,1.8-1.1,4.8-2.4,6.1c-1.1,1.2-0.8,1.4-2.1,1.5l-7.8,1.4
	c1.3-0.2,0.9-0.4,2-1.6c1.3-1.4,0.9-4.4,2.2-6.2c0.9-1.4,1.7-1.8,2.2-1.9L575.3,192.7L575.3,192.7z"/>
<path class="st3" d="M567.2,193.8c-0.5,0.1-1.3,0.5-2.2,1.9c-1.3,1.8-0.9,4.8-2.2,6.2c-1.1,1.2-0.8,1.4-2,1.6l-7.8,1.7
	c1.2-0.3,0.9-0.5,2-1.7c1.2-1.5,0.8-4.4,2-6.3c0.9-1.4,1.6-1.8,2.2-2L567.2,193.8L567.2,193.8z"/>
<path class="st3" d="M559.2,195.2c-0.5,0.1-1.3,0.6-2.2,1.9c-1.2,1.9-0.7,4.8-1.9,6.3c-1,1.3-0.7,1.4-2,1.7l-7.7,2
	c1.2-0.3,0.9-0.5,1.9-1.8c1.1-1.5,0.6-4.5,1.7-6.4c0.8-1.4,1.6-1.9,2.1-2.1L559.2,195.2L559.2,195.2z"/>
<path class="st3" d="M551.1,197c-0.5,0.1-1.2,0.6-2.1,2c-1.1,1.9-0.5,4.9-1.7,6.3c-1,1.3-0.6,1.5-1.9,1.8l-7.6,2.4
	c1.2-0.4,0.9-0.5,1.8-1.9c1.1-1.5,0.4-4.5,1.4-6.5c0.8-1.4,1.5-2,2-2.1L551.1,197L551.1,197z"/>
<path class="st3" d="M543.2,199.1c-0.5,0.1-1.2,0.7-2,2.1c-1,2-0.3,4.9-1.4,6.4c-0.9,1.3-0.6,1.5-1.8,1.9l-7.5,2.6
	c1.2-0.4,0.9-0.6,1.7-2c1-1.6,0.2-4.5,1.2-6.5c0.7-1.5,1.4-2,1.9-2.2L543.2,199.1L543.2,199.1z"/>
<path class="st3" d="M535.4,201.5c-0.5,0.2-1.2,0.7-1.9,2.2c-1,2-0.1,4.9-1.2,6.5c-0.9,1.4-0.5,1.5-1.7,1.9l-7.4,2.9
	c1.2-0.5,0.8-0.6,1.7-2c1-1.6,0.1-4.5,1-6.5c0.7-1.5,1.3-2.1,1.8-2.3L535.4,201.5L535.4,201.5z"/>
<path class="st3" d="M527.6,204.1c-0.5,0.2-1.2,0.8-1.8,2.3c-0.9,2,0,4.9-0.9,6.5c-0.8,1.4-0.5,1.5-1.7,2l-7.3,3.2
	c1.2-0.5,0.8-0.6,1.6-2.1c0.9-1.7-0.1-4.5,0.7-6.6c0.6-1.5,1.2-2.1,1.7-2.4L527.6,204.1L527.6,204.1z"/>
<path class="st3" d="M520,207.1c-0.5,0.2-1.1,0.8-1.7,2.3c-0.8,2.1,0.2,4.9-0.7,6.5c-0.8,1.4-0.4,1.5-1.6,2.1l-7.1,3.5
	c1.1-0.6,0.8-0.7,1.5-2.1c0.8-1.7-0.3-4.5,0.4-6.6c0.5-1.6,1.1-2.2,1.6-2.4L520,207.1L520,207.1z"/>
<path class="st3" d="M512.5,210.4c-0.5,0.2-1.1,0.9-1.6,2.4c-0.7,2.1,0.4,4.9-0.4,6.5c-0.7,1.5-0.4,1.6-1.5,2.1l-7,3.8
	c1.1-0.6,0.8-0.7,1.4-2.2c0.8-1.7-0.5-4.5,0.2-6.6c0.5-1.6,1.1-2.2,1.5-2.5C505.1,214,512.5,210.4,512.5,210.4z"/>
<path class="st3" d="M505.1,214c-0.5,0.3-1.1,0.9-1.5,2.5c-0.6,2.1,0.6,4.9-0.1,6.6c-0.7,1.5-0.3,1.6-1.4,2.2l-6.8,4.1
	c1.1-0.7,0.7-0.7,1.3-2.2c0.7-1.8-0.7-4.4-0.1-6.6c0.4-1.6,1-2.3,1.4-2.5L505.1,214L505.1,214z"/>
<path class="st3" d="M497.9,217.9c-0.5,0.3-1,0.9-1.4,2.5c-0.6,2.1,0.8,4.8,0.1,6.6c-0.6,1.5-0.2,1.6-1.3,2.2l-6.7,4.3
	c1.1-0.7,0.7-0.7,1.2-2.3c0.6-1.8-0.8-4.4-0.4-6.6c0.3-1.6,0.9-2.3,1.3-2.6L497.9,217.9L497.9,217.9z"/>
<path class="st3" d="M490.8,222c-0.5,0.3-1,1-1.3,2.6c-0.5,2.2,1,4.8,0.4,6.6c-0.6,1.5-0.2,1.6-1.2,2.3l-6.5,4.6
	c1-0.8,0.7-0.8,1.1-2.4c0.6-1.8-1-4.4-0.6-6.6c0.3-1.6,0.8-2.3,1.2-2.7L490.8,222L490.8,222z"/>
<path class="st3" d="M483.9,226.4c-0.4,0.3-1,1-1.2,2.6c-0.4,2.2,1.2,4.8,0.6,6.5c-0.5,1.6-0.1,1.6-1.2,2.3l-6.3,4.8
	c1-0.8,0.6-0.8,1.1-2.4c0.5-1.8-1.2-4.3-0.9-6.6c0.2-1.6,0.7-2.4,1.1-2.7L483.9,226.4z"/>
<path class="st3" d="M477.2,231.1c-0.4,0.3-0.9,1-1.1,2.7c-0.3,2.2,1.4,4.7,0.9,6.5c-0.4,1.6,0,1.6-1.1,2.4l-6.1,5.1
	c1-0.8,0.6-0.8,1-2.4c0.4-1.8-1.3-4.3-1.1-6.5c0.1-1.6,0.6-2.4,1-2.7C470.6,236.1,477.2,231.1,477.2,231.1z"/>
<path class="st3" d="M470.6,236.1c-0.4,0.3-0.9,1.1-1,2.7c-0.2,2.2,1.5,4.6,1.1,6.5c-0.4,1.6,0,1.6-1,2.4l-5.9,5.3
	c1-0.9,0.6-0.9,0.9-2.5c0.3-1.9-1.5-4.2-1.4-6.5c0.1-1.6,0.5-2.4,0.9-2.8L470.6,236.1L470.6,236.1z"/>
<path class="st3" d="M464.3,241.3c-0.4,0.4-0.8,1.1-0.9,2.8c-0.1,2.2,1.7,4.6,1.4,6.4c-0.3,1.6,0.1,1.6-0.9,2.4l-5.7,5.5
	c0.9-0.9,0.6-0.9,0.8-2.5c0.3-1.9-1.7-4.2-1.6-6.4c0-1.6,0.4-2.4,0.8-2.8L464.3,241.3L464.3,241.3z"/>
<path class="st3" d="M458.2,246.7c-0.4,0.4-0.8,1.1-0.8,2.8c0,2.2,1.9,4.5,1.6,6.4c-0.2,1.6,0.1,1.6-0.8,2.5l-5.5,5.8
	c0.9-0.9,0.5-0.9,0.7-2.5c0.2-1.9-1.8-4.1-1.9-6.3c0-1.6,0.3-2.4,0.7-2.8L458.2,246.7z"/>
<path class="st3" d="M452.3,252.4c-0.4,0.4-0.8,1.2-0.7,2.8c0.1,2.2,2.1,4.4,1.9,6.3c-0.2,1.6,0.2,1.6-0.7,2.5l-5.2,6
	c0.9-1,0.5-0.9,0.6-2.6c0.1-1.9-2-4-2.1-6.3c-0.1-1.6,0.2-2.5,0.6-2.9L452.3,252.4L452.3,252.4z"/>
<path class="st3" d="M446.6,258.3c-0.4,0.4-0.7,1.2-0.6,2.8c0.1,2.2,2.3,4.3,2.1,6.2c-0.1,1.6,0.3,1.6-0.6,2.5l-5,6.2
	c0.8-1,0.4-0.9,0.5-2.6c0-1.9-2.1-3.9-2.4-6.2c-0.2-1.6,0.1-2.5,0.5-2.9L446.6,258.3L446.6,258.3z"/>
<path class="st3" d="M441.2,264.4c-0.3,0.4-0.7,1.2-0.5,2.9c0.2,2.2,2.4,4.3,2.4,6.1c0,1.6,0.3,1.6-0.5,2.5l-4.8,6.4
	c0.8-1,0.4-0.9,0.4-2.6c0-1.9-2.3-3.9-2.6-6.1c-0.2-1.6,0-2.5,0.4-2.9L441.2,264.4L441.2,264.4z"/>
<path class="st3" d="M436,270.8c-0.3,0.4-0.6,1.3-0.4,2.9c0.3,2.2,2.6,4.2,2.6,6c0,1.6,0.4,1.5-0.4,2.6l-4.5,6.6
	c0.7-1.1,0.4-1,0.3-2.6c-0.1-1.9-2.5-3.8-2.9-6c-0.3-1.6-0.1-2.5,0.3-2.9L436,270.8z"/>
<path class="st3" d="M431,277.3c-0.3,0.4-0.6,1.3-0.3,2.9c0.4,2.2,2.8,4,2.9,5.9c0.1,1.6,0.5,1.5-0.3,2.6l-4.3,6.7
	c0.7-1.1,0.3-1,0.2-2.6c-0.2-1.9-2.6-3.7-3.1-5.8c-0.4-1.6-0.2-2.5,0.1-2.9L431,277.3L431,277.3z"/>
<path class="st3" d="M426.3,284c-0.3,0.5-0.5,1.3-0.1,2.9c0.5,2.2,2.9,3.9,3.1,5.8c0.2,1.6,0.5,1.5-0.2,2.6l-4,6.9
	c0.6-1.1,0.3-1,0.1-2.6c-0.3-1.9-2.7-3.6-3.3-5.7c-0.4-1.6-0.3-2.5,0-2.9L426.3,284L426.3,284z"/>
<path class="st3" d="M421.9,291c-0.3,0.5-0.5,1.3,0,2.9c0.6,2.1,3.1,3.8,3.3,5.7c0.2,1.6,0.6,1.5-0.1,2.6l-3.7,7
	c0.6-1.1,0.3-1,0-2.6c-0.3-1.9-2.9-3.4-3.5-5.6c-0.5-1.6-0.4-2.5-0.1-2.9C417.7,298,421.9,291,421.9,291z"/>
<path class="st3" d="M417.8,298c-0.3,0.5-0.4,1.3,0.1,2.9c0.7,2.1,3.2,3.7,3.5,5.5c0.3,1.6,0.6,1.5,0,2.6l-3.4,7.2
	c0.6-1.2,0.2-1-0.1-2.6c-0.4-1.8-3-3.3-3.8-5.4c-0.6-1.6-0.4-2.4-0.2-2.9L417.8,298L417.8,298z"/>
<path class="st3" d="M413.9,305.2c-0.2,0.5-0.3,1.3,0.2,2.9c0.7,2.1,3.3,3.6,3.7,5.4c0.3,1.6,0.7,1.4,0.1,2.6l-3.1,7.3
	c0.5-1.2,0.2-1-0.2-2.6c-0.5-1.8-3.1-3.2-4-5.3c-0.6-1.5-0.5-2.4-0.3-2.9L413.9,305.2L413.9,305.2z"/>
<path class="st3" d="M410.3,312.6c-0.2,0.5-0.3,1.4,0.3,2.9c0.8,2.1,3.5,3.4,3.9,5.2c0.4,1.6,0.8,1.4,0.2,2.6l-2.9,7.4
	c0.5-1.2,0.1-1-0.3-2.6c-0.6-1.8-3.3-3.1-4.2-5.1c-0.7-1.5-0.6-2.4-0.4-2.9L410.3,312.6L410.3,312.6z"/>
<path class="st3" d="M407,320.1c-0.2,0.5-0.2,1.4,0.4,2.9c0.9,2,3.6,3.3,4.2,5.1c0.5,1.6,0.8,1.4,0.3,2.6l-2.6,7.5
	c0.4-1.2,0.1-1-0.4-2.6c-0.6-1.8-3.4-3-4.4-5c-0.7-1.5-0.7-2.4-0.6-2.9L407,320.1L407,320.1z"/>
<path class="st3" d="M404.1,327.8c-0.2,0.5-0.2,1.4,0.5,2.9c1,2,3.7,3.1,4.3,4.9c0.5,1.5,0.9,1.3,0.4,2.6l-2.3,7.6
	c0.4-1.2,0.1-1-0.6-2.6c-0.7-1.7-3.5-2.8-4.6-4.8c-0.8-1.4-0.8-2.3-0.7-2.8L404.1,327.8L404.1,327.8z"/>
<path class="st3" d="M401.4,335.5c-0.2,0.5-0.1,1.4,0.7,2.8c1,1.9,3.9,3,4.5,4.7c0.6,1.5,0.9,1.3,0.5,2.6l-2,7.7
	c0.3-1.2,0-1-0.6-2.5c-0.8-1.7-3.6-2.7-4.8-4.6c-0.8-1.4-0.9-2.3-0.8-2.8L401.4,335.5L401.4,335.5z"/>
<path class="st3" d="M399,343.4c-0.1,0.5-0.1,1.4,0.8,2.8c1.1,1.9,4,2.8,4.7,4.6c0.7,1.5,1,1.3,0.6,2.5l-1.7,7.8
	c0.3-1.3,0-1-0.7-2.5c-0.8-1.7-3.7-2.5-4.9-4.4c-0.9-1.4-1-2.3-0.9-2.8L399,343.4L399,343.4z"/>
<path class="st3" d="M396.9,351.3c-0.1,0.5,0,1.4,0.9,2.8c1.2,1.9,4.1,2.7,4.9,4.4c0.7,1.5,1,1.2,0.7,2.5l-1.4,7.8
	c0.2-1.3-0.1-1-0.8-2.5c-0.9-1.7-3.8-2.4-5.1-4.2c-1-1.3-1.1-2.2-1-2.8L396.9,351.3L396.9,351.3z"/>
<path class="st3" d="M395.2,359.3c-0.1,0.5,0,1.4,1,2.7c1.3,1.8,4.2,2.5,5.1,4.2c0.8,1.4,1,1.2,0.8,2.5l-1,7.9
	c0.2-1.3-0.1-1-0.9-2.4c-1-1.6-3.9-2.2-5.2-4c-1-1.3-1.2-2.2-1.1-2.7L395.2,359.3L395.2,359.3z"/>
<path class="st3" d="M393.7,367.4c-0.1,0.5,0.1,1.4,1.1,2.7c1.3,1.8,4.3,2.4,5.2,4c0.8,1.4,1.1,1.2,0.9,2.4l-0.7,7.9
	c0.1-1.3-0.1-1-1-2.4c-1-1.6-4-2.1-5.4-3.8c-1-1.3-1.3-2.1-1.2-2.7L393.7,367.4L393.7,367.4z"/>
<path class="st3" d="M392.6,375.5c-0.1,0.5,0.1,1.4,1.2,2.6c1.4,1.7,4.4,2.2,5.4,3.8c0.9,1.4,1.1,1.1,1,2.4l-0.4,7.9
	c0.1-1.3-0.2-1-1.1-2.4c-1.1-1.5-4.1-1.9-5.5-3.6c-1.1-1.2-1.3-2.1-1.3-2.6L392.6,375.5L392.6,375.5z"/>
<path class="st3" d="M391.8,383.6c0,0.5,0.2,1.4,1.3,2.6c1.5,1.6,4.5,2,5.5,3.5c0.9,1.4,1.2,1.1,1.1,2.4l-0.1,8c0-1.3-0.2-1-1.2-2.3
	c-1.1-1.5-4.1-1.8-5.7-3.4c-1.1-1.2-1.4-2-1.4-2.6L391.8,383.6L391.8,383.6z"/>
<path class="st3" d="M391.3,391.8c0,0.5,0.3,1.4,1.4,2.6c1.5,1.6,4.5,1.8,5.6,3.3c1,1.3,1.2,1,1.2,2.3l0.2,8c0-1.3-0.3-1-1.3-2.3
	c-1.2-1.5-4.2-1.6-5.8-3.1c-1.2-1.1-1.5-2-1.5-2.5C391.1,400,391.3,391.8,391.3,391.8z"/>
<path class="st3" d="M391.2,400c0,0.6,0.3,1.4,1.5,2.5c1.6,1.5,4.6,1.6,5.8,3.1c1,1.3,1.3,1,1.3,2.3l0.5,7.9c-0.1-1.3-0.3-1-1.4-2.2
	c-1.2-1.4-4.3-1.4-5.9-2.9c-1.2-1.1-1.6-1.9-1.6-2.4L391.2,400L391.2,400z"/>
<path class="st3" d="M391.3,408.2c0,0.5,0.4,1.3,1.6,2.4c1.7,1.5,4.7,1.5,5.9,2.9c1.1,1.2,1.3,0.9,1.4,2.2l0.8,7.9
	c-0.1-1.3-0.3-1-1.5-2.2c-1.3-1.3-4.3-1.3-6-2.7c-1.3-1-1.6-1.8-1.7-2.4L391.3,408.2L391.3,408.2z"/>
<path class="st3" d="M391.8,416.4c0,0.5,0.4,1.3,1.7,2.4c1.7,1.4,4.7,1.3,6,2.6c1.1,1.2,1.3,0.9,1.5,2.2l1.1,7.9
	c-0.2-1.3-0.4-0.9-1.6-2.1c-1.4-1.3-4.4-1.1-6.1-2.4c-1.3-1-1.7-1.8-1.8-2.3L391.8,416.4L391.8,416.4z"/>
<path class="st3" d="M392.6,424.5c0.1,0.5,0.5,1.3,1.8,2.3c1.8,1.3,4.8,1.1,6.1,2.4c1.2,1.1,1.4,0.8,1.5,2.1l1.4,7.8
	c-0.2-1.3-0.4-0.9-1.6-2c-1.4-1.2-4.4-0.9-6.2-2.2c-1.3-0.9-1.8-1.7-1.9-2.2L392.6,424.5L392.6,424.5z"/>
<path class="st3" d="M393.8,432.7c0.1,0.5,0.5,1.3,1.9,2.2c1.8,1.3,4.8,0.9,6.2,2.2c1.2,1.1,1.4,0.8,1.6,2l1.7,7.8
	c-0.3-1.3-0.5-0.9-1.7-2c-1.5-1.2-4.4-0.8-6.3-2c-1.4-0.9-1.9-1.6-2-2.2L393.8,432.7L393.8,432.7z"/>
<path class="st3" d="M395.2,440.7c0.1,0.5,0.6,1.3,1.9,2.2c1.9,1.2,4.8,0.7,6.3,1.9c1.3,1,1.4,0.7,1.7,2l2.1,7.7
	c-0.3-1.2-0.5-0.9-1.8-1.9c-1.5-1.1-4.5-0.6-6.4-1.7c-1.4-0.8-1.9-1.6-2-2.1L395.2,440.7L395.2,440.7z"/>
<path class="st3" d="M397,448.7c0.1,0.5,0.6,1.2,2,2.1c1.9,1.1,4.9,0.5,6.3,1.7c1.3,1,1.5,0.7,1.8,1.9l2.3,7.6
	c-0.4-1.2-0.5-0.9-1.9-1.8c-1.5-1.1-4.5-0.4-6.5-1.5c-1.5-0.8-2-1.5-2.1-2L397,448.7L397,448.7z"/>
<path class="st3" d="M399,456.7c0.1,0.5,0.7,1.2,2.1,2c2,1,4.9,0.3,6.4,1.4c1.3,1,1.5,0.6,1.8,1.8l2.7,7.5c-0.4-1.2-0.6-0.9-1.9-1.7
	c-1.6-1-4.5-0.2-6.5-1.2c-1.5-0.7-2-1.4-2.2-1.9L399,456.7L399,456.7z"/>
<path class="st3" d="M401.4,464.5c0.2,0.5,0.7,1.2,2.2,1.9c2,1,4.9,0.2,6.5,1.2c1.4,0.9,1.5,0.5,1.9,1.8l2.9,7.4
	c-0.5-1.2-0.6-0.8-2-1.7c-1.6-1-4.5,0-6.6-0.9c-1.5-0.7-2.1-1.3-2.3-1.8L401.4,464.5L401.4,464.5z"/>
<path class="st3" d="M404.1,472.3c0.2,0.5,0.8,1.2,2.3,1.8c2,0.9,4.9,0,6.5,0.9c1.4,0.8,1.5,0.5,2,1.7l3.2,7.3
	c-0.5-1.2-0.6-0.8-2.1-1.6c-1.7-0.9-4.5,0.1-6.6-0.7c-1.5-0.6-2.1-1.2-2.4-1.7L404.1,472.3L404.1,472.3z"/>
<path class="st3" d="M407.1,479.9c0.2,0.5,0.8,1.1,2.3,1.7c2.1,0.8,4.9-0.2,6.5,0.7c1.4,0.8,1.5,0.4,2.1,1.6l3.5,7.1
	c-0.6-1.1-0.7-0.8-2.1-1.5c-1.7-0.8-4.5,0.3-6.6-0.4c-1.6-0.5-2.2-1.1-2.4-1.6L407.1,479.9L407.1,479.9z"/>
<path class="st3" d="M410.4,487.4c0.2,0.5,0.9,1.1,2.4,1.6c2.1,0.7,4.9-0.4,6.6,0.4c1.5,0.7,1.6,0.4,2.1,1.5l3.8,7
	c-0.6-1.1-0.7-0.8-2.2-1.4c-1.7-0.8-4.5,0.5-6.6-0.2c-1.6-0.5-2.2-1.1-2.5-1.5L410.4,487.4L410.4,487.4z"/>
<path class="st3" d="M413.9,494.8c0.3,0.5,0.9,1.1,2.5,1.5c2.1,0.6,4.9-0.6,6.6,0.1c1.5,0.7,1.6,0.3,2.2,1.4l4.1,6.8
	c-0.7-1.1-0.7-0.7-2.2-1.3c-1.8-0.7-4.4,0.7-6.6,0.1c-1.6-0.4-2.3-1-2.5-1.4L413.9,494.8L413.9,494.8z"/>
<path class="st3" d="M417.8,502c0.3,0.5,0.9,1,2.5,1.4c2.1,0.6,4.8-0.8,6.6-0.1c1.5,0.6,1.6,0.2,2.2,1.3l4.3,6.7
	c-0.7-1.1-0.7-0.7-2.3-1.2c-1.8-0.6-4.4,0.8-6.6,0.4c-1.6-0.3-2.3-0.9-2.6-1.3L417.8,502L417.8,502z"/>
<path class="st3" d="M422,509.1c0.3,0.5,1,1,2.6,1.3c2.2,0.5,4.8-1,6.6-0.4c1.5,0.5,1.6,0.2,2.3,1.3l4.6,6.5c-0.7-1-0.8-0.7-2.3-1.1
	c-1.8-0.6-4.4,1-6.6,0.6c-1.6-0.3-2.3-0.8-2.7-1.2L422,509.1L422,509.1z"/>
<path class="st3" d="M426.4,516c0.3,0.4,1,1,2.6,1.2c2.2,0.4,4.7-1.2,6.5-0.6c1.6,0.5,1.6,0.1,2.3,1.2l4.8,6.3
	c-0.8-1-0.8-0.6-2.4-1.1c-1.8-0.5-4.3,1.2-6.6,0.9c-1.6-0.2-2.4-0.7-2.7-1.1L426.4,516L426.4,516z"/>
<path class="st3" d="M431.1,522.7c0.3,0.4,1,0.9,2.7,1.1c2.2,0.3,4.7-1.4,6.5-0.9c1.6,0.4,1.6,0,2.4,1.1l5.1,6.1
	c-0.8-1-0.8-0.6-2.4-1c-1.8-0.4-4.3,1.3-6.5,1.1c-1.6-0.1-2.4-0.6-2.7-1L431.1,522.7L431.1,522.7z"/>
<path class="st3" d="M436,529.2c0.3,0.4,1.1,0.9,2.7,1c2.2,0.2,4.6-1.6,6.5-1.1c1.6,0.4,1.6,0,2.4,1l5.3,5.9c-0.9-1-0.8-0.6-2.5-0.9
	c-1.9-0.3-4.2,1.5-6.5,1.4c-1.6-0.1-2.4-0.5-2.8-0.9L436,529.2L436,529.2z"/>
<path class="st3" d="M441.2,535.6c0.4,0.4,1.1,0.8,2.7,0.9c2.2,0.1,4.6-1.7,6.4-1.4c1.6,0.3,1.6-0.1,2.4,0.9l5.5,5.7
	c-0.9-0.9-0.9-0.6-2.5-0.8c-1.9-0.3-4.2,1.7-6.4,1.6c-1.6,0-2.4-0.4-2.8-0.8L441.2,535.6L441.2,535.6z"/>
<path class="st3" d="M446.7,541.7c0.4,0.4,1.1,0.8,2.8,0.8c2.2,0,4.5-1.9,6.4-1.6c1.6,0.2,1.6-0.2,2.5,0.8l5.8,5.5
	c-0.9-0.9-0.9-0.5-2.5-0.7c-1.9-0.2-4.1,1.8-6.3,1.9c-1.6,0-2.5-0.3-2.8-0.7L446.7,541.7L446.7,541.7z"/>
<path class="st3" d="M452.4,547.6c0.4,0.4,1.2,0.8,2.8,0.7c2.2-0.1,4.4-2.1,6.3-1.9c1.6,0.2,1.6-0.2,2.5,0.7l6,5.2
	c-1-0.8-0.9-0.5-2.6-0.6c-1.9-0.1-4,2-6.3,2.1c-1.6,0.1-2.5-0.2-2.9-0.6L452.4,547.6L452.4,547.6z"/>
<path class="st3" d="M458.3,553.3c0.4,0.4,1.2,0.7,2.8,0.6c2.2-0.1,4.3-2.3,6.2-2.1c1.6,0.1,1.6-0.3,2.5,0.6l6.2,5
	c-1-0.8-0.9-0.4-2.6-0.5c-1.9,0-3.9,2.1-6.2,2.4c-1.6,0.2-2.5-0.1-2.9-0.5L458.3,553.3L458.3,553.3z"/>
<path class="st3" d="M464.4,558.7c0.4,0.3,1.2,0.7,2.9,0.5c2.2-0.2,4.2-2.4,6.1-2.4c1.6,0,1.6-0.3,2.6,0.5l6.4,4.8
	c-1-0.8-0.9-0.4-2.6-0.4c-1.9,0-3.9,2.3-6.1,2.6c-1.6,0.2-2.5,0-2.9-0.4L464.4,558.7L464.4,558.7z"/>
<path class="st3" d="M470.7,563.9c0.4,0.3,1.3,0.6,2.9,0.4c2.2-0.3,4.2-2.6,6-2.6c1.6,0,1.5-0.4,2.6,0.4l6.6,4.5
	c-1-0.7-1-0.4-2.6-0.3c-1.9,0.1-3.8,2.5-6,2.9c-1.6,0.3-2.5,0.1-2.9-0.3L470.7,563.9L470.7,563.9z"/>
<path class="st3" d="M477.3,568.8c0.4,0.3,1.3,0.6,2.9,0.3c2.2-0.4,4-2.8,5.9-2.9c1.6-0.1,1.5-0.5,2.6,0.3l6.7,4.2
	c-1.1-0.7-1-0.3-2.6-0.2c-1.9,0.2-3.7,2.6-5.8,3.1c-1.6,0.4-2.5,0.2-2.9-0.1L477.3,568.8L477.3,568.8z"/>
<path class="st3" d="M484,573.5c0.5,0.3,1.3,0.5,2.9,0.1c2.2-0.5,3.9-2.9,5.8-3.1c1.6-0.2,1.5-0.5,2.6,0.2l6.9,4
	c-1.1-0.6-1-0.3-2.6-0.1c-1.9,0.3-3.6,2.7-5.7,3.3c-1.6,0.4-2.5,0.2-2.9,0L484,573.5L484,573.5z"/>
<path class="st3" d="M490.9,577.9c0.5,0.3,1.3,0.5,2.9,0c2.1-0.6,3.8-3.1,5.7-3.3c1.6-0.2,1.5-0.6,2.6,0.1l7,3.7
	c-1.1-0.6-1-0.2-2.6,0c-1.9,0.3-3.4,2.9-5.6,3.5c-1.6,0.5-2.4,0.3-2.9,0.1L490.9,577.9L490.9,577.9z"/>
<path class="st3" d="M498,582.1c0.5,0.3,1.3,0.4,2.9-0.1c2.1-0.7,3.7-3.2,5.5-3.5c1.6-0.3,1.5-0.6,2.6,0l7.2,3.4
	c-1.2-0.6-1-0.2-2.6,0.1c-1.8,0.4-3.3,3-5.4,3.8c-1.5,0.5-2.4,0.4-2.9,0.2L498,582.1L498,582.1z"/>
<path class="st3" d="M505.2,585.9c0.5,0.2,1.3,0.3,2.9-0.2c2.1-0.7,3.6-3.3,5.4-3.7c1.6-0.3,1.4-0.7,2.6-0.1l7.3,3.1
	c-1.2-0.5-1-0.2-2.6,0.2c-1.8,0.5-3.2,3.1-5.3,4c-1.5,0.6-2.4,0.5-2.9,0.3L505.2,585.9L505.2,585.9z"/>
<path class="st3" d="M512.6,589.5c0.5,0.2,1.4,0.3,2.9-0.3c2.1-0.8,3.4-3.5,5.2-3.9c1.6-0.4,1.4-0.8,2.6-0.2l7.4,2.9
	c-1.2-0.5-1-0.1-2.6,0.3c-1.8,0.6-3.1,3.3-5.1,4.2c-1.5,0.7-2.4,0.6-2.9,0.4L512.6,589.5L512.6,589.5z"/>
<path class="st3" d="M520.1,592.8c0.5,0.2,1.4,0.2,2.9-0.4c2-0.9,3.3-3.6,5.1-4.2c1.6-0.5,1.4-0.8,2.6-0.3l7.5,2.6
	c-1.2-0.4-1-0.1-2.6,0.4c-1.8,0.6-2.9,3.4-5,4.4c-1.5,0.7-2.4,0.7-2.9,0.6L520.1,592.8L520.1,592.8z"/>
<path class="st3" d="M527.7,595.8c0.5,0.2,1.4,0.2,2.9-0.5c2-1,3.1-3.7,4.9-4.3c1.5-0.5,1.3-0.9,2.6-0.4l7.6,2.3
	c-1.2-0.4-1-0.1-2.6,0.5c-1.7,0.7-2.8,3.5-4.8,4.6c-1.4,0.8-2.3,0.8-2.9,0.7L527.7,595.8L527.7,595.8z"/>
<path class="st3" d="M535.4,598.5c0.5,0.2,1.4,0.1,2.8-0.6c1.9-1,3-3.9,4.7-4.5c1.5-0.6,1.3-0.9,2.5-0.5l7.7,2c-1.2-0.3-1,0-2.5,0.6
	c-1.7,0.8-2.7,3.6-4.6,4.8c-1.4,0.9-2.3,0.9-2.8,0.8C543.3,600.9,535.4,598.5,535.4,598.5z"/>
<path class="st3" d="M543.3,600.8c0.5,0.1,1.4,0.1,2.8-0.8c1.9-1.1,2.8-4,4.6-4.7c1.5-0.6,1.3-1,2.5-0.6l7.8,1.7
	c-1.3-0.3-1,0-2.5,0.8c-1.7,0.8-2.5,3.7-4.4,4.9c-1.4,0.9-2.3,1-2.8,0.9L543.3,600.8L543.3,600.8z"/>
<path class="st3" d="M551.2,602.9c0.5,0.1,1.4,0,2.8-0.9c1.9-1.2,2.7-4.1,4.4-4.9c1.5-0.7,1.2-1,2.5-0.7l7.8,1.3
	c-1.3-0.2-1,0.1-2.5,0.9c-1.7,0.9-2.4,3.8-4.2,5.1c-1.3,1-2.2,1.1-2.7,1L551.2,602.9L551.2,602.9z"/>
<path class="st3" d="M559.2,604.7c0.5,0.1,1.4,0,2.7-1c1.8-1.3,2.5-4.2,4.2-5.1c1.4-0.8,1.2-1,2.5-0.8l7.9,1c-1.3-0.2-1,0.1-2.4,0.9
	c-1.6,1-2.2,3.9-4,5.2c-1.3,1-2.2,1.2-2.7,1.1L559.2,604.7L559.2,604.7z"/>
<path class="st3" d="M567.3,606.1c0.5,0.1,1.4-0.1,2.7-1.1c1.8-1.3,2.4-4.3,4-5.2c1.4-0.8,1.2-1.1,2.4-0.9l7.9,0.8
	c-1.3-0.1-1,0.1-2.4,1c-1.6,1-2.1,4-3.8,5.4c-1.3,1-2.1,1.3-2.7,1.2L567.3,606.1L567.3,606.1z"/>
<path class="st3" d="M575.4,607.2c0.5,0.1,1.4-0.1,2.7-1.2c1.7-1.4,2.2-4.4,3.8-5.4c1.4-0.9,1.1-1.1,2.4-1l7.9,0.4
	c-1.3-0.1-1,0.2-2.4,1.1c-1.5,1.1-1.9,4.1-3.6,5.5c-1.2,1.1-2.1,1.3-2.6,1.3L575.4,607.2L575.4,607.2z"/>
<path class="st3" d="M583.5,608c0.5,0,1.4-0.2,2.6-1.3c1.6-1.5,2-4.5,3.5-5.5c1.3-0.9,1.1-1.2,2.4-1.1l7.9,0.1c-1.3,0-1,0.2-2.3,1.2
	c-1.5,1.1-1.8,4.1-3.4,5.7c-1.2,1.1-2,1.4-2.6,1.4L583.5,608L583.5,608z"/>
<path class="st3" d="M591.7,608.5c0.5,0,1.4-0.2,2.5-1.4c1.6-1.5,1.8-4.5,3.3-5.6c1.3-1,1-1.2,2.3-1.2l7.9-0.2c-1.3,0-1,0.3-2.3,1.3
	c-1.5,1.2-1.6,4.2-3.1,5.8c-1.1,1.2-2,1.5-2.5,1.5L591.7,608.5L591.7,608.5z"/>
<path class="st3" d="M599.9,608.7c0.5,0,1.4-0.3,2.5-1.5c1.5-1.6,1.7-4.6,3.1-5.8c1.3-1,1-1.3,2.3-1.3l7.9-0.5
	c-1.3,0.1-1,0.3-2.2,1.4c-1.4,1.2-1.4,4.3-2.9,5.9c-1.1,1.2-1.9,1.6-2.4,1.6L599.9,608.7L599.9,608.7z"/>
<path class="st3" d="M608.1,608.5c0.5,0,1.3-0.4,2.4-1.6c1.5-1.7,1.5-4.7,2.9-5.9c1.2-1.1,0.9-1.3,2.2-1.4l7.9-0.8
	c-1.3,0.1-1,0.3-2.2,1.5c-1.4,1.3-1.3,4.3-2.7,6c-1,1.3-1.8,1.6-2.4,1.7L608.1,608.5L608.1,608.5z"/>
<path class="st3" d="M616.3,608c0.5,0,1.3-0.4,2.4-1.7c1.4-1.7,1.3-4.7,2.6-6c1.2-1.1,0.9-1.3,2.1-1.5l7.9-1.1
	c-1.3,0.2-1,0.4-2.1,1.6c-1.3,1.4-1.1,4.4-2.4,6.1c-1,1.3-1.8,1.7-2.3,1.8L616.3,608z"/>
<path class="st3" d="M624.4,607.2c0.5-0.1,1.3-0.5,2.3-1.8c1.3-1.8,1.1-4.8,2.4-6.1c1.1-1.2,0.8-1.4,2.1-1.5l7.8-1.4
	c-1.3,0.2-0.9,0.4-2,1.6c-1.2,1.4-0.9,4.4-2.2,6.2c-0.9,1.3-1.7,1.8-2.2,1.9L624.4,607.2L624.4,607.2z"/>
<path class="st3" d="M632.6,606.1c0.5-0.1,1.3-0.5,2.2-1.9c1.3-1.8,0.9-4.8,2.2-6.2c1.1-1.2,0.8-1.4,2-1.6l7.8-1.7
	c-1.2,0.3-0.9,0.4-2,1.7c-1.2,1.5-0.8,4.4-1.9,6.3c-0.9,1.4-1.6,1.9-2.2,2L632.6,606.1L632.6,606.1z"/>
<path class="st3" d="M640.6,604.6c0.5-0.1,1.3-0.6,2.2-2c1.2-1.9,0.7-4.8,1.9-6.3c1-1.3,0.7-1.4,2-1.7l7.7-2
	c-1.2,0.3-0.9,0.5-1.9,1.8c-1.1,1.5-0.6,4.5-1.7,6.4c-0.8,1.4-1.5,1.9-2.1,2L640.6,604.6L640.6,604.6z"/>
<path class="st3" d="M648.6,602.9c0.5-0.1,1.2-0.6,2.1-2c1.1-1.9,0.5-4.9,1.7-6.3c1-1.3,0.7-1.4,1.9-1.8l7.6-2.4
	c-1.2,0.4-0.9,0.5-1.8,1.9c-1.1,1.5-0.4,4.5-1.4,6.5c-0.8,1.5-1.5,2-2,2.1L648.6,602.9L648.6,602.9z"/>
<path class="st3" d="M656.6,600.8c0.5-0.2,1.2-0.7,2-2.1c1-2,0.3-4.9,1.4-6.4c0.9-1.3,0.6-1.5,1.8-1.8l7.5-2.7
	c-1.2,0.4-0.9,0.6-1.7,1.9c-1,1.6-0.2,4.5-1.2,6.5c-0.7,1.5-1.4,2-1.9,2.2L656.6,600.8L656.6,600.8z"/>
<path class="st3" d="M664.4,598.4c0.5-0.2,1.2-0.7,1.9-2.2c1-2,0.2-4.9,1.2-6.4c0.9-1.4,0.5-1.5,1.7-1.9l7.4-2.9
	c-1.2,0.5-0.8,0.6-1.7,2c-1,1.6-0.1,4.5-0.9,6.5c-0.7,1.5-1.3,2.1-1.8,2.3L664.4,598.4L664.4,598.4z"/>
<path class="st3" d="M672.1,595.7c0.5-0.2,1.2-0.8,1.8-2.3c0.9-2,0-4.9,0.9-6.5c0.8-1.4,0.5-1.5,1.7-2l7.3-3.2
	c-1.2,0.5-0.8,0.6-1.6,2.1c-0.9,1.7,0.1,4.5-0.7,6.6c-0.6,1.5-1.2,2.1-1.7,2.4L672.1,595.7L672.1,595.7z"/>
<path class="st3" d="M679.8,592.7c0.5-0.2,1.1-0.8,1.7-2.3c0.8-2.1-0.2-4.9,0.7-6.5c0.8-1.4,0.4-1.5,1.6-2.1l7.1-3.5
	c-1.1,0.6-0.8,0.7-1.5,2.1c-0.8,1.7,0.3,4.5-0.4,6.6c-0.5,1.6-1.1,2.2-1.6,2.4L679.8,592.7L679.8,592.7z"/>
<path class="st3" d="M687.3,589.5c0.5-0.2,1.1-0.9,1.6-2.4c0.7-2.1-0.4-4.9,0.4-6.5c0.7-1.5,0.4-1.6,1.5-2.1l7-3.8
	c-1.1,0.6-0.8,0.7-1.4,2.2c-0.8,1.7,0.5,4.5-0.2,6.6c-0.5,1.6-1.1,2.2-1.5,2.5L687.3,589.5L687.3,589.5z"/>
<path class="st3" d="M694.6,585.9c0.5-0.3,1.1-0.9,1.5-2.5c0.6-2.1-0.6-4.9,0.1-6.6c0.7-1.5,0.3-1.6,1.4-2.2l6.8-4.1
	c-1.1,0.7-0.7,0.7-1.3,2.3c-0.7,1.7,0.7,4.4,0.1,6.6c-0.4,1.6-1,2.3-1.4,2.5L694.6,585.9L694.6,585.9z"/>
<path class="st3" d="M701.9,582c0.5-0.3,1-0.9,1.4-2.5c0.6-2.2-0.8-4.8-0.1-6.6c0.6-1.5,0.2-1.6,1.3-2.2l6.7-4.3
	c-1.1,0.7-0.7,0.7-1.2,2.3c-0.6,1.8,0.8,4.4,0.4,6.6c-0.3,1.6-0.9,2.3-1.3,2.6L701.9,582L701.9,582z"/>
<path class="st3" d="M708.9,577.9c0.5-0.3,1-1,1.3-2.6c0.5-2.2-1-4.8-0.4-6.6c0.5-1.5,0.2-1.6,1.2-2.3l6.5-4.6
	c-1,0.7-0.7,0.8-1.1,2.4c-0.6,1.8,1,4.4,0.6,6.6c-0.3,1.6-0.8,2.3-1.2,2.6L708.9,577.9L708.9,577.9z"/>
<path class="st3" d="M715.8,573.4c0.4-0.3,1-1,1.2-2.6c0.4-2.2-1.2-4.7-0.6-6.5c0.5-1.6,0.1-1.6,1.2-2.3l6.3-4.8
	c-1,0.8-0.6,0.8-1.1,2.4c-0.5,1.8,1.2,4.3,0.9,6.6c-0.2,1.6-0.7,2.4-1.1,2.7L715.8,573.4L715.8,573.4z"/>
<path class="st3" d="M722.5,568.8c0.4-0.3,0.9-1,1.1-2.7c0.3-2.2-1.4-4.7-0.9-6.5c0.4-1.6,0-1.6,1.1-2.4l6.1-5.1
	c-1,0.8-0.6,0.8-1,2.4c-0.4,1.8,1.3,4.3,1.1,6.5c-0.1,1.6-0.6,2.4-1,2.7L722.5,568.8L722.5,568.8z"/>
<path class="st3" d="M729.1,563.8c0.4-0.3,0.9-1.1,1-2.7c0.2-2.2-1.5-4.6-1.1-6.5c0.4-1.6,0-1.6,1-2.4l5.9-5.3
	c-1,0.9-0.6,0.8-0.9,2.5c-0.3,1.8,1.5,4.2,1.4,6.5c-0.1,1.6-0.5,2.4-0.9,2.8L729.1,563.8L729.1,563.8z"/>
<path class="st3" d="M735.4,558.6c0.4-0.4,0.8-1.1,0.9-2.7c0.1-2.2-1.7-4.6-1.4-6.4c0.3-1.6-0.1-1.6,0.9-2.4l5.7-5.5
	c-0.9,0.9-0.5,0.9-0.8,2.5c-0.3,1.9,1.7,4.2,1.6,6.4c0,1.7-0.4,2.4-0.8,2.8L735.4,558.6L735.4,558.6z"/>
<path class="st3" d="M741.5,553.2c0.4-0.4,0.8-1.1,0.8-2.8c0-2.2-1.9-4.5-1.6-6.3c0.2-1.6-0.1-1.6,0.8-2.5l5.5-5.8
	c-0.9,0.9-0.5,0.9-0.7,2.5c-0.2,1.9,1.8,4.1,1.9,6.3c0,1.6-0.3,2.4-0.7,2.8L741.5,553.2L741.5,553.2z"/>
<path class="st3" d="M747.4,547.5c0.4-0.4,0.8-1.2,0.7-2.8c0-2.2-2.1-4.4-1.9-6.3c0.2-1.6-0.2-1.6,0.7-2.5l5.2-6
	c-0.9,1-0.5,0.9-0.6,2.5c-0.1,1.9,2,4,2.1,6.3c0.1,1.6-0.2,2.5-0.6,2.9L747.4,547.5L747.4,547.5z"/>
<path class="st3" d="M753.1,541.6c0.4-0.4,0.7-1.2,0.6-2.8c-0.1-2.2-2.3-4.3-2.1-6.2c0.1-1.6-0.3-1.6,0.6-2.5l5-6.2
	c-0.8,1-0.4,0.9-0.5,2.6c0,1.9,2.1,3.9,2.4,6.2c0.2,1.6-0.1,2.5-0.5,2.9L753.1,541.6L753.1,541.6z"/>
<path class="st3" d="M758.6,535.5c0.3-0.4,0.7-1.2,0.5-2.9c-0.2-2.2-2.4-4.2-2.4-6.1c0-1.6-0.3-1.6,0.5-2.6l4.8-6.4
	c-0.8,1-0.4,0.9-0.4,2.6c0,1.9,2.3,3.9,2.6,6.1c0.2,1.6,0,2.5-0.4,2.9L758.6,535.5L758.6,535.5z"/>
<path class="st3" d="M763.7,529.1c0.3-0.4,0.6-1.3,0.4-2.9c-0.3-2.2-2.6-4.2-2.6-6c0-1.6-0.4-1.5,0.4-2.6l4.5-6.6
	c-0.7,1.1-0.4,1-0.3,2.6c0.1,1.9,2.5,3.8,2.9,6c0.3,1.6,0.1,2.5-0.2,2.9L763.7,529.1L763.7,529.1z"/>
<path class="st3" d="M768.7,522.6c0.3-0.4,0.6-1.3,0.3-2.9c-0.4-2.2-2.8-4-2.9-5.9c-0.1-1.6-0.5-1.5,0.3-2.6l4.3-6.7
	c-0.7,1.1-0.3,1-0.2,2.6c0.2,1.9,2.6,3.7,3.1,5.8c0.4,1.6,0.2,2.5-0.1,2.9L768.7,522.6L768.7,522.6z"/>
<path class="st3" d="M773.4,515.9c0.3-0.5,0.5-1.3,0.1-2.9c-0.5-2.2-2.9-3.9-3.1-5.8c-0.2-1.6-0.5-1.5,0.2-2.6l4-6.9
	c-0.6,1.1-0.3,1-0.1,2.6c0.3,1.9,2.7,3.6,3.3,5.7c0.4,1.6,0.3,2.5,0,2.9L773.4,515.9L773.4,515.9z"/>
<path class="st3" d="M777.8,509c0.3-0.5,0.5-1.3,0-2.9c-0.6-2.1-3.1-3.8-3.3-5.7c-0.2-1.6-0.6-1.5,0.1-2.6l3.7-7
	c-0.6,1.1-0.3,1,0,2.6c0.3,1.9,2.9,3.4,3.5,5.6c0.5,1.6,0.4,2.4,0.1,2.9L777.8,509L777.8,509z"/>
<path class="st3" d="M781.9,501.9c0.3-0.5,0.4-1.3-0.1-2.9c-0.7-2.1-3.2-3.7-3.5-5.5c-0.3-1.6-0.6-1.5,0-2.6l3.4-7.2
	c-0.6,1.1-0.2,1,0.1,2.6c0.4,1.8,3,3.3,3.7,5.4c0.6,1.6,0.4,2.4,0.2,2.9L781.9,501.9L781.9,501.9z"/>
<path class="st3" d="M785.8,494.7c0.2-0.5,0.3-1.3-0.2-2.9c-0.7-2.1-3.3-3.6-3.7-5.4c-0.3-1.6-0.7-1.4-0.1-2.6l3.1-7.3
	c-0.5,1.2-0.2,1,0.2,2.6c0.5,1.8,3.1,3.2,4,5.3c0.6,1.5,0.5,2.4,0.3,2.9L785.8,494.7L785.8,494.7z"/>
<path class="st3" d="M789.4,487.3c0.2-0.5,0.3-1.4-0.3-2.9c-0.8-2.1-3.5-3.4-3.9-5.2c-0.4-1.6-0.8-1.4-0.2-2.6l2.9-7.4
	c-0.5,1.2-0.1,1,0.3,2.6c0.6,1.8,3.3,3.1,4.2,5.1c0.7,1.5,0.6,2.4,0.4,2.9L789.4,487.3L789.4,487.3z"/>
<path class="st3" d="M792.6,479.8c0.2-0.5,0.2-1.4-0.4-2.9c-0.9-2-3.6-3.3-4.1-5.1c-0.5-1.6-0.8-1.4-0.3-2.6l2.6-7.5
	c-0.4,1.2-0.1,1,0.5,2.6c0.6,1.8,3.4,2.9,4.4,5c0.7,1.5,0.7,2.4,0.6,2.9L792.6,479.8L792.6,479.8z"/>
<path class="st3" d="M795.6,472.2c0.2-0.5,0.2-1.4-0.5-2.9c-1-2-3.7-3.1-4.3-4.9c-0.5-1.5-0.9-1.4-0.4-2.6l2.3-7.6
	c-0.4,1.2-0.1,1,0.6,2.6c0.7,1.8,3.5,2.8,4.6,4.8c0.8,1.4,0.8,2.3,0.7,2.8L795.6,472.2L795.6,472.2z"/>
<path class="st3" d="M798.3,464.4c0.2-0.5,0.1-1.4-0.7-2.8c-1-1.9-3.9-3-4.5-4.7c-0.6-1.5-0.9-1.3-0.5-2.5l2-7.7
	c-0.3,1.2,0,1,0.7,2.5c0.8,1.7,3.6,2.7,4.7,4.6c0.8,1.4,0.9,2.3,0.8,2.8L798.3,464.4L798.3,464.4z"/>
<path class="st3" d="M800.7,456.6c0.1-0.5,0.1-1.4-0.8-2.8c-1.1-1.9-4-2.8-4.7-4.6c-0.7-1.5-1-1.3-0.6-2.5l1.7-7.8
	c-0.3,1.3,0,1,0.7,2.5c0.8,1.7,3.7,2.5,4.9,4.4c0.9,1.4,1,2.3,0.9,2.8L800.7,456.6z"/>
<path class="st3" d="M802.7,448.7c0.1-0.5,0-1.4-0.9-2.8c-1.2-1.9-4.1-2.7-4.9-4.4c-0.7-1.5-1-1.2-0.7-2.5l1.3-7.8
	c-0.2,1.3,0.1,1,0.8,2.5c0.9,1.7,3.8,2.4,5.1,4.2c1,1.3,1.1,2.2,1,2.7L802.7,448.7L802.7,448.7z"/>
<path class="st3" d="M804.5,440.6c0.1-0.5,0-1.4-1-2.7c-1.3-1.8-4.2-2.5-5-4.2c-0.8-1.4-1-1.2-0.8-2.5l1-7.9c-0.2,1.3,0.1,1,0.9,2.4
	c1,1.6,3.9,2.2,5.2,4c1,1.3,1.2,2.2,1.1,2.7L804.5,440.6L804.5,440.6z"/>
<path class="st3" d="M805.9,432.6c0.1-0.5-0.1-1.4-1.1-2.7c-1.3-1.8-4.3-2.3-5.2-4c-0.8-1.4-1.1-1.2-0.9-2.4l0.7-7.9
	c-0.1,1.3,0.1,1,1,2.4c1,1.6,4,2.1,5.4,3.8c1,1.3,1.3,2.1,1.2,2.7L805.9,432.6L805.9,432.6z"/>
<path class="st3" d="M807.1,424.5c0.1-0.5-0.1-1.4-1.2-2.6c-1.4-1.7-4.4-2.2-5.4-3.8c-0.9-1.4-1.1-1.1-1-2.4l0.4-7.9
	c-0.1,1.3,0.2,1,1.1,2.4c1.1,1.5,4.1,1.9,5.5,3.6c1.1,1.2,1.3,2.1,1.3,2.6L807.1,424.5L807.1,424.5z"/>
<path class="st3" d="M807.9,416.3c0-0.5-0.2-1.4-1.3-2.6c-1.5-1.6-4.5-2-5.5-3.5c-0.9-1.3-1.2-1.1-1.1-2.3l0.1-7.9
	c0,1.3,0.2,1,1.2,2.3c1.1,1.5,4.1,1.8,5.7,3.4c1.1,1.2,1.4,2,1.4,2.6L807.9,416.3L807.9,416.3z"/>
<path class="st3" d="M808.3,408.1c0-0.5-0.2-1.4-1.4-2.6c-1.5-1.6-4.5-1.8-5.6-3.3c-1-1.3-1.2-1-1.2-2.3l-0.2-8c0,1.3,0.3,1,1.3,2.3
	c1.2,1.5,4.2,1.6,5.8,3.1c1.2,1.1,1.5,2,1.5,2.5L808.3,408.1L808.3,408.1z"/>
<path class="st3" d="M808.5,400c0-0.5-0.3-1.4-1.5-2.5c-1.6-1.5-4.6-1.6-5.8-3.1c-1-1.3-1.3-1-1.3-2.3l-0.5-7.9
	c0.1,1.3,0.3,1,1.4,2.2c1.2,1.4,4.3,1.4,5.9,2.9c1.2,1.1,1.6,1.9,1.6,2.4L808.5,400L808.5,400z"/>
<path class="st3" d="M808.3,391.8c0-0.5-0.4-1.3-1.6-2.4c-1.7-1.5-4.7-1.5-5.9-2.9c-1.1-1.2-1.3-0.9-1.4-2.2l-0.8-7.9
	c0.1,1.3,0.4,1,1.5,2.2c1.3,1.4,4.3,1.3,6,2.7c1.3,1,1.6,1.8,1.7,2.4L808.3,391.8L808.3,391.8z"/>
<path class="st3" d="M807.8,383.6c0-0.5-0.4-1.3-1.7-2.4c-1.7-1.4-4.7-1.3-6-2.6c-1.1-1.2-1.3-0.9-1.5-2.1l-1.1-7.9
	c0.2,1.3,0.4,1,1.6,2.1c1.3,1.3,4.4,1.1,6.1,2.4c1.3,1,1.7,1.8,1.8,2.3L807.8,383.6L807.8,383.6z"/>
<path class="st3" d="M807,375.4c-0.1-0.5-0.5-1.3-1.8-2.3c-1.8-1.3-4.8-1.1-6.1-2.4c-1.2-1.1-1.4-0.8-1.5-2.1l-1.4-7.8
	c0.2,1.3,0.4,0.9,1.6,2c1.4,1.2,4.4,0.9,6.2,2.2c1.3,0.9,1.8,1.7,1.9,2.2L807,375.4L807,375.4z"/>
<path class="st3" d="M805.9,367.3c-0.1-0.5-0.5-1.3-1.8-2.2c-1.8-1.3-4.8-0.9-6.2-2.2c-1.2-1.1-1.4-0.8-1.6-2l-1.7-7.8
	c0.3,1.3,0.5,0.9,1.7,2c1.5,1.2,4.4,0.8,6.3,2c1.4,0.9,1.9,1.6,2,2.2L805.9,367.3L805.9,367.3z"/>
<path class="st3" d="M804.5,359.3c-0.1-0.5-0.6-1.3-1.9-2.2c-1.9-1.2-4.8-0.7-6.3-1.9c-1.3-1-1.4-0.7-1.7-2l-2.1-7.7
	c0.3,1.2,0.5,0.9,1.8,1.9c1.5,1.1,4.5,0.6,6.4,1.7c1.4,0.8,1.9,1.6,2,2.1L804.5,359.3L804.5,359.3z"/>
<path class="st3" d="M802.7,351.3c-0.1-0.5-0.6-1.3-2-2.1c-1.9-1.1-4.9-0.5-6.3-1.7c-1.3-1-1.5-0.7-1.8-1.9l-2.4-7.6
	c0.4,1.2,0.5,0.9,1.9,1.8c1.5,1.1,4.5,0.4,6.4,1.4c1.5,0.8,2,1.5,2.1,2L802.7,351.3L802.7,351.3z"/>
<path class="st3" d="M800.6,343.3c-0.1-0.5-0.7-1.2-2.1-2c-2-1-4.9-0.3-6.4-1.4c-1.3-0.9-1.5-0.6-1.8-1.8l-2.6-7.5
	c0.4,1.2,0.6,0.9,1.9,1.8c1.6,1,4.5,0.2,6.5,1.2c1.5,0.7,2,1.4,2.2,1.9L800.6,343.3L800.6,343.3z"/>
<path class="st3" d="M798.3,335.5c-0.2-0.5-0.7-1.2-2.2-1.9c-2-1-4.9-0.2-6.5-1.2c-1.4-0.9-1.5-0.5-1.9-1.7l-2.9-7.4
	c0.5,1.2,0.6,0.8,2,1.7c1.6,1,4.5,0.1,6.5,0.9c1.5,0.7,2.1,1.3,2.3,1.8L798.3,335.5L798.3,335.5z"/>
<path class="st3" d="M795.6,327.8c-0.2-0.5-0.8-1.2-2.3-1.8c-2-0.9-4.9,0-6.5-0.9c-1.4-0.8-1.5-0.5-2-1.7l-3.2-7.3
	c0.5,1.2,0.6,0.8,2.1,1.6c1.7,0.9,4.5-0.1,6.6,0.7c1.5,0.6,2.1,1.2,2.4,1.7L795.6,327.8L795.6,327.8z"/>
<path class="st3" d="M792.6,320.1c-0.2-0.5-0.8-1.1-2.3-1.7c-2.1-0.8-4.9,0.2-6.5-0.7c-1.4-0.8-1.5-0.4-2-1.6l-3.5-7.1
	c0.6,1.1,0.7,0.8,2.1,1.5c1.7,0.8,4.5-0.3,6.6,0.4c1.6,0.5,2.2,1.2,2.4,1.6L792.6,320.1L792.6,320.1z"/>
<path class="st3" d="M789.3,312.6c-0.2-0.5-0.9-1.1-2.4-1.6c-2.1-0.7-4.9,0.4-6.5-0.4c-1.5-0.7-1.6-0.3-2.1-1.5l-3.8-7
	c0.6,1.1,0.7,0.8,2.2,1.4c1.7,0.8,4.5-0.5,6.6,0.2c1.6,0.5,2.2,1.1,2.5,1.5L789.3,312.6L789.3,312.6z"/>
<path class="st3" d="M785.7,305.3c-0.3-0.5-0.9-1.1-2.5-1.5c-2.1-0.6-4.9,0.6-6.6-0.1c-1.5-0.7-1.6-0.3-2.2-1.4l-4.1-6.8
	c0.7,1.1,0.7,0.7,2.2,1.3c1.8,0.7,4.4-0.7,6.6-0.1c1.6,0.4,2.3,1,2.5,1.4L785.7,305.3L785.7,305.3z"/>
<path class="st3" d="M781.9,298c-0.3-0.5-0.9-1-2.5-1.4c-2.1-0.6-4.8,0.8-6.6,0.1c-1.5-0.6-1.6-0.2-2.2-1.3l-4.3-6.7
	c0.7,1.1,0.7,0.7,2.3,1.2c1.8,0.6,4.4-0.8,6.6-0.4c1.6,0.3,2.3,0.9,2.6,1.3L781.9,298L781.9,298z"/>
<path class="st3" d="M777.7,291c-0.3-0.5-1-1-2.6-1.3c-2.2-0.5-4.8,1-6.5,0.4c-1.5-0.5-1.6-0.2-2.3-1.2l-4.6-6.5
	c0.7,1,0.8,0.7,2.3,1.2c1.8,0.5,4.4-1,6.6-0.6c1.6,0.3,2.3,0.8,2.6,1.2L777.7,291L777.7,291z"/>
<path class="st3" d="M773.3,284.1c-0.3-0.4-1-1-2.6-1.2c-2.2-0.4-4.8,1.2-6.5,0.6c-1.6-0.5-1.6-0.1-2.3-1.2L757,276
	c0.8,1,0.8,0.6,2.4,1.1c1.8,0.5,4.3-1.2,6.6-0.9c1.6,0.2,2.4,0.7,2.7,1.1L773.3,284.1L773.3,284.1z"/>
<path class="st3" d="M768.6,277.4c-0.3-0.4-1-0.9-2.7-1.1c-2.2-0.3-4.7,1.4-6.5,0.9c-1.6-0.4-1.6,0-2.4-1.1l-5.1-6.1
	c0.8,1,0.8,0.6,2.4,1c1.8,0.4,4.3-1.3,6.5-1.1c1.6,0.1,2.4,0.6,2.7,1L768.6,277.4z"/>
<path class="st3" d="M763.7,270.8c-0.3-0.4-1.1-0.9-2.7-1c-2.2-0.2-4.6,1.5-6.5,1.1c-1.6-0.4-1.6,0-2.4-1l-5.3-5.9
	c0.9,1,0.8,0.6,2.5,0.9c1.9,0.3,4.2-1.5,6.5-1.4c1.6,0.1,2.4,0.5,2.8,0.9L763.7,270.8L763.7,270.8z"/>
<path class="st3" d="M758.5,264.5c-0.4-0.4-1.1-0.8-2.8-0.9c-2.2-0.1-4.6,1.7-6.4,1.4c-1.6-0.3-1.6,0.1-2.4-0.9l-5.5-5.7
	c0.9,0.9,0.9,0.5,2.5,0.8c1.9,0.3,4.2-1.7,6.4-1.6c1.6,0,2.4,0.4,2.8,0.8L758.5,264.5L758.5,264.5z"/>
<path class="st3" d="M753,258.4c-0.4-0.4-1.1-0.8-2.8-0.8c-2.2,0-4.5,1.9-6.3,1.6c-1.6-0.2-1.6,0.2-2.5-0.8l-5.8-5.5
	c0.9,0.9,0.9,0.5,2.5,0.7c1.9,0.2,4.1-1.8,6.3-1.9c1.6,0,2.5,0.3,2.8,0.7L753,258.4L753,258.4z"/>
<path class="st3" d="M747.3,252.5c-0.4-0.4-1.2-0.8-2.8-0.7c-2.2,0.1-4.4,2.1-6.3,1.9c-1.6-0.2-1.6,0.2-2.5-0.7l-6-5.2
	c1,0.9,0.9,0.5,2.5,0.6c1.9,0.1,4-2,6.3-2.1c1.6-0.1,2.5,0.2,2.9,0.6L747.3,252.5L747.3,252.5z"/>
<path class="st3" d="M741.4,246.8c-0.4-0.4-1.2-0.7-2.8-0.6c-2.2,0.1-4.3,2.3-6.2,2.1c-1.6-0.1-1.6,0.3-2.5-0.6l-6.2-5
	c1,0.8,0.9,0.4,2.6,0.5c1.9,0,3.9-2.1,6.2-2.4c1.6-0.2,2.5,0.1,2.9,0.5L741.4,246.8L741.4,246.8z"/>
<path class="st3" d="M735.3,241.4c-0.4-0.3-1.2-0.7-2.9-0.5c-2.2,0.2-4.2,2.4-6.1,2.4c-1.6,0-1.6,0.3-2.5-0.5l-6.4-4.8
	c1,0.8,0.9,0.4,2.6,0.4c1.9,0,3.9-2.3,6.1-2.6c1.6-0.2,2.5,0,2.9,0.4L735.3,241.4L735.3,241.4z"/>
<path class="st3" d="M729,236.2c-0.4-0.3-1.3-0.6-2.9-0.4c-2.2,0.3-4.1,2.6-6,2.6c-1.6,0-1.5,0.4-2.6-0.4l-6.5-4.5
	c1,0.7,1,0.4,2.6,0.3c1.9-0.1,3.8-2.4,6-2.9c1.6-0.3,2.5-0.1,2.9,0.2L729,236.2L729,236.2z"/>
<path class="st3" d="M722.4,231.2c-0.4-0.3-1.3-0.6-2.9-0.3c-2.2,0.4-4,2.8-5.9,2.9c-1.6,0.1-1.5,0.5-2.6-0.3l-6.7-4.3
	c1.1,0.7,1,0.3,2.6,0.2c1.9-0.2,3.7-2.6,5.8-3.1c1.6-0.4,2.5-0.2,2.9,0.1L722.4,231.2L722.4,231.2z"/>
<path class="st3" d="M715.7,226.6c-0.5-0.3-1.3-0.5-2.9-0.2c-2.2,0.5-3.9,2.9-5.8,3.1c-1.6,0.2-1.5,0.5-2.6-0.2l-6.9-4
	c1.1,0.7,1,0.3,2.6,0.1c1.9-0.3,3.6-2.7,5.7-3.3c1.6-0.4,2.5-0.3,2.9,0L715.7,226.6L715.7,226.6z"/>
<path class="st3" d="M708.8,222.1c-0.5-0.3-1.3-0.4-2.9,0c-2.1,0.6-3.8,3-5.7,3.3c-1.6,0.2-1.5,0.6-2.6-0.1l-7-3.7
	c1.1,0.6,1,0.2,2.6,0c1.8-0.3,3.4-2.9,5.6-3.5c1.6-0.5,2.4-0.3,2.9-0.1L708.8,222.1L708.8,222.1z"/>
<path class="st3" d="M701.8,218c-0.5-0.3-1.3-0.4-2.9,0.1c-2.1,0.7-3.7,3.2-5.5,3.5c-1.6,0.3-1.5,0.6-2.6,0l-7.2-3.4
	c1.2,0.6,1,0.2,2.6-0.1c1.8-0.4,3.3-3,5.4-3.8c1.5-0.5,2.4-0.4,2.9-0.2L701.8,218L701.8,218z"/>
<path class="st3" d="M694.5,214.1c-0.5-0.2-1.3-0.3-2.9,0.2c-2.1,0.7-3.6,3.3-5.4,3.7c-1.6,0.3-1.4,0.7-2.6,0.1l-7.3-3.1
	c1.2,0.5,1,0.2,2.6-0.2c1.8-0.5,3.2-3.1,5.3-4c1.5-0.6,2.4-0.5,2.9-0.3L694.5,214.1z"/>
<path class="st3" d="M687.2,210.6c-0.5-0.2-1.4-0.3-2.9,0.3c-2.1,0.8-3.4,3.5-5.2,3.9c-1.6,0.4-1.4,0.7-2.6,0.2l-7.4-2.9
	c1.2,0.5,1,0.1,2.6-0.3c1.8-0.5,3.1-3.3,5.1-4.2c1.5-0.7,2.4-0.6,2.9-0.4L687.2,210.6z"/>
<path class="st3" d="M679.7,207.3c-0.5-0.2-1.4-0.2-2.9,0.4c-2,0.9-3.3,3.6-5.1,4.2c-1.6,0.5-1.4,0.8-2.6,0.3l-7.5-2.6
	c1.2,0.4,1,0.1,2.6-0.5c1.8-0.6,2.9-3.4,5-4.4c1.5-0.7,2.4-0.7,2.9-0.6L679.7,207.3L679.7,207.3z"/>
<path class="st3" d="M672,204.3c-0.5-0.2-1.4-0.2-2.9,0.5c-2,1-3.1,3.7-4.9,4.3c-1.5,0.5-1.3,0.9-2.6,0.4l-7.6-2.3
	c1.2,0.4,1,0.1,2.6-0.6c1.7-0.7,2.8-3.5,4.8-4.6c1.4-0.8,2.3-0.8,2.9-0.7L672,204.3L672,204.3z"/>
<path class="st3" d="M664.3,201.6c-0.5-0.2-1.4-0.1-2.8,0.7c-1.9,1-3,3.9-4.7,4.5c-1.5,0.6-1.3,0.9-2.5,0.5l-7.7-2
	c1.2,0.3,1,0,2.5-0.7c1.7-0.8,2.7-3.6,4.6-4.7c1.4-0.8,2.3-0.9,2.8-0.8L664.3,201.6L664.3,201.6z"/>
<path class="st3" d="M656.4,199.3c-0.5-0.1-1.4-0.1-2.8,0.8c-1.9,1.1-2.8,4-4.5,4.7c-1.5,0.7-1.3,1-2.5,0.6l-7.8-1.7
	c1.2,0.3,1,0,2.5-0.8c1.7-0.8,2.5-3.7,4.4-4.9c1.4-0.9,2.3-1,2.8-0.9L656.4,199.3L656.4,199.3z"/>
<path class="st3" d="M648.5,197.2c-0.5-0.1-1.4,0-2.8,0.9c-1.9,1.2-2.7,4.1-4.4,4.9c-1.5,0.7-1.2,1-2.5,0.7l-7.8-1.4
	c1.3,0.2,1-0.1,2.5-0.8c1.7-0.9,2.4-3.8,4.2-5.1c1.3-1,2.2-1.1,2.8-1L648.5,197.2z"/>
<path class="st3" d="M640.5,195.5c-0.5-0.1-1.4,0-2.7,1c-1.8,1.3-2.5,4.2-4.2,5.1c-1.4,0.8-1.2,1-2.5,0.8l-7.9-1
	c1.3,0.2,1-0.1,2.4-1c1.6-1,2.2-3.9,4-5.2c1.3-1,2.2-1.2,2.7-1.1L640.5,195.5L640.5,195.5z"/>
<path class="st3" d="M632.5,194c-0.5-0.1-1.4,0.1-2.7,1.1c-1.8,1.3-2.4,4.3-4,5.2c-1.4,0.8-1.2,1.1-2.4,0.9l-7.9-0.8
	c1.3,0.1,1-0.1,2.4-1c1.6-1,2.1-4,3.8-5.4c1.3-1,2.1-1.3,2.7-1.2L632.5,194L632.5,194z"/>
<path class="st3" d="M624.4,192.9c-0.5-0.1-1.4,0.1-2.6,1.2c-1.7,1.4-2.2,4.4-3.8,5.4c-1.4,0.9-1.1,1.1-2.4,1l-7.9-0.4
	c1.3,0.1,1-0.2,2.4-1.1c1.5-1.1,1.9-4,3.6-5.5c1.2-1.1,2.1-1.3,2.6-1.3L624.4,192.9L624.4,192.9z"/>
<path class="st3" d="M616.2,192.1c-0.5,0-1.4,0.2-2.6,1.3c-1.6,1.5-2,4.5-3.5,5.5c-1.3,0.9-1.1,1.2-2.3,1.1l-7.9-0.1
	c1.3,0,1-0.2,2.3-1.2c1.5-1.1,1.8-4.1,3.4-5.7c1.2-1.1,2-1.4,2.6-1.4L616.2,192.1z"/>
<path class="st4" d="M645.6,571c-2.5,0.8-5.4,3.2-5,4.9c0.7,2.8,2.6,5.8,5.4,7c2.3,1,5,0.1,6.4-1.1c3.3-3.1,2.3-9.3-2.3-10.6
	C648.8,570.8,647.1,570.6,645.6,571L645.6,571z M657.4,569.8c1.5,1.8,1.9,3.7,2.1,6.1c0.8,7.6-7.9,11.6-14.3,10.7
	c-5.2-0.8-9-4.7-10.6-9.5c-2.6-7.8-2-17.7,5.6-22c2.9-1.6,7-3.2,11.6-2.8l2.1,7.8l-2.7,0.7c-0.6-1-1.1-2.1-1.9-2.9
	c-1.9-1.9-5-2.1-7.4,0c-3.6,3.1-4.3,9.1-2.6,13.4c5.2-5.1,10.8-5.5,14.2-4C654.9,567.7,656.5,568.7,657.4,569.8 M601.4,559.8
	l23.1-1.6l1.1,4.1c-5.8,9.3-9.4,20.7-9.1,29.2l-7.2,0.5c0.2-10.1,8.1-24.8,11.4-28.7l-10.5,0.8c-3.8,0.5-4.8,1.4-5,4.4l-3.1,0.2
	L601.4,559.8L601.4,559.8z M578.9,589.4c9.1,0.6,7.6-8.3-1.7-11.6C567.4,580.4,570.5,588.8,578.9,589.4z M580.5,572.8
	c7.3-1.4,8.3-9.4,0.6-10.6C574.6,561.2,570.4,568.5,580.5,572.8z M573.4,574.9c-8.9-5.2-5.6-18,7.5-16.4
	c11.8,1.5,14.2,12.9,3.9,16.5c10.7,7.1,6.6,19.2-8.1,16.9C562.3,589.8,562.1,576.7,573.4,574.9 M556.2,553.3l-7.6,24.5
	c-0.6,2.7,0.3,4.2,1.7,4.9l-0.9,2.7l-10.7-3.3l0.9-2.7c1.5,0.3,3.3-0.7,4.3-3.2l4.9-15.8c0.6-1.8,0.1-4.8-1.4-5.4l0.8-2.5
	c2.7,0.3,3.7,0.7,4.8-0.2L556.2,553.3L556.2,553.3z M751.8,352.4c3.1,9.2,11.9,13.4,20.6,10.7c8.4-2.6,13.4-12.2,10.9-19.8
	l-5.4-16.2l-2.8,1c0.2,1.6,0.3,2.8-2.3,3.6l-18.8,6.3c-2.6,0.7-3.3-0.4-4-1.7l-3.1,1L751.8,352.4L751.8,352.4z M755.6,342.8
	l18.8-6.2c2.6-0.7,3,0.8,3.7,2.1c1.3,2.9,1.3,4.1,1.4,6.9c0.2,4.2-2.8,9.6-9.4,11.6c-9.1,2.8-13.6-2.6-15.1-6.8
	C753.3,345.8,753.1,343.8,755.6,342.8 M731.5,281.2c1.3,1.5,4.7,5,8.7,1.7c2.8-2.4,3.7-5.9,0-10c-1.6-1.7-3.4-0.7-4.3,0.2l-6.4,5.8
	C729.8,279.3,730.4,279.8,731.5,281.2L731.5,281.2L731.5,281.2z M720.9,286.8c-1.9,2-1.3,3-0.5,4.3l-2.3,2.1l-7.7-8.4l2.3-2.1
	c1.2,1,2.4,2,4.5,0.3l14.7-13.4c1.9-1.9,1.3-3,0.4-4.3l2.4-2.2l10.5,11.6c6.8,8.7-2.8,18-11.9,12.5l-2.8,11.6
	c-0.3,1.4-0.1,4.3,0.8,5.6l-1.8,1.5l-4.8-5.2l3.4-14.5c0.2-1.2,0.7-3.6-0.9-5.2L720.9,286.8 M661.3,252.7l20.8,9.9l3.3-6.9l-2.8-1.3
	c-2.3,2.4-3,3.5-8.2,1.3c-2.2-0.8-4.1-2.2-3.1-4.8l8.6-18.1c1.3-2.4,3-2.2,4.5-1.7l1.4-2.9l-10.2-4.9l-1.4,2.9
	c1.3,0.8,2.2,1.6,1.2,4.2l-8.6,18.1c-1.3,2.4-2.8,2.1-4.3,1.6L661.3,252.7L661.3,252.7z M623.1,218.3c-0.4-3.8-2.4-6-7.5-6.1
	c-6.2-0.1-11.9,5.1-12.5,12.5c-0.5,7.4,4.1,14.1,10.4,14.6c3.7,0.3,6.9,0.5,7.8-4.4l2.7,0.1l-0.5,6.3c-2.2,1.2-8.3,1-10.8,0.8
	c-10.4-0.8-16-8.5-15.2-17.8c0.8-9.3,10.8-19.1,29.2-14.4l-0.6,8.6L623.1,218.3L623.1,218.3z M552.1,233.8l4.9-1.3
	c2.9-0.5,3.2,0.2,3.8,1.6l3.1-0.9l-2.1-8.1l-3.1,0.9c0.2,1.5,0.3,2.4-2.5,3.3l-4.9,1.3l-2.4-8.7c-0.5-2.2,0.4-3.7,2.8-4.4
	c2.3-0.7,6.6-2.2,8.7,3l3-0.8l-2.1-7.7l-22.4,6l0.8,3c1.5-0.2,3-0.3,3.8,2.3l5.2,19.4c0.5,2.7-0.5,3.7-1.9,4.2l0.6,2.7l11.1-3
	L558,244c-1.5,0.2-3,0-3.9-2.6L552.1,233.8L552.1,233.8z M761,386.5c0.7,6.5,7.5,11.1,15.2,10.3c7.7-0.8,13.5-6.7,12.8-13.2
	c-0.7-6.5-7.5-11.1-15.2-10.3C766,374.1,760.3,380,761,386.5z M773.5,367.3c9.4-0.8,17.7,6.5,18.6,16.3c0.8,9.8-5.5,18.4-15.5,19.2
	c-9.4,0.8-17.7-6.5-18.6-16.3C757.1,376.7,764,368.1,773.5,367.3 M697.4,271.4c5.3,3.8,13.3,1.8,17.8-4.5c4.6-6.3,4-14.5-1.3-18.3
	c-5.3-3.8-13.3-1.8-17.8,4.5C691.5,259.3,692.1,267.5,697.4,271.4L697.4,271.4z M691.4,249.2c5.7-7.5,16.7-8.9,24.5-2.9
	s10,16.4,4,24.4c-5.7,7.6-16.7,8.9-24.5,2.9S685.7,256.8,691.4,249.2 M644.4,245c6.3,1.7,13-3.1,15-10.6c2-7.5-1.5-15-7.8-16.6
	c-6.3-1.7-13,3.1-15,10.6C634.6,235.9,638.1,243.3,644.4,245L644.4,245z M630.9,226.5c2.6-9.1,12.3-14.3,21.8-11.6
	c9.5,2.7,15.2,11.6,12.5,21.3c-2.6,9.1-12.4,14.3-21.8,11.6C633.9,245.1,628.3,235.6,630.9,226.5 M529.8,255c5.8-3,7.7-11,4.2-17.9
	c-3.5-6.9-11.1-10.1-16.9-7.2c-5.8,3-7.7,11-4.2,17.9C516.4,254.7,524,257.9,529.8,255z M507.4,250.2c-4.1-8.5-0.3-18.9,8.6-23.2
	c8.9-4.3,19.1-1.5,23.5,7.6c4.1,8.5,0.3,18.9-8.6,23.2C522,262.1,511.5,258.7,507.4,250.2 M475.9,299.6l16.7-17.8l-5.4-5.1l-2.6,2.7
	c4.1,4-0.6,6.9-2.2,8.6c-2.1,2.1-3,3.1-5.3,1l-6.1-5.8l3.5-3.7c2.2-2.1,3.1-1.7,4.3-0.8l2.3-2.4l-6.1-5.8l-2.3,2.5
	c1,1.2,1.2,2.1-0.6,4.3l-3.5,3.7l-6-5.7c-1.6-1.6-1-4.1,0.5-5.7c2.4-2.6,6-5.3,9.7-2.2l1.8-1.9l-5.9-5.6L452.3,277l2.2,2.1
	c1.2-1,2.3-1.8,4.3-0.1l14.4,13.6c1.8,2,1.5,3.7,0.6,4.9L475.9,299.6L475.9,299.6z M743.9,310.7l6.1,10.6l-1.8,2
	c-1.9,1.9-3.5,3-4.9,0.8l-2.7,1.5l5.5,9.5l2.7-1.6c-0.6-1.4-1-2.7,0.9-4.5l16.2-18.7c0.4-0.6,1.5-1.2,2.5-2l-3.2-5.5
	c-0.6,0.2-2,0.8-3.4,1.2l-24,4.2c-2.6,0.6-2.8,0.2-4.2-0.9l-2.7,1.5l4.9,8.5l2.7-1.5c-1.1-2.2-0.5-3.9,2.6-4.5L743.9,310.7
	L743.9,310.7z M761.3,307.6l-9.2,11.1l-4.9-8.5L761.3,307.6 M441.4,341.6l4.6-11.3l2.7,0.2c2.7,0.3,4.5,0.9,3.6,3.4l2.8,1.2
	l4.2-10.2l-2.9-1.2c-0.8,1.4-1.5,2.4-4.1,2.1l-24.6-1.3c-0.7,0-1.9-0.4-3.1-0.8l-2.4,5.9c0.6,0.3,1.9,1.1,3,2l18.1,16.4
	c2.1,1.6,1.9,2,1.8,3.9l2.8,1.1l3.7-9.1l-2.8-1.2c-1,2.3-2.8,2.7-5.1,0.7L441.4,341.6L441.4,341.6z M428.2,329.7l14.4,0.4l-3.7,9.1
	L428.2,329.7 M446.8,284.1l6.8,4.4l-1.7,2.6c-4.3-2.4-5.7,0-6.7,1.6c-0.9,1.4-1.1,2.7,0.3,3.9l16.7,10.9c2.1,1.2,3.3,1.4,5-0.5
	l2.6,1.7l-6.3,9.6l-2.6-1.7c1.3-2.1,0.1-3.3-1.9-4.8l-16.7-10.9c-1.5-0.3-2.5-0.1-3.4,1.4c-1,1.6-2.6,4.4,1.2,6.8l-1.7,2.6l-6.8-4.4
	L446.8,284.1L446.8,284.1z M416.3,343.7l7.9,1.8l-0.7,3c-4.9-0.8-5.3,2-5.8,3.8c-0.4,1.7-0.1,2.9,1.7,3.5l19.4,4.5
	c2.4,0.4,3.6,0.2,4.5-2.2l3,0.7l-2.6,11.2l-3-0.7c0.5-2.4-1.1-3.1-3.4-3.8l-19.4-4.5c-1.5,0.2-2.4,0.8-2.8,2.5c-0.4,1.8-0.9,5,3.5,6
	l-0.7,3l-7.9-1.8L416.3,343.7L416.3,343.7z M433.3,400.2l7.8,0.5c1-4.3,2.8-14.3-2.1-18.3c-2.7-2.2-6.6-2.6-9.5-1.1
	c-4.8,2.4-6,6.2-9.4,10.2c-4,4.8-7.3,2.6-8.4,0.8c-1.4-2.3-1.6-8.2,5.8-8.3l0.2-3.1l-8.5-0.5c-1,7.1-2.1,13.3,2.6,17.6
	c1.8,1.6,5.4,2.3,8.9,0.4c4.6-2.6,6.7-7.1,10.2-11c2.4-2.8,6.9-2,7.8,0.9c1.4,4.3-0.3,10.6-5.2,9.3L433.3,400.2L433.3,400.2z"/>
<path class="st4" d="M445.1,445.1l-12.2-0.6l-3.6-11.6l-4.4,11.4l-12.2-0.1l9.5,7.7l-3.9,11.5l10.2-6.6l9.8,7.3l-3.2-11.8
	C435.2,452.2,445.1,445.1,445.1,445.1z M470.5,496.4l-11.6,3.7l-7.5-9.6l-0.1,12.2l-11.5,4.1l11.6,3.9l0.4,12.2l7.3-9.8l11.7,3.4
	l-7.1-9.9C463.7,506.5,470.5,496.4,470.5,496.4z M512.3,535.6l-9.6,7.5l-10.4-6.4l4.1,11.5l-9.3,7.9l12.2-0.4l4.6,11.3l3.4-11.7
	l12.2-0.9l-10.1-6.8L512.3,535.6L512.3,535.6z M755.3,445.1l12.2-0.6l3.6-11.6l4.4,11.4l12.2-0.1l-9.5,7.7l3.9,11.5l-10.2-6.6
	l-9.8,7.3l3.2-11.8L755.3,445.1z M729.9,496.4l11.6,3.7l7.5-9.6l0.1,12.2l11.5,4.1l-11.6,3.9l-0.4,12.2l-7.2-9.8l-11.7,3.4l7.1-9.9
	L729.9,496.4L729.9,496.4z M688.1,535.6l9.6,7.5l10.4-6.4l-4.1,11.5l9.3,7.9l-12.2-0.4l-4.6,11.3l-3.4-11.7l-12.2-0.9l10.1-6.8
	L688.1,535.6L688.1,535.6z M578.4,226.9c1.5,0.9,3.5,0.4,4.4-1.1c0.9-1.5,0.4-3.5-1.1-4.4c-1.5-0.9-3.5-0.4-4.4,1.1
	C576.3,224,576.9,226,578.4,226.9L578.4,226.9L578.4,226.9z M492.5,262.6c1.8,0,3.2-1.4,3.2-3.2c0-1.8-1.4-3.2-3.2-3.2
	s-3.2,1.4-3.2,3.2C489.3,261.2,490.7,262.6,492.5,262.6z"/>
<path class="st0" d="M599.9,247.2c84.4,0,152.8,68.4,152.8,152.8s-68.4,152.8-152.8,152.8S447.1,484.4,447.1,400
	S515.5,247.2,599.9,247.2"/>
<path class="st5" d="M599.9,247.2c84.4,0,152.8,68.4,152.8,152.8s-68.4,152.8-152.8,152.8S447.1,484.4,447.1,400
	S515.5,247.2,599.9,247.2L599.9,247.2z"/>
<path class="st6" d="M599.9,257.9c78.5,0,142.1,63.6,142.1,142.1s-63.6,142.1-142.1,142.1S457.8,478.5,457.8,400
	S521.4,257.9,599.9,257.9"/>
<path class="st5" d="M599.9,257.9c78.5,0,142.1,63.6,142.1,142.1s-63.6,142.1-142.1,142.1S457.8,478.5,457.8,400
	S521.4,257.9,599.9,257.9z"/>
<path class="st7" d="M599.9,255.5c1.6,0,2.9-1.3,2.9-2.9s-1.3-2.9-2.9-2.9c-1.6,0-2.9,1.3-2.9,2.9S598.3,255.5,599.9,255.5"/>
<path class="st7" d="M590,255.9c1.6-0.1,2.8-1.5,2.7-3.1c-0.1-1.6-1.5-2.8-3.1-2.7c-1.6,0.1-2.8,1.5-2.7,3.1
	C587,254.7,588.4,256,590,255.9"/>
<path class="st7" d="M580.2,256.9c1.6-0.2,2.7-1.7,2.5-3.3c-0.2-1.6-1.7-2.7-3.3-2.5c-1.6,0.2-2.7,1.7-2.5,3.3
	C577.1,256,578.6,257.1,580.2,256.9"/>
<path class="st7" d="M570.5,258.5c1.6-0.3,2.6-1.9,2.3-3.5s-1.9-2.6-3.5-2.3c-1.6,0.3-2.6,1.9-2.3,3.5
	C567.4,257.9,568.9,258.9,570.5,258.5"/>
<path class="st7" d="M560.9,260.9c1.6-0.4,2.5-2,2-3.6c-0.4-1.6-2-2.5-3.6-2c-1.6,0.4-2.5,2-2,3.6
	C557.8,260.4,559.4,261.3,560.9,260.9"/>
<path class="st7" d="M551.5,263.9c1.5-0.5,2.3-2.2,1.8-3.7c-0.5-1.5-2.2-2.3-3.7-1.8c-1.5,0.5-2.3,2.2-1.8,3.7
	C548.3,263.6,550,264.4,551.5,263.9"/>
<path class="st7" d="M542.3,267.5c1.5-0.7,2.2-2.4,1.5-3.9c-0.7-1.5-2.4-2.2-3.9-1.5c-1.5,0.6-2.2,2.4-1.5,3.8
	C539.1,267.4,540.8,268.1,542.3,267.5"/>
<path class="st7" d="M533.4,271.7c1.4-0.8,2-2.5,1.2-3.9c-0.7-1.4-2.5-2-3.9-1.2c-1.4,0.7-2,2.5-1.2,3.9
	C530.2,271.9,532,272.5,533.4,271.7"/>
<path class="st7" d="M524.8,276.5c1.4-0.8,1.8-2.6,1-4c-0.8-1.4-2.6-1.8-4-1c-1.4,0.8-1.8,2.6-1,4
	C521.6,276.9,523.4,277.4,524.8,276.5"/>
<path class="st7" d="M516.6,282c1.3-0.9,1.6-2.8,0.7-4.1s-2.8-1.6-4.1-0.7c-1.3,0.9-1.6,2.8-0.7,4.1
	C513.4,282.6,515.2,282.9,516.6,282"/>
<path class="st7" d="M508.7,287.9c1.2-1,1.4-2.9,0.4-4.1c-1-1.2-2.9-1.4-4.1-0.4c-1.2,1-1.4,2.9-0.4,4.1
	C505.6,288.7,507.5,288.9,508.7,287.9"/>
<path class="st7" d="M501.3,294.4c1.2-1.1,1.2-2.9,0.1-4.1c-1.1-1.2-2.9-1.2-4.1-0.1c-1.2,1.1-1.2,2.9-0.1,4.1
	C498.3,295.4,500.1,295.5,501.3,294.4"/>
<path class="st7" d="M494.3,301.4c1.1-1.2,1-3-0.1-4.1c-1.2-1.1-3-1-4.1,0.1c-1.1,1.2-1,3,0.1,4.1
	C491.3,302.6,493.2,302.6,494.3,301.4"/>
<path class="st7" d="M487.8,308.8c1-1.2,0.8-3.1-0.4-4.1c-1.3-1-3.1-0.8-4.1,0.4s-0.8,3.1,0.4,4.1
	C485,310.3,486.8,310.1,487.8,308.8"/>
<path class="st7" d="M481.9,316.7c0.9-1.3,0.6-3.1-0.7-4.1c-1.3-0.9-3.1-0.6-4.1,0.7c-0.9,1.3-0.6,3.1,0.7,4.1
	C479.1,318.3,480.9,318,481.9,316.7"/>
<path class="st7" d="M476.5,324.9c0.8-1.4,0.4-3.2-1-4c-1.4-0.8-3.2-0.4-4,1c-0.8,1.4-0.4,3.2,1,4
	C473.8,326.7,475.6,326.3,476.5,324.9"/>
<path class="st7" d="M471.6,333.5c0.8-1.4,0.2-3.2-1.2-3.9c-1.4-0.7-3.2-0.2-3.9,1.2s-0.2,3.2,1.2,3.9
	C469.1,335.5,470.9,335,471.6,333.5"/>
<path class="st7" d="M467.4,342.4c0.6-1.5,0-3.2-1.5-3.8c-1.5-0.7-3.2,0-3.8,1.5c-0.7,1.5,0,3.2,1.5,3.9
	C465,344.6,466.7,343.9,467.4,342.4"/>
<path class="st7" d="M463.8,351.6c0.5-1.5-0.3-3.2-1.8-3.7c-1.5-0.5-3.2,0.3-3.7,1.8c-0.5,1.5,0.3,3.2,1.8,3.7
	S463.2,353.1,463.8,351.6"/>
<path class="st7" d="M460.8,361c0.4-1.6-0.5-3.2-2-3.6s-3.2,0.5-3.6,2c-0.4,1.5,0.5,3.2,2,3.6C458.7,363.5,460.3,362.6,460.8,361"/>
<path class="st7" d="M458.4,370.6c0.3-1.6-0.7-3.1-2.3-3.5c-1.6-0.3-3.1,0.7-3.5,2.3c-0.3,1.6,0.7,3.1,2.3,3.5
	C456.6,373.2,458.1,372.2,458.4,370.6"/>
<path class="st7" d="M456.8,380.3c0.2-1.6-0.9-3.1-2.5-3.3c-1.6-0.2-3.1,0.9-3.3,2.5c-0.2,1.6,0.9,3.1,2.5,3.3
	C455.1,383,456.6,381.9,456.8,380.3"/>
<path class="st7" d="M455.8,390.1c0.1-1.6-1.1-3-2.7-3.1s-3,1.1-3.1,2.7c-0.1,1.6,1.1,3,2.7,3.1C454.3,393,455.6,391.7,455.8,390.1"
	/>
<path class="st7" d="M455.4,400c0-1.6-1.3-2.9-2.9-2.9s-2.9,1.3-2.9,2.9s1.3,2.9,2.9,2.9S455.4,401.6,455.4,400"/>
<path class="st7" d="M455.8,409.8c-0.1-1.6-1.5-2.8-3.1-2.7c-1.6,0.1-2.8,1.5-2.7,3.1c0.1,1.6,1.5,2.8,3.1,2.7
	C454.6,412.9,455.9,411.5,455.8,409.8"/>
<path class="st7" d="M456.8,419.7c-0.2-1.6-1.7-2.7-3.3-2.5c-1.6,0.2-2.7,1.7-2.5,3.3s1.7,2.7,3.3,2.5
	C455.9,422.7,457,421.2,456.8,419.7"/>
<path class="st7" d="M458.4,429.4c-0.3-1.6-1.9-2.6-3.5-2.3c-1.6,0.3-2.6,1.9-2.3,3.4c0.3,1.6,1.9,2.6,3.5,2.3
	C457.8,432.5,458.8,431,458.4,429.4"/>
<path class="st7" d="M460.8,439c-0.4-1.6-2-2.5-3.6-2c-1.6,0.4-2.5,2-2,3.6c0.4,1.6,2,2.5,3.6,2C460.3,442.1,461.2,440.5,460.8,439"
	/>
<path class="st7" d="M463.8,448.4c-0.5-1.5-2.2-2.3-3.7-1.8c-1.5,0.5-2.3,2.2-1.8,3.7c0.5,1.5,2.2,2.3,3.7,1.8
	C463.5,451.5,464.3,449.9,463.8,448.4"/>
<path class="st7" d="M467.4,457.5c-0.7-1.5-2.4-2.2-3.9-1.5c-1.5,0.6-2.2,2.4-1.5,3.8s2.4,2.2,3.9,1.5
	C467.3,460.7,468,459,467.4,457.5"/>
<path class="st7" d="M471.6,466.4c-0.8-1.4-2.5-2-3.9-1.3c-1.4,0.7-2,2.5-1.2,3.9c0.7,1.4,2.5,2,3.9,1.3
	C471.8,469.6,472.4,467.9,471.6,466.4"/>
<path class="st7" d="M476.4,475c-0.8-1.4-2.6-1.8-4-1c-1.4,0.9-1.8,2.6-1,4c0.8,1.4,2.6,1.8,4,1C476.8,478.2,477.3,476.4,476.4,475"
	/>
<path class="st7" d="M481.8,483.3c-0.9-1.3-2.8-1.6-4.1-0.7c-1.3,0.9-1.6,2.8-0.7,4.1c0.9,1.3,2.8,1.6,4.1,0.7
	C482.5,486.4,482.8,484.6,481.8,483.3"/>
<path class="st7" d="M487.8,491.1c-1-1.3-2.9-1.4-4.1-0.4c-1.2,1-1.4,2.9-0.4,4.1c1,1.2,2.9,1.4,4.1,0.4
	C488.6,494.3,488.8,492.4,487.8,491.1"/>
<path class="st7" d="M494.3,498.6c-1.1-1.2-2.9-1.2-4.1-0.1c-1.2,1.1-1.2,2.9-0.1,4.1c1.1,1.2,2.9,1.2,4.1,0.1
	C495.3,501.6,495.4,499.8,494.3,498.6"/>
<path class="st7" d="M501.3,505.6c-1.2-1.1-3-1-4.1,0.1c-1.1,1.2-1,3,0.1,4.1c1.2,1.1,3,1,4.1-0.1
	C502.5,508.5,502.4,506.7,501.3,505.6"/>
<path class="st7" d="M508.7,512.1c-1.2-1-3.1-0.8-4.1,0.4c-1,1.2-0.8,3.1,0.4,4.1c1.2,1,3.1,0.8,4.1-0.4S510,513.1,508.7,512.1"/>
<path class="st7" d="M516.6,518c-1.3-0.9-3.1-0.6-4.1,0.7c-0.9,1.3-0.6,3.1,0.7,4.1c1.3,0.9,3.1,0.6,4.1-0.7
	C518.2,520.8,517.9,518.9,516.6,518"/>
<path class="st7" d="M524.8,523.4c-1.4-0.9-3.2-0.4-4,1s-0.4,3.2,1,4c1.4,0.8,3.2,0.4,4-1C526.6,526.1,526.2,524.3,524.8,523.4"/>
<path class="st7" d="M533.4,528.2c-1.4-0.7-3.2-0.2-3.9,1.2c-0.7,1.4-0.2,3.2,1.2,3.9c1.4,0.7,3.2,0.2,3.9-1.2
	C535.4,530.7,534.8,529,533.4,528.2"/>
<path class="st7" d="M542.3,532.5c-1.5-0.7-3.2,0-3.8,1.5c-0.6,1.5,0,3.2,1.5,3.9c1.5,0.6,3.2,0,3.8-1.5
	C544.5,534.9,543.8,533.1,542.3,532.5"/>
<path class="st7" d="M551.5,536.1c-1.5-0.6-3.2,0.3-3.7,1.8c-0.5,1.5,0.3,3.2,1.8,3.7c1.5,0.6,3.2-0.3,3.7-1.8
	C553.8,538.3,553,536.6,551.5,536.1"/>
<path class="st7" d="M560.9,539.1c-1.6-0.4-3.2,0.5-3.6,2c-0.4,1.6,0.5,3.2,2,3.6c1.6,0.4,3.2-0.5,3.6-2S562.4,539.5,560.9,539.1"/>
<path class="st7" d="M570.5,541.4c-1.6-0.3-3.1,0.7-3.5,2.3c-0.3,1.6,0.7,3.1,2.3,3.5c1.6,0.3,3.1-0.7,3.5-2.3
	C573.1,543.3,572.1,541.7,570.5,541.4"/>
<path class="st7" d="M580.2,543.1c-1.6-0.2-3.1,0.9-3.3,2.5c-0.2,1.6,0.9,3.1,2.5,3.3c1.6,0.2,3.1-0.9,3.3-2.5
	C582.9,544.8,581.8,543.3,580.2,543.1"/>
<path class="st7" d="M590,544.1c-1.6-0.1-3,1.1-3.1,2.7c-0.1,1.6,1.1,3,2.7,3.1c1.6,0.1,3-1.1,3.1-2.7
	C592.8,545.6,591.6,544.2,590,544.1"/>
<path class="st7" d="M599.9,544.5c-1.6,0-2.9,1.3-2.9,2.9s1.3,2.9,2.9,2.9c1.6,0,2.9-1.3,2.9-2.9
	C602.8,545.8,601.5,544.5,599.9,544.5"/>
<path class="st7" d="M609.7,544.1c-1.6,0.1-2.8,1.5-2.7,3.1c0.1,1.6,1.5,2.8,3.1,2.7c1.6-0.1,2.8-1.5,2.7-3.1
	C612.7,545.2,611.3,544,609.7,544.1"/>
<path class="st7" d="M619.5,543.1c-1.6,0.2-2.7,1.7-2.5,3.3c0.2,1.6,1.7,2.7,3.3,2.5c1.6-0.2,2.7-1.7,2.5-3.3
	C622.6,544,621.1,542.9,619.5,543.1"/>
<path class="st7" d="M629.2,541.4c-1.6,0.3-2.6,1.9-2.3,3.4c0.3,1.6,1.9,2.6,3.5,2.3s2.6-1.9,2.3-3.4
	C632.4,542.1,630.8,541.1,629.2,541.4"/>
<path class="st7" d="M638.8,539.1c-1.6,0.4-2.5,2.1-2,3.6c0.4,1.6,2,2.5,3.6,2c1.6-0.4,2.5-2.1,2-3.6
	C642,539.6,640.4,538.7,638.8,539.1"/>
<path class="st7" d="M648.2,536.1c-1.5,0.5-2.3,2.2-1.8,3.7c0.5,1.5,2.2,2.3,3.7,1.8c1.5-0.5,2.3-2.2,1.8-3.7
	C651.4,536.4,649.8,535.6,648.2,536.1"/>
<path class="st7" d="M657.4,532.5c-1.5,0.7-2.2,2.4-1.5,3.8c0.6,1.5,2.4,2.2,3.8,1.5c1.5-0.6,2.2-2.4,1.5-3.8
	C660.6,532.5,658.9,531.9,657.4,532.5"/>
<path class="st7" d="M666.3,528.3c-1.4,0.7-2,2.5-1.3,3.9c0.8,1.4,2.5,2,3.9,1.2c1.4-0.7,2-2.5,1.2-3.9
	C669.5,528.1,667.7,527.5,666.3,528.3"/>
<path class="st7" d="M674.9,523.4c-1.4,0.8-1.8,2.6-1,4c0.8,1.4,2.6,1.8,4,1c1.4-0.8,1.8-2.6,1-4S676.3,522.6,674.9,523.4"/>
<path class="st7" d="M683.2,518c-1.3,0.9-1.6,2.8-0.7,4.1c0.9,1.3,2.8,1.6,4.1,0.7c1.3-0.9,1.6-2.8,0.7-4.1
	C686.3,517.4,684.5,517.1,683.2,518"/>
<path class="st7" d="M691,512.1c-1.3,1-1.4,2.9-0.4,4.1c1,1.2,2.9,1.4,4.1,0.4c1.2-1,1.4-2.9,0.4-4.1
	C694.1,511.3,692.3,511.1,691,512.1"/>
<path class="st7" d="M698.5,505.6c-1.2,1.1-1.2,2.9-0.1,4.1c1.1,1.2,2.9,1.2,4.1,0.1c1.2-1.1,1.2-2.9,0.1-4.1
	C701.5,504.6,699.6,504.5,698.5,505.6"/>
<path class="st7" d="M705.4,498.6c-1.1,1.2-1,3,0.1,4.1c1.2,1.1,3,1,4.1-0.1s1-3-0.1-4.1S706.5,497.5,705.4,498.6"/>
<path class="st7" d="M711.9,491.2c-1,1.2-0.8,3.1,0.4,4.1c1.3,1,3.1,0.8,4.1-0.4c1-1.3,0.8-3.1-0.4-4.1
	C714.8,489.7,712.9,489.9,711.9,491.2"/>
<path class="st7" d="M717.9,483.3c-0.9,1.3-0.6,3.1,0.7,4.1c1.3,0.9,3.1,0.6,4.1-0.7c0.9-1.3,0.6-3.1-0.7-4.1
	C720.6,481.7,718.8,482,717.9,483.3"/>
<path class="st7" d="M723.3,475.1c-0.9,1.4-0.4,3.2,1,4c1.4,0.8,3.2,0.4,4-1c0.8-1.4,0.4-3.2-1-4C726,473.3,724.1,473.7,723.3,475.1
	"/>
<path class="st7" d="M728.1,466.5c-0.8,1.4-0.2,3.2,1.2,3.9c1.4,0.7,3.2,0.2,3.9-1.2c0.7-1.4,0.2-3.2-1.2-3.9
	C730.6,464.5,728.9,465.1,728.1,466.5"/>
<path class="st7" d="M732.4,457.6c-0.6,1.5,0,3.2,1.5,3.9c1.5,0.6,3.2,0,3.9-1.5c0.6-1.5,0-3.2-1.5-3.8
	C734.7,455.4,733,456.1,732.4,457.6"/>
<path class="st7" d="M736,448.4c-0.5,1.5,0.2,3.2,1.8,3.7c1.5,0.5,3.2-0.3,3.7-1.8c0.5-1.5-0.3-3.2-1.8-3.7
	C738.2,446.1,736.5,446.9,736,448.4"/>
<path class="st7" d="M739,439c-0.4,1.6,0.5,3.2,2,3.6c1.6,0.4,3.2-0.5,3.6-2c0.4-1.5-0.5-3.2-2-3.6C741,436.5,739.4,437.4,739,439"
	/>
<path class="st7" d="M741.3,429.4c-0.3,1.6,0.7,3.1,2.3,3.5c1.6,0.3,3.1-0.7,3.4-2.3c0.3-1.6-0.7-3.1-2.3-3.4
	C743.2,426.8,741.6,427.9,741.3,429.4"/>
<path class="st7" d="M743,419.7c-0.2,1.6,0.9,3.1,2.5,3.3c1.6,0.2,3.1-0.9,3.3-2.5c0.2-1.6-0.9-3.1-2.5-3.3
	C744.7,417,743.2,418.1,743,419.7"/>
<path class="st7" d="M744,409.9c-0.1,1.6,1.1,3,2.7,3.1c1.6,0.1,3-1.1,3.1-2.7c0.1-1.6-1.1-3-2.7-3.1
	C745.5,407.1,744.1,408.3,744,409.9"/>
<path class="st7" d="M744.3,400c0,1.6,1.3,2.9,2.9,2.9s2.9-1.3,2.9-2.9c0-1.6-1.3-2.9-2.9-2.9C745.7,397.1,744.3,398.4,744.3,400"/>
<path class="st7" d="M744,390.2c0.1,1.6,1.5,2.8,3.1,2.7c1.6-0.1,2.8-1.5,2.7-3.1c-0.1-1.6-1.5-2.8-3.1-2.7
	C745.1,387.2,743.9,388.6,744,390.2"/>
<path class="st7" d="M743,380.4c0.2,1.6,1.7,2.7,3.3,2.5c1.6-0.2,2.7-1.7,2.5-3.3c-0.2-1.6-1.7-2.7-3.3-2.5
	C743.9,377.3,742.8,378.8,743,380.4"/>
<path class="st7" d="M741.3,370.7c0.3,1.6,1.9,2.6,3.5,2.3c1.6-0.3,2.6-1.9,2.3-3.5s-1.9-2.6-3.5-2.3
	C742,367.5,741,369.1,741.3,370.7"/>
<path class="st7" d="M739,361.1c0.4,1.6,2,2.5,3.6,2c1.6-0.4,2.5-2.1,2-3.6c-0.4-1.6-2-2.5-3.6-2C739.5,357.9,738.6,359.5,739,361.1
	"/>
<path class="st7" d="M736,351.7c0.5,1.5,2.2,2.3,3.7,1.8c1.5-0.5,2.3-2.2,1.8-3.7c-0.5-1.5-2.2-2.3-3.7-1.8
	C736.3,348.5,735.5,350.2,736,351.7"/>
<path class="st7" d="M732.4,342.5c0.6,1.5,2.4,2.2,3.8,1.5c1.5-0.6,2.2-2.4,1.5-3.8c-0.7-1.5-2.4-2.2-3.8-1.5
	C732.4,339.3,731.8,341,732.4,342.5"/>
<path class="st7" d="M728.2,333.6c0.8,1.4,2.5,2,3.9,1.2s2-2.5,1.2-3.9c-0.7-1.4-2.5-2-3.9-1.2C728,330.4,727.4,332.2,728.2,333.6"
	/>
<path class="st7" d="M723.3,325c0.8,1.4,2.6,1.8,4,1c1.4-0.8,1.8-2.6,1-4c-0.8-1.4-2.6-1.8-4-1C722.9,321.8,722.5,323.6,723.3,325"
	/>
<path class="st7" d="M717.9,316.8c0.9,1.3,2.8,1.6,4.1,0.7c1.3-0.9,1.6-2.8,0.7-4.1c-0.9-1.3-2.8-1.6-4.1-0.7
	C717.3,313.6,717,315.4,717.9,316.8"/>
<path class="st7" d="M712,308.9c1,1.3,2.9,1.4,4.1,0.4c1.2-1,1.4-2.9,0.4-4.1c-1-1.2-2.9-1.4-4.1-0.4
	C711.1,305.8,710.9,307.6,712,308.9"/>
<path class="st7" d="M705.5,301.4c1.1,1.2,2.9,1.2,4.1,0.1c1.2-1.1,1.2-2.9,0.1-4.1c-1.1-1.2-2.9-1.2-4.1-0.1
	S704.4,300.3,705.5,301.4"/>
<path class="st7" d="M698.5,294.5c1.2,1.1,3,1,4.1-0.1c1.1-1.2,1-3-0.1-4.1c-1.2-1.1-3-1-4.1,0.1
	C697.3,291.5,697.3,293.4,698.5,294.5"/>
<path class="st7" d="M691.1,288c1.3,1,3.1,0.8,4.1-0.4c1-1.3,0.8-3.1-0.4-4.1s-3.1-0.8-4.1,0.4C689.6,285.1,689.8,287,691.1,288"/>
<path class="st7" d="M683.2,282c1.3,0.9,3.1,0.6,4.1-0.7c0.9-1.3,0.6-3.1-0.7-4.1c-1.3-0.9-3.1-0.6-4.1,0.7
	C681.6,279.3,681.9,281.1,683.2,282"/>
<path class="st7" d="M675,276.6c1.4,0.8,3.2,0.4,4-1c0.8-1.4,0.4-3.2-1-4c-1.4-0.8-3.2-0.4-4,1C673.2,274,673.6,275.8,675,276.6"/>
<path class="st7" d="M666.4,271.8c1.4,0.8,3.2,0.2,3.9-1.2c0.7-1.4,0.2-3.2-1.3-3.9c-1.4-0.7-3.2-0.2-3.9,1.2
	C664.4,269.3,665,271,666.4,271.8"/>
<path class="st7" d="M657.5,267.5c1.5,0.6,3.2,0,3.8-1.5c0.7-1.5,0-3.2-1.5-3.8c-1.5-0.7-3.2,0-3.8,1.5
	C655.3,265.2,656,266.9,657.5,267.5"/>
<path class="st7" d="M648.3,263.9c1.5,0.5,3.2-0.3,3.7-1.8c0.6-1.5-0.2-3.2-1.8-3.7c-1.5-0.5-3.2,0.3-3.7,1.8
	C646,261.7,646.8,263.4,648.3,263.9"/>
<path class="st7" d="M638.9,260.9c1.6,0.4,3.2-0.5,3.6-2s-0.5-3.2-2-3.6c-1.6-0.4-3.2,0.5-3.6,2
	C636.4,258.9,637.4,260.5,638.9,260.9"/>
<path class="st7" d="M629.3,258.6c1.6,0.3,3.1-0.7,3.5-2.3c0.3-1.6-0.7-3.1-2.3-3.5c-1.6-0.3-3.1,0.7-3.5,2.3
	C626.7,256.7,627.8,258.3,629.3,258.6"/>
<path class="st7" d="M619.6,256.9c1.6,0.2,3.1-0.9,3.3-2.5c0.2-1.6-0.9-3.1-2.5-3.3c-1.6-0.2-3.1,0.9-3.3,2.5
	C616.9,255.2,618,256.7,619.6,256.9"/>
<path class="st7" d="M609.8,255.9c1.6,0.1,3-1.1,3.1-2.7c0.1-1.6-1.1-3-2.7-3.1c-1.6-0.1-3,1.1-3.1,2.7
	C607,254.4,608.2,255.8,609.8,255.9"/>
<path class="st8" d="M474.5,386.6l59.1-42"/>
<path class="st8" d="M521.7,341.7L464.4,376"/>
<path class="st8" d="M470,355.1l44-20.2"/>
<path class="st8" d="M524.9,330l13.3-5.8"/>
<path class="st8" d="M558.1,315.2l16.3-8.2"/>
<path class="st8" d="M573.3,310.7l-11.1,7"/>
<path class="st8" d="M569.4,317.9l10-7.1"/>
<path class="st8" d="M478.6,336.5l97.7-32.8"/>
<path class="st8" d="M578.2,299.9l-91.8,22.7"/>
<path class="st8" d="M504,303.2l75.5-5.4"/>
<path class="st8" d="M517.6,288.5l63.7,6.3"/>
<path class="st8" d="M532.8,280l50,12"/>
<path class="st8" d="M546.5,272.6l37.3,17.8"/>
<path class="st8" d="M561.2,267.5l24.7,19.5"/>
<path class="st8" d="M575.4,265.7l12.7,17.1"/>
<path class="st8" d="M584,264.3l7.4,13.2"/>
<path class="st8" d="M590.4,263.2l3.8,9.3"/>
<path class="st8" d="M602.8,263l-0.7,6.7"/>
<path class="st8" d="M610.3,263.5l-5.2,11.7"/>
<path class="st8" d="M607.1,278.2l10.8-12.7"/>
<path class="st8" d="M627.6,266.6l-18.8,15.2"/>
<path class="st8" d="M611.2,285.7l26.7-17"/>
<path class="st8" d="M651.6,274.3l-38.8,14.4"/>
<path class="st8" d="M666,281.7l-51.7,9.5"/>
<path class="st8" d="M677.9,289.3l-62,4.4"/>
<path class="st8" d="M688.9,299l-71.1-1.8"/>
<path class="st8" d="M657.4,309.3l-38.4-10"/>
<path class="st8" d="M709.3,322.6l-14.4-3.6"/>
<path class="st8" d="M620.9,302.7l30.7,11.3"/>
<path class="st8" d="M688,328l36.4,13.9"/>
<path class="st8" d="M661.9,318.1l9,3.6"/>
<path class="st8" d="M695.2,340.3l29,13.9"/>
<path class="st8" d="M668.9,327.7l6.1,2.6"/>
<path class="st8" d="M622.6,305.6l21.6,10"/>
<path class="st8" d="M683.5,352.6l34.8,24.7"/>
<path class="st8" d="M688,345.9l36.4,21.1"/>
<path class="st8" d="M624.3,310.7l11.8,9.3"/>
<path class="st8" d="M667.3,349.2l53.1,46.4"/>
<path class="st8" d="M624.6,308.8l15.4,9.2"/>
<path class="st8" d="M668.2,341.2l4.5,3.4"/>
<path class="st9" d="M572.3,310.6l26.6-46.1l26.6,46.1H572.3L572.3,310.6z"/>
<path class="st10" d="M580.7,305.9l18.2-31.6l18.2,31.6H580.7L580.7,305.9z"/>
<path class="st6" d="M611.9,303c1.9,1,2.3-1,0.8-2.4c-0.7-0.6-0.8-1-3.7-5.5c-3.9-6-6.1-6.1-9.9-6.1c-4.4,0-8.4,5.6-9.3,7.5
	c-0.9,1.9-3.1,3.4-4.3,3.9l-0.5,0.6c1.3-0.5,3.9-1.7,4.8-3.6c0.9-1.9,4.9-7.3,9.3-7.3c3.8,0,5.8,0,9.7,6c2.9,4.5,3.3,4.7,3.9,5.4
	c0.6,0.8,0,1.5-1.1,0.1c-2.9-3.8-4.8-8.7-11.9-8.7c-4.5,0-6.5,4.2-7.2,4.6c2.6,5,9.7,6.8,13.1,2.5c1.6-2,2.1-2.4,2.1-2.4
	C609.1,298.9,610.7,302.4,611.9,303"/>
<path class="st11" d="M592.7,297.8c-0.5,0.6-4.8,4.9-6.6,5.3"/>
<path class="st11" d="M590.5,300c1,1.2,3.1,4.7,8.8,4.3"/>
<path class="st11" d="M591.5,304.3c-1.4,0-1.9-0.2-2.7-0.7c-1-0.6-1.3-1-1.9-0.8"/>
<path class="st11" d="M611.4,302c0.3,0.7,0.3,2.3-1.2,1.5c-1.5-0.8-1.7-1-1.8-1.2c-0.1,2-3.2,2.2-2.5,0.6c-0.8,0.7-1.6,0.7-2.9,1.2"
	/>
<path class="st0" d="M596.1,298c-0.4-0.6-0.7-2.5-1.6-1.6c-0.7,0.7-1,1.2-0.6,2c0.6,1,2.5,3.4,6.5,3.4c3.9,0,5.5-3.2,6.1-3.8
	c0.8-1-0.1-1.9-0.3-1.3c-0.6,1.3-2.7,3.9-4.7,3.9C598.2,300.5,596.7,298.7,596.1,298"/>
<path class="st0" d="M601.5,293.9c0.6,0.1,1.3,0.1,1.7,0.7c0.8,1.1,0.2,3.4-0.5,4c-0.4,0.4-1.1,0.6-0.9-0.3c0.3-0.8-0.2-2.9-0.6-3.1
	C599.9,294.6,600.5,293.6,601.5,293.9"/>
<path class="st12" d="M592.7,349c-3.6,4-7.9,5-13.2,3.9l2.3-3.9L592.7,349z"/>
<path class="st12" d="M610.6,323.7c1.1-5.7,5.2-7.4,9.6-7.3l-0.1,7.7L610.6,323.7L610.6,323.7z"/>
<path class="st12" d="M538.7,323.7c0.5-5.6,5.8-9.2,10.1-8.2l-0.1,8.2L538.7,323.7z"/>
<path class="st12" d="M592.6,323.7c-1.2-6.4-7.3-9.7-11.5-7.5l1.4,7.1L592.6,323.7L592.6,323.7z"/>
<path class="st12" d="M608,347.5c1.2,5.2,4.1,7.3,9.1,6.9l0.3-5.4L608,347.5z"/>
<path class="st13" d="M539.8,346.9c2.2,4.8,7.7,8.2,12,6.1l-0.6-2.5L539.8,346.9"/>
<path class="st14" d="M539.8,346.9c2.2,4.8,7.7,8.2,12,6.1l-0.6-2.5C551.2,350.5,539.8,346.9,539.8,346.9z"/>
<path class="st13" d="M662.4,325.2c-0.8-4.7-4.6-9.2-9.2-8.4l-0.4,8.2L662.4,325.2"/>
<path class="st14" d="M662.4,325.2c-0.8-4.7-4.6-9.2-9.2-8.4l-0.4,8.2L662.4,325.2L662.4,325.2z"/>
<path class="st12" d="M661.7,349.8c-2.9,4.3-8.8,6.3-12.5,3.3l0.1-4.6L661.7,349.8L661.7,349.8z"/>
<path class="st15" d="M654.8,351c6.2,1.2,9.4-1.2,9.4-2.7c0-1.2-0.3-2.3-1.3-2.6c1.8,0.3,3.1-2,3.1-3.5s-1-3-2.5-3l0.6-6.5
	c1.5,0,2.7-1.2,2.7-2.7c0-1.5-1.5-2.8-3-2.8c1-0.4,1.5-1.4,1.5-2.6c0-1.5-0.8-3.9-8.5-3.1C656.9,321.3,654.8,351,654.8,351z"/>
<path class="st16" d="M683.5,338.9l-162.7,0c-1.8,0-3.4-1.4-3.4-3.2s1.5-3.2,3.3-3.2l162.8,0c0.8,1.7,3.6,3.5,5.7,0.2l8.4,3.4
	l-8.4,4.2C688.6,338,684.7,337.1,683.5,338.9L683.5,338.9L683.5,338.9z"/>
<path class="st17" d="M659.5,312c7.6-8.1,28.3-10.8,40.4,1.8c-11.2,2.7-21.3,16.1-13.9,30.6l-5.8,8.3l-5.2-7.9
	C679.2,338.1,680.3,316.3,659.5,312L659.5,312z"/>
<path class="st18" d="M677.5,332.5h6"/>
<path class="st18" d="M677.4,338.9h6.2"/>
<path class="st15" d="M657.7,325.5c1.8,0,3.4-1.1,3.4-2.5c0-1.4-1.5-2.5-3.3-2.5h-117c-1.8,0-3.2,1.1-3.2,2.5c0,1.4,1.6,2.5,3.4,2.5
	H657.7L657.7,325.5z"/>
<path class="st15" d="M656.6,330.5c1.8,0,3.4-1.1,3.4-2.5s-1.5-2.5-3.3-2.5H538.1c-1.8,0-3.3,1.1-3.3,2.5c0,1.4,1.6,2.5,3.4,2.5
	H656.6L656.6,330.5z"/>
<path class="st15" d="M655.9,335.4c1.8,0,3.4-1.1,3.4-2.5c0-1.4-1.5-2.5-3.2-2.5H536.8c-1.8,0-3.3,1.1-3.3,2.5
	c0,1.4,1.6,2.5,3.4,2.5H655.9z"/>
<path class="st15" d="M656.1,340.3c1.8,0,3.4-1.1,3.4-2.5s-1.5-2.5-3.3-2.5H536.6c-1.8,0-3.3,1.1-3.3,2.5c0,1.4,1.6,2.5,3.4,2.5
	H656.1L656.1,340.3z"/>
<path class="st15" d="M656.4,345.3c1.8,0,3.4-1.1,3.4-2.5c0-1.4-1.4-2.5-3.3-2.5H538.1c-1.8,0-3.3,1.1-3.3,2.5
	c0,1.4,1.6,2.5,3.4,2.5H656.4L656.4,345.3z"/>
<path class="st15" d="M657.3,350.2c1.8,0,3.4-1.1,3.4-2.5c0-1.4-1.5-2.5-3.3-2.5h-117c-1.8,0-3.3,1.1-3.3,2.5c0,1.4,1.6,2.5,3.4,2.5
	H657.3L657.3,350.2z"/>
<path class="st15" d="M542.2,317.5l33.9,33.8c4.5,2.9,9.7,2.9,13.6,0.2l-35.1-35C550.9,314.9,546.3,314.1,542.2,317.5L542.2,317.5
	L542.2,317.5z"/>
<path class="st15" d="M613.3,318.5l29.8,32.6c4.5,2.9,10.8,5.1,15,2.1l-31.9-35.1C621,314.9,617.1,315.8,613.3,318.5L613.3,318.5z"
	/>
<path class="st19" d="M589.6,317.9l-32.9,33.4c-4.5,2.9-9.5,3.3-13.8-0.2l34.7-34.6C581.5,314.5,585.5,314.8,589.6,317.9
	L589.6,317.9z"/>
<path class="st15" d="M594.5,352.2c1.8,2,7.2,2.9,10.6,0v-33.7c-3.8-3.8-8.8-2-10.6,0V352.2z"/>
<path class="st15" d="M658.7,318.4l-34.5,33.8c-4.5,2.9-10.2,3.2-13.7,0.3l34.8-34C649.8,315.6,654.1,315.3,658.7,318.4"/>
<path class="st13" d="M563,339.2c1,1,1,1.8,0.3,2.4c-0.2,0.2-0.7,0.5-1.3,0.4c-0.4-0.1-0.7-0.3-1.1-0.7l-2.4-2.4l0.6-0.5l2.4,2.4
	c0.5,0.5,0.9,0.5,1.2,0.3c0.4-0.4,0.3-0.8-0.2-1.2l-2.4-2.4l0.5-0.5L563,339.2"/>
<path class="st13" d="M563.5,333.9l0.5-0.5l3.6,3.6l-0.5,0.5l-3.6-1.6l0,0l2.6,2.6l-0.5,0.5l-3.6-3.6l0.6-0.6l3.6,1.5l0,0
	L563.5,333.9"/>
<path class="st13" d="M569.5,335.2l-0.5,0.5l-3.6-3.6l0.5-0.5L569.5,335.2"/>
<path class="st13" d="M568.9,332.2c1.7,1.7,2.8,1,3.1,0.7s1-1.4-0.7-3.1c-1.7-1.7-2.8-1-3.1-0.7
	C567.9,329.3,567.2,330.5,568.9,332.2L568.9,332.2z M569.5,331.6c-1-1-0.9-1.7-0.6-2c0.3-0.3,1-0.4,2,0.6c1,1,0.9,1.7,0.6,2
	C571.2,332.5,570.5,332.6,569.5,331.6"/>
<path class="st13" d="M572.4,325l0.5-0.5l3.6,3.7l-0.5,0.5l-3.6-1.6l0,0l2.6,2.6l-0.5,0.5l-3.6-3.6l0.6-0.6l3.6,1.5l0,0L572.4,325"
	/>
<path class="st13" d="M621.3,347.5c-0.3-0.2-0.8-0.5-1.2-0.1c-0.3,0.3-0.4,0.9,0.6,1.9c0.7,0.7,1.4,1.1,1.9,0.6
	c0.3-0.3,0.3-0.7-0.1-1.2l0.5-0.5c0.7,0.9,0.9,1.8,0.2,2.5c-0.7,0.7-1.8,0.5-3.1-0.8c-1.3-1.3-1.4-2.5-0.7-3.1
	c0.8-0.8,1.8-0.3,2.4,0.2L621.3,347.5"/>
<path class="st13" d="M623.1,346.9c1.7,1.7,2.8,1.1,3.1,0.7c0.3-0.3,1-1.4-0.7-3.1c-1.7-1.7-2.8-1.1-3.1-0.7
	C622.2,344.1,621.5,345.2,623.1,346.9L623.1,346.9z M623.7,346.4c-1-1-0.9-1.7-0.6-2c0.3-0.3,1-0.4,2,0.6c1,1,0.9,1.7,0.6,2
	C625.4,347.3,624.7,347.5,623.7,346.4"/>
<path class="st13" d="M626.2,340.4l0.5-0.5l3.6,3.7l-0.6,0.5l-3.6-1.6l0,0l2.6,2.7l-0.5,0.5l-3.6-3.7l0.6-0.6l3.5,1.6l0,0
	L626.2,340.4"/>
<path class="st13" d="M630.5,341.2c0.2,0.2,0.7,0.5,1.1,0.1c0.3-0.2,0.5-0.6,0.1-1c-0.3-0.3-0.6-0.2-0.9,0l-0.4,0.2
	c-0.6,0.3-1.1,0.5-1.9-0.3c-0.4-0.4-1-1.3-0.1-2.1c0.8-0.8,1.7-0.2,2.2,0.2l-0.5,0.5c-0.2-0.1-0.6-0.5-1.1,0c-0.2,0.2-0.4,0.6,0,0.9
	c0.3,0.3,0.5,0.2,0.7,0.1l0.8-0.4c0.5-0.2,1-0.3,1.6,0.3c1.1,1.1,0.4,2,0.2,2.2c-1,0.9-1.9,0.3-2.3-0.2L630.5,341.2"/>
<path class="st13" d="M635.1,338.9l-0.6,0.5l-3-3l-0.8,0.8l-0.6-0.7l2.1-2l0.6,0.7l-0.8,0.8L635.1,338.9"/>
<path class="st13" d="M637,337l-0.5,0.5l-3.6-3.7l0.5-0.5L637,337"/>
<path class="st13" d="M636,332.1l0.8-0.8l-0.6-0.7l-2.1,2l0.6,0.7l0.8-0.8l3,3l0.5-0.5L636,332.1"/>
<path class="st13" d="M641.2,330.4c1,1,0.9,1.8,0.3,2.4c-0.2,0.2-0.7,0.5-1.3,0.4c-0.4-0.1-0.7-0.3-1.1-0.7l-2.4-2.5l0.6-0.5
	l2.3,2.4c0.5,0.5,0.9,0.5,1.2,0.3c0.4-0.4,0.3-0.8-0.2-1.2l-2.4-2.4l0.6-0.5L641.2,330.4"/>
<path class="st13" d="M644.5,329.7l-0.5,0.5l-3-3l-0.8,0.8l-0.6-0.7l2.1-2.1l0.6,0.7l-0.8,0.8L644.5,329.7"/>
<path class="st13" d="M646.4,327.8l-0.5,0.5l-3.6-3.7l0.5-0.5L646.4,327.8"/>
<path class="st13" d="M645.4,325.2c1.7,1.7,2.8,1.1,3.1,0.7c0.3-0.3,1-1.4-0.7-3.2c-1.7-1.7-2.8-1.1-3.1-0.7
	S643.7,323.5,645.4,325.2L645.4,325.2z M645.9,324.7c-1-1-0.9-1.7-0.6-2c0.3-0.3,1-0.4,2,0.6c1,1,0.9,1.7,0.6,2
	C647.6,325.6,646.9,325.7,645.9,324.7"/>
<path class="st13" d="M648.4,318.7l0.5-0.5l3.6,3.7l-0.5,0.5l-3.6-1.6l0,0l2.6,2.6l-0.5,0.5l-3.6-3.7l0.6-0.6l3.5,1.6l0,0
	L648.4,318.7"/>
<path class="st13" d="M601.1,340.9v-1.3l1.1-0.2v-0.8l-5.2,1.3v0.9l5.2,1.3v-0.8L601.1,340.9z M598.2,340.2L598.2,340.2l2-0.5v0.9
	L598.2,340.2"/>
<path class="st13" d="M597,334.6v-0.7h5.2v0.8l-3.7,1.5l0,0l3.7,0v0.7H597v-0.8l3.6-1.4l0,0L597,334.6"/>
<path class="st13" d="M602.2,332v-1.6c0-1.2-1.6-1.5-2.7-1.5c-1,0-2.5,0.2-2.5,1.5v1.6H602.2z M597.9,331.2v-0.7
	c0-0.3,0.1-0.8,1.6-0.8c0.8,0,1.7,0.2,1.7,0.8v0.7L597.9,331.2"/>
<path class="st0" d="M599.8,502.9c2.4-16.6,17.5-15.2,27-17.1c28.8-5.6,36-37.5,28.3-57.1c-6.7-17.2-5.2-33.7,9.4-52.1L646.1,358
	c-10.3,8.5-33.1,9.8-46.3-1.5c-13.1,11.2-35.9,10-46.3,1.5l-18.4,18.6c14.6,18.4,16.2,34.9,9.4,52.1c-7.6,19.6-0.5,51.5,28.3,57.1
	C582.3,487.7,597.5,486.3,599.8,502.9"/>
<path class="st20" d="M599.8,502.9c2.4-16.6,17.5-15.2,27-17.1c28.8-5.6,36-37.5,28.3-57.1c-6.7-17.2-5.2-33.7,9.4-52.1L646.1,358
	c-10.3,8.5-33.1,9.8-46.3-1.5c-13.1,11.2-35.9,10-46.3,1.5l-18.4,18.6c14.6,18.4,16.2,34.9,9.4,52.1c-7.6,19.6-0.5,51.5,28.3,57.1
	C582.3,487.7,597.5,486.3,599.8,502.9L599.8,502.9L599.8,502.9z"/>
<path class="st21" d="M645.9,413.1c-0.1-11.6,2.9-26.5,10.8-35.9l-11-11.6c-10.9,7.1-34.1,7.7-45.8-0.4c-11.7,8.1-34.9,7.5-45.8,0.4
	l-11,11.6c7.8,9.5,10.8,24.3,10.8,35.9H645.9z"/>
<path class="st21" d="M646.2,418.9c0.4,3.4,1.1,6.4,2.1,8.4c10.2,20.8,1.5,49.3-23.7,54.3c-8.3,1.6-21.9,2.3-24.8,9.6
	c-2.8-7.3-16.5-8-24.8-9.6c-25.2-5-33.9-33.5-23.7-54.3c1-2,1.7-4.9,2.1-8.4L646.2,418.9L646.2,418.9z"/>
<path class="st16" d="M646.1,406.8c-0.2,2.2-0.3,4.3-0.2,6.3h-92c0-3.8-0.3-7.9-1-12l13.9-18.3c2.7,1.3,6.9-0.3,9.3-3.6l8.4,8.8
	l13.9-13.9l7.4,9.2l0.2,2.9c2,0.2,9.3,4.4,10.9,8l8.2-9.5c2.3,2.2,4.7,7.4,4.7,9l2.7,0.7C635.8,399.8,640.2,406.1,646.1,406.8"/>
<path class="st15" d="M552.9,401c0.7,4.1,1,8.3,1,12h92c0-2,0.1-4.1,0.2-6.3c-5.3-1.2-6.6-3.7-7.7-4.5c-1.4-1-3-3.5-4.4-3.9
	c-1.1-0.3-2-1.6-2-1.6l-5.2,0.9l-4-3.4c-4.4,0.9-12.1-1.8-13.9-3.1l-3.1,6.3l-3.1-9.7l-3.4,1.3l-9.7-6.3l-4.9,4.9l6.3,7.9
	c-5.6-4.7-10.6-7.6-10.1-1.6c-4.9,0.2-7.6-1.6-9.7-2.5c-2-0.9-8.4-1.7-12.6,2L552.9,401"/>
<path class="st0" d="M571.3,379.4c-0.4,0.5-19.8,0-19.8,0c-0.3-1.8,0.9-3.4,3.1-2.9c0.8-2.8,6.7-2.7,7.4-0.8c1.3-1.7,5.5-1.1,5.5,1
	C569.1,376,573.1,377.3,571.3,379.4"/>
<path class="st22" d="M571.3,379.4c-0.4,0.5-19.8,0-19.8,0c-0.3-1.8,0.9-3.4,3.1-2.9c0.8-2.8,6.7-2.7,7.4-0.8c1.3-1.7,5.5-1.1,5.5,1
	C569.1,376,573.1,377.3,571.3,379.4L571.3,379.4L571.3,379.4z"/>
<path class="st0" d="M625.8,379.5H606c-0.3-1.8,1.2-3.8,3.5-3.4c0.8-2.8,5.8-2.6,6.5-0.7c1.2-1.7,5.5-1.2,5.5,0.9
	C623,375.6,626.5,376.9,625.8,379.5"/>
<path class="st22" d="M625.8,379.5H606c-0.3-1.8,1.2-3.8,3.5-3.4c0.8-2.8,5.8-2.6,6.5-0.7c1.2-1.7,5.5-1.2,5.5,0.9
	C623,375.6,626.5,376.9,625.8,379.5L625.8,379.5L625.8,379.5z"/>
<path class="st0" d="M650,383h-22.2c0.3-2,2-3.8,3.9-3.1c1.6-3.9,5.7-3.9,7-2.4c1-1.1,4.7-0.8,4.4,1.9c1.2-1.5,4.2-1.2,3.8,0.9
	C648.4,379.8,650.6,381.6,650,383"/>
<path class="st22" d="M650,383h-22.2c0.3-2,2-3.8,3.9-3.1c1.6-3.9,5.7-3.9,7-2.4c1-1.1,4.7-0.8,4.4,1.9c1.2-1.5,4.2-1.2,3.8,0.9
	C648.4,379.8,650.6,381.6,650,383L650,383L650,383z"/>
<path class="st23" d="M615.4,478.2c0.5,0.7,1.5,1.1,2.4,1.1c1.6,0,3-1.3,3-2.9c0-1-0.5-1.8-1.3-2.4l-33.3-33.3l-4.1,4.1L615.4,478.2
	"/>
<path class="st24" d="M597.7,423.4c-18.4-0.4-35.2,23-35.2,29.9l8.9,0.5c0.1-8.4,4.9-13.5,11.3-7.6c-0.3-1.5,3.5-5.1,5.2-4.1
	C586.3,439.1,580.7,429.3,597.7,423.4L597.7,423.4L597.7,423.4z"/>
<path class="st23" d="M582.6,474.5c-0.7,0.6-1.1,1.5-1.1,2.4c0,1.6,1.3,3,2.9,3c1,0,1.8-0.5,2.4-1.3l35.9-35.9l-4.1-4.1L582.6,474.5
	"/>
<path class="st16" d="M627.7,449.3c0,0,1.3,0.3,3-0.1c1.8-0.4,4-2.7,4.5-4.6c0.4-1.4,0.1-3,0.1-3l-15.9-15.9c0,0-1.5-0.3-3,0.1
	c-1.9,0.5-4.2,2.7-4.6,4.5c-0.4,1.7-0.1,3-0.1,3L627.7,449.3L627.7,449.3z"/>
<path class="st0" d="M601.1,529.5c60.8-1,99.7-40,113.1-67.3c2.6-5.2-3-7.4-4.1-7.9c-1.1-0.5-3.5-1.3-4.7-3.2c1.2-2.1,1.1-6.1,1.1-8
	c2.5,4.3,16.4,14.8,18.5,15.8c-1.3-1.5-11.3-14.9-9.2-23.5c2.5,2.3,11,5.4,15.7,4.5c-5-1.9-8.8-8.1-11.7-11.8
	c-5.6-7.1-4.9-14.9-6.4-17.2c-4.6-6.8-10.7-2.2-11.8-1.3c-1,0.7-6.5,3.8-11.6,3.4c-6.1-0.5-8.5,4.2-6.1,9.6c2.7,6,0.4,22.2-1.8,25.3
	c-2.1,3-1.9,7.2,0.6,9.9c2.9,3.2,5.5,4.7,5.5,4.7c-15.9,25-50.3,45-87.1,45c-38.3,0.1-72.5-21.2-88.9-47.6c0,0,3-1.9,5.4-5.4
	c2.3-3.4,3-7.6,0.8-10.3c-2.5-3-3.3-19.1-0.9-25.2c3-7.8,0.7-11.8-5.4-11c-6.3,0.8-9.2-2.7-10.3-3.6c-1.1-0.9-5.7-4.6-10.6,2
	c-5.2,7-5.4,11.3-9.2,17.1c-3,4.6-9.8,10.7-13.6,11.8c6,0.4,16.2-4.1,19.5-7c0,6.7-6.8,20.4-8.2,21.7c1.9-1.3,12.9-8.4,15.6-12.6
	c0,1.3,0.6,7,1.5,8.5c-1.3,1.8-5.4,4-6.5,4.5c-1.1,0.5-6.9,2-4.6,7.4C497.8,485.6,540.2,530.4,601.1,529.5"/>
<path class="st25" d="M495.3,437.2c0,1.3,0.6,7,1.5,8.5"/>
<path class="st25" d="M706.5,442.9c0.2,1.6-0.2,6.6-1.1,8.2"/>
<path class="st25" d="M729.1,439.6c0.8,0.1,1.6,0.2,2.4,0.2c-5-1.9-8.4-7.1-11.7-11.5c-5.9-7.7-4.9-15.1-6.4-17.5
	c-4.6-6.8-10.7-2.2-11.8-1.3c-1.1,0.9-6.3,3.8-11.6,3.4c-6.1-0.5-8.5,4.2-6.1,9.6c2.7,6,0.4,22.5-2.1,25.9c-3.3,4.5,1,15.1,5.8,5.4
	c1.4-2.8,3.4-5.3,4.2-8.1c0.8-2.8,5.5-5.7,8.5-1c3.5,5.5,3.9,4.7,5,6.3c1.3,1.8,3.6,2.7,4.7,3.2c1.1,0.5,6.7,2.7,4.1,7.9
	c-13.4,27.3-52.3,66.3-113.1,67.3c-60.9,1-103.1-43.7-115.4-71.7c-2.3-5.3,3.5-6.9,4.6-7.4c1.1-0.5,5.2-2.7,6.5-4.5
	c3-4.9,8.4-10.2,11.5-4.7c2.8,4.9,4,6.1,5.7,8.8c3.5,5.3,8.2-0.4,4.4-5.8c-2.3-3.2-3.3-19.1-0.9-25.2c3-7.8,0.7-11.8-5.4-11
	c-6.3,0.8-9.2-2.7-10.3-3.6c-1.1-0.9-5.7-4.5-10.6,2c-5.2,7-5.4,11.3-9.2,17.1c-3,4.6-9.8,10.7-13.6,11.8c0.9,0,1.9-0.1,2.9-0.3"/>
<path class="st0" d="M496.2,436.1c-0.3,0.5-1.2,1.9-1.7,2.4c-0.5,0.5-0.9-0.6-0.9-0.6l1.7-2.6L496.2,436.1"/>
<path class="st0" d="M705.4,441.5c0.3,0.5,1.2,1.9,1.7,2.4c0.5,0.5,0.9-0.6,0.9-0.6l-1.7-2.6L705.4,441.5"/>
<path class="st26" d="M731.5,439.8c-4.1,1.2-13.2-2.2-15.7-4.5c-2.1,8.6,7.9,22.2,9.2,23.6c-2.9-1.5-16-11.6-18.5-15.8
	c-5.7-6.2-9.8-14.9-10.9-18.4c-1.1-3.5-2.5-7.2-3.7-8.7s-2.8-2.9-4.9-2.7 M468.4,435.2c4,1,16.2-4,19.5-7c0,6.7-6.8,20.3-8.2,21.7
	c1.9-1.3,12.9-8.4,15.6-12.6c4.4-5.3,7.1-12.6,8-15.5c0.9-2.9,5.8-9.3,7.3-10.3c1.5-1,4-3.6,6-2.9 M503.2,439.3
	c-1.7,1.9-0.2,3.8,0.3,4.8c0.9,2.1,3.9,8,8.7,15.7c16.2,26.1,51.1,47.3,88.9,47.6c42.1,0.4,78.3-28.3,87.1-45
	c2.1-4,9.1-13.8,9.6-16.4c0.3-1.6,0.7-2.8-0.7-3.7 M682.6,457.8c2.9,3.2,5.5,4.7,5.5,4.7 M512.2,459.9c0,0,3-1.9,5.4-5.4
	c0.6-1,1.1-2,1.5-3"/>
<path class="st13" d="M681.6,496.5l7.6-7l-2.2-2.4l-1.2,1.1c1.6,1.8-0.5,2.9-1.2,3.6c-1,0.8-1.4,1.2-2.3,0.2l-2.4-2.6l1.6-1.4
	c1-0.8,1.4-0.6,1.8-0.2l1-0.9l-2.4-2.7l-1.1,1c0.4,0.5,0.4,0.9-0.4,1.8l-1.6,1.5l-2.4-2.6c-0.6-0.7-0.3-1.7,0.4-2.4
	c1.1-1,2.7-2.1,4.2-0.6l0.8-0.8l-2.3-2.6l-7.5,6.8l0.9,1c0.5-0.4,1-0.7,1.8,0.1l5.7,6.2c0.7,0.9,0.5,1.6,0.1,2.1L681.6,496.5
	 M677.8,499.5l-1.8,1.3c-0.1-0.2-0.7-0.5-1-0.6l-12.2-4.3l5,7.3c0.7,0.9,1.5,0.6,2.1,0.2l0.8,1.1l-3.4,2.4l-0.8-1.1
	c0.5-0.4,0.8-0.8,0.2-1.8l-4.9-7c-0.7-0.9-1.2-0.7-1.8-0.4l-0.7-1.1l3.8-2.7c0.1,0.2,0.3,0.3,0.6,0.6l10.7,3.8l-4.1-6
	c-0.7-0.9-1.4-0.8-2-0.4l-0.7-1.1l3.3-2.3l0.7,1.1c-0.5,0.4-0.8,0.9-0.2,1.8L677.8,499.5 M663.8,508.6l-0.6-1.1
	c-0.6,0.2-1.3,0.4-1.9-0.5l-4.2-7.5c-0.5-1,0-1.5,0.5-1.9l-0.6-1.1l-4.3,2.4l0.6,1.1c0.6-0.3,1.3-0.4,1.9,0.5l4.2,7.5
	c0.5,1,0,1.5-0.5,1.9l0.6,1.1L663.8,508.6 M618,524.6l-2.2,0.2c0-0.2-0.3-0.7-0.6-1.1l-8.4-9.8l0.7,8.8c0.2,1.1,1,1.3,1.7,1.3
	l0.1,1.4l-4.1,0.3l-0.1-1.4c0.6-0.1,1.1-0.3,1.1-1.5l-0.7-8.5c-0.2-1.1-0.7-1.2-1.3-1.3l-0.1-1.3l4.6-0.4c0,0.2,0.1,0.4,0.3,0.8
	l7.3,8.6l-0.6-7.2c-0.2-1.1-0.8-1.3-1.5-1.4l-0.1-1.3l4-0.3l0.1,1.3c-0.6,0.1-1.1,0.3-1.1,1.5L618,524.6 M573.4,522.7l-2.1-0.6
	c0-0.2-0.1-0.8-0.2-1.2l-4.4-12.2l-2.4,8.5c-0.2,1.1,0.5,1.5,1.1,1.7l-0.4,1.3l-4-1.1l0.4-1.3c0.7,0.1,1.2,0.1,1.5-1l2.3-8.2
	c0.2-1.1-0.2-1.4-0.8-1.7l0.4-1.2l4.5,1.3c-0.1,0.2-0.1,0.4,0,0.9l3.8,10.7l2-7c0.2-1.1-0.3-1.5-0.9-1.8l0.4-1.2l3.9,1.1l-0.4,1.2
	c-0.7-0.1-1.2-0.1-1.6,1L573.4,522.7 M558.7,518.1l0.5-1.2c-0.6-0.3-1.1-0.7-0.8-1.8l3.1-8c0.5-1,1.1-1,1.8-0.8l0.5-1.2l-4.6-1.8
	l-0.5,1.2c0.6,0.3,1.1,0.7,0.8,1.8l-3.1,8c-0.5,1.1-1.1,1-1.8,0.8l-0.5,1.2L558.7,518.1 M648.3,516.3l-1.9,0.8
	c-0.1-0.2-0.3-0.5-0.8-0.9l-8.1-8.3l3.3,8.4c0.5,1,1.2,1,1.8,0.8l0.5,1.2l-3.7,1.5l-0.5-1.2c0.6-0.3,1-0.6,0.6-1.7l-3.2-8
	c-0.5-1-1-1-1.7-0.8l-0.5-1.1l4.7-1.8c0.1,0.2,0.1,0.5,0.4,0.8l7,7.5l0-9.8c-0.1-0.5-0.3-1.1-0.4-1.3l4.2-1.7l0.5,1.1
	c-0.6,0.3-0.8,0.6-0.4,1.7l3.2,8c0.5,1,1,1,1.7,0.8l0.5,1.2l-4.2,1.7l-0.5-1.2c0.6-0.3,1-0.7,0.6-1.7l-3.5-8.7v12
	C648.1,515.7,648.1,516.1,648.3,516.3 M634.2,517.2l-1.7-7.4c-0.2-1.1,0.3-1.4,0.9-1.6l-0.3-1.4l-3.9,0.9l0.3,1.3
	c0.7-0.1,1.3-0.1,1.7,1l1.7,7.3c0.5,1.7-1.5,3.1-3,3.4c-2.8,0.7-4.1-0.7-4.4-1.9l-1.7-7.1c-0.2-1.1,0.4-1.4,1-1.7l-0.3-1.3l-4.8,1.1
	l0.3,1.4c0.7-0.1,1.3-0.1,1.6,1l1.6,6.9c0.5,2.3,2.2,4,6.6,3C632.6,521.7,634.8,520.2,634.2,517.2 M518.4,494.2l0.9-0.9
	c-0.4-0.5-0.8-1-0.1-2l5.8-6.3c0.9-0.8,1.4-0.5,2-0.1l0.9-0.9l-3.6-3.3l-0.9,0.9c0.4,0.5,0.8,1,0.1,2l-5.8,6.3
	c-0.8,0.8-1.4,0.5-2,0.1l-0.9,0.9L518.4,494.2 M512.1,488.6l-1.5-1.7c0.1-0.1,0.4-0.7,0.5-1.1l2.8-12.6l-6.6,5.9
	c-0.8,0.8-0.5,1.5,0,2.1l-1,0.9l-2.7-3.1l1-0.9c0.5,0.4,0.9,0.7,1.8,0l6.4-5.6c0.8-0.8,0.6-1.3,0.2-1.8l1-0.9l3.1,3.5
	c-0.1,0.1-0.3,0.3-0.5,0.7l-2.5,11l5.4-4.8c0.8-0.8,0.6-1.5,0.2-2l1-0.9l2.7,3l-1,0.9c-0.5-0.4-0.9-0.7-1.8,0L512.1,488.6
	 M519.9,495.7l7.7,6.1l2-2.6l-1-0.8c-1.2,0.8-1.6,1.2-3.5-0.2c-0.8-0.6-1.5-1.3-0.8-2.3l5.3-6.7c0.8-0.9,1.4-0.6,2-0.3l0.9-1.1
	l-3.8-3l-0.9,1.1c0.5,0.5,0.8,0.9,0.1,1.8l-5.3,6.7c-0.8,0.9-1.3,0.6-1.9,0.3L519.9,495.7 M577.3,523.6l10.3,1.5l0.5-3.1l-1.6-0.2
	c-0.4,2.4-2.6,1.5-3.5,1.3c-1.2-0.2-1.8-0.3-1.6-1.6l0.6-3.5l2.1,0.3c1.3,0.3,1.3,0.7,1.3,1.3l1.4,0.2l0.6-3.5l-1.4-0.2
	c-0.2,0.6-0.4,0.9-1.7,0.9l-2.1-0.3l0.5-3.5c0.2-0.9,1.2-1.3,2.1-1.2c1.5,0.2,3.3,0.8,3.1,2.9l1.1,0.2l0.5-3.4l-10-1.5l-0.2,1.3
	c0.6,0.2,1.2,0.4,1.1,1.5l-1.3,8.3c-0.2,1.1-0.9,1.4-1.6,1.4L577.3,523.6 M545,508.8l-1.4,3c1.6,1.1,5.2,3.4,7.6,2.1
	c1.3-0.7,2.1-2.2,2-3.6c-0.2-2.3-1.5-3.4-2.5-5.4c-1.2-2.4,0.2-3.3,1-3.4c1.1-0.2,3.5,0.7,2.4,3.6l1.2,0.6l1.5-3.3
	c-2.6-1.5-4.9-2.9-7.4-1.8c-0.9,0.4-1.8,1.8-1.6,3.5c0.3,2.2,1.7,3.8,2.7,5.8c0.7,1.4-0.3,3-1.6,2.9c-1.9-0.1-4.2-1.8-2.9-3.5
	L545,508.8"/>
</svg>
