<?xml version="1.0" encoding="utf-8"?>
<!-- Generator: Adobe Illustrator 28.2.0, SVG Export Plug-In . SVG Version: 6.00 Build 0)  -->
<svg version="1.1" id="Layer_1" xmlns="http://www.w3.org/2000/svg" xmlns:xlink="http://www.w3.org/1999/xlink" x="0px" y="0px"
	 viewBox="0 0 1200 800" style="enable-background:new 0 0 1200 800;" xml:space="preserve">
<style type="text/css">
	.st0{fill:#E2E8F0;}
</style>
<path class="st0" d="M490.3,356.8c0-60.6,49.1-109.8,109.7-109.8c60.6,0,109.8,49.1,109.8,109.8c0,60.6-49.1,109.7-109.8,109.7
	C539.4,466.5,490.3,417.4,490.3,356.8z M600,429.9c40.4,0,73.2-32.8,73.2-73.2c0-40.4-32.8-73.2-73.2-73.2
	c-40.4,0-73.2,32.8-73.2,73.2C526.8,397.1,559.6,429.9,600,429.9z M636.6,356.8c0,20.2-16.4,36.6-36.6,36.6s-36.6-16.4-36.6-36.6
	c0-20.2,16.4-36.6,36.6-36.6S636.6,336.6,636.6,356.8L636.6,356.8z M509.2,480.7v12.9h8.7v7.9h-8.7v21.3c0,4,1,5,5,5
	c1.3,0,2.7-0.1,3.7-0.3v9.2c-2,0.3-4.7,0.4-7,0.4c-9.1,0-13.5-2.7-13.5-10.4v-25.2h-7.2v-7.9h7.2v-12.9L509.2,480.7z M560.5,525.4
	c0,2.8,0.5,3.4,3,3.4h0.3v7.7c-1.1,0.5-2.4,1-4.9,1c-5.5,0-8.3-1.7-9.2-5.6c-2.8,3.4-7.8,5.9-15,5.9c-8.8,0-14.7-4.6-14.7-12.9
	c0-4.2,1.3-7.1,3.7-9.2c2.7-2.3,6.7-3.6,13.9-4.3c7.7-0.8,11-1.5,11-5.3c0-4.9-3.6-5.7-7.6-5.7c-4.9,0-7.5,2-7.9,6.5h-11.8
	c0.5-9.4,8.2-14.4,20.3-14.4c12.6,0,18.8,4.2,18.8,12.2L560.5,525.4L560.5,525.4z M539.1,529.9c6.3,0,9.6-3.4,9.6-9.7v-4.6
	c-1.1,1-3.2,1.6-7.2,2.1c-6.1,0.7-9.7,2.1-9.7,6.7C531.8,527.9,533.9,529.9,539.1,529.9L539.1,529.9z M594.5,492.9v11
	c-1.4-0.3-2.8-0.4-4.2-0.4c-8.6,0-11.7,5.9-11.7,13.8v19.4h-11.8v-43H578v8h0.2c2.2-5.4,7.8-9.2,13.7-9.2
	C593,492.5,593.9,492.7,594.5,492.9L594.5,492.9z M625.8,499.4h0.2v-5.7h11.2V534c0,11.2-6.5,19-22.2,19c-10,0-18.6-5.1-19.1-13.8
	h11.7c1,4.2,4.2,5.9,8.8,5.9c6.1,0,9.5-3.8,9.5-10.4v-5.9h-0.2c-2.3,4.2-7.1,6.7-12.9,6.7c-12.4,0-18.4-9.1-18.4-21.6
	c0-11,6.4-21.3,18.5-21.3C619.1,492.5,623.1,494.8,625.8,499.4L625.8,499.4z M615.9,526.5c6.4,0,10.1-5.2,10.1-12
	c0-6-1.8-13.2-10.2-13.2c-6.1,0-9.5,5.2-9.5,12.2C606.3,520.6,609,526.5,615.9,526.5L615.9,526.5z M683.4,515.9
	c0,0.7-0.1,2.2-0.1,2.2h-31.1c0.3,7.4,3.7,10.9,10.5,10.9c4.5,0,8.5-2.6,9.4-5.6h10.4c-3.2,9.7-9.8,14.5-20.1,14.5
	c-13.7,0-22-9.4-22-22.6c0-13,9-22.7,22-22.7C676,492.5,683.4,503.1,683.4,515.9L683.4,515.9z M671.5,510.5c-1.2-6.5-4-9.2-9.5-9.2
	c-5.7,0-9.2,3.5-9.7,9.2H671.5z M701.1,480.7v12.9h8.7v7.9h-8.7v21.3c0,4,1,5,5,5c1.3,0,2.7-0.1,3.7-0.3v9.2c-2,0.3-4.7,0.4-7,0.4
	c-9.1,0-13.5-2.7-13.5-10.4v-25.2h-7.2v-7.9h7.2v-12.9L701.1,480.7z"/>
</svg>
