<?xml version="1.0" encoding="utf-8"?>
<!-- Generator: Adobe Illustrator 28.2.0, SVG Export Plug-In . SVG Version: 6.00 Build 0)  -->
<svg version="1.1" id="Layer_1" xmlns="http://www.w3.org/2000/svg" xmlns:xlink="http://www.w3.org/1999/xlink" x="0px" y="0px"
	 viewBox="0 0 1200 800" style="enable-background:new 0 0 1200 800;" xml:space="preserve">
<style type="text/css">
	.st0{fill:#E2E8F0;}
</style>
<path class="st0" d="M463.1,358.3c-26.1,0-47.8,11.1-47.8,44.4c0,26.4,14.6,43.1,48.4,43.1c39.8,0,42.4-26.2,42.4-26.2h-19.3
	c0,0-4.1,14.1-24.3,14.1c-16.4,0-28.2-11.1-28.2-26.6h73.8v-9.7C508.1,382,498.4,358.3,463.1,358.3L463.1,358.3z M462.4,370.7
	c15.6,0,26.2,9.6,26.2,23.9h-53.8C434.8,379.4,448.7,370.7,462.4,370.7L462.4,370.7z"/>
<path class="st0" d="M508.1,326v103c0,5.8-0.4,14.1-0.4,14.1h18.4c0,0,0.7-5.9,0.7-11.3c0,0,9.1,14.2,33.8,14.2
	c26,0,43.7-18.1,43.7-44c0-24.1-16.2-43.5-43.7-43.5c-25.7,0-33.7,13.9-33.7,13.9V326H508.1z M555.9,371.3
	c17.7,0,28.9,13.1,28.9,30.7c0,18.9-13,31.2-28.8,31.2c-18.9,0-29.1-14.7-29.1-31.1C527,387,536.1,371.3,555.9,371.3L555.9,371.3z"
	/>
<path class="st0" d="M650.1,358.3c-39.2,0-41.7,21.5-41.7,24.9h19.5c0,0,1-12.5,20.9-12.5c12.9,0,22.9,5.9,22.9,17.2v4h-22.9
	c-30.4,0-46.4,8.9-46.4,26.9c0,17.7,14.8,27.4,34.9,27.4c27.3,0,36.1-15.1,36.1-15.1c0,6,0.5,11.9,0.5,11.9h17.3c0,0-0.7-7.3-0.7-12
	v-40.6C690.4,363.9,669,358.3,650.1,358.3L650.1,358.3z M671.6,404v5.4c0,7-4.3,24.5-29.8,24.5c-14,0-19.9-7-19.9-15.1
	C621.8,404.1,642,404,671.6,404L671.6,404z"/>
<path class="st0" d="M679.9,361.7h21.9l31.5,63.1l31.4-63.1h19.9L727.4,474h-20.9l16.5-31.3L679.9,361.7z"/>
</svg>
