<?xml version="1.0" encoding="utf-8"?>
<!-- Generator: Adobe Illustrator 28.2.0, SVG Export Plug-In . SVG Version: 6.00 Build 0)  -->
<svg version="1.1" id="Layer_1" xmlns="http://www.w3.org/2000/svg" xmlns:xlink="http://www.w3.org/1999/xlink" x="0px" y="0px"
	 viewBox="0 0 1200 800" style="enable-background:new 0 0 1200 800;" xml:space="preserve">
<style type="text/css">
	.st0{fill:#E2E8F0;}
	.st1{fill:#E2E8F0;stroke:#0F172A;stroke-width:5.4191;stroke-miterlimit:10;}
</style>
<path class="st0" d="M539.5,348.6c2.6-0.1,5-0.4,7.6-0.3c14.4,0.6,28.5,5,41.4,11.3c-5.9,28.4-11.6,56.9-17.3,85.3h37.3
	c2.4,0.1,5-0.1,7.3-1.1c2.4-1.1,4.4-3.3,5.4-5.7c1.1-2.6,1.4-5.4,1.9-8.1c2.4-14.1,4.9-28.1,7.1-42.2c16.1,14.4,30.7,31,40.5,50.4
	c3.3,6.4,6,13.1,7.7,20.1c1.3,5.4,2,11.1,1.4,16.7c-0.6,5.3-2.3,10.4-5.3,14.8c-1.4,2.4-3.9,4.1-6,5.7c-7.7,5.4-17.4,7.1-26.5,6.4
	c-9.6-0.7-18.8-3.6-27.8-6.9c-21.4-8-41.1-20.7-57.8-36.3c-14.8-13.6-28-29.4-36.8-47.5c-4-8.6-7.4-17.6-8.3-27
	c-0.4-4.4-0.3-8.8,0.7-13.1c1.3-5.1,3.7-10.1,7.6-13.7C524.8,352.1,532.2,349.3,539.5,348.6L539.5,348.6z"/>
<path class="st1" d="M656.1,298.2c5-0.3,10-0.1,15-0.1h18c-1.7,9.3-3.4,18.7-5.1,28c-0.7,3.4-2.9,6.9-6,8.6
	c-2.3,1.3-5.1,1.6-7.7,1.4h-31.1c-3,17.1-5.9,34.4-8.8,51.5c-2.4,14.1-4.9,28.1-7.1,42.2c-0.6,2.7-0.7,5.6-1.9,8.1
	c-1.1,2.4-3,4.7-5.4,5.7c-2.3,1-4.9,1.3-7.3,1.1h-37.3c5.7-28.4,11.6-56.9,17.3-85.3c1.6-7.8,3.1-15.6,4.7-23.4h-46
	c1.9-9.3,3.6-18.6,5.4-27.8c0.7-3,2.3-5.7,4.7-7.6c2.3-1.6,5-2.4,7.8-2.3h63.9C638.2,298.2,647.1,298.2,656.1,298.2z"/>
</svg>
