<?xml version="1.0" encoding="utf-8"?>
<!-- Generator: Adobe Illustrator 28.2.0, SVG Export Plug-In . SVG Version: 6.00 Build 0)  -->
<svg version="1.1" id="Layer_1" xmlns="http://www.w3.org/2000/svg" xmlns:xlink="http://www.w3.org/1999/xlink" x="0px" y="0px"
	 viewBox="0 0 1200 800" style="enable-background:new 0 0 1200 800;" xml:space="preserve">
<style type="text/css">
	.st0{fill:#E2E8F0;}
</style>
<path class="st0" d="M506.6,410.3l-3.8,10.7h-0.3c-0.6-2.4-1.8-6.1-3.7-10.5l-20.3-51h-19.9v81.3h13.2v-50.2c0-3.2,0-6.7-0.1-11.2
	c-0.1-2.2-0.3-3.9-0.4-5.2h0.3c0.6,3.2,1.4,5.5,1.9,6.9l24.4,59.3h9.3l24.2-59.9c0.5-1.4,1.1-4.1,1.6-6.4h0.3
	c-0.3,6-0.5,11.4-0.6,14.6v51.6h14v-81.2h-19.1L506.6,410.3z M559.9,382.2h13.7v58.3h-13.7V382.2z M566.8,357.6
	c-2.3,0-4.2,0.8-5.8,2.3s-2.4,3.4-2.4,5.7c0,2.2,0.8,4.1,2.4,5.6c1.6,1.5,3.5,2.2,5.8,2.2c2.3,0,4.3-0.8,5.8-2.2
	c1.6-1.5,2.4-3.4,2.4-5.6s-0.8-4.1-2.4-5.7C571.2,358.4,569.2,357.6,566.8,357.6 M622,381.7c-2.5-0.5-5.2-0.8-7.7-0.8
	c-6.2,0-11.9,1.4-16.6,4.1s-8.5,6.5-10.9,11.3c-2.5,4.8-3.8,10.4-3.8,16.8c0,5.6,1.3,10.5,3.7,15c2.4,4.4,5.8,8,10.3,10.4
	c4.3,2.4,9.4,3.7,15,3.7c6.5,0,12.1-1.4,16.5-3.9l0.1-0.1v-12.6l-0.5,0.4c-2,1.5-4.3,2.7-6.6,3.5c-2.4,0.8-4.6,1.3-6.5,1.3
	c-5.5,0-9.8-1.6-12.8-5.1c-3.2-3.4-4.7-8-4.7-13.8c0-6,1.6-10.7,4.8-14.2c3.3-3.5,7.6-5.3,12.8-5.3c4.4,0,8.9,1.5,13,4.4l0.5,0.4
	v-13.4l-0.1-0.1C626.8,383.1,624.8,382.2,622,381.7 M667.2,381.3c-3.4,0-6.5,1.1-9.3,3.3c-2.3,1.9-3.9,4.6-5.3,7.9h-0.1v-10.2h-13.7
	v58.3h13.7v-29.8c0-5.1,1.1-9.3,3.4-12.3c2.3-3.2,5.3-4.7,8.8-4.7c1.3,0,2.5,0.3,4.1,0.5c1.5,0.4,2.5,0.8,3.3,1.4l0.5,0.4v-13.7
	l-0.3-0.1C671.4,381.6,669.5,381.3,667.2,381.3 M704.4,381c-9.6,0-17.3,2.8-22.6,8.4c-5.5,5.6-8.1,13.3-8.1,22.9
	c0,9,2.7,16.4,8,21.8c5.3,5.3,12.4,8,21.4,8c9.4,0,16.8-2.8,22.2-8.5c5.5-5.7,8.1-13.3,8.1-22.6c0-9.3-2.5-16.6-7.7-22
	C720.7,383.6,713.5,381,704.4,381 M715.4,425.8c-2.5,3.3-6.5,4.8-11.5,4.8c-4.9,0-8.9-1.6-11.8-5.1c-2.8-3.3-4.2-8-4.2-14
	c0-6.2,1.5-10.9,4.2-14.3c2.8-3.4,6.7-5.1,11.7-5.1c4.8,0,8.6,1.6,11.4,4.8c2.7,3.3,4.2,8,4.2,14.2
	C719.2,417.6,718,422.5,715.4,425.8 M763.9,406.4c-4.3-1.8-7-3.2-8.3-4.3c-1.1-1.1-1.6-2.5-1.6-4.4c0-1.6,0.6-3.2,2.2-4.2
	c1.6-1.1,3.4-1.6,6-1.6c2.3,0,4.7,0.4,7,1.1s4.4,1.6,6.1,2.8l0.5,0.4v-12.8l-0.3-0.1c-1.6-0.6-3.7-1.3-6.2-1.8
	c-2.5-0.4-4.8-0.6-6.7-0.6c-6.5,0-11.9,1.6-16.1,5.1c-4.2,3.3-6.2,7.7-6.2,12.8c0,2.7,0.4,5.2,1.4,7.2c0.9,2,2.3,3.9,4.2,5.5
	c1.9,1.5,4.6,3.2,8.4,4.7c3.2,1.4,5.6,2.4,7,3.3s2.4,1.8,3.2,2.5c0.5,0.8,0.8,1.9,0.8,3.3c0,3.9-2.9,5.8-8.9,5.8
	c-2.3,0-4.7-0.4-7.6-1.4c-2.8-0.9-5.5-2.3-7.7-3.9l-0.5-0.4v13.4l0.3,0.1c2,0.9,4.4,1.6,7.4,2.3c2.9,0.5,5.6,0.9,7.9,0.9
	c7,0,12.8-1.6,16.9-5.1c4.2-3.4,6.4-7.7,6.4-13.3c0-3.9-1.1-7.4-3.4-10C773.1,411.2,769.4,408.5,763.9,406.4 M815.6,381
	c-9.6,0-17.3,2.8-22.6,8.4s-8.1,13.3-8.1,22.9c0,9,2.7,16.4,8,21.8c5.3,5.3,12.4,8,21.4,8c9.4,0,16.8-2.8,22.2-8.5
	c5.5-5.7,8.1-13.3,8.1-22.6c0-9.3-2.5-16.6-7.7-22C832,383.6,824.7,381,815.6,381 M826.5,425.8c-2.5,3.3-6.5,4.8-11.5,4.8
	c-5.1,0-8.9-1.6-11.8-5.1c-2.8-3.3-4.2-8-4.2-14c0-6.2,1.5-10.9,4.2-14.3c2.8-3.4,6.7-5.1,11.7-5.1c4.7,0,8.6,1.6,11.4,4.8
	c2.7,3.3,4.2,8,4.2,14.2C830.5,417.6,829.1,422.5,826.5,425.8 M917.7,393.5v-11.3h-13.8V365l-0.4,0.1l-13,3.9l-0.3,0.1v13.2h-20.6
	v-7.4c0-3.4,0.8-6,2.3-7.7c1.5-1.7,3.7-2.5,6.4-2.5c1.9,0,3.9,0.4,6.1,1.4l0.5,0.3v-11.9l-0.3-0.1c-1.9-0.6-4.4-1.1-7.7-1.1
	c-4.1,0-7.7,0.9-10.9,2.5c-3.3,1.8-5.7,4.2-7.5,7.5c-1.8,3.2-2.7,6.7-2.7,10.8v8.1h-9.6v11.2h9.6v47.1h13.8v-47h20.6v30
	c0,12.3,5.8,18.5,17.4,18.5c1.9,0,3.9-0.3,5.8-0.6c2-0.4,3.5-0.9,4.3-1.4l0.1-0.1v-11.3l-0.5,0.4c-0.8,0.5-1.6,0.9-2.8,1.3
	c-1.1,0.3-2,0.4-2.7,0.4c-2.7,0-4.6-0.6-6-2.2c-1.3-1.5-1.9-3.9-1.9-7.5v-27.6H917.7z"/>
<path class="st0" d="M282.3,332.1h64.5v64.5h-64.5V332.1z"/>
<path class="st0" d="M353.5,332.1H418v64.5h-64.5V332.1z"/>
<path class="st0" d="M282.3,403.4h64.5v64.5h-64.5V403.4z"/>
<path class="st0" d="M353.5,403.4H418v64.5h-64.5V403.4z"/>
</svg>
