<?xml version="1.0" encoding="utf-8"?>
<!-- Generator: Adobe Illustrator 28.2.0, SVG Export Plug-In . SVG Version: 6.00 Build 0)  -->
<svg version="1.1" id="Layer_1" xmlns="http://www.w3.org/2000/svg" xmlns:xlink="http://www.w3.org/1999/xlink" x="0px" y="0px"
	 viewBox="0 0 1200 800" style="enable-background:new 0 0 1200 800;" xml:space="preserve">
<style type="text/css">
	.st0{fill-rule:evenodd;clip-rule:evenodd;fill:#E2E8F0;}
</style>
<g>
	<g>
		<path class="st0" d="M406,528h-1.6c-55.5-5.3-35.9-90.3,18.5-65.7l1.2,0.4l-4.1,10.3l-2.1-0.9c-44.2-20-45.3,60,1.6,42.8l1.6-0.9
			l2.9,9.4l-0.9,0.4c-2.3,2.1-12.9,4.2-16,4.1H406z M450.8,486.6h-0.9l-0.9,0.4h-1.2l-0.9,0.4h-0.4l-0.9,0.4l-0.4,0.4l-0.9,0.4
			l-0.4,0.4h-0.4l-0.4,0.9l-1.2,1.2l-0.4,0.9l-0.9,0.9v0.9l-0.4,0.4v0.9l-0.4,0.9v0.4l-0.4,0.9c-0.6,4.8-0.5,6.3,0,11l0.4,0.9v0.4
			l0.4,0.9v0.9l0.4,0.4v0.9l0.4,0.4l0.4,0.4l0.4,0.9l0.4,0.4l0.4,0.4l0.4,0.4l0.4,0.4c1.3,1.3,3,2.4,5,2.5h4.5
			c1.5-0.1,3-0.8,4.1-2.1l0.9-0.4l0.4-0.4l0.4-0.4l0.4-0.4l0.4-0.4l0.4-0.9v-0.4l0.4-0.4l0.4-0.9v-0.4l0.4-0.9v-0.9l0.4-0.4v-0.9
			c1.1-4.9,0.9-5.2,0.4-9.8l-0.4-1.2v-0.9l-0.4-0.4v-0.9l-0.4-0.9v-0.4l-0.4-0.9l-0.4-0.4v-0.4l-0.4-0.9l-1.2-1.2l-0.4-0.9h-0.9
			l-0.9-0.9l-0.9-0.4l-0.4-0.4h-0.9L454,487h-1.6l-0.9-0.4H450.8z M450.8,528h-4.1l-1.2-0.4l-1.2-0.4h-1.2l-1.2-0.4l-1.2-0.4
			l-0.9-0.9l-1.2-0.4l-1.2-0.4l-0.9-0.9l-1.2-0.9l-0.9-0.9l-3.2-3.2c-2.7-4.2-4.7-9-5-14v-4.1c0.4-13.6,8.3-22.3,21.8-24.7h4.5
			c31.3,2.2,30.7,49.4,1.2,51.7L450.8,528z"/>
		<path class="st0" d="M514.5,527.3v-34.1l-0.4-0.4v-0.9l-0.4-0.4V491l-0.4-0.4v-0.4h-0.4l-0.4-0.4v-0.4l-0.4-0.4l-4.1-2.1h-1.9
			c-2.8-0.1-6.1,0.2-8.7,1.2l-1.2,0.4l-1.2,0.4v2.1l0.4,36.1h-11.9v-39.8l-0.4-1.2V484l-0.4-2.1v-0.6l2.5-0.9
			c14.3-5.4,41.9-8.8,41.5,13.5v33.2L514.5,527.3z M553.8,528.9h-3.2l-0.9-0.4h-1.2l-0.9-0.4h-0.8l-0.4-0.4l-0.9-0.4h-0.4l-0.9-0.4
			l-0.9-0.9l-0.9-0.4l-0.4-0.4l-0.4-0.4l-0.4-0.4l-0.4-0.9l-0.4-0.4l-0.4-0.4l-0.4-0.9v-0.4l-0.9-1.6v-1.2l-0.4-0.9v-29.7l-5.7-0.4
			v-9.4l5.7-0.4V464h11.9v13.5h14v10.3h-14v27.9l0.4,0.4v0.9l0.4,0.4h0.4v0.4h0.4l0.4,0.4h0.9l0.9,0.4h2.1l0.9-0.4h1.2l1.2-0.4
			l1.2-0.4h0.9l1.2-0.4l0.9-0.4l3.7,9.4l-1.6,0.9c-3.9,1-7.1,1.8-11,2.1L553.8,528.9z M599.8,487.8l-0.9-0.4
			c-6.2-1.1-7.4-1.1-13.5,0.4l-1.2,0.4h0.4v39.1h-11.9v-37.8c-0.2-2.2-0.4-4.4-0.9-6.6V482l2.5-1.2l2.9-1.2c4.1-1.5,7.1-1.8,11-2.9
			h1.6l1.2-0.4c2.9-0.1,7.5,0.1,10.3,0.9h0.9l1.2,0.4L599.8,487.8z M627.8,486.6H627l-0.9,0.4H625l-0.9,0.4h-0.9l-0.4,0.4l-0.9,0.4
			l-0.9,0.9h-0.4l-0.4,0.9l-0.4,0.4l-0.9,0.9l-0.4,0.9l-0.9,0.9v0.9l-0.4,0.4l-0.4,0.9v0.9l-0.4,0.4v0.9l-0.4,1.2v8.7l0.4,1.2v0.9
			l0.4,0.4v0.9l0.4,0.9l0.4,0.4v0.9l0.4,0.4l0.4,0.4l0.4,0.9l0.4,0.4l0.4,0.4l0.4,0.4l0.4,0.4l1.2,1.2l0.9,0.4l0.4,0.4h0.9l0.9,0.4
			h5.7l0.9-0.4h0.9l0.4-0.4l0.9-0.4l1.2-1.2l0.4-0.4l0.9-0.4l0.4-0.4l0.4-0.4v-0.9l0.4-0.4l0.4-0.4l0.4-0.9v-0.4l0.4-0.9v-0.9
			l0.4-0.4v-0.9l0.4-1.2v-8.7l-0.4-1.2v-0.9l-0.4-0.4v-0.9l-0.4-0.9v-0.4l-0.4-0.9l-0.9-0.9v-0.9l-0.9-0.9l-0.9-0.4l-0.4-0.9h-0.4
			l-0.9-0.9l-0.9-0.4l-0.4-0.4h-0.9l-0.9-0.4h-1.2l-0.9-0.4H627.8z M627.8,528h-4.1c-12.3-2.1-20.3-11.8-20.6-24.2v-2.9
			c0.4-13.7,8.3-22.4,21.8-24.7h4.1c31.5,1.6,31.2,49.4,1.6,51.7h-2.8V528z"/>
		<path class="st0" d="M671.8,527.3v-73.2h-11.9v73.2H671.8z M695.2,528H694c-3.7,0.1-10.3-1.1-13.5-2.5l-1.6-0.9l3.2-9.1l1.2,0.4
			l1.6,0.4l1.6,0.9l1.2,0.4l1.6,0.4h1.6l0.9,0.4h4.1l0.9-0.4h0.4c2.1-0.6,3.5-1.5,4.1-3.7v-2.1c-0.8-6.7-15.7-7-19.3-14.4l-0.9-0.9
			l-1.2-3.7v-5.7l0.4-0.9l0.4-0.4v-0.9l1.2-2.5l0.4-0.4l0.4-0.9l0.9-0.4l0.4-0.4l0.9-0.4l0.4-0.9l1.6-0.9l0.4-0.4h0.9l2.5-1.2h0.4
			l0.9-0.4h0.9l0.9-0.4h1.6l0.9-0.4h4.1c3.4,0.2,6.3,1.2,9.4,1.6l1.6,0.9l0.4,0.4l0.9,0.4l-3.2,9l-1.2-0.4l-1.2-0.4l-1.6-0.4
			l-1.2-0.4l-1.6-0.4h-2.5l-1.6-0.4h-0.4l-0.4,0.4h-2.7l-0.9,0.4l-0.4,0.4h-0.4l-0.4,0.4v0.4l-0.9,0.9v1.2l-0.4,0.4l0.4,0.9v0.9
			l0.4,0.4l0.4,0.9l0.4,0.4l0.9,0.4l0.4,0.4l1.6,0.9l0.9,0.4l1.2,0.4l0.9,0.4l4.1,1.6l1.2,0.4l0.9,0.4l1.2,0.9
			c4.3,1.6,7.9,7,7.8,11.5l0.4,1.6l-0.4,1.2v1.6l-0.4,0.9v0.9l-1.6,3.2l-0.4,0.4l-0.4,0.9l-0.9,0.4l-0.4,0.9l-0.9,0.4l-0.9,0.4
			l-0.4,0.4l-0.9,0.4c-2.2,1.4-7.5,2.9-9.8,2.9h-2.2V528z M320.2,443.8l-1.2,0.4c-2.7,1-5.5,1.5-8.2,2.5l-1.6,0.4l-2.1-10.7l0.9-0.4
			h1.2l0.9-0.4h0.9l1.2-0.4h0.9l0.9-0.4h0.9l0.9-0.4l0.4-0.4h0.4l0.9-0.4l0.4-0.4h0.4l0.4-0.4l0.4-0.4l0.4-0.4l0.4-0.4v-0.4l0.9-0.9
			v-0.4l0.4-0.4v-0.4l0.4-0.9c0.4-1.3,1-4.8,0.9-6.2v-52.9h12.3v48.5c0.6,10.4-1.6,22.5-12.8,26.3L320.2,443.8z"/>
		<path class="st0" d="M366.5,395.8H364l-0.9,0.4c-2.2,0.2-3.5,1.8-5.3,3.2l-0.4,0.4v0.9l-0.4,0.4l-0.4,0.9l-0.4,0.4v0.9l-0.4,0.4
			v0.9l-0.4,0.4v0.9l-0.4,1.2v1.6l-0.4,1.2v2.9l0.4,1.6c0.1,2.7,1,5.5,2.5,7.8v0.4l0.4,0.4l0.4,0.4l0.4,0.9l0.9,0.4l0.4,0.4h0.4
			l0.4,0.4l0.9,0.4l0.4,0.4h0.9l0.4,0.4h1.6l0.9,0.4h1.6l0.9-0.4h1.2l0.9-0.4h0.4l0.9-0.4l0.4-0.4l0.9-0.4h0.4l0.9-0.9l0.4-0.9
			l0.4-0.4l0.4-0.4l0.4-0.4l0.4-0.9l0.4-0.4v-0.9l0.4-0.4l0.4-0.9v-0.4l0.4-0.9v-0.9l0.4-1.2v-8.2l-0.4-1.6v-0.4l-0.4-0.9v-0.9
			l-0.4-0.4l-0.4-0.9v-0.4l-0.4-0.9l-0.4-0.4l-0.4-0.4c-1.2-2.2-3.5-4-5.7-4.1l-0.4-0.4L366.5,395.8z M366.5,436.9h-2.9
			c-30-2.3-29.2-50.8,1.2-51.3l1.6-0.4l1.2,0.4c30.6,0,31.7,49.1,1.6,51.3H366.5z M430.7,436v-33.2l-0.4-0.9v-1.2l-0.4-0.4l-0.9-1.6
			l-1.6-1.6l-1.6-0.9h-0.9l-0.9-0.4c-3.9-0.2-7.1,0.4-10.7,2.1l-1.2,0.9l-1.2,0.4v37H399v-72.8h11.9v25.1l1.6-0.4l2.1-0.9
			c6.4-1.9,13.1-2.7,19.3-0.4l0.4,0.4l0.9,0.4c5,2.5,7.7,9,7.4,14.4V436H430.7z M484,436v-34.5l-0.4-0.4v-0.4l-0.4-0.4v-0.4
			c-2.2-1.9-0.5-1.1-1.6-2.1h-0.4l-0.9-0.9h-0.4l-1.6-0.9h-0.9l-0.9-0.4h-2.1c-1.7-0.1-4.9,0.3-6.6,0.9l-1.2,0.4l-1.2,0.4l-1.2,0.4
			v0.4l0.4,0.4v37.3h-11.9v-39.1c0.2-1.7-0.6-4.3-0.9-6.2v-0.9l2.9-0.9l2.5-0.9l2.9-0.9c2.5-0.8,9-2.3,11.5-2.1h2.9
			c3.6,0,5.1-0.2,8.7,0.4l1.6,0.9h0.9l1.2,0.4l1.6,0.9l0.4,0.4l0.9,0.4l0.9,0.9l0.9,0.4l0.4,0.9l0.9,0.4l1.2,2.5l0.9,0.9v0.9
			l0.9,1.6v1.2l0.4,1.2v0.9l0.4,1.2V436L484,436L484,436z M519.3,436.9h-1.2c-4.5,0.2-8.9-1-13.1-2.5L503,434l3.7-9.4l1.2,0.4
			l1.6,0.9l1.2,0.4l1.6,0.4c3.7,1.2,3.8,0.8,7.4,0.9h1.2l0.9-0.4h0.4l0.9-0.4l0.4-0.4h0.4l0.9-0.4l0.4-0.4v-0.9l0.4-0.4l0.4-0.9
			v-2.9l-0.4-0.4l-0.9-1.6l-0.9-0.4l-0.4-0.4l-0.9-0.4l-2.5-1.2l-1.2-0.4c-3.4-2.7-7.4-2.4-10.3-6.2l-2.5-2.5l-0.4-0.9l-0.9-2.5
			c-1.4-6.3-0.8-3.2,0-8.2l0.9-1.6c1.9-3,1.6-3.4,5-5l0.4-0.9l0.9-0.4h0.9l0.9-0.4l0.4-0.4h0.9l1.6-0.9h0.9l0.9-0.4h2.9l1.6-0.4
			l1.2,0.4h3.7l0.9,0.4h2.1l1.6,0.9l1.6,0.4h0.9l2.5,1.2l-3.2,9.1l-1.2-0.4l-1.6-0.4l-1.2-0.4l-1.6-0.4c-2.6,0-1.7-0.6-5.7-0.4h-2.5
			l-0.4,0.4h-0.4l-0.4,0.4h-0.4l-0.4,0.4l-0.4,0.4l-0.4,0.4v0.4l-0.4,0.9v1.6l0.4,0.9v0.4l0.4,0.9l0.9,0.4l0.4,0.4l4.1,2.1l1.2,0.4
			l2.1,0.9c6.2,2.6,10.3,4.4,12.8,11v1.6l0.4,1.2c0,5.8-0.5,8.4-5,12.3l-0.9,0.4l-0.9,0.4l-0.4,0.9h-0.9l-3.2,1.6h-0.9l-0.9,0.4
			h-0.9c-2.3,0.3-1.4,0.5-4.5,0.4L519.3,436.9z"/>
		<path class="st0" d="M569.4,395.8h-2.5l-0.9,0.4h-0.4l-0.9,0.4h-0.9l-0.4,0.4l-0.4,0.4l-0.9,0.4l-2.1,2.1l-0.4,0.9l-0.4,0.4v0.9
			l-0.4,0.4l-0.4,0.9v0.4l-0.4,0.9v1.2l-0.4,1.2l-0.4,1.6v5.7l0.9,2.5v1.6l0.4,0.4v0.9l0.4,0.4l0.4,0.9v0.4l0.4,0.9l0.4,0.4l0.4,0.4
			l0.4,0.4l0.4,0.9l0.9,0.9h0.9l0.4,0.4l0.4,0.4l0.9,0.4h0.9l0.4,0.4h1.6l0.9,0.4h1.2l0.9-0.4h1.6l0.9-0.4h0.4l0.9-0.4l0.9-0.9h0.9
			l0.9-0.9l0.4-0.9l0.4-0.4l0.4-0.4l0.4-0.4l0.4-0.9v-0.4l0.4-0.9l0.4-0.4V419l0.4-0.4v-0.9l0.4-0.9v-1.2l0.4-1.2v-5.7l-0.4-1.2V406
			l-0.4-0.4v-1.1l-0.4-0.9v-0.4l-0.4-0.9l-0.4-0.4V401l-0.4-0.4l-0.4-0.4l-0.4-0.9l-1.6-1.6l-0.9-0.4l-0.9-0.9h-0.9l-0.4-0.4h-0.9
			l-0.9-0.4L569.4,395.8z M569.4,437.2l-1.6-0.4h-1.2c-30.2-1.9-29.4-51.1,1.2-51.3l1.6-0.4l1.2,0.4h2.9c6.2,1,8.3,2.7,13.1,6.2
			l0.9,0.9l0.9,0.9l0.4,1.2l0.9,0.9l0.9,1.2l0.4,0.9l0.9,1.2l0.4,1.2l0.4,0.9l0.9,2.5v1.2l0.4,1.2l0.4,1.6v5.3
			c0,4.5-1.6,10.6-4.5,14.4l-0.9,0.9l-0.4,1.2c-3.4,3.2-8.7,7.1-13.5,7.4l-1.2,0.4h-3.1L569.4,437.2z M633.6,436v-32.5l-0.4-0.9
			v-1.2l-0.4-0.4v-0.9l-0.4-0.4v-0.4h-0.4l-0.4-0.4v-0.4l-0.9-0.9h-0.3v-0.4l-0.4-0.4h-0.4l-1.6-0.9h-1.2l-0.9-0.4h-2.1
			c-1.7-0.2-6.3,0.5-7.8,1.2l-1.2,0.4l-0.9,0.4v38.2h-11.9v-39.1c0.3-4.2-0.6-2.7-0.4-6.2l-0.4-0.9l5.7-1.6l2.5-0.9
			c2.5-0.8,9-2.3,11.5-2.1h1.6l1.2-0.4l1.2,0.4h5.3l0.9,0.4h1.2l1.6,0.9h1.2c6.4,2.6,10,8,10.3,14.8v34.5h-11.6V436z"/>
	</g>
	<path class="st0" d="M867.7,299.2l-0.9-1.2l-1.2-0.9l-0.9-1.2l-1.2-0.9l-2.5,1.2c-11.6,6-22.6,12.8-31.2,22.6l-2.1,1.6l0.9,3.2
		c3.8,32.4,2.7,61.4-8.7,92l-0.9,1.6l1.2,2.1c4.9,8.4,14.5,18.9,22.6,24.2l2.1,1.6l1.2-0.9c2.4-1.7,5.4-2.6,6.6-4.1l1.2-0.9
		l-1.6-1.6c-34.1-42.4-28.7-102,13.1-137.2L867.7,299.2z"/>
	<path class="st0" d="M846.4,282.8l-2.5-1.6l-1.2-0.4l-1.2-0.9l-2.9,1.2c-5,2.9-10.2,5.2-14.8,8.7l-2.1,1.2l0.4,1.6l2.5,9.8l0.4,1.6
		l2.5-2.9c4.9-5.8,10.6-10.8,16-16L846.4,282.8z M819.2,454.5l1.6-0.4c3.6-0.5,5.2-1.1,8.7-2.1l1.2-0.4l-2.1-2.9
		c-4.9-5.2-9.5-10.6-13.1-16.9l-2.1-2.9l-1.2,1.6c-0.9,3.4-4.9,7.4-6.2,9.8l-1.2,1.6l1.6,1.6c3.6,4,7,6.1,11,9.4L819.2,454.5z"/>
	<path class="st0" d="M891.5,342.4l-1.6,1.6c-19.2,17.6-22.6,43-9.1,65.4l0.4,0.9l1.6-2.5c9.7-18,14.1-42.5,9-62.4L891.5,342.4z"/>
	<path class="st0" d="M863.2,371.5v-1.6c2.3-17.1,8.3-34.2,19.3-47.6l1.2-1.2l-0.9-1.2l-0.9-1.6l-0.9-1.2l-0.4-1.2l-2.5,1.2
		c-43.8,25.7-50.7,76.8-14.4,112.1l1.2,1.6l1.2-1.2c1.5-1.7,4.3-3.9,5.3-5.7l0.9-0.9l-0.9-1.2c-7.5-16-10.3-30.7-9.1-48.5
		L863.2,371.5z"/>
	<path class="st0" d="M737.1,297.2l-1.2,1.2c-14.8,14.6-25.1,35.9-26.3,56.7l-0.4,2.1l1.2-1.2c14.8-14.9,23.1-36.3,26.7-56.7V297.2z
		"/>
	<path class="st0" d="M755.6,283.2l-1.2,0.9l-0.9,0.4l-1.2,0.9c-2.6,2.4-4.4,17.6-6.6,22.6l-1.2,3.2l-0.9,3.2
		c-3.2,8.1-5,16.9-9.8,24.2l-2.5,5.7l-1.2,2.5l-1.6,2.5c-2.8,5.8-6.8,10.9-10.3,16.5l-1.6,2.5l-1.6,2.1c-7,9-5.3,4.1-3.2,14.8l1.2,5
		l3.2-2.5c30.8-20.1,42.3-66.2,39.4-101.1L755.6,283.2z"/>
	<path class="st0" d="M830.7,345.2v-2.5l-0.4-2.5c-0.3-12.4-2.8-23.5-5-35.7l-0.9-2.5L824,300l-0.4-2.5c-1.3-2.7-1.9-7.9-3.2-10.7
		l-0.9-2.5l-0.4-2.1l-4.1-10.3l-1.2-0.4H811l-1.2-0.4l0.9,6.6c5.5,57.4,2.4,123.5-37.8,168.8l-3.7,3.7l1.2,0.4l1.6,0.9l1.2,0.4
		c4.3,1.6,7.3,1.5,11.5,2.9h1.6l1.2,0.4h1.6l1.6,0.4h1.2l5-4.1l10.3-12.3l2.1-2.9l1.6-2.9c14.6-23.4,20.2-51.5,19.7-78.9
		L830.7,345.2z"/>
	<path class="st0" d="M794.6,271.3h-1.2l-1.2,0.4h-2.9l0.4,4.5c0.5,51.3-8.7,114.3-47.3,151.6l-4.1,3.7l1.6,1.2
		c2.3,2.4,7.5,6.1,10.3,7.8l1.6,1.2l5.3-3.7c49.4-37.9,53.1-106.1,39.1-161.8L794.6,271.3z"/>
	<path class="st0" d="M774.1,275l-0.9,0.4l-3.7,1.2v4.5c-3.8,44.2-14.6,89.4-47.3,121.7l-3.2,2.9l0.9,2.1c1.7,3.4,4.1,6.3,6.2,9.4
		l0.9,1.6l4.5-2.9c42.1-29.1,52.4-89,43.9-136.4L774.1,275z"/>
</g>
<g>
	<g>
		<path class="st0" d="M404.9,528h-1.6c-55.5-5.3-35.9-90.3,18.5-65.7l1.2,0.4l-4.1,10.3l-2.1-0.9c-44.2-20-45.3,60,1.6,42.8
			l1.6-0.9l2.9,9.4l-0.9,0.4c-2.3,2.1-12.9,4.2-16,4.1H404.9z M449.7,486.6h-0.9L448,487h-1.2l-0.9,0.4h-0.4l-0.9,0.4l-0.4,0.4
			l-0.9,0.4l-0.4,0.4h-0.4L442,490l-1.2,1.2l-0.4,0.9l-0.9,0.9v0.9l-0.4,0.4v0.9l-0.4,0.9v0.4l-0.4,0.9c-0.6,4.8-0.5,6.3,0,11
			l0.4,0.9v0.4l0.4,0.9v0.9l0.4,0.4v0.9l0.4,0.4l0.4,0.4l0.4,0.9l0.4,0.4l0.4,0.4l0.4,0.4l0.4,0.4c1.3,1.3,3,2.4,5,2.5h4.5
			c1.5-0.1,3-0.8,4.1-2.1l0.9-0.4l0.4-0.4l0.4-0.4l0.4-0.4l0.4-0.4l0.4-0.9v-0.4l0.4-0.4l0.4-0.9v-0.4l0.4-0.9v-0.9l0.4-0.4v-0.9
			c1.1-4.9,0.9-5.2,0.4-9.8l-0.4-1.2v-0.9l-0.4-0.4v-0.9l-0.4-0.9v-0.4l-0.4-0.9l-0.4-0.4v-0.4l-0.4-0.9l-1.2-1.2l-0.4-0.9h-0.9
			l-0.9-0.9l-0.9-0.4l-0.4-0.4h-0.9l-0.4-0.4h-1.6l-0.9-0.4H449.7z M449.7,528h-4.1l-1.2-0.4l-1.2-0.4H442l-1.2-0.4l-1.2-0.4
			l-0.9-0.9l-1.2-0.4l-1.2-0.4l-0.9-0.9l-1.2-0.9l-0.9-0.9l-3.2-3.2c-2.7-4.2-4.7-9-5-14v-4.1c0.4-13.6,8.3-22.3,21.8-24.7h4.5
			c31.3,2.2,30.7,49.4,1.2,51.7L449.7,528z"/>
		<path class="st0" d="M513.4,527.3v-34.1l-0.4-0.4v-0.9l-0.4-0.4V491l-0.4-0.4v-0.4h-0.4l-0.4-0.4v-0.4l-0.4-0.4l-4.1-2.1h-1.9
			c-2.8-0.1-6.1,0.2-8.7,1.2l-1.2,0.4l-1.2,0.4v2.1l0.4,36.1h-11.9v-39.8l-0.4-1.2V484l-0.4-2.1v-0.6l2.5-0.9
			c14.3-5.4,41.9-8.8,41.5,13.5v33.2L513.4,527.3z M552.8,528.9h-3.2l-0.9-0.4h-1.2l-0.9-0.4h-0.8l-0.4-0.4l-0.9-0.4h-0.4l-0.9-0.4
			l-0.9-0.9l-0.9-0.4l-0.4-0.4l-0.4-0.4l-0.4-0.4l-0.4-0.9l-0.4-0.4l-0.4-0.4l-0.4-0.9v-0.4l-0.9-1.6v-1.2l-0.4-0.9v-29.7l-5.7-0.4
			v-9.4l5.7-0.4V464h11.9v13.5h14v10.3h-14v27.9l0.4,0.4v0.9l0.4,0.4h0.4v0.4h0.4l0.4,0.4h0.9l0.9,0.4h2.1l0.9-0.4h1.2l1.2-0.4
			l1.2-0.4h0.9l1.2-0.4l0.9-0.4l3.7,9.4l-1.6,0.9c-3.9,1-7.1,1.8-11,2.1L552.8,528.9z M598.8,487.8l-0.9-0.4
			c-6.2-1.1-7.4-1.1-13.5,0.4l-1.2,0.4h0.4v39.1h-11.9v-37.8c-0.2-2.2-0.4-4.4-0.9-6.6V482l2.5-1.2l2.9-1.2c4.1-1.5,7.1-1.8,11-2.9
			h1.6l1.2-0.4c2.9-0.1,7.5,0.1,10.3,0.9h0.9l1.2,0.4L598.8,487.8z M626.7,486.6h-0.8l-0.9,0.4h-1.2l-0.9,0.4h-0.9l-0.4,0.4
			l-0.9,0.4l-0.9,0.9h-0.4l-0.4,0.9l-0.4,0.4l-0.9,0.9l-0.4,0.9l-0.9,0.9v0.9l-0.4,0.4l-0.4,0.9v0.9l-0.4,0.4v0.9l-0.4,1.2v8.7
			l0.4,1.2v0.9l0.4,0.4v0.9l0.4,0.9l0.4,0.4v0.9l0.4,0.4l0.4,0.4l0.4,0.9l0.4,0.4l0.4,0.4l0.4,0.4l0.4,0.4l1.2,1.2l0.9,0.4l0.4,0.4
			h0.9l0.9,0.4h5.7l0.9-0.4h0.9l0.4-0.4l0.9-0.4l1.2-1.2l0.4-0.4l0.9-0.4l0.4-0.4l0.4-0.4v-0.9l0.4-0.4l0.4-0.4l0.4-0.9v-0.4
			l0.4-0.9v-0.9l0.4-0.4v-0.9l0.4-1.2v-8.7l-0.4-1.2v-0.9l-0.4-0.4v-0.9l-0.4-0.9v-0.4l-0.4-0.9l-0.9-0.9v-0.9l-0.9-0.9l-0.9-0.4
			l-0.4-0.9h-0.4l-0.9-0.9l-0.9-0.4l-0.4-0.4h-0.9l-0.9-0.4h-1.2l-0.9-0.4H626.7z M626.7,528h-4.1c-12.3-2.1-20.3-11.8-20.6-24.2
			v-2.9c0.4-13.7,8.3-22.4,21.8-24.7h4.1c31.5,1.6,31.2,49.4,1.6,51.7h-2.8V528z"/>
		<path class="st0" d="M670.7,527.3v-73.2h-11.9v73.2H670.7z M694.1,528h-1.2c-3.7,0.1-10.3-1.1-13.5-2.5l-1.6-0.9l3.2-9.1l1.2,0.4
			l1.6,0.4l1.6,0.9l1.2,0.4l1.6,0.4h1.6l0.9,0.4h4.1l0.9-0.4h0.4c2.1-0.6,3.5-1.5,4.1-3.7v-2.1c-0.8-6.7-15.7-7-19.3-14.4l-0.9-0.9
			l-1.2-3.7v-5.7l0.4-0.9l0.4-0.4v-0.9l1.2-2.5l0.4-0.4l0.4-0.9l0.9-0.4l0.4-0.4l0.9-0.4l0.4-0.9l1.6-0.9l0.4-0.4h0.9l2.5-1.2h0.4
			l0.9-0.4h0.9l0.9-0.4h1.6l0.9-0.4h4.1c3.4,0.2,6.3,1.2,9.4,1.6l1.6,0.9l0.4,0.4l0.9,0.4l-3.2,9l-1.2-0.4l-1.2-0.4l-1.6-0.4
			l-1.2-0.4l-1.6-0.4h-2.5l-1.6-0.4h-0.4l-0.4,0.4h-2.7l-0.9,0.4l-0.4,0.4h-0.4l-0.4,0.4v0.4l-0.9,0.9v1.2l-0.4,0.4l0.4,0.9v0.9
			l0.4,0.4l0.4,0.9l0.4,0.4l0.9,0.4l0.4,0.4l1.6,0.9l0.9,0.4l1.2,0.4l0.9,0.4l4.1,1.6l1.2,0.4l0.9,0.4l1.2,0.9
			c4.3,1.6,7.9,7,7.8,11.5l0.4,1.6l-0.4,1.2v1.6l-0.4,0.9v0.9l-1.6,3.2l-0.4,0.4l-0.4,0.9l-0.9,0.4l-0.4,0.9l-0.9,0.4l-0.9,0.4
			l-0.4,0.4l-0.9,0.4c-2.2,1.4-7.5,2.9-9.8,2.9h-2.2V528z M319.1,443.8l-1.2,0.4c-2.7,1-5.5,1.5-8.2,2.5l-1.6,0.4l-2.1-10.7l0.9-0.4
			h1.2l0.9-0.4h0.9l1.2-0.4h0.9l0.9-0.4h0.9l0.9-0.4l0.4-0.4h0.4l0.9-0.4l0.4-0.4h0.4l0.4-0.4l0.4-0.4l0.4-0.4l0.4-0.4v-0.4l0.9-0.9
			v-0.4l0.4-0.4v-0.4l0.4-0.9c0.4-1.3,1-4.8,0.9-6.2v-52.9h12.3v48.5c0.6,10.4-1.6,22.5-12.8,26.3L319.1,443.8z"/>
		<path class="st0" d="M365.4,395.8h-2.5l-0.9,0.4c-2.2,0.2-3.5,1.8-5.3,3.2l-0.4,0.4v0.9l-0.4,0.4l-0.4,0.9l-0.4,0.4v0.9l-0.4,0.4
			v0.9l-0.4,0.4v0.9l-0.4,1.2v1.6l-0.4,1.2v2.9l0.4,1.6c0.1,2.7,1,5.5,2.5,7.8v0.4l0.4,0.4l0.4,0.4l0.4,0.9l0.9,0.4l0.4,0.4h0.4
			l0.4,0.4l0.9,0.4l0.4,0.4h0.9l0.4,0.4h1.6l0.9,0.4h1.6l0.9-0.4h1.2l0.9-0.4h0.4l0.9-0.4l0.4-0.4l0.9-0.4h0.4l0.9-0.9l0.4-0.9
			l0.4-0.4l0.4-0.4l0.4-0.4l0.4-0.9l0.4-0.4v-0.9l0.4-0.4l0.4-0.9v-0.4l0.4-0.9v-0.9l0.4-1.2v-8.2l-0.4-1.6v-0.4l-0.4-0.9v-0.9
			l-0.4-0.4l-0.4-0.9v-0.4l-0.4-0.9l-0.4-0.4l-0.4-0.4c-1.2-2.2-3.5-4-5.7-4.1l-0.4-0.4L365.4,395.8z M365.4,436.9h-2.9
			c-30-2.3-29.2-50.8,1.2-51.3l1.6-0.4l1.2,0.4c30.6,0,31.7,49.1,1.6,51.3H365.4z M429.6,436v-33.2l-0.4-0.9v-1.2l-0.4-0.4l-0.9-1.6
			l-1.6-1.6l-1.6-0.9h-0.9l-0.9-0.4c-3.9-0.2-7.1,0.4-10.7,2.1l-1.2,0.9l-1.2,0.4v37h-11.9v-72.8h11.9v25.1l1.6-0.4l2.1-0.9
			c6.4-1.9,13.1-2.7,19.3-0.4l0.4,0.4l0.9,0.4c5,2.5,7.7,9,7.4,14.4V436H429.6z M483,436v-34.5l-0.4-0.4v-0.4l-0.4-0.4v-0.4
			c-2.2-1.9-0.5-1.1-1.6-2.1H480l-0.9-0.9h-0.4l-1.6-0.9h-0.9l-0.9-0.4h-2.1c-1.7-0.1-4.9,0.3-6.6,0.9l-1.2,0.4l-1.2,0.4l-1.2,0.4
			v0.4l0.4,0.4v37.3h-11.9v-39.1c0.2-1.7-0.6-4.3-0.9-6.2v-0.9l2.9-0.9l2.5-0.9l2.9-0.9c2.5-0.8,9-2.3,11.5-2.1h2.9
			c3.6,0,5.1-0.2,8.7,0.4l1.6,0.9h0.9l1.2,0.4l1.6,0.9l0.4,0.4l0.9,0.4l0.9,0.9l0.9,0.4l0.4,0.9l0.9,0.4l1.2,2.5l0.9,0.9v0.9
			l0.9,1.6v1.2l0.4,1.2v0.9l0.4,1.2V436L483,436L483,436z M518.2,436.9H517c-4.5,0.2-8.9-1-13.1-2.5l-2.1-0.4l3.7-9.4l1.2,0.4
			l1.6,0.9l1.2,0.4l1.6,0.4c3.7,1.2,3.8,0.8,7.4,0.9h1.2l0.9-0.4h0.4l0.9-0.4l0.4-0.4h0.4l0.9-0.4l0.4-0.4v-0.9l0.4-0.4l0.4-0.9
			v-2.9l-0.4-0.4l-0.9-1.6l-0.9-0.4l-0.4-0.4l-0.9-0.4l-2.5-1.2l-1.2-0.4c-3.4-2.7-7.4-2.4-10.3-6.2l-2.5-2.5l-0.4-0.9l-0.9-2.5
			c-1.4-6.3-0.8-3.2,0-8.2l0.9-1.6c1.9-3,1.6-3.4,5-5l0.4-0.9l0.9-0.4h0.9l0.9-0.4l0.4-0.4h0.9l1.6-0.9h0.9l0.9-0.4h2.9l1.6-0.4
			l1.2,0.4h3.7l0.9,0.4h2.1l1.6,0.9l1.6,0.4h0.9l2.5,1.2l-3.2,9.1l-1.2-0.4l-1.6-0.4l-1.2-0.4l-1.6-0.4c-2.6,0-1.7-0.6-5.7-0.4h-2.5
			l-0.4,0.4h-0.4l-0.4,0.4h-0.4l-0.4,0.4l-0.4,0.4l-0.4,0.4v0.4l-0.4,0.9v1.6l0.4,0.9v0.4l0.4,0.9l0.9,0.4l0.4,0.4l4.1,2.1l1.2,0.4
			l2.1,0.9c6.2,2.6,10.3,4.4,12.8,11v1.6l0.4,1.2c0,5.8-0.5,8.4-5,12.3l-0.9,0.4l-0.9,0.4l-0.4,0.9h-0.9l-3.2,1.6h-0.9l-0.9,0.4
			h-0.9c-2.3,0.3-1.4,0.5-4.5,0.4L518.2,436.9z"/>
		<path class="st0" d="M568.4,395.8h-2.5l-0.9,0.4h-0.4l-0.9,0.4h-0.9l-0.4,0.4l-0.4,0.4l-0.9,0.4L559,400l-0.4,0.9l-0.4,0.4v0.9
			l-0.4,0.4l-0.4,0.9v0.4l-0.4,0.9v1.2l-0.4,1.2l-0.4,1.6v5.7l0.9,2.5v1.6l0.4,0.4v0.9l0.4,0.4l0.4,0.9v0.4l0.4,0.9l0.4,0.4l0.4,0.4
			l0.4,0.4l0.4,0.9l0.9,0.9h0.9l0.4,0.4l0.4,0.4l0.9,0.4h0.9l0.4,0.4h1.6l0.9,0.4h1.2l0.9-0.4h1.6l0.9-0.4h0.4l0.9-0.4l0.9-0.9h0.9
			l0.9-0.9l0.4-0.9l0.4-0.4l0.4-0.4l0.4-0.4l0.4-0.9v-0.4l0.4-0.9l0.4-0.4V419l0.4-0.4v-0.9l0.4-0.9v-1.2l0.4-1.2v-5.7l-0.4-1.2V406
			l-0.4-0.4v-1.1l-0.4-0.9v-0.4l-0.4-0.9l-0.4-0.4V401l-0.4-0.4l-0.4-0.4l-0.4-0.9l-1.6-1.6l-0.9-0.4l-0.9-0.9h-0.9l-0.4-0.4h-0.9
			l-0.9-0.4L568.4,395.8z M568.4,437.2l-1.6-0.4h-1.2c-30.2-1.9-29.4-51.1,1.2-51.3l1.6-0.4l1.2,0.4h2.9c6.2,1,8.3,2.7,13.1,6.2
			l0.9,0.9l0.9,0.9l0.4,1.2l0.9,0.9l0.9,1.2l0.4,0.9l0.9,1.2l0.4,1.2l0.4,0.9l0.9,2.5v1.2l0.4,1.2l0.4,1.6v5.3
			c0,4.5-1.6,10.6-4.5,14.4l-0.9,0.9l-0.4,1.2c-3.4,3.2-8.7,7.1-13.5,7.4l-1.2,0.4h-3.1L568.4,437.2z M632.5,436v-32.5l-0.4-0.9
			v-1.2l-0.4-0.4v-0.9l-0.4-0.4v-0.4h-0.4l-0.4-0.4v-0.4l-0.9-0.9h-0.3v-0.4l-0.4-0.4h-0.4l-1.6-0.9h-1.2l-0.9-0.4h-2.1
			c-1.7-0.2-6.3,0.5-7.8,1.2l-1.2,0.4l-0.9,0.4v38.2h-11.9v-39.1c0.3-4.2-0.6-2.7-0.4-6.2l-0.4-0.9l5.7-1.6l2.5-0.9
			c2.5-0.8,9-2.3,11.5-2.1h1.6l1.2-0.4l1.2,0.4h5.3l0.9,0.4h1.2l1.6,0.9h1.2c6.4,2.6,10,8,10.3,14.8v34.5h-11.6V436z"/>
	</g>
	<path class="st0" d="M866.6,299.2l-0.9-1.2l-1.2-0.9l-0.9-1.2l-1.2-0.9l-2.5,1.2c-11.6,6-22.6,12.8-31.2,22.6l-2.1,1.6l0.9,3.2
		c3.8,32.4,2.7,61.4-8.7,92l-0.9,1.6l1.2,2.1c4.9,8.4,14.5,18.9,22.6,24.2l2.1,1.6l1.2-0.9c2.4-1.7,5.4-2.6,6.6-4.1l1.2-0.9
		l-1.6-1.6c-34.1-42.4-28.7-102,13.1-137.2L866.6,299.2z"/>
	<path class="st0" d="M845.3,282.8l-2.5-1.6l-1.2-0.4l-1.2-0.9l-2.9,1.2c-5,2.9-10.2,5.2-14.8,8.7l-2.1,1.2l0.4,1.6l2.5,9.8l0.4,1.6
		l2.5-2.9c4.9-5.8,10.6-10.8,16-16L845.3,282.8z M818.1,454.5l1.6-0.4c3.6-0.5,5.2-1.1,8.7-2.1l1.2-0.4l-2.1-2.9
		c-4.9-5.2-9.5-10.6-13.1-16.9l-2.1-2.9l-1.2,1.6c-0.9,3.4-4.9,7.4-6.2,9.8l-1.2,1.6l1.6,1.6c3.6,4,7,6.1,11,9.4L818.1,454.5z"/>
	<path class="st0" d="M890.4,342.4l-1.6,1.6c-19.2,17.6-22.6,43-9.1,65.4l0.4,0.9l1.6-2.5c9.7-18,14.1-42.5,9-62.4L890.4,342.4z"/>
	<path class="st0" d="M862.1,371.5v-1.6c2.3-17.1,8.3-34.2,19.3-47.6l1.2-1.2l-0.9-1.2l-0.9-1.6l-0.9-1.2l-0.4-1.2l-2.5,1.2
		c-43.8,25.7-50.7,76.8-14.4,112.1l1.2,1.6l1.2-1.2c1.5-1.7,4.3-3.9,5.3-5.7l0.9-0.9l-0.9-1.2c-7.5-16-10.3-30.7-9.1-48.5
		L862.1,371.5z"/>
	<path class="st0" d="M736,297.2l-1.2,1.2c-14.8,14.6-25.1,35.9-26.3,56.7l-0.4,2.1l1.2-1.2c14.8-14.9,23.1-36.3,26.7-56.7V297.2z"
		/>
	<path class="st0" d="M754.5,283.2l-1.2,0.9l-0.9,0.4l-1.2,0.9c-2.6,2.4-4.4,17.6-6.6,22.6l-1.2,3.2l-0.9,3.2
		c-3.2,8.1-5,16.9-9.8,24.2l-2.5,5.7l-1.2,2.5l-1.6,2.5c-2.8,5.8-6.8,10.9-10.3,16.5l-1.6,2.5l-1.6,2.1c-7,9-5.3,4.1-3.2,14.8l1.2,5
		l3.2-2.5c30.8-20.1,42.3-66.2,39.4-101.1L754.5,283.2z"/>
	<path class="st0" d="M829.6,345.2v-2.5l-0.4-2.5c-0.3-12.4-2.8-23.5-5-35.7l-0.9-2.5l-0.4-2.1l-0.4-2.5c-1.3-2.7-1.9-7.9-3.2-10.7
		l-0.9-2.5l-0.4-2.1l-4.1-10.3l-1.2-0.4h-2.7l-1.2-0.4l0.9,6.6c5.5,57.4,2.4,123.5-37.8,168.8l-3.7,3.7l1.2,0.4l1.6,0.9l1.2,0.4
		c4.3,1.6,7.3,1.5,11.5,2.9h1.6l1.2,0.4h1.6l1.6,0.4h1.2l5-4.1l10.3-12.3l2.1-2.9l1.6-2.9c14.6-23.4,20.2-51.5,19.7-78.9
		L829.6,345.2z"/>
	<path class="st0" d="M793.5,271.3h-1.2l-1.2,0.4h-2.9l0.4,4.5c0.5,51.3-8.7,114.3-47.3,151.6l-4.1,3.7l1.6,1.2
		c2.3,2.4,7.5,6.1,10.3,7.8l1.6,1.2l5.3-3.7c49.4-37.9,53.1-106.1,39.1-161.8L793.5,271.3z"/>
	<path class="st0" d="M773,275l-0.9,0.4l-3.7,1.2v4.5c-3.8,44.2-14.6,89.4-47.3,121.7l-3.2,2.9l0.9,2.1c1.7,3.4,4.1,6.3,6.2,9.4
		l0.9,1.6l4.5-2.9c42.1-29.1,52.4-89,43.9-136.4L773,275z"/>
</g>
</svg>
