<?xml version="1.0" encoding="utf-8"?>
<!-- Generator: Adobe Illustrator 28.2.0, SVG Export Plug-In . SVG Version: 6.00 Build 0)  -->
<svg version="1.1" id="Layer_1" xmlns="http://www.w3.org/2000/svg" xmlns:xlink="http://www.w3.org/1999/xlink" x="0px" y="0px"
	 viewBox="0 0 1200 800" style="enable-background:new 0 0 1200 800;" xml:space="preserve">
<style type="text/css">
	.st0{fill:#E2E8F0;}
</style>
<path class="st0" d="M626.1,327.8c2,4,0.8,9.3-1.3,12.9l-16,36.1l-0.1,0.2l-5.8-36.6c-0.5-3.5,3.3-5,5.5-6.7c-0.1-0.5-0.7-0.5-1-0.7
	l-5.4-0.1l-0.2-0.2c0-4.5,2.5-8.7,6.6-10.9c4.3-2.5,10.4-1.8,14.2,1.4C624.1,324.4,625.4,326,626.1,327.8"/>
<path class="st0" d="M596.6,326.5c1.3,2.4,2.1,5.2,1.6,8.2l-6.5,41.9c0,0.1,0,0.1-0.1,0.1l-1.7-3.4l-16.4-36.6
	c-1.5-4.7-0.1-9.6,3.3-13c3.5-3.5,9.1-4.5,13.7-2.6C592.9,322.3,595.2,324.2,596.6,326.5"/>
<path class="st0" d="M649.8,344.2c2.2,3.8,1.7,9.4-0.7,12.9c-1.5,2.5-4,3.7-6.1,5.3l-34,23.3h-0.1l0.4-1.1l18-40.6
	c2.7-4.8,7.8-7.2,13.3-6.5C644.3,338.1,648,340.6,649.8,344.2"/>
<path class="st0" d="M572.7,343.9l18.7,41.7h-0.3l-37.8-26c-3.8-3.2-5.4-8.1-4.1-13c1-3.7,4-7.1,7.7-8.5
	C562.9,336,569.5,338.3,572.7,343.9"/>
<path class="st0" d="M659.7,373.6c1.9,4,1.1,9.4-1.5,12.8c-2.7,3.2-6.2,5-10.4,4.9l-40.3,0l33.7-23.5c3.3-2.1,8.3-2.5,11.9-0.8
	C655.8,368.2,658.5,370.9,659.7,373.6"/>
<path class="st0" d="M540.5,373.6c-1.9,4-1.1,9.4,1.6,12.8c2.7,3.2,6.2,5,10.4,4.9l40.3,0L559,367.9c-3.3-2.1-8.3-2.5-11.9-0.8
	C544.3,368.2,541.7,370.9,540.5,373.6"/>
<path class="st0" d="M468.2,415.4c-19.6,0-35.5,15.9-35.5,35.5c0,19.6,15.9,35.5,35.5,35.5c19.6,0,35.5-15.9,35.5-35.5
	C503.7,431.4,487.7,415.4,468.2,415.4 M468.2,479.4c-15.7,0-28.5-12.8-28.5-28.5c0-15.7,12.8-28.5,28.5-28.5
	c15.7,0,28.5,12.8,28.5,28.5C496.7,466.6,483.9,479.4,468.2,479.4 M774,451.4c-1.9-1-13.5-7-15.1-7.8c-6.1-3.1-8.2-5.8-8.2-10.5
	c0-6.5,5.3-10.6,13.5-10.6c4.8,0,9.5,2.1,12.2,3.7c0.5,0.3,1.1,0.4,1.7,0.4c1.9,0,3.5-1.6,3.5-3.5c0-1.2-0.7-2.4-1.7-3
	c-3.4-1.9-9.3-4.6-15.7-4.6c-12.1,0-20.5,7.2-20.5,17.6c0,9.3,6.1,13.7,12.1,16.8c1.7,0.9,13.4,6.9,15.1,7.8
	c4.6,2.4,7.2,6.1,7.2,10.2c0,5.6-4.7,11.6-13.5,11.6c-8.5,0-15.2-5.7-17-7.5l-0.5-0.5l-5.2,4.7l0.6,0.6c2.3,2.3,10.7,9.7,22.1,9.7
	c12.8,0,20.5-9.4,20.5-18.5C785,461,781,455,774,451.4 M395.5,422.4c7.6,0,14.8,3,20.1,8.3c1.3,1.3,3.7,1.3,4.9,0
	c0.7-0.6,1-1.5,1-2.5c0-0.9-0.4-1.8-1-2.5l-0.4-0.4c-6.6-6.4-15.4-10-24.7-10c-19.6,0-35.5,15.9-35.5,35.5
	c0,19.6,15.9,35.5,35.5,35.5c10.3,0,19.6-4.4,26.1-11.5l-4.9-4.9c-5.2,5.8-12.8,9.4-21.2,9.4c-15.7,0-28.5-12.8-28.5-28.5
	C367,435.2,379.8,422.4,395.5,422.4 M635.9,422.4c7.6,0,14.8,3,20.1,8.3c1.3,1.3,3.7,1.3,4.9,0c0.7-0.6,1-1.5,1-2.5
	c0-0.9-0.4-1.8-1-2.5l-0.4-0.4c-6.7-6.4-15.4-10-24.7-10c-19.6,0-35.5,15.9-35.5,35.5c0,19.6,15.9,35.5,35.5,35.5
	c10.3,0,19.6-4.4,26.1-11.5l-4.9-4.9c-5.2,5.8-12.8,9.4-21.2,9.4c-15.7,0-28.5-12.8-28.5-28.5C607.4,435.2,620.2,422.4,635.9,422.4
	 M575.8,415.4c-1.3,0-2.3,0.8-2.9,1.9c-0.6,1.1-20.9,51.3-20.9,51.3c0,0-20.3-50.2-20.9-51.3c-0.6-1.1-1.6-1.9-2.9-1.9
	c-1.5,0-2.7,1.1-3.1,2.5c-0.4,1.4-11.9,64.6-11.9,64.6c0,0.2-0.1,0.4-0.1,0.6c0,1.7,1.4,3.1,3.1,3.1c1.5,0,2.8-1.1,3.1-2.5l9.9-54.1
	c0,0,19.1,47.3,19.7,48.4c0.6,1.1,1.6,2,2.9,2c1.3,0,2.4-0.9,2.9-2c0.6-1.1,19.7-48.4,19.7-48.4L585,486h6.4c0,0-12.1-66.6-12.5-68
	C578.5,416.6,577.3,415.4,575.8,415.4 M701.9,415.4c-1.3,0-2.4,0.9-2.9,2c-0.6,1.1-26.3,64.6-26.3,64.6c-0.2,0.4-0.2,0.8-0.2,1.2
	c0,1.7,1.4,3.2,3.1,3.2c1.3,0,2.5-0.8,2.9-2l10-24.5h26.8L726,486h6.8c0,0-27.3-67.4-27.9-68.6C704.3,416.3,703.3,415.4,701.9,415.4
	 M691.4,452.9l10.5-25.9l10.6,25.9H691.4z M836.5,415.8H797c-1.9,0-3.5,1.6-3.5,3.5c0,1.9,1.6,3.5,3.5,3.5h16.6V486h6.4v-63.2h16.5
	c1.9,0,3.5-1.6,3.5-3.5C840,417.4,838.4,415.8,836.5,415.8"/>
</svg>
