<?xml version="1.0" encoding="utf-8"?>
<!-- Generator: Adobe Illustrator 28.2.0, SVG Export Plug-In . SVG Version: 6.00 Build 0)  -->
<svg version="1.1" id="Layer_1" xmlns="http://www.w3.org/2000/svg" xmlns:xlink="http://www.w3.org/1999/xlink" x="0px" y="0px"
	 viewBox="0 0 1200 800" style="enable-background:new 0 0 1200 800;" xml:space="preserve">
<style type="text/css">
	.st0{fill:#E2E8F0;}
</style>
<path class="st0" d="M362.6,446c-8.2-5.2-14.3-23-14.3-44.1c0-0.8,0-1.5,0-2.3l0,0c-22.9-3.6-39.5-13.5-39.9-25.1l-0.1,0.1
	c-5.6,7-8.8,15-8.8,23.6c0,25.2,27.7,45.9,62.9,47.8L362.6,446z M289,400c0-28.3,35.2-51.2,78.5-51.2s78.5,22.9,78.5,51.2
	s-35.2,51.2-78.5,51.2S289,428.3,289,400z M367.6,356.2c8.4,0,15.5,12.7,18.1,30.4l0,0c16.3-2.5,27.7-8.4,27.7-15.2
	c0-9.1-20.5-16.5-45.8-16.5s-45.8,7.4-45.8,16.5c0,6.8,11.4,12.7,27.7,15.2l0,0C352.1,368.9,359.2,356.2,367.6,356.2L367.6,356.2z
	 M372.6,445.9c35.2-1.8,62.9-22.5,62.9-47.8c0-8.6-3.2-16.6-8.8-23.6l-0.1-0.1c-0.4,11.7-17,21.5-39.9,25.1l0,0c0,0.8,0,1.5,0,2.3
	c0,21.1-6.1,39-14.3,44.1L372.6,445.9z M367.6,388c3.8,0,7.4-0.2,10.9-0.5l0,0c-1.7-11.4-6-19.4-10.9-19.4s-9.1,8-10.9,19.4l0,0
	C360.2,387.8,363.8,388,367.6,388z M367.6,430c6.3,0,11.4-13.1,11.7-29.6l0,0c-3.8,0.4-7.7,0.5-11.8,0.5s-8-0.2-11.8-0.5l0,0
	C356.1,416.9,361.2,430,367.6,430z M689.7,400c0-21.6,17.5-39.1,39.1-39.1c21.6,0,39.1,17.5,39.1,39.1c0,21.6-17.5,39.1-39.1,39.1
	C707.2,439.1,689.7,421.6,689.7,400L689.7,400z M728.8,424.8c12.1,0,21.8-11.1,21.8-24.8c0-13.7-9.8-24.8-21.8-24.8
	c-12.1,0-21.8,11.1-21.8,24.8C707,413.7,716.8,424.8,728.8,424.8z M812.3,377.2v60.1h-16.5v-60.1h0.1h-23v-13.6h62.4v13.6
	L812.3,377.2L812.3,377.2z M855.2,420.7L855.2,420.7l-6.3,16.6h-19.2l30.4-73.7h20.5l30.4,73.7h-19.2l-6.3-16.6l0,0h-15.1
	L855.2,420.7z M870.3,408.3h10.4l0,0l-10.3-27h-0.1l-10.3,27l0,0H870.3z M508.6,377.2v60.1h-16.5v-60.1h0.1h-23v-13.6h62.4v13.6
	L508.6,377.2L508.6,377.2z M535.8,400c0-21.6,17.5-39.1,39.1-39.1c21.6,0,39.1,17.5,39.1,39.1c0,21.6-17.5,39.1-39.1,39.1
	C553.3,439.1,535.8,421.6,535.8,400z M574.9,424.8c12.1,0,21.8-11.1,21.8-24.8c0-13.7-9.8-24.8-21.8-24.8s-21.8,11.1-21.8,24.8
	C553.1,413.7,562.9,424.8,574.9,424.8z M651.9,437.3h8.4v-28l28.7-45.7h-19.2l-17.9,31l-17.9-31h-19.2l28.7,45.7v28L651.9,437.3
	L651.9,437.3z"/>
</svg>
