<?xml version="1.0" encoding="utf-8"?>
<!-- Generator: Adobe Illustrator 28.2.0, SVG Export Plug-In . SVG Version: 6.00 Build 0)  -->
<svg version="1.1" id="Layer_1" xmlns="http://www.w3.org/2000/svg" xmlns:xlink="http://www.w3.org/1999/xlink" x="0px" y="0px"
	 viewBox="0 0 1200 800" style="enable-background:new 0 0 1200 800;" xml:space="preserve">
<style type="text/css">
	.st0{fill:#E2E8F0;}
</style>
<path id="polygon4959" class="st0" d="M650.8,363.9v18.8l60.6-24.4v-14.9l-60.6-24.4v18.1l35.4,13.8L650.8,363.9z"/>
<path id="path4961" class="st0" d="M325.2,406.7c-17,0-29.4,7.4-30.5,23.4h18.8v-0.4c0.4-5.3,5.3-8.9,10.6-8.5
	c7.1,0,10.6,4.3,10.6,11.3v3.5h-8.5c-18.4,0-33.7,5.7-33.7,23.4v0.7c0,14.5,10.6,20.9,23.4,20.9c7.8,0.4,14.9-3.5,19.5-9.6v8.5h19.1
	v-47.8C354.3,413.8,341.9,406.7,325.2,406.7L325.2,406.7z M321.3,466.6c-6.7,0-9.9-3.5-9.9-8.5v-0.7c0-6.4,5-8.9,14.9-8.9h7.8v6.7
	C334.5,463.1,328.1,466.6,321.3,466.6L321.3,466.6z"/>
<path id="path4963" class="st0" d="M400,465.9c-9.6,0-14.5-6.4-14.5-20.9v-2.1c0-13.8,5.7-20.9,14.5-20.9c6.7,0,10.6,4.6,11.7,11.3
	h18.8c-1.4-18.4-14.9-26.9-30.8-26.9c-18.8,0-34,12.8-34,36.8v0.7c0,24.1,14.5,36.1,34,36.1c19.1,0,30.1-11.7,31.5-27.3h-18.1
	C411.7,460.9,406.7,465.9,400,465.9L400,465.9z"/>
<path id="path4965" class="st0" d="M473.7,465.9c-9.6,0-14.5-6.4-14.5-20.9v-2.1c0-13.8,5.7-20.9,14.5-20.9
	c6.7,0,10.6,4.6,11.7,11.3h18.8c-1.4-18.4-14.9-26.9-30.8-26.9c-18.8,0-34,12.8-34,36.8v0.7c0,24.1,14.5,36.1,34,36.1
	c19.1,0,30.1-11.7,31.2-27.3h-17.7C485.4,460.9,480.4,465.9,473.7,465.9L473.7,465.9z"/>
<path id="path4967" class="st0" d="M547.7,466.2c-8.5,0-13.8-5-14.9-17.7h46.1V440c0-23.4-14.9-33.7-32.2-33.7
	c-19.1,0-34,13.1-34,36.8v1.4c0,23.7,13.8,35.8,34.4,35.8c18.4,0,29.8-10.3,31.5-23.7h-18.4C559.4,463.1,553.8,467,547.7,466.2
	L547.7,466.2z M546.7,420.2c7.8,0,12.8,4.6,13.1,14.9h-26.2C535,424.1,540.7,420.9,546.7,420.2z"/>
<path id="polygon4969" class="st0" d="M533.2,435.4L533.2,435.4L533.2,435.4z"/>
<path id="path4971" class="st0" d="M632.8,406.7c-8.9-0.4-17.4,4.3-21.3,12v-10.6H592V479h19.5v-45c0.4-6.4,6-11.7,12.4-11.3
	c7.1,0,10.6,3.9,10.6,12V479h19.8v-47.5C654,414.2,645.5,406.7,632.8,406.7L632.8,406.7z"/>
<path id="path4973" class="st0" d="M690.9,456.7V423h13.5v-14.9h-13.5v-21.6l-19.5,8.5v13.1h-8.5V423h8.5v35.8
	c0,14.5,7.1,21.3,22.7,21.3c3.9,0,7.4-0.4,11.3-1.4v-15.6c-2.1,0.7-4.6,1.1-6.7,1.1C693.7,464.5,690.9,462,690.9,456.7L690.9,456.7z
	"/>
<path id="path4975" class="st0" d="M759.3,452.4v2.1c-0.4,6.4-6,11.7-12.4,11.3c-7.1,0-10.3-3.9-10.3-12v-45.7h-19.8V456
	c0,16.7,9.6,24.4,22.3,24.4c8.5,0.4,16.7-4.3,20.9-12V479h19.8v-70.9H760L759.3,452.4z"/>
<path id="path4977" class="st0" d="M813.5,421.2v-13.5H794v70.9h19.5v-36.5c0-11.7,7.8-15.9,21.3-15.9v-19.5
	C825.2,406.7,816.7,412.4,813.5,421.2L813.5,421.2z"/>
<path id="path4979" class="st0" d="M907.3,440c0-23.4-14.9-33.3-32.2-33.3c-19.1,0-34,13.1-34,36.8v1.4c0,23.7,13.8,35.8,34.4,35.8
	c18.4,0,29.4-10.3,31.5-23.7h-18.4c-1.4,6-7.1,9.9-13.1,9.6c-8.5,0-13.8-5-14.9-17.7h46.1V440H907.3L907.3,440z M861.3,435.4
	c1.4-11.7,7.1-14.9,13.5-14.9c7.8,0,12.8,4.6,13.1,14.9H861.3z"/>
</svg>
