<?xml version="1.0" encoding="utf-8"?>
<!-- Generator: Adobe Illustrator 28.2.0, SVG Export Plug-In . SVG Version: 6.00 Build 0)  -->
<svg version="1.1" id="Layer_1" xmlns="http://www.w3.org/2000/svg" xmlns:xlink="http://www.w3.org/1999/xlink" x="0px" y="0px"
	 viewBox="0 0 1200 800" style="enable-background:new 0 0 1200 800;" xml:space="preserve">
<style type="text/css">
	.st0{fill-rule:evenodd;clip-rule:evenodd;fill:#E2E8F0;}
</style>
<g>
	<path class="st0" d="M653,437.4c-25.6,18.8-62.6,28.8-94.5,28.8c-44.8,0-85-16.5-115.5-44.1c-2.4-2.2-0.2-5.1,2.7-3.5
		c32.9,19.2,73.5,30.7,115.5,30.7c28.4,0,59.5-5.9,88.1-18C653.5,429.5,657.2,434.3,653,437.4"/>
	<path class="st0" d="M663.6,425.3c-3.2-4.2-21.6-2-29.9-1c-2.5,0.3-2.9-1.8-0.6-3.5c14.7-10.3,38.5-7.3,41.4-3.9
		c2.8,3.5-0.7,27.5-14.4,39c-2.1,1.7-4.2,0.8-3.2-1.5C660,446.7,666.9,429.4,663.6,425.3"/>
	<path class="st0" d="M634.4,348.2v-10c0-1.5,1.2-2.5,2.5-2.5h44.8c1.4,0,2.5,1,2.5,2.5v8.5c0,1.4-1.3,3.3-3.3,6.2l-23.2,33.2
		c8.7-0.2,17.8,1,25.5,5.4c1.7,1,2.2,2.4,2.4,3.9v10.6c0,1.5-1.6,3.1-3.3,2.3c-13.7-7.3-32.1-8-47.3,0.1c-1.5,0.8-3.2-0.8-3.2-2.3
		v-10.2c0-1.6,0-4.4,1.6-6.9l26.9-38.5h-23.3C635.5,350.7,634.4,349.7,634.4,348.2 M471,410.6h-13.6c-1.3-0.1-2.3-1-2.4-2.3v-69.9
		c0-1.4,1.2-2.5,2.7-2.5h12.7c1.3,0,2.4,1,2.4,2.3v9.1h0.2c3.3-8.9,9.6-12.9,17.9-12.9c8.5,0,13.8,4.2,17.7,12.9
		c3.3-8.9,10.7-12.9,18.8-12.9c5.7,0,12,2.3,15.8,7.6c4.3,5.9,3.5,14.4,3.5,21.9V408c0,1.4-1.2,2.5-2.7,2.5h-13.6
		c-1.4-0.1-2.4-1.2-2.4-2.5v-37c0-3,0.2-10.3-0.3-13.2c-1-4.7-4-6-8-6c-3.3,0-6.7,2.2-8.2,5.8c-1.4,3.6-1.3,9.5-1.3,13.4v37.1
		c0,1.4-1.2,2.5-2.7,2.5h-13.6c-1.4-0.1-2.4-1.2-2.4-2.5v-37c0-7.8,1.3-19.3-8.4-19.3c-9.8,0-9.5,11.2-9.5,19.3v37
		C473.7,409.5,472.5,410.6,471,410.6 M722.7,334.4c20.2,0,31.1,17.3,31.1,39.5c0,21.3-12.1,38.2-31.1,38.2
		c-19.8,0-30.7-17.3-30.7-39C692.1,351.3,703,334.4,722.7,334.4 M722.9,348.7c-10,0-10.6,13.7-10.6,22.1c0,8.5-0.1,26.8,10.5,26.8
		c10.5,0,11.1-14.7,11.1-23.6c0-5.9-0.2-12.9-2.1-18.6C730.2,350.5,727.1,348.7,722.9,348.7 M780.1,410.6h-13.6
		c-1.4-0.1-2.4-1.2-2.4-2.5v-69.9c0.1-1.3,1.3-2.3,2.7-2.3h12.6c1.2,0,2.2,0.8,2.4,2v10.7h0.2c3.8-9.6,9.1-14.1,18.6-14.1
		c6.1,0,12.1,2.2,15.9,8.2c3.6,5.5,3.6,15,3.6,21.8v44c-0.1,1.3-1.3,2.2-2.7,2.2h-13.6c-1.3-0.1-2.3-1-2.4-2.2v-38
		c0-7.6,0.9-18.8-8.5-18.8c-3.3,0-6.3,2.2-7.8,5.5c-2,4.3-2.2,8.5-2.2,13.3v37.6C782.7,409.5,781.5,410.6,780.1,410.6 M598.6,377.2
		c0,5.3,0.1,9.7-2.5,14.4c-2.2,3.8-5.7,6.2-9.5,6.2c-5.2,0-8.3-4-8.3-9.8c0-11.7,10.4-13.7,20.3-13.7L598.6,377.2 M612.3,410.4
		c-0.9,0.8-2.2,0.8-3.2,0.3c-4.5-3.8-5.3-5.5-7.8-9.1c-7.5,7.6-12.8,9.9-22.5,9.9c-11.4,0-20.4-7-20.4-21.2c0-11.1,6-18.6,14.5-22.3
		c7.4-3.2,17.8-3.8,25.6-4.7v-1.7c0-3.2,0.2-7-1.6-9.8c-1.6-2.5-4.8-3.6-7.6-3.6c-5.2,0-9.8,2.7-11,8.2c-0.2,1.3-1.2,2.4-2.4,2.5
		l-13.2-1.4c-1.2-0.2-2.3-1.2-2.1-2.9c3-16,17.5-20.9,30.5-20.9c6.6,0,15.2,1.7,20.5,6.8c6.6,6.2,6,14.4,6,23.4v21.2
		c0,6.3,2.7,9.2,5.1,12.6c0.8,1.3,1,2.7,0,3.6C620.1,403.7,615.1,408,612.3,410.4L612.3,410.4 M420.1,377.2c0,5.3,0.1,9.7-2.5,14.4
		c-2.2,3.8-5.5,6.2-9.5,6.2c-5.2,0-8.3-4-8.3-9.8c0-11.7,10.4-13.7,20.2-13.7v2.9 M433.9,410.4c-0.9,0.8-2.2,0.8-3.2,0.3
		c-4.5-3.8-5.3-5.5-7.8-9.1c-7.4,7.6-12.7,9.9-22.4,9.9c-11.4,0-20.4-7-20.4-21.2c0-11.1,6-18.6,14.5-22.3
		c7.4-3.2,17.8-3.8,25.6-4.7v-1.7c0-3.2,0.2-7-1.6-9.8c-1.6-2.5-4.8-3.6-7.6-3.6c-5.2,0-9.8,2.7-11,8.2c-0.2,1.3-1.2,2.4-2.3,2.5
		l-13.3-1.4c-1.2-0.2-2.3-1.2-2.1-2.9c3-16,17.5-20.9,30.5-20.9c6.6,0,15.2,1.7,20.5,6.8c6.6,6.2,6,14.4,6,23.4v21.2
		c0,6.3,2.7,9.2,5.1,12.6c0.9,1.3,1,2.7,0,3.6C441.6,403.7,436.6,408,433.9,410.4L433.9,410.4"/>
</g>
</svg>
