<?xml version="1.0" encoding="utf-8"?>
<!-- Generator: Adobe Illustrator 28.2.0, SVG Export Plug-In . SVG Version: 6.00 Build 0)  -->
<svg version="1.1" id="svg9107" xmlns:svg="http://www.w3.org/2000/svg"
	 xmlns="http://www.w3.org/2000/svg" xmlns:xlink="http://www.w3.org/1999/xlink" x="0px" y="0px" viewBox="0 0 1200 800"
	 style="enable-background:new 0 0 1200 800;" xml:space="preserve">
<style type="text/css">
	.st0{fill:#E2E8F0;}
</style>
<g id="layer1" transform="translate(223.46289,-423.42224)">
	<path id="path329" class="st0" d="M99.3,792.9h10.2l21.3,55.8h0.8l11.6-29.3l-10.4-26.5H143l20.9,55.4h0.8l19.3-55.4h10.2
		l-26.5,69.6h-7.6l-12.8-32.1h-0.6L134,862.5h-7.6L99.3,792.9z"/>
	<path id="path331" class="st0" d="M363.2,790.9h10.2l21.3,55.8h0.8l11.6-29.3l-10.4-26.3h10.2l21.1,55.4h0.8l19.3-55.2h10.2
		l-26.5,69.6h-7.6l-12.8-32.1h-0.8l-12.8,32.1h-7.6L363.2,790.9z"/>
	<path id="path333" class="st0" d="M195.3,831.6L195.3,831.6l22.9-0.2v0.2H218v-1.2h0.2H218l-0.2-1.6h0.2l0,0l-0.8-1.2l-0.8-1.4l0,0
		l0,0l-1-1.4l0,0l0,0l-1.2-1l0,0l0,0L213,823l0,0l0,0l-1.8-0.8l0,0v0.2l-1.6-0.4v-0.2v0.2l-1.4-0.2v-0.2v0.2h-2.6v-0.2v0.2l-1.4,0.2
		v-0.2v0.2l-1.4,0.4v-0.2l0,0l-1.6,0.8l0,0l0,0l-1.4,1l0,0l0,0l-1.4,1.2l0,0l0,0l-1.2,1.4l0,0l0,0l-0.8,1.2l0,0l0,0l-0.8,1.2l0,0
		l0,0l-0.4,1l0,0h0.2l-0.2,1h-0.2h0.2V831.6L195.3,831.6L195.3,831.6L195.3,831.6L195.3,831.6l-0.2-1l0,0l0,0l0.2-1l0,0l0,0l0.4-1
		l0,0l0,0l0.8-1.2l0,0l0,0l0.8-1.2l0,0l0,0l1.2-1.4l0,0l0,0l1.4-1.2l0,0l0,0l1.4-1l0,0l0,0l1.6-0.8l0,0l0,0l1.4-0.4l0,0l0,0l1.4-0.2
		l0,0l0,0h2.6l0,0l0,0l1.4,0.2l0,0l0,0l1.6,0.4l0,0l0,0l1.8,0.8l0,0l0,0l1.2,0.8l0,0l0,0l1.2,1l0,0l0,0l1,1.4l0,0l0,0l0.8,1.4
		l0.8,1.2l0,0l0,0l0.2,1.6l0,0l0,0v1.2v0.2H218L195.3,831.6L195.3,831.6L195.3,831.6L195.3,831.6 M641,828.4L641,828.4l-0.2-1.2h0.2
		h-0.2l-0.2-0.8l-0.2-1h0.2l0,0l-0.6-1.2l-0.6-1.2l0,0l0,0l-1-1.4l0,0l0,0l-1.2-1.2l0,0l0,0l-1.4-1l0,0l0,0l-1.6-0.8l0,0v0.2
		l-1.6-0.6V818v0.2L631,818v-0.2v0.2h-2.2v-0.2v0.2l-1.4,0.2V818v0.2l-1.6,0.4v-0.2l0,0l-1.8,1l0,0l0,0l-1.4,1l0,0l0,0l-1.2,1.2l0,0
		l0,0l-1.2,1.4l0,0l0,0l-0.8,1.4l0,0l0,0l-0.6,1.4h-0.2h0.2l-0.2,1.2h-0.2h0.2l-0.2,1.2h-0.2v0.2H641L641,828.4L641,828.4L641,828.4
		L641,828.4l-22.9,0.2h-0.2v-0.2l0.2-1.2l0,0l0,0l0.2-1.2l0,0l0,0l0.6-1.4l0,0l0,0l0.8-1.4l0,0l0,0l1.2-1.4l0,0l0,0l1.2-1.2l0,0l0,0
		l1.4-1l0,0l0,0l1.8-1l0,0l0,0l1.6-0.4l0,0l0,0l1.4-0.2l0,0l0,0h2.2l0,0l0,0l1.6,0.2l0,0l0,0l1.6,0.6l0,0l0,0l1.6,0.8l0,0l0,0l1.4,1
		l0,0l0,0l1.2,1.2l0,0l0,0l1,1.4l0,0l0,0l0.6,1.2l0.6,1.2l0,0l0,0l0.2,1l0.2,0.8l0,0l0,0L641,828.4L641,828.4L641,828.4L641,828.4"
		/>
	<path id="path335" class="st0" d="M237.1,804.3c3,0,5.4-2.4,5.4-5.4c0-2.8-2.4-5.2-5.4-5.2s-5.4,2.4-5.4,5.2
		C231.8,802.1,234.1,804.3,237.1,804.3z"/>
	<path id="path337" class="st0" d="M237.1,804.3L237.1,804.3c2.8-0.2,5.2-2.4,5.2-5.4c0-2.8-2.4-5.2-5.2-5.2s-5.2,2.4-5.2,5.2
		C231.8,801.9,234.1,804.3,237.1,804.3L237.1,804.3L237.1,804.3c-3,0.2-5.4-2.4-5.4-5.4s2.4-5.4,5.4-5.4s5.4,2.4,5.4,5.4
		C242.5,802.1,240.1,804.5,237.1,804.3L237.1,804.3"/>
	<path id="path339" class="st0" d="M232.9,815.2h8.6v46.7h-8.6V815.2z"/>
	<path id="path341" class="st0" d="M268.2,821L268.2,821l-2,0.4v-0.2v0.2l-2.2,0.8V822l0,0l-1.6,1l0,0l0,0l-1.2,1l0,0l0,0l-1.2,1.2
		l0,0l0,0l-0.8,1.2l0,0l0,0l-1,1.6l0,0l0,0l-0.8,1.4l0,0h0.2l-0.4,1.8l-0.4,1.6h-0.2h0.2l-0.2,2.2l-0.2,1.4h-0.2h0.2v1.4h-0.2h0.2
		v1.6h-0.2h0.2l0.2,1.8l0.2,1.8h-0.2h0.2l0.4,1.4l0.6,1.8h-0.2l0,0l0.8,1.8l0,0l0,0l1,1.6l0,0l0,0l1.2,1.4l0,0l0,0l1.2,1.2l0,0l0,0
		l1.2,0.8l0,0l0,0l1.4,0.6l0,0v-0.2l1.2,0.6v0.2v-0.2l1.6,0.4v0.2v-0.2l2,0.2v0.2v-0.2h2.2v0.2v-0.2l1-0.2v0.2v-0.2l1.2-0.2v0.2
		v-0.2l2-0.8v0.2l0,0l1.6-1l0,0l0,0l1.4-1l0,0l0,0l1.2-1.2l0,0l0,0l0.6-1l0,0l0,0l0.6-1.2l0,0h-0.2l0.2-0.6h0.2H281V847h0.2H281
		v-15.8h0.2H281l-0.2-1l-0.2-0.8h0.2h-0.2l-0.2-1h0.2h-0.2l-0.4-1l-0.8-1.6l0,0l0,0l-1.2-1.6l0,0l0,0l-1.4-1.4l0,0l0,0l-1.8-1l0,0
		v0.2l-1.8-0.6v-0.2v0.2l-1.6-0.4v-0.2v0.2l-1.6-0.2v-0.2v0.2L268.2,821L268.2,821L268.2,821L268.2,821L268.2,821h2l0,0l0,0l1.6,0.2
		l0,0l0,0l1.6,0.4l0,0l0,0l1.8,0.6l0,0l0,0l1.8,1l0,0l0,0l1.4,1.4l0,0l0,0l1.2,1.6l0,0l0,0l0.8,1.6l0.4,1l0,0l0,0l0.2,1l0,0l0,0
		l0.2,0.8l0.2,1l0,0l0,0v15.8l0,0l0,0v0.6l0,0l0,0l-0.2,0.6l0,0l0,0l-0.6,1.2l0,0l0,0l-0.6,1l0,0l0,0l-1.6,1.6l0,0l0,0l-1.4,1l0,0
		l0,0l-1.6,1l0,0l0,0l-2,0.8l0,0l0,0l-1.2,0.2l0,0l0,0l-1,0.2l0,0l0,0H269l0,0l0,0l-2-0.2l0,0l0,0l-1.6-0.4l0,0l0,0l-1-0.6l0,0l0,0
		l-1.4-0.6l0,0l0,0l-1.2-0.8l0,0l0,0l-1.2-1.2l0,0l0,0l-1.2-1.4l0,0l0,0l-1-1.6l0,0l0,0l-0.8-1.8l0,0l0,0l-0.6-1.8l-0.4-1.4l0,0l0,0
		l-0.2-1.8l-0.2-1.8l0,0l0,0v-1.6l0,0l0,0v-1.4l0,0l0,0l0.2-1.4l0.2-2.2l0,0l0,0l0.4-1.6l0.4-1.8l0,0l0,0l0.8-1.4l0,0l0,0l1-1.6l0,0
		l0,0l0.8-1.2l0,0l0,0l1.2-1.2l0,0l0,0l1.2-1l0,0l0,0l1.6-1l0,0l0,0l2.2-0.8l0,0l0,0L268.2,821L268.2,821L268.2,821L268.2,821"/>
	<path id="path343" class="st0" d="M564.8,789.9l0.2,69.6h8.4v-34.1l0.6-1l1-1l1.4-1.2l1.8-1.2l1.8-1l1.8-0.8l2-0.4l1.8-0.2h1.8
		l1.6,0.4l2,0.8l1.4,1l0.8,0.8l0.8,1l0.6,1.2l0.6,2l0.2,1.2l0.2,1.6l0.2,30.1h8.2l-0.2-32.9l-0.2-1.8l-0.4-1.8l-0.6-1.6l-0.6-1.4
		l-1-1.6l-0.8-1.2l-0.8-1l-1.2-1.2l-1.8-1.2l-1.8-1l-2-0.6l-2-0.6l-2-0.2h-3.8l-1.4,0.2l-1.6,0.4l-1.4,0.6l-1.4,0.6l-1.6,1l-1.8,1.2
		l-1.8,1.4H573v-26.5h-8.2V789.9z"/>
	<path id="path345" class="st0" d="M297.2,791.7v69.6h8.4v-33.9l0.6-0.8l1-1.2l1.2-1l1.6-1.2l2-1l1.8-0.8l2-0.6l1.8-0.2h1.8l1.8,0.4
		l1.8,0.8l1.6,1.2l1.2,1.4l0.8,1.8l0.6,1.8l0.2,1.2l0.2,1.6v30.1h8.2V828l-0.2-1.8l-0.2-1.6l-0.4-1.4l-0.6-1.4l-1.2-2.2l-1.4-1.8
		l-1.2-1.2l-1.2-1l-1-0.6l-1.6-0.8l-2-0.6l-1.2-0.4l-2-0.2h-1.8h-2.6l-1.8,0.2l-1.8,0.6l-1.8,0.6l-1,0.6l-1.2,0.8l-1.4,1l-0.8,0.8
		l-0.6,0.6h-1v-26.5L297.2,791.7L297.2,791.7z"/>
	<path id="path347" class="st0" d="M348.6,801.5h5.8v12.8h11.4v6.6h-11.4V835v12.4v1.8l0.2,1.4l0.4,1.2l0.6,1.2l0.8,0.8l0.8,0.6
		l1,0.4l1.2,0.2h1.4l1.8-0.2l1-0.2l1.2-0.4l1-0.6l1.2-0.6l2.4,6.6l-2,1l-1.8,0.6l-1.4,0.6l-1.4,0.4l-1.2,0.2l-1.2,0.2h-2h-2
		l-1.2-0.2l-1.6-0.4l-1.6-0.6l-1.6-1l-1.2-1l-1-1.2l-0.8-1.2l-0.6-1.6l-0.4-1.6l-0.2-1.8v-1.4v-28.7H338v-6.2l2.6-0.2l1.6-0.2
		l1.2-0.2l1.2-0.4l0.8-0.6l0.6-0.6l0.8-1l0.6-1l0.4-1l0.2-1.2l0.2-1v-1.2l0.2-1.8L348.6,801.5z"/>
	<path id="path349" class="st0" d="M499.4,799.7h6.4v13.6h11.2v6.4h-11.4V846l0.2,1.8l0.2,1.4l0.2,1.2l0.6,1l0.6,0.6l1,0.6l1,0.4
		l1.2,0.2h1.4h1.4l1.4-0.2l1.2-0.4l1.2-0.6l1-0.4l2.4,6.4l-1.8,1l-1.6,0.8l-1.2,0.4l-1.2,0.2l-1.2,0.2l-2,0.2h-3.4l-2-0.2l-1.4-0.4
		l-1.2-0.6l-1.2-0.6l-1-0.6l-1-0.8l-0.8-0.8l-0.6-0.8l-0.6-1l-0.6-1.6l-0.4-1.8l-0.2-1.8l-0.2-1.4v-28.7h-8v-6.2h2.4l1.8-0.2
		l1.2-0.2l1.2-0.4l0.8-0.6l0.8-0.6l0.6-0.8l0.4-1l0.4-1.2l0.2-1.4l0.2-2.2l0.2-2.4v-2.8H499.4z"/>
	<path id="path351" class="st0" d="M559.6,817l-4.6,6.6l-1.2-1l-1.6-1l-1.8-0.8l-1.6-0.6l-1.6-0.4l-1.4-0.2h-0.8h-2.6l-1.8,0.2
		l-2,0.6l-1.6,0.8l-1.6,1l-1.4,1l-1,1l-1,1l-0.8,1.4l-0.8,1.6l-0.6,1.4l-0.6,1.8l-0.2,1.6l-0.2,1.8v3.6l0.2,2l0.4,1.6l0.6,1.8
		l0.8,1.6l1,1.6l1,1.4l1,1l1.2,1.2l1.6,1l1.8,1l2,0.6l2,0.4h1.2h0.8l1.8-0.2l1.4-0.2l1.2-0.4l1.8-0.6l1.8-0.8l1.8-0.8l1.6-1l3.6,6
		l-1.2,1l-2,1.2l-1.6,0.8l-2,0.8l-1.8,0.6l-1.8,0.6l-1.2,0.2l-1.4,0.2h-0.8h-4l-1.2-0.2l-1.8-0.2l-2-0.6l-1.8-0.6l-1.8-0.8l-1.6-0.8
		l-1.6-1.2l-1.6-1.4l-1.6-1.6l-1.2-1.6l-1-1.4l-0.8-1.2l-1-1.8l-0.8-1.8l-0.8-2l-0.4-1.6l-0.2-1.8v-1.8v-4l0.2-2l0.2-1.4l0.2-1.4
		l0.4-1.6l0.6-1.8l1-2.2l1.2-2l1.2-1.8l1.2-1.6l1.2-1.2l1.2-1.2l1.6-1.2l1.8-1.2l1.8-1l1.6-0.6l1.8-0.6l1.4-0.4l1.4-0.2h1.4h3.8
		l1.6,0.2l1.8,0.4l2,0.6l2.4,0.8l2.6,1.2l1.8,1.2L559.6,817z"/>
	<path id="path353" class="st0" d="M651.8,814.2l0.6,1.4l0.6,1.2l0.6,1.2l0.4,1l0.2,1l0.4,1.2l0.4,1.6l0.2,1.8l0.2,1.6v32.9h8.2V829
		l0.2-1.2l0.6-1l0.8-1l0.8-1l1-1.2l1-1.2l1-1l1.2-0.8l1.4-0.8l1.4-0.6l1.2-0.2h1.2l1,0.2l1.6,0.6l1.2,0.4l1.2,0.6l2.4-7.4l-1.4-1
		l-1.6-0.8l-1.8-0.6l-1.8-0.4h-1.8h-1.8l-1.4,0.2l-1.2,0.4l-1.2,0.6l-1,0.8l-1,1l-0.8,0.8l-0.8,1l-0.8,1l-0.8,1l-0.6,0.6h-0.8
		l-0.2-0.8l-0.4-1l-0.2-1l-0.6-1.2l-0.6-1.4l-0.6-1l-0.8-1L651.8,814.2z"/>
	<path id="path355" class="st0" d="M710.2,821.6l3.4-6.2l-0.6-0.6l-1-0.6l-1.2-0.8l-1.4-0.8l-1.2-0.6l-1.2-0.6l-1.6-0.6l-1.8-0.2
		l-2.2-0.2h-2.6h-1.2l-1.2,0.2l-1.8,0.4l-1.6,0.6l-1.6,0.8l-1.2,0.6l-1.2,0.8l-1,0.8l-0.8,0.8l-0.8,1l-0.6,1l-0.6,1.2l-0.6,1.2
		l-0.4,1.4l-0.2,1.8v2.8l0.2,1.4l0.4,1.2l0.6,1l0.6,1.2l0.8,1l0.8,1l1,1l1,0.8l1.6,1l1.4,1l1.4,0.6l1.6,0.8l1.2,0.6l1.6,0.6l1.4,0.6
		l1.2,0.6l1.4,0.6l1,0.6l1,0.8l0.6,0.6l0.6,0.8l0.6,1.2l0.2,1.2v1.2l-0.2,1.2l-0.4,0.8l-0.6,0.8l-0.6,0.8l-0.8,0.6l-1,0.6l-0.8,0.4
		l-0.8,0.2l-1,0.2h-1h-2h-1.4l-1.2-0.2l-1.6-0.6l-1.2-0.4l-1.6-0.8l-1.2-0.8l-3-2.4l-4,6.2l1.2,1.2l1.2,1l1.2,0.8l1.4,0.8l1.6,0.8
		l1.6,0.6l1.6,0.6l2,0.4l2,0.2h3.4l1.8-0.2l1.6-0.2l2.4-0.6l1.8-0.8l1.2-0.8l1.4-1l1.6-1.4l1-1.2l0.8-1.2l0.8-1.4l0.6-1.6l0.4-2v-3
		l-0.4-2l-0.4-1.2l-0.8-1.4l-0.8-1.4l-1-1.2l-1.2-1l-1-1l-1.4-1l-1.8-1l-2.2-1l-2.2-1l-2-0.8l-2-0.8l-1.6-0.8l-1.6-1l-1.2-1.2
		l-0.6-0.8l-0.4-0.8l-0.2-0.8V823l0.2-1l0.4-0.8l0.6-0.8l0.8-0.8l1.2-0.8l1.6-0.4l1.6-0.2h2.6l1.6,0.2l1.4,0.4l1.6,0.6l2.2,1.2
		L710.2,821.6z"/>
	<path id="path357" class="st0" d="M121.1,802.7l-0.8-4.2l-0.4-1.6l-0.6-1.4l-0.8-1.6l-0.8-1.4l-1-1.2l-1.4-1.2l-2.6-1.8l-2.8-1.2
		l-2.8-0.6l-2.6-0.4l-2.6-0.2l-2.6,0.2l-2.8,0.6l-3,0.8l-2.4,1l-2.6,1.2l-2.6,1.6l-2.8,2l-1.8,1.6l-2,2l-1.8,2l-1.6,2.2l-1.6,2.6
		l-1.4,2.6l-1.2,2.8l-1,2.4L70,814l-0.6,2.6l-0.6,2.6l-0.2,0.8l-0.8-1.6l-0.6-2.4l-0.2-2.4l0.2-2.8l0.4-2.8l0.6-2.8l1-3.4l1.2-2.8
		l1.6-3.2l1.6-2.6l1.8-2.6l1.8-2l2-2l2.2-2l2.2-1.8l2.4-1.6l2.8-1.6l2.6-1.2l2.6-1l2.8-0.6l2.2-0.4l2.8-0.2h2.8l2.6,0.4l2.4,0.6
		l2.2,0.8l1.4,0.8l1.6,0.8l1.8,1.4l1.2,1.4l1.2,1.6l2,2.4l1.2,3.2l0.6,2.6v3l-0.2,2.8l-0.8,2.6L121.1,802.7z"/>
	<path id="path359" class="st0" d="M121.1,802.7L121.1,802.7l-0.8-4.2l-0.4-1.6l-0.6-1.4l-0.8-1.6l-0.8-1.4l-1-1.2l-1.4-1.2
		l-2.6-1.8l-2.8-1.2l-2.8-0.6l-2.6-0.4l-2.6-0.2l-2.6,0.2l-2.8,0.6l-3,0.8l-2.4,1l-2.6,1.2l-2.6,1.6l-2.8,2l-1.8,1.6l-2,2l-1.8,2
		l-1.6,2.2l-1.6,2.6l-1.4,2.6l-1.2,2.8l-1,2.4L70,814l-0.6,2.6l-0.6,2.6l-0.2,0.8l-0.8-1.6l-0.6-2.4l-0.2-2.4l0.2-2.8l0.4-2.8
		l0.6-2.8l1-3.4l1.2-2.8l1.6-3.2l1.6-2.6l1.8-2.6l1.8-2l2-2l2.2-2l2.2-1.8l2.4-1.6l2.8-1.6l2.6-1.2l2.6-1l2.8-0.6l2.2-0.4l2.8-0.2
		h2.8l2.6,0.4l2.4,0.6l2.2,0.8l1.4,0.8l1.6,0.8l1.8,1.4l1.2,1.4l1.2,1.6l2,2.4l1.2,3.2l0.6,2.6v3l-0.2,2.8l-0.8,2.6L121.1,802.7
		l0.8-2l0.8-2.6l0.2-2.8v-3l-0.6-2.6l-1.4-3.2l-1.6-2.4l-1.2-1.6l-1.2-1.4l-1.8-1.4l-1.6-0.8l-1.4-0.8l-2.2-0.8l-2.4-0.6l-2.6-0.4
		h-2.8l-2.8,0.2l-2.2,0.4l-2.8,0.6l-2.6,1l-2.6,1.2l-2.8,1.6l-2.4,1.6l-2.2,1.8l-2.2,2l-2,2l-1.8,2l-1.8,2.6l-1.6,2.6l-1.6,3.2
		l-1.2,2.8l-1,3.4l-0.6,2.8l-0.4,2.8l-0.2,2.8l0.2,2.4l0.6,2.4L69,820l0.2-0.8l0.6-2.6l0.6-2.6l0.8-2.6l1-2.4l1.2-2.8l1.4-2.6
		l1.6-2.6l1.6-2.2l1.8-2l2-2l1.8-1.6l2.8-2l2.6-1.6l2.6-1.2l2.4-1l3-0.8l2.8-0.6l2.6-0.2l2.6,0.2l2.6,0.4l2.8,0.6l2.8,1.2l2.6,1.8
		l1.4,1.2l1,1.2l0.8,1.4l0.8,1.6l0.6,1.4l0.4,1.6L121.1,802.7"/>
	<path id="path361" class="st0" d="M114.9,767l-2.6-0.4l-2.6-0.2h-4l-3.8,0.4l-3.6,0.8l-3.2,0.8l-2.6,0.8l-2.8,1l-2.8,1.2l-2.6,1.4
		l-2.4,1.6l-2.8,2l-2.8,2l-2.8,2.4l-2.4,2.4l-2.4,2.8l-2,2.6l-1.8,2.6l-1.8,3.4l-1.2,2.6l-1.4,3.2l-1.2,4.2l-0.4,3.4l-0.2,4l0.2,3.6
		l0.8,3.8l1.4,3.6l1.6,3.2l1.6,2l1.8,1.8l2.4,2l2.6,1.6l3,1.2l4.2,1.8l-4,0.2l-3.6-0.4l-3.4-0.6l-3.6-1l-4-1.8l-2.6-1.6l-2.4-2
		l-2.2-2.2l-2.2-3l-1.8-3.6l-1.2-3.8l-0.8-4.8v-5l0.8-4.8l1.2-4.6l1.6-3.4l1.6-3.2l2-3.2l2.2-3.4l2.8-3.6l2.2-2.4l2-2l2.8-2.2
		l3.4-2.6l4-2.4l4-2l3.6-1.6l4-1.2l3.4-1l2.2-0.6l1.4-0.2l1.2-0.2l1.4-0.2l3.2-0.2h2h2l2,0.2l1.6,0.4l2.6,0.8l3,1.2l0.8,0.4l1,0.6
		l0.8,0.6L114.9,767z"/>
	<path id="path363" class="st0" d="M114.9,767L114.9,767l-2.6-0.4l-2.6-0.2h-4l-3.8,0.4l-3.6,0.8l-3.2,0.8l-2.6,0.8l-2.8,1l-2.8,1.2
		l-2.6,1.4l-2.4,1.6l-2.8,2l-2.8,2l-2.8,2.4l-2.4,2.4l-2.4,2.8l-2,2.6l-1.8,2.6l-1.8,3.4l-1.2,2.6l-1.4,3.2l-1.2,4.2l-0.4,3.4
		l-0.2,4l0.2,3.6l0.8,3.8l1.4,3.6l1.6,3.2l1.6,2l1.8,1.8l2.4,2l2.6,1.6l3,1.2l4.2,1.8l-4,0.2l-3.6-0.4l-3.4-0.6l-3.6-1l-4-1.8
		l-2.6-1.6l-2.4-2l-2.2-2.2l-2.2-3l-1.8-3.6l-1.2-3.8l-0.8-4.8v-5l0.8-4.8l1.2-4.6l1.6-3.4l1.6-3.2l2-3.2l2.2-3.4l2.8-3.6l2.2-2.4
		l2-2l2.8-2.2l3.4-2.6l4-2.4l4-2l3.6-1.6l4-1.2l3.4-1l2.2-0.6l1.4-0.2l1.2-0.2l1.4-0.2l3.2-0.2h2h2l2,0.2l1.6,0.4l2.6,0.8l3,1.2
		l0.8,0.4l1,0.6l0.8,0.6L114.9,767l-1.2-1l-0.8-0.6l-1-0.6l-1-0.2l-3-1.2l-2.6-0.8l-1.6-0.4l-2-0.2h-2h-2l-3.2,0.2l-1.4,0.2
		l-1.2,0.2l-1.4,0.2l-2.2,0.6l-3.4,1l-4,1.2l-3.6,1.6l-4,2l-4,2.4l-3.4,2.6l-2.8,2.2l-2,2l-2.2,2.4l-2.8,3.6l-2.2,3.4l-2,3.2
		l-1.6,3.2l-1.6,3.4l-1.2,4.6l-0.8,4.8v5l0.8,4.8l1.2,3.8l1.8,3.6l2.2,3l2.2,2.2l2.4,2l2.6,1.6l4,1.8l3.6,1l3.4,0.6l3.6,0.4l4-0.2
		l-4.2-1.8l-3-1.2l-2.6-1.6l-2.4-2l-1.8-1.8l-1.6-2l-1.6-3.2l-1.4-3.6l-0.8-3.8l-0.2-3.6l0.2-4l0.4-3.4l1.2-4.2l1.4-3.2l1.2-2.6
		l1.8-3.4l1.8-2.6l2-2.6l2.4-2.8l2.4-2.4l2.8-2.4l2.8-2l2.8-2l2.4-1.6l2.6-1.4l2.8-1.2l2.8-1l2.6-0.8l3.2-0.8l3.6-0.8l3.8-0.4h4
		l2.6,0.2L114.9,767"/>
	<path id="path365" class="st0" d="M58.6,769.6l-1.8,1.6l-1.8,1.4l-2,2.2l-1.8,2l-1.8,1.8l-2.2,2.8l-1.4,2.2l-1.8,2.8l-1.6,3
		l-1.2,2.8l-1.2,2.8l-0.8,2.6l-0.8,2.8l-0.6,2.6l-0.2,2.8l-0.2,3.4l0.2,4.2c0,1.2,0.4,5,0.8,6.2l1.2,4l1,2.4l1,2.2l1.2,2l1.6,2
		l2.2,2.6c1.2,1.4,2.6,2.6,4.2,3.6c1.4,0.8,2.4,1.4,3.8,2.4l3,1.2l2.6,1l2.8,0.8l3,0.6l3,0.4l3,0.2h2.8l3-0.2l4-0.6l3.6-1l3.4-1
		l3.6-1.2l3.6-1.4l6.6-3.2l-0.4,0.8l-1.4,1.4l-2.6,2.2l-3,2.4l-3.4,2.2l-2.6,1.2l-2.4,1.2l-2.8,1.2l-2.2,1l-2.4,0.6l-2.2,0.8
		l-3.2,0.6l-3,0.4l-3,0.4l-4.6,0.2l-5-0.2l-2.8-0.2l-3-0.6l-3-1.2l-3.2-1l-3-1.6l-3.4-2.2l-2.2-1.6l-2.4-2.2l-2.4-2.8l-2-2.6
		l-1.6-2.6l-1.2-3.4l-1-3.6l-0.6-3.8l-0.2-4.4l0.2-5.8l0.6-3.6l1.2-4.4l1.4-4l1.6-3.6l2-3.8l2.6-4.4l3-4l3-3.6l3.4-3.6l3.4-3l3-2.4
		l2.8-2C55.9,770.4,57.8,768.4,58.6,769.6z"/>
	<path id="path367" class="st0" d="M58.6,769.6L58.6,769.6l-1.8,1.6V771l0.2,0.2l-1.6,1.6l-0.4-0.2l0.2,0.2l-2,2.2l-0.2-0.2l0.2,0.2
		l-1.8,2l0,0l0,0l-1.8,1.8l-0.2-0.2h0.2l-2.2,2.8h-0.2h0.2l-1.4,2.2l0,0l0,0l-1.8,2.8h-0.2h0.2l-1.6,3h-0.2h0.2l-1.2,2.8l-1.2,2.8
		h-0.2h0.2l-0.8,2.6h-0.2h0.2l-0.8,2.8h-0.2h0.2l-0.6,2.6h-0.2h0.2l-0.2,2.8l-0.2,3.4h-0.2h0.2l0.2,4.2c0,1.2,0.4,5,0.8,6.2l0,0l0,0
		l1.2,4h-0.2h0.2l1,2.4l1,2.2h-0.2h0.2l1.2,2h-0.2h0.2l1.6,2h-0.2h0.2l2.2,2.6c1.2,1.4,2.6,2.6,4.2,3.6c1.4,0.8,2.4,1.4,3.8,2.4v0.2
		v-0.2l3,1.2v0.2v-0.2l2.6,1v0.2v-0.2l2.8,0.8v0.2v-0.2l3,0.6v0.2v-0.2l3,0.4v0.2v-0.2l3,0.2v0.2v-0.2H75v0.2v-0.2l3-0.2v0.2v-0.2
		l4-0.6v0.2V844l3.6-1v0.2V843l3.4-1v0.2V842l3.6-1.2v0.2v-0.2l3.6-1.4v0.2v-0.2l6.6-3.2l0.4-0.2l-0.2,0.4l-0.4,0.8l0,0l0,0
		l-1.4,1.4l0,0l0,0l-2.6,2.2l0,0l0,0l-3,2.4l0,0l0,0l-3.4,2.2l0,0l0,0l-2.6,1.2v-0.2v0.2l-2.4,1.2l0,0l0,0l-2.8,1.2v-0.2v0.2l-2.2,1
		l0,0l0,0l-2.4,0.6v-0.2v0.2l-2.2,0.8l0,0l0,0l-3.2,0.6l0,0l0,0l-3,0.4l-3,0.4l0,0l0,0l-4.6,0.2l0,0l0,0l-5-0.2l0,0l0,0l-2.8-0.2
		l0,0l0,0l-3-0.6l0,0l0,0l-3-1.2v-0.2v0.2l-3.2-1l0,0l0,0l-3-1.6l0,0l0,0l-3.4-2.2l0,0l0,0l-2.2-1.6l0,0l0,0l-2.4-2.2l0,0l0,0
		l-2.4-2.8l0,0l0,0l-2-2.6l0,0l0,0l-1.6-2.6l0,0l0,0l-1.2-3.4l0,0l0,0l-1-3.6l0,0l0,0l-0.6-3.8l0,0l0,0l-0.2-4.4l0,0l0,0l0.2-5.8
		l0,0l0,0l0.6-3.6l0,0l0,0l1.2-4.4l0,0l0,0l1.4-4l0,0l0,0l1.6-3.6l0,0l0,0l2-3.8l0,0l0,0l2.6-4.4l0,0l0,0l3-4l0,0l0,0l3-3.6l0,0l0,0
		l3.4-3.6l0,0l0,0l3.4-3l0,0l0,0l3-2.4l0,0l0,0l2.8-2l0,0l0,0c0.8-0.4,2.2-2,3.2-2L58.6,769.6L58.6,769.6L58.6,769.6L58.6,769.6
		L58.6,769.6l-0.6-0.2c-0.8,0-2.2,1.4-3,1.8V771v0.2l-2.8,2V773v0.2l-3,2.4v-0.2v0.2l-3.4,3v-0.2l0.2,0.2l-3.4,3.6l-0.2-0.2h0.2
		l-3,3.6h-0.2h0.2l-3,4h-0.2h0.2l-2.6,4.4h-0.2h0.2l-2,3.8h-0.2h0.2l-1.6,3.6h-0.2h0.2l-1.4,4h-0.2h0.2l-1.2,4.4h-0.2h0.2l-0.6,3.6
		h-0.2h0.2l-0.2,5.8h-0.2h0.2l0.2,4.4h-0.2h0.2l0.6,3.8h-0.2h0.2l1,3.6h-0.2h0.2l1.2,3.4h-0.2h0.2l1.6,2.6h-0.2h0.2l2,2.6h-0.2
		l0.2-0.2l2.4,2.8l-0.2,0.2l0.2-0.2l2.4,2.2l-0.2,0.2v-0.2l2.2,1.6v0.2v-0.2l3.4,2.2v0.2V848l3,1.6v0.2v-0.2l3.2,1l0,0l0,0l3,1.2
		v0.2v-0.2l3,0.6v0.2v-0.2l2.8,0.2v0.2v-0.2l5,0.2v0.2v-0.2l4.6-0.2v0.2v-0.2l3-0.4l3-0.4v0.2v-0.2l3.2-0.6v0.2v-0.2l2.2-0.8l0,0
		l0,0l2.4-0.6v0.2v-0.2l2.2-1l0,0l0,0l2.8-1.2v0.2v-0.2l2.4-1.2l0,0l0,0l2.6-1.2v0.2v-0.2l3.4-2.2v0.2V843l3-2.4v0.2v-0.2l2.6-2.2
		v0.2l-0.2-0.2l1.4-1.4l0.2,0.2h-0.2l0.4-0.8h0.2v0.2l-6.6,3.2l0,0l0,0l-3.6,1.4l0,0l0,0l-3.6,1.2l0,0l0,0l-3.4,1l0,0l0,0l-3.6,1
		l0,0l0,0l-4,0.6l0,0l0,0l-3,0.2l0,0l0,0h-2.8l0,0l0,0l-3-0.2l0,0l0,0l-3-0.4l0,0l0,0l-3-0.6l0,0l0,0l-2.8-0.8l0,0l0,0l-2.6-1l0,0
		l0,0l-3-1.2l0,0l0,0c-1.4-0.8-2.4-1.4-3.8-2.4c-1.6-1-3-2.2-4.2-3.6l-2.2-2.6l0,0l0,0l-1.6-2l0,0l0,0l-1.2-2l0,0l0,0l-1-2.2l-1-2.4
		l0,0l0,0l-1.2-4h0.2h-0.2c-0.4-1.2-0.8-5-0.8-6.4h0.2h-0.2l-0.2-4.2l0,0l0,0l0.2-3.4l0.2-2.8l0,0l0,0l0.6-2.6l0,0l0,0l0.8-2.8l0,0
		l0,0l0.8-2.6l0,0l0,0l1.2-2.8l1.2-2.8l0,0l0,0l1.6-3l0,0l0,0l1.8-2.8h0.2h-0.2l1.4-2.2l0,0l0,0l2.2-2.8l0,0l0,0l1.8-1.8l0.2,0.2
		l-0.2-0.2l1.8-2l0,0l0,0l2-2.2l0,0l0,0l1.6-1.6l0,0l0,0L58.6,769.6L58.6,769.6L58.6,769.6L58.6,769.6"/>
	<path id="path369" class="st0" d="M206.6,813.8h2.6h1.2l1.6,0.2l1.8,0.4l1.8,0.6l1.8,0.8l1.6,1l1.6,1.2l1.2,1.4l1.2,1.6l1,1.8
		l0.8,1.6l0.8,2l0.6,1.8l0.4,1.8v1.4v2l-4,5h-16v-7H218v-1.2l-0.2-1.6l-0.8-1.2l-0.8-1.4l-1-1.4l-1.2-1l-1.2-0.8L211,822l-1.6-0.4
		l-1.4-0.2h-1.4V813.8z M206.6,855.5h0.2l1,0.2h2.6l2.2-0.2l2-0.4l1.8-0.8l2.2-1.2l1.8-1.2l2-1.8l4.8,5.4l-1.6,1.6l-1.6,1.4l-2,1.2
		l-2.2,1.4l-2.4,1l-2.4,0.6l-3,0.6l-2,0.2h-3.4V855.5z M191.1,822l1.6-1.8l2-1.8l2-1.4l2-1l2-0.8l2-0.6l1.8-0.4l1.6-0.2h0.6v7.2h-1
		l-1.4,0.2l-1.4,0.4l-1.6,0.8l-1.4,1l-1.4,1.2l-1.2,1.4l-0.8,1.2l-0.8,1.2l-0.4,1l-0.2,1v1h11.6v7h-12.2v2v1v1.2l0.2,1.4l0.4,1.4
		l0.8,1.6l1.2,2l1.6,2l1.6,1.4l2,1.2l1.8,0.8l1.4,0.6l1,0.2v7.8H206l-1.8-0.2l-1.8-0.4l-2.2-0.8l-2.8-1.2l-1.8-1l-1.8-1.4l-2-1.8
		l-1.6-1.8l-1.2-1.8l-1-1.8l-1-2.4l-0.8-2.4l-0.6-2.4l-0.2-2.6l-0.2-2.8l0.2-3l0.4-2.4l0.4-2.4l0.6-2.4l1-2.4l1.2-2.4L191.1,822z"/>
	<path id="path371" class="st0" d="M191.1,822l1.6-1.8l2-1.8l2-1.4l2-1l2-0.8l2-0.6l1.8-0.4l1.6-0.2h3.2h1.2l1.6,0.2l1.8,0.4
		l1.8,0.6l1.8,0.8l1.6,1l1.6,1.2l1.2,1.4l1.2,1.6l1,1.8l0.8,1.6l0.8,2l0.6,1.8l0.4,1.8v1.4v2l-4,5h-28.1v2v1v1.2l0.2,1.4l0.4,1.4
		l0.8,1.6l1.2,2l1.6,2l1.6,1.4l2,1.2l1.8,0.8l1.4,0.6l1.2,0.2l1,0.2h2.6l2.2-0.2l2-0.4l1.8-0.8l2.2-1.2l1.8-1.2l2-1.8l4.8,5.4
		l-1.6,1.6l-1.6,1.4l-2,1.2l-2.2,1.4l-2.4,1l-2.4,0.6l-3,0.6l-2,0.2h-3.6l-1.8-0.2l-1.8-0.4l-2.2-0.8l-2.8-1.2l-1.8-1l-1.8-1.4
		l-2-1.8l-1.6-1.8l-1.2-1.8l-1-1.8l-1-2.4l-0.8-2.4l-0.6-2.4l-0.2-2.6l-0.2-2.8l0.2-3l0.4-2.4l0.4-2.4l0.6-2.4l1-2.4l1.2-2.4
		L191.1,822z M195.3,831.6h22.9v-1.2l-0.2-1.6l-0.8-1.2l-0.8-1.4l-1-1.4l-1.2-1L213,823l-1.8-0.8l-1.6-0.4l-1.4-0.2h-2.6l-1.4,0.2
		l-1.4,0.4l-1.6,0.8l-1.4,1l-1.4,1.2l-1.2,1.4l-0.8,1.2l-0.8,1.2l-0.4,1l-0.2,1v0.6H195.3z"/>
	<path id="path373" class="st0" d="M629.6,810.9h2h1.6l1.6,0.2l1.8,0.4l1.6,0.6l1.8,0.8l1.8,1l1.6,1.2l1.4,1.4l1,1.6l1.2,1.8
		l0.8,1.6l0.8,2l0.6,1.8l0.4,1.8l0.2,1.6v1.4l-4.2,5H630v-6.6h11.4v-1.2l-0.2-0.8l-0.2-1l-0.6-1.2l-0.6-1.2l-1-1.4l-1.2-1.2l-1.4-1
		l-1.6-0.8L633,818l-1.6-0.2H630v-7H629.6z M629.6,852.5l1.2,0.2h2.6l1.8-0.2l1.8-0.4l2-0.6l2-1.2l2.2-1.4l2-1.6l4.6,5.2l-1.6,1.6
		l-1.8,1.4l-1.8,1.2l-2.2,1.2l-2.2,1l-2,0.8l-1.8,0.4l-1.6,0.2l-2,0.2h-3h-0.2L629.6,852.5L629.6,852.5z M610.1,826l0.6-1.8l1-1.8
		l1-1.8l1-1.4l1.2-1.4l1.2-1.2l1.2-1.2l1.8-1.2l2-1.2l2-0.8l1.8-0.6l1.8-0.4l2-0.2h1v7.2h-0.8l-1.4,0.2l-1.6,0.4l-1.8,1l-1.4,1
		l-1.2,1.2l-1.2,1.4l-0.8,1.4l-0.6,1.4l-0.2,1.2l-0.2,1.2h11.4v7h-12.4v2.4l0.2,2.2l0.4,2l0.8,2l0.8,1.6l1,1.4l1,1.2l1,1l1.2,1
		l1.2,0.6l1.8,0.8l1.8,0.6l1,0.2v8l-1.4-0.2l-2.4-0.6l-2.8-0.8l-2.8-1.2l-1.8-1l-2-1.4l-1.8-1.8l-1.6-1.8l-1.2-1.8l-1-1.8l-1-2.4
		l-0.8-2.2l-0.4-2l-0.2-2l-0.2-1.8v-4.2l0.2-1.6l0.2-2l0.6-2.2L610.1,826z"/>
	<path id="path375" class="st0" d="M610.1,826l0.6-1.8l1-1.8l1-1.8l1-1.4l1.2-1.4l1.2-1.2l1.2-1.2l1.8-1.2l2-1.2l2-0.8l1.8-0.6
		l1.8-0.4l2-0.2h3h1.6l1.6,0.2l1.8,0.4l1.6,0.6l1.8,0.8l1.8,1l1.6,1.2l1.4,1.4l1,1.6l1.2,1.8l0.8,1.6l0.8,2l0.6,1.8l0.4,1.8l0.2,1.6
		v1.4l-4.2,5h-28.1v2.4l0.2,2.2l0.4,2l0.8,2l0.8,1.6l1,1.4l1,1.2l1,1l1.2,1l1.2,0.6l1.8,0.8l1.8,0.6l2.2,0.2h2.6l1.8-0.2l1.8-0.4
		l2-0.6l2-1.2l2.2-1.4l2-1.6l4.6,5.2l-1.6,1.6l-1.8,1.4l-1.8,1.2l-2.2,1.2l-2.2,1l-2,0.8l-1.8,0.4l-1.6,0.2l-2,0.2h-3l-1.6-0.2
		l-2.4-0.6l-2.8-0.8l-2.8-1.2l-1.8-1l-2-1.4l-1.8-1.8l-1.6-1.8l-1.2-1.8l-1-1.8l-1-2.4l-0.8-2.2l-0.4-2l-0.2-2l-0.2-1.8V833l0.2-1.6
		l0.2-2l0.6-2.2L610.1,826z M641,828.4v-1.2l-0.2-0.8l-0.2-1l-0.6-1.2l-0.6-1.2l-1-1.4l-1.2-1.2l-1.4-1l-1.6-0.8l-1.6-0.6l-1.6-0.2
		h-2.2l-1.4,0.2l-1.6,0.4l-1.8,1l-1.4,1l-1.2,1.2l-1.2,1.4l-0.8,1.4l-0.6,1.4l-0.2,1.2l-0.2,1.2H641V828.4z"/>
	<path id="path377" class="st0" d="M475.5,837.2L475.5,837.2l0.2,13.2l0,0l0,0l-1.2,0.8l0,0l0,0l-1.2,0.8l0,0l0,0l-1.4,0.6l-1.6,0.6
		l0,0l0,0l-1.8,0.6l0,0l0,0l-1.6,0.2l0,0l0,0h-2l0,0l0,0l-1.6-0.2l0,0l0,0l-1.4-0.6l0,0l0,0l-1.2-0.8l0,0l0,0l-1-1l0,0l0,0l-0.6-1.2
		l0,0l0,0l-0.4-1l0,0l0,0V848l0,0l0,0v-1.8l0,0l0,0l0.2-1.2l0,0l0,0l0.6-1.2l0,0l0,0l0.8-1.4l0,0l0,0l1-1l0,0l0,0l1.2-0.8l0,0l0,0
		l1.2-0.6l0,0l0,0l1.2-0.4l1.2-0.6l0,0l0,0l1.4-0.4l0,0l0,0l1.4-0.4l0,0l0,0l1.4-0.2l1.2-0.2l0,0l0,0l1.6-0.2v0.2v-0.2l1.4-0.2l0,0
		l0,0L475.5,837.2L475.5,837.2L475.5,837.2L475.5,837.2L475.5,837.2l-1.8,0.2v-0.2v0.2l-1.4,0.2l0,0l0,0l-1.6,0.2v-0.2v0.2l-1.2,0.2
		l-1.4,0.2V838v0.2l-1.4,0.4v-0.2v0.2l-1.4,0.4v-0.2v0.2l-1.2,0.6l-1.2,0.4v-0.2l0,0l-1.2,0.6l0,0l0,0l-1.2,0.8l0,0l0,0l-1,1l0,0
		l0,0l-0.8,1.4l0,0h0.2l-0.6,1.2h-0.2h0.2l-0.2,1.2h-0.2h0.2v1.8h-0.2h0.2v1.2h-0.2l0,0l0.4,1l0,0l0,0l0.6,1.2l0,0l0,0l1,1l0,0l0,0
		l1.2,0.8l0,0v-0.2l1.4,0.6v0.2v-0.2l1.6,0.2v0.2v-0.2h2v0.2v-0.2l1.6-0.2v0.2v-0.2l1.8-0.6v0.2v-0.2l1.6-0.6l1.4-0.6l0,0l0,0
		l1.2-0.8l0,0l0,0l1.2-0.8l0,0h-0.2L475.5,837.2L475.5,837.2L475.5,837.2L475.5,837.2"/>
	<path id="path379" class="st0" d="M466.7,819.8h0.4h2.2l1.4,0.2l1.2,0.6l0.8,0.4l0.8,0.6l0.8,0.8l0.6,0.8l0.4,0.8l0.2,0.8l0.2,1.2
		v1.8v2.4l-2.8,0.4l-2.4,0.2l-2.2,0.2l-1.4,0.2v7.2l1.2-0.4l1.4-0.2l1.2-0.2l1.6-0.2l1.4-0.2h1.8v13.2l-1.2,0.8l-1.2,0.8l-1.4,0.6
		l-1.6,0.6l-1.8,0.6l-1.6,0.2v7.8h0.8l1.2-0.2l2.4-0.8l2.4-1l2.2-1.4l1.6-1l1.4,1.6l1,1l1,0.8l1,0.4l1.6,0.2h2.6l2-0.2l1-0.4
		l0.6-0.8l0.2-0.8v-1.8v-1.6l0.2-1.8l-0.8,0.2l-1.4,0.2h-1.2l-1-0.4l-0.8-0.6l-0.6-0.8l-0.2-1v-0.6v-25.5l-0.2-1.8l-0.2-2.2l-0.6-2
		l-0.6-1.2l-1-1.6l-1.2-1.2l-1.6-1.2l-1.8-0.8l-2-0.8l-2-0.4l-2.4-0.2h-2.6h-1.2v7.8H466.7z M453.9,824.4l2.4-1.6l2-1l1.6-0.6
		l1.8-0.6l2-0.4l1.8-0.2h1.4v-7.8h-1l-2.4,0.4l-2.4,0.6l-2.8,1l-2.2,1l-2,1v8.2H453.9z M466.7,831.2h-0.2l-1.4,0.2l-1.6,0.4
		l-2.2,0.6l-1.6,0.6l-2,0.8l-2,1.2l-1.2,1l-1.6,1.4l-1.2,1.4l-1,2l-0.8,2.4l-0.4,2.6l-0.2,2.4l0.2,2.2l0.4,1.6l0.6,1.6l0.8,1.8
		l1,1.4l1,1.2l1.6,1.2l1.6,1l1.4,0.6l1.2,0.4l1.4,0.2l2,0.2h3.4l0.8-0.2v-7.8l0,0h-2l-1.6-0.2l-1.4-0.6l-1.2-0.8l-1-1l-0.6-1.2
		l-0.4-1v-1.2v-1.8l0.2-1.2l0.6-1.2l0.8-1.4l1-1l1.2-0.8l1.2-0.6l1.2-0.4l1.2-0.6l1.4-0.4h0.2v-7H466.7z"/>
	<path id="path381" class="st0" d="M453.9,824.4l2.4-1.6l2-1l1.6-0.6l1.8-0.6l2-0.4l1.8-0.2l1.8-0.2h2.2l1.4,0.2l1.2,0.6l0.8,0.4
		l0.8,0.6l0.8,0.8l0.6,0.8l0.4,0.8l0.2,0.8l0.2,1.2v1.8v2.4l-2.8,0.4l-2.4,0.2l-2.2,0.2l-1.8,0.2l-1.4,0.2l-1.6,0.4l-2.2,0.6
		l-1.6,0.6l-2,0.8l-2,1.2l-1.2,1l-1.6,1.4l-1.2,1.4l-1,2l-0.8,2.4l-0.4,2.6l-0.2,2.4l0.2,2.2l0.4,1.6l0.6,1.6l0.8,1.8l1,1.4l1,1.2
		l1.6,1.2l1.6,1l1.4,0.6l1.2,0.4l1.4,0.2l2,0.2h3.4l1.8-0.2l1.2-0.2l2.4-0.8l2.4-1l2.2-1.4l1.6-1l1.4,1.6l1,1l1,0.8l1,0.4l1.6,0.2
		h2.6l2-0.2l1-0.4l0.6-0.8l0.2-0.8v-1.8v-1.6l0.2-1.8l-0.8,0.2l-1.4,0.2h-1.2l-1-0.4l-0.8-0.6l-0.6-0.8l-0.2-1v-0.6V825l-0.2-1.8
		l-0.2-2.2l-0.6-2l-0.6-1.2l-1-1.6l-1.2-1.2l-1.6-1.2l-1.8-0.8l-2-0.8l-2-0.4l-2.4-0.2h-2.6l-2.2,0.2l-2.4,0.4l-2.4,0.6l-2.8,1
		l-2.2,1l-2,1v8.6H453.9z M475.5,837.2v13.2l-1.2,0.8l-1.2,0.8l-1.4,0.6l-1.6,0.6l-1.8,0.6l-1.6,0.2h-2l-1.6-0.2l-1.4-0.6l-1.2-0.8
		l-1-1l-0.6-1.2l-0.4-1V848v-1.8l0.2-1.2l0.6-1.2l0.8-1.4l1-1l1.2-0.8l1.2-0.6l1.2-0.4l1.2-0.6l1.4-0.4l1.4-0.4l1.4-0.2l1.2-0.2
		l1.6-0.2l1.4-0.2L475.5,837.2z"/>
	<path id="path383" class="st0" d="M280.8,817l1,0.6l0.8,0.2l0.6-1l1-1.6l6.8,3l-0.4,0.8l-0.6,1.2l-0.4,1l-0.4,1.2l-0.2,1.4
		l-0.4,1.8l-0.2,1.6v41.9v1l-0.2,1l-0.4,1.2l-0.6,1.2l-0.6,1l-0.8,1.2l-1,1.2l-1,1.2l-1.2,1.2l-1,1l-1.2,0.8l-1.2,0.8l-1.6,0.8
		l-1.8,0.8l-1.6,0.6l-1.8,0.4l-1.8,0.2l-1,0.2h-1.2v-7.4h0.8l1.6-0.2l1.4-0.4l1.6-0.8l2-1.2l1.6-1.4l1-1.4l0.8-1.2l0.6-1.4l0.6-1.6
		l0.2-1.8v-5.8l-0.6-0.2l-1,0.6l-0.8,0.6l-1.2,0.6l-1,0.4l-1.2,0.4l-1.4,0.4l-1.8,0.2h-1.2h-2v-7.8h0.8h2.2l1-0.2l1.2-0.2l2-0.8
		l1.6-1l1.4-1l1.2-1.2l0.6-1l0.6-1.2l0.2-0.6v-0.6V832l-0.2-1l-0.2-0.8l-0.2-1l-0.4-1l-0.8-1.6l-1.2-1.6l-1.4-1.4l-1.8-1l-1.8-0.6
		l-1.6-0.4l-1.6-0.2h-1.8v-7.6h1h1.6l1.6,0.2l1.6,0.2l1.8,0.6l1.6,0.6l1.2,0.6l1.2,0.8L280.8,817z M268.4,884.8h-2l-1.8-0.2
		l-2.2-0.2l-2-0.6l-1.8-0.6l-2.6-1.2l-1.2-0.8l-1.2-0.8l-1.6-1l-1.2-1l4.8-5.6l1,0.8l1.6,1l1.4,0.8l2,0.8l1.8,0.6l2,0.6l1.2,0.2h1.6
		h0.2V884.8z M268.4,863.1h-0.2l-1.4-0.2l-1.6-0.2l-1.6-0.4l-2-0.6l-1.8-0.8l-1.6-1l-1.8-1.2l-1.8-1.6l-1.6-1.6l-1.8-2.4l-1-1.8
		l-1-2.6l-0.8-2.4l-0.4-2.2l-0.2-2v-2v-2.8v-1.8l0.2-2l0.4-2.4l0.4-2.2l0.6-1.8l1-2.2l1.4-2l1.6-2.2l1.2-1.2l1.4-1.4l1.6-1.2
		l1.4-0.8l1.6-0.8l1.2-0.6l1.4-0.4l1.6-0.4l1.6-0.2l1.8-0.2h0.2v7.6h-0.2l-2,0.2l-2.2,0.8l-1.6,1l-1.2,1l-1.2,1.2l-0.8,1.2l-1,1.6
		l-0.8,1.4l-0.4,1.8l-0.4,1.6l-0.2,2.2l-0.2,1.4v1.4v1.6l0.2,1.8l0.2,1.8l0.4,1.4l0.6,1.8l0.8,1.8l1,1.6l1.2,1.4l1.2,1.2l1.2,0.8
		l1.4,1.2l1.2,0.6l1.6,0.4l1.2,0.2V863.1z"/>
	<path id="path385" class="st0" d="M280.8,817l1,0.6l0.8,0.2l0.6-1l1-1.6l6.8,3l-0.4,0.8l-0.6,1.2l-0.4,1l-0.4,1.2l-0.2,1.4
		l-0.4,1.8l-0.2,1.6v41.9v1l-0.2,1l-0.4,1.2l-0.6,1.2l-0.6,1l-0.8,1.2l-1,1.2l-1,1.2l-1.2,1.2l-1,1l-1.2,0.8l-1.2,0.8l-1.6,0.8
		l-1.8,0.8l-1.6,0.6l-1.8,0.4l-1.8,0.2l-1,0.2h-3.2l-1.8-0.2l-2.2-0.2l-2-0.6l-1.8-0.6l-2.6-1.2l-1.2-0.8l-1.2-0.8l-1.6-1l-1.2-1
		l4.8-5.6l1,0.8l1.6,1l1.4,0.8l2,0.8l1.8,0.6l2,0.6l1.2,0.2h1.6h1.2l1.6-0.2l1.4-0.4l1.6-0.8l2-1.2l1.6-1.4l1-1.4l0.8-1.2l0.6-1.4
		l0.6-1.6l0.2-1.8v-5.8l-0.6-0.2l-1,0.6l-0.8,0.6l-1.2,0.6l-1,0.4l-1.2,0.4l-1.4,0.4l-1.8,0.2h-1.2h-2.4l-1.4-0.2l-1.6-0.2l-1.6-0.4
		l-2-0.6l-1.8-0.8l-1.6-1l-1.8-1.2l-1.8-1.6l-1.6-1.6l-1.8-2.4l-1-1.8l-1-2.6l-0.8-2.8l-0.4-2.2l-0.2-2v-2v-2.8v-1.8l0.2-2l0.4-2.4
		l0.4-2.2l0.6-1.8l1-2.2l1.4-2l1.6-2.2l1.2-1.2l1.4-1.4l1.6-1.2l1.4-0.8l1.6-0.8l1.2-0.6l1.4-0.4l1.6-0.4l1.6-0.2l1.8-0.2h1.6h1.6
		l1.6,0.2l1.6,0.2l1.8,0.6l1.6,0.6l1.2,0.6l1.2,0.8L280.8,817z M268.2,821l-2,0.2l-2.2,0.8l-1.6,1l-1.2,1l-1.2,1.2l-0.8,1.2l-1,1.6
		l-0.8,1.4l-0.4,1.8l-0.4,1.6l-0.2,2.2l-0.2,1.4v1.4v1.6l0.2,1.8l0.2,1.8l0.4,1.4l0.6,1.8l0.8,1.8l1,1.6l1.2,1.4l1.2,1.2l1.2,0.8
		l1.4,1.4l1.2,0.6l1.6,0.4l2,0.2h2.2l1-0.2l1.2-0.2l2-0.8l1.6-1l1.4-1l1.2-1.2l0.6-1l0.6-1.2l0.2-0.6v-0.6V832l-0.2-1l-0.2-0.8
		l-0.2-1l-0.4-1l-0.8-1.6l-1.2-1.6l-1.4-1.4l-1.8-1l-1.8-0.6l-1.6-0.4l-1.6-0.2L268.2,821z"/>
	<path id="path387" class="st0" d="M718.8,804.3v-1.8h1c0.6,0,1.4,0,1.4,0.8c0,0.8-0.4,1-1,1H718.8z M718.8,805.5h0.8l1.6,3h1.8
		l-1.8-3.2c1,0,1.8-0.6,1.8-1.8c0-1.6-1-2.2-3-2.2h-2.6v7.2h1.6v-3H718.8z M726.5,805.1c0-4.2-3.2-6.6-6.8-6.6s-6.8,2.4-6.8,6.6
		c0,4.2,3.2,6.6,6.8,6.6C723.5,811.7,726.5,809.3,726.5,805.1z M724.7,805.1c0,3-2.2,5.2-4.8,5.2l0,0c-2.6,0-4.8-2-4.8-5.2
		c0-3,2.2-5.2,4.8-5.2C722.5,799.9,724.7,801.9,724.7,805.1z"/>
</g>
</svg>
